%TF.GenerationSoftware,KiCad,Pcbnew,9.0.0*%
%TF.CreationDate,2025-05-23T20:49:54-07:00*%
%TF.ProjectId,adapter_pcb,61646170-7465-4725-9f70-63622e6b6963,rev?*%
%TF.SameCoordinates,Original*%
%TF.FileFunction,Paste,Top*%
%TF.FilePolarity,Positive*%
%FSLAX46Y46*%
G04 Gerber Fmt 4.6, Leading zero omitted, Abs format (unit mm)*
G04 Created by KiCad (PCBNEW 9.0.0) date 2025-05-23 20:49:54*
%MOMM*%
%LPD*%
G01*
G04 APERTURE LIST*
%ADD10R,0.700000X0.700000*%
G04 APERTURE END LIST*
D10*
%TO.C,J5_breakoutR1*%
X132000000Y-71000000D03*
X132000000Y-72000000D03*
X132000000Y-73000000D03*
X132000000Y-74000000D03*
X132000000Y-75000000D03*
X132000000Y-76000000D03*
X132000000Y-77000000D03*
X132000000Y-78000000D03*
X132000000Y-79000000D03*
X132000000Y-80000000D03*
X132000000Y-81000000D03*
X132000000Y-82000000D03*
X132000000Y-83000000D03*
X132000000Y-84000000D03*
X132000000Y-85000000D03*
X132000000Y-86000000D03*
X132000000Y-87000000D03*
X132000000Y-88000000D03*
X132000000Y-89000000D03*
X132000000Y-90000000D03*
%TD*%
%TO.C,J1*%
X116500000Y-91500000D03*
X117500000Y-91500000D03*
X118500000Y-91500000D03*
X119500000Y-91500000D03*
X120500000Y-91500000D03*
X121500000Y-91500000D03*
X122500000Y-91500000D03*
X123500000Y-91500000D03*
X124500000Y-91500000D03*
X125500000Y-91500000D03*
%TD*%
%TO.C,J3_breakoutL1*%
X110050000Y-71000000D03*
X110050000Y-72000000D03*
X110050000Y-73000000D03*
X110050000Y-74000000D03*
X110050000Y-75000000D03*
X110050000Y-76000000D03*
X110050000Y-77000000D03*
X110050000Y-78000000D03*
X110050000Y-79000000D03*
X110050000Y-80000000D03*
X110050000Y-81000000D03*
X110050000Y-82000000D03*
X110050000Y-83000000D03*
X110050000Y-84000000D03*
X110050000Y-85000000D03*
X110050000Y-86000000D03*
X110050000Y-87000000D03*
X110050000Y-88000000D03*
X110050000Y-89000000D03*
X110050000Y-90000000D03*
%TD*%
M02*
