%TF.GenerationSoftware,KiCad,Pcbnew,9.0.0*%
%TF.CreationDate,2025-05-23T20:49:54-07:00*%
%TF.ProjectId,adapter_pcb,61646170-7465-4725-9f70-63622e6b6963,rev?*%
%TF.SameCoordinates,Original*%
%TF.FileFunction,Soldermask,Top*%
%TF.FilePolarity,Negative*%
%FSLAX46Y46*%
G04 Gerber Fmt 4.6, Leading zero omitted, Abs format (unit mm)*
G04 Created by KiCad (PCBNEW 9.0.0) date 2025-05-23 20:49:54*
%MOMM*%
%LPD*%
G01*
G04 APERTURE LIST*
%ADD10C,0.800000*%
%ADD11C,6.400000*%
%ADD12R,1.700000X1.700000*%
%ADD13O,1.700000X1.700000*%
%ADD14R,0.700000X0.700000*%
G04 APERTURE END LIST*
D10*
%TO.C,REF\u002A\u002A*%
X128920000Y-60500000D03*
X129622944Y-58802944D03*
X129622944Y-62197056D03*
X131320000Y-58100000D03*
D11*
X131320000Y-60500000D03*
D10*
X131320000Y-62900000D03*
X133017056Y-58802944D03*
X133017056Y-62197056D03*
X133720000Y-60500000D03*
%TD*%
%TO.C,REF\u002A\u002A*%
X108920000Y-100500000D03*
X109622944Y-98802944D03*
X109622944Y-102197056D03*
X111320000Y-98100000D03*
D11*
X111320000Y-100500000D03*
D10*
X111320000Y-102900000D03*
X113017056Y-98802944D03*
X113017056Y-102197056D03*
X113720000Y-100500000D03*
%TD*%
D12*
%TO.C,J5*%
X144000000Y-61500000D03*
D13*
X144000000Y-64040000D03*
X144000000Y-66580000D03*
X144000000Y-69120000D03*
X144000000Y-71660000D03*
X144000000Y-74200000D03*
X144000000Y-76740000D03*
X144000000Y-79280000D03*
X144000000Y-81820000D03*
X144000000Y-84360000D03*
X144000000Y-86900000D03*
X144000000Y-89440000D03*
X144000000Y-91980000D03*
X144000000Y-94520000D03*
X144000000Y-97060000D03*
X144000000Y-99600000D03*
%TD*%
D14*
%TO.C,J5_breakoutR1*%
X132000000Y-71000000D03*
X132000000Y-72000000D03*
X132000000Y-73000000D03*
X132000000Y-74000000D03*
X132000000Y-75000000D03*
X132000000Y-76000000D03*
X132000000Y-77000000D03*
X132000000Y-78000000D03*
X132000000Y-79000000D03*
X132000000Y-80000000D03*
X132000000Y-81000000D03*
X132000000Y-82000000D03*
X132000000Y-83000000D03*
X132000000Y-84000000D03*
X132000000Y-85000000D03*
X132000000Y-86000000D03*
X132000000Y-87000000D03*
X132000000Y-88000000D03*
X132000000Y-89000000D03*
X132000000Y-90000000D03*
%TD*%
D12*
%TO.C,J1_MB1*%
X98350000Y-61500000D03*
D13*
X98350000Y-64040000D03*
X98350000Y-66580000D03*
X98350000Y-69120000D03*
X98350000Y-71660000D03*
X98350000Y-74200000D03*
X98350000Y-76740000D03*
X98350000Y-79280000D03*
X98350000Y-81820000D03*
X98350000Y-84360000D03*
X98350000Y-86900000D03*
X98350000Y-89440000D03*
X98350000Y-91980000D03*
X98350000Y-94520000D03*
X98350000Y-97060000D03*
X98350000Y-99600000D03*
%TD*%
D12*
%TO.C,J2_MB1*%
X141500000Y-61500000D03*
D13*
X141500000Y-64040000D03*
X141500000Y-66580000D03*
X141500000Y-69120000D03*
X141500000Y-71660000D03*
X141500000Y-74200000D03*
X141500000Y-76740000D03*
X141500000Y-79280000D03*
X141500000Y-81820000D03*
X141500000Y-84360000D03*
X141500000Y-86900000D03*
X141500000Y-89440000D03*
X141500000Y-91980000D03*
X141500000Y-94520000D03*
X141500000Y-97060000D03*
X141500000Y-99600000D03*
%TD*%
D12*
%TO.C,J3*%
X101000000Y-61500000D03*
D13*
X101000000Y-64040000D03*
X101000000Y-66580000D03*
X101000000Y-69120000D03*
X101000000Y-71660000D03*
X101000000Y-74200000D03*
X101000000Y-76740000D03*
X101000000Y-79280000D03*
X101000000Y-81820000D03*
X101000000Y-84360000D03*
X101000000Y-86900000D03*
X101000000Y-89440000D03*
X101000000Y-91980000D03*
X101000000Y-94520000D03*
X101000000Y-97060000D03*
X101000000Y-99600000D03*
%TD*%
D14*
%TO.C,J1*%
X116500000Y-91500000D03*
X117500000Y-91500000D03*
X118500000Y-91500000D03*
X119500000Y-91500000D03*
X120500000Y-91500000D03*
X121500000Y-91500000D03*
X122500000Y-91500000D03*
X123500000Y-91500000D03*
X124500000Y-91500000D03*
X125500000Y-91500000D03*
%TD*%
%TO.C,J3_breakoutL1*%
X110050000Y-71000000D03*
X110050000Y-72000000D03*
X110050000Y-73000000D03*
X110050000Y-74000000D03*
X110050000Y-75000000D03*
X110050000Y-76000000D03*
X110050000Y-77000000D03*
X110050000Y-78000000D03*
X110050000Y-79000000D03*
X110050000Y-80000000D03*
X110050000Y-81000000D03*
X110050000Y-82000000D03*
X110050000Y-83000000D03*
X110050000Y-84000000D03*
X110050000Y-85000000D03*
X110050000Y-86000000D03*
X110050000Y-87000000D03*
X110050000Y-88000000D03*
X110050000Y-89000000D03*
X110050000Y-90000000D03*
%TD*%
D10*
%TO.C,REF\u002A\u002A*%
X108920000Y-60500000D03*
X109622944Y-58802944D03*
X109622944Y-62197056D03*
X111320000Y-58100000D03*
D11*
X111320000Y-60500000D03*
D10*
X111320000Y-62900000D03*
X113017056Y-58802944D03*
X113017056Y-62197056D03*
X113720000Y-60500000D03*
%TD*%
%TO.C,REF\u002A\u002A*%
X128920000Y-100500000D03*
X129622944Y-98802944D03*
X129622944Y-102197056D03*
X131320000Y-98100000D03*
D11*
X131320000Y-100500000D03*
D10*
X131320000Y-102900000D03*
X133017056Y-98802944D03*
X133017056Y-102197056D03*
X133720000Y-100500000D03*
%TD*%
M02*
