%TF.GenerationSoftware,KiCad,Pcbnew,9.0.0*%
%TF.CreationDate,2025-05-23T20:49:54-07:00*%
%TF.ProjectId,adapter_pcb,61646170-7465-4725-9f70-63622e6b6963,rev?*%
%TF.SameCoordinates,Original*%
%TF.FileFunction,Copper,L1,Top*%
%TF.FilePolarity,Positive*%
%FSLAX46Y46*%
G04 Gerber Fmt 4.6, Leading zero omitted, Abs format (unit mm)*
G04 Created by KiCad (PCBNEW 9.0.0) date 2025-05-23 20:49:54*
%MOMM*%
%LPD*%
G01*
G04 APERTURE LIST*
%TA.AperFunction,ComponentPad*%
%ADD10C,0.800000*%
%TD*%
%TA.AperFunction,ComponentPad*%
%ADD11C,6.400000*%
%TD*%
%TA.AperFunction,ComponentPad*%
%ADD12R,1.700000X1.700000*%
%TD*%
%TA.AperFunction,ComponentPad*%
%ADD13O,1.700000X1.700000*%
%TD*%
%TA.AperFunction,SMDPad,CuDef*%
%ADD14R,0.700000X0.700000*%
%TD*%
%TA.AperFunction,Conductor*%
%ADD15C,0.200000*%
%TD*%
G04 APERTURE END LIST*
D10*
%TO.P,REF\u002A\u002A,1*%
%TO.N,N/C*%
X128920000Y-60500000D03*
X129622944Y-58802944D03*
X129622944Y-62197056D03*
X131320000Y-58100000D03*
D11*
X131320000Y-60500000D03*
D10*
X131320000Y-62900000D03*
X133017056Y-58802944D03*
X133017056Y-62197056D03*
X133720000Y-60500000D03*
%TD*%
%TO.P,REF\u002A\u002A,1*%
%TO.N,N/C*%
X108920000Y-100500000D03*
X109622944Y-98802944D03*
X109622944Y-102197056D03*
X111320000Y-98100000D03*
D11*
X111320000Y-100500000D03*
D10*
X111320000Y-102900000D03*
X113017056Y-98802944D03*
X113017056Y-102197056D03*
X113720000Y-100500000D03*
%TD*%
D12*
%TO.P,J5,1,Pin_1*%
%TO.N,Net-(J1-Pin_1)*%
X144000000Y-61500000D03*
D13*
%TO.P,J5,2,Pin_2*%
%TO.N,Net-(J2_MB1-Pin_2)*%
X144000000Y-64040000D03*
%TO.P,J5,3,Pin_3*%
%TO.N,Net-(J2_MB1-Pin_3)*%
X144000000Y-66580000D03*
%TO.P,J5,4,Pin_4*%
%TO.N,Net-(J2_MB1-Pin_4)*%
X144000000Y-69120000D03*
%TO.P,J5,5,Pin_5*%
%TO.N,Net-(J2_MB1-Pin_5)*%
X144000000Y-71660000D03*
%TO.P,J5,6,Pin_6*%
%TO.N,Net-(J2_MB1-Pin_6)*%
X144000000Y-74200000D03*
%TO.P,J5,7,Pin_7*%
%TO.N,Net-(J2_MB1-Pin_7)*%
X144000000Y-76740000D03*
%TO.P,J5,8,Pin_8*%
%TO.N,Net-(J2_MB1-Pin_8)*%
X144000000Y-79280000D03*
%TO.P,J5,9,Pin_9*%
%TO.N,Net-(J2_MB1-Pin_9)*%
X144000000Y-81820000D03*
%TO.P,J5,10,Pin_10*%
%TO.N,Net-(J2_MB1-Pin_10)*%
X144000000Y-84360000D03*
%TO.P,J5,11,Pin_11*%
%TO.N,Net-(J2_MB1-Pin_11)*%
X144000000Y-86900000D03*
%TO.P,J5,12,Pin_12*%
%TO.N,Net-(J2_MB1-Pin_12)*%
X144000000Y-89440000D03*
%TO.P,J5,13,Pin_13*%
%TO.N,Net-(J2_MB1-Pin_13)*%
X144000000Y-91980000D03*
%TO.P,J5,14,Pin_14*%
%TO.N,Net-(J2_MB1-Pin_14)*%
X144000000Y-94520000D03*
%TO.P,J5,15,Pin_15*%
%TO.N,Net-(J2_MB1-Pin_15)*%
X144000000Y-97060000D03*
%TO.P,J5,16,Pin_16*%
%TO.N,Net-(J2_MB1-Pin_16)*%
X144000000Y-99600000D03*
%TD*%
D14*
%TO.P,J5_breakoutR1,1,Pin_1*%
%TO.N,Net-(J1-Pin_1)*%
X132000000Y-71000000D03*
%TO.P,J5_breakoutR1,2,Pin_2*%
%TO.N,Net-(J2_MB1-Pin_2)*%
X132000000Y-72000000D03*
%TO.P,J5_breakoutR1,3,Pin_3*%
%TO.N,Net-(J2_MB1-Pin_3)*%
X132000000Y-73000000D03*
%TO.P,J5_breakoutR1,4,Pin_4*%
%TO.N,Net-(J2_MB1-Pin_4)*%
X132000000Y-74000000D03*
%TO.P,J5_breakoutR1,5,Pin_5*%
%TO.N,Net-(J2_MB1-Pin_5)*%
X132000000Y-75000000D03*
%TO.P,J5_breakoutR1,6,Pin_6*%
%TO.N,Net-(J2_MB1-Pin_6)*%
X132000000Y-76000000D03*
%TO.P,J5_breakoutR1,7,Pin_7*%
%TO.N,Net-(J2_MB1-Pin_7)*%
X132000000Y-77000000D03*
%TO.P,J5_breakoutR1,8,Pin_8*%
%TO.N,Net-(J2_MB1-Pin_8)*%
X132000000Y-78000000D03*
%TO.P,J5_breakoutR1,9,Pin_9*%
%TO.N,Net-(J2_MB1-Pin_9)*%
X132000000Y-79000000D03*
%TO.P,J5_breakoutR1,10,Pin_10*%
%TO.N,Net-(J2_MB1-Pin_10)*%
X132000000Y-80000000D03*
%TO.P,J5_breakoutR1,11,Pin_11*%
%TO.N,Net-(J2_MB1-Pin_11)*%
X132000000Y-81000000D03*
%TO.P,J5_breakoutR1,12,Pin_12*%
%TO.N,Net-(J2_MB1-Pin_12)*%
X132000000Y-82000000D03*
%TO.P,J5_breakoutR1,13,Pin_13*%
%TO.N,Net-(J2_MB1-Pin_13)*%
X132000000Y-83000000D03*
%TO.P,J5_breakoutR1,14,Pin_14*%
%TO.N,Net-(J2_MB1-Pin_14)*%
X132000000Y-84000000D03*
%TO.P,J5_breakoutR1,15,Pin_15*%
%TO.N,Net-(J2_MB1-Pin_15)*%
X132000000Y-85000000D03*
%TO.P,J5_breakoutR1,16,Pin_16*%
%TO.N,Net-(J2_MB1-Pin_16)*%
X132000000Y-86000000D03*
%TO.P,J5_breakoutR1,17,Pin_17*%
%TO.N,unconnected-(J5_breakoutR1-Pin_17-Pad17)*%
X132000000Y-87000000D03*
%TO.P,J5_breakoutR1,18,Pin_18*%
%TO.N,unconnected-(J5_breakoutR1-Pin_18-Pad18)*%
X132000000Y-88000000D03*
%TO.P,J5_breakoutR1,19,Pin_19*%
%TO.N,unconnected-(J5_breakoutR1-Pin_19-Pad19)*%
X132000000Y-89000000D03*
%TO.P,J5_breakoutR1,20,Pin_20*%
%TO.N,unconnected-(J5_breakoutR1-Pin_20-Pad20)*%
X132000000Y-90000000D03*
%TD*%
D12*
%TO.P,J1_MB1,1,Pin_1*%
%TO.N,GND*%
X98350000Y-61500000D03*
D13*
%TO.P,J1_MB1,2,Pin_2*%
%TO.N,Net-(J1_MB1-Pin_2)*%
X98350000Y-64040000D03*
%TO.P,J1_MB1,3,Pin_3*%
%TO.N,Net-(J1_MB1-Pin_3)*%
X98350000Y-66580000D03*
%TO.P,J1_MB1,4,Pin_4*%
%TO.N,Net-(J1_MB1-Pin_4)*%
X98350000Y-69120000D03*
%TO.P,J1_MB1,5,Pin_5*%
%TO.N,Net-(J1_MB1-Pin_5)*%
X98350000Y-71660000D03*
%TO.P,J1_MB1,6,Pin_6*%
%TO.N,+250V*%
X98350000Y-74200000D03*
%TO.P,J1_MB1,7,Pin_7*%
%TO.N,+3.3V*%
X98350000Y-76740000D03*
%TO.P,J1_MB1,8,Pin_8*%
%TO.N,GND*%
X98350000Y-79280000D03*
%TO.P,J1_MB1,9,Pin_9*%
%TO.N,SCL4*%
X98350000Y-81820000D03*
%TO.P,J1_MB1,10,Pin_10*%
%TO.N,SDA4*%
X98350000Y-84360000D03*
%TO.P,J1_MB1,11,Pin_11*%
%TO.N,SCL3*%
X98350000Y-86900000D03*
%TO.P,J1_MB1,12,Pin_12*%
%TO.N,SDA3*%
X98350000Y-89440000D03*
%TO.P,J1_MB1,13,Pin_13*%
%TO.N,SCL2*%
X98350000Y-91980000D03*
%TO.P,J1_MB1,14,Pin_14*%
%TO.N,SDA2*%
X98350000Y-94520000D03*
%TO.P,J1_MB1,15,Pin_15*%
%TO.N,SCL1*%
X98350000Y-97060000D03*
%TO.P,J1_MB1,16,Pin_16*%
%TO.N,SDA1*%
X98350000Y-99600000D03*
%TD*%
D12*
%TO.P,J2_MB1,1,Pin_1*%
%TO.N,Net-(J1-Pin_1)*%
X141500000Y-61500000D03*
D13*
%TO.P,J2_MB1,2,Pin_2*%
%TO.N,Net-(J2_MB1-Pin_2)*%
X141500000Y-64040000D03*
%TO.P,J2_MB1,3,Pin_3*%
%TO.N,Net-(J2_MB1-Pin_3)*%
X141500000Y-66580000D03*
%TO.P,J2_MB1,4,Pin_4*%
%TO.N,Net-(J2_MB1-Pin_4)*%
X141500000Y-69120000D03*
%TO.P,J2_MB1,5,Pin_5*%
%TO.N,Net-(J2_MB1-Pin_5)*%
X141500000Y-71660000D03*
%TO.P,J2_MB1,6,Pin_6*%
%TO.N,Net-(J2_MB1-Pin_6)*%
X141500000Y-74200000D03*
%TO.P,J2_MB1,7,Pin_7*%
%TO.N,Net-(J2_MB1-Pin_7)*%
X141500000Y-76740000D03*
%TO.P,J2_MB1,8,Pin_8*%
%TO.N,Net-(J2_MB1-Pin_8)*%
X141500000Y-79280000D03*
%TO.P,J2_MB1,9,Pin_9*%
%TO.N,Net-(J2_MB1-Pin_9)*%
X141500000Y-81820000D03*
%TO.P,J2_MB1,10,Pin_10*%
%TO.N,Net-(J2_MB1-Pin_10)*%
X141500000Y-84360000D03*
%TO.P,J2_MB1,11,Pin_11*%
%TO.N,Net-(J2_MB1-Pin_11)*%
X141500000Y-86900000D03*
%TO.P,J2_MB1,12,Pin_12*%
%TO.N,Net-(J2_MB1-Pin_12)*%
X141500000Y-89440000D03*
%TO.P,J2_MB1,13,Pin_13*%
%TO.N,Net-(J2_MB1-Pin_13)*%
X141500000Y-91980000D03*
%TO.P,J2_MB1,14,Pin_14*%
%TO.N,Net-(J2_MB1-Pin_14)*%
X141500000Y-94520000D03*
%TO.P,J2_MB1,15,Pin_15*%
%TO.N,Net-(J2_MB1-Pin_15)*%
X141500000Y-97060000D03*
%TO.P,J2_MB1,16,Pin_16*%
%TO.N,Net-(J2_MB1-Pin_16)*%
X141500000Y-99600000D03*
%TD*%
D12*
%TO.P,J3,1,Pin_1*%
%TO.N,GND*%
X101000000Y-61500000D03*
D13*
%TO.P,J3,2,Pin_2*%
%TO.N,Net-(J1_MB1-Pin_2)*%
X101000000Y-64040000D03*
%TO.P,J3,3,Pin_3*%
%TO.N,Net-(J1_MB1-Pin_3)*%
X101000000Y-66580000D03*
%TO.P,J3,4,Pin_4*%
%TO.N,Net-(J1_MB1-Pin_4)*%
X101000000Y-69120000D03*
%TO.P,J3,5,Pin_5*%
%TO.N,Net-(J1_MB1-Pin_5)*%
X101000000Y-71660000D03*
%TO.P,J3,6,Pin_6*%
%TO.N,+250V*%
X101000000Y-74200000D03*
%TO.P,J3,7,Pin_7*%
%TO.N,+3.3V*%
X101000000Y-76740000D03*
%TO.P,J3,8,Pin_8*%
%TO.N,GND*%
X101000000Y-79280000D03*
%TO.P,J3,9,Pin_9*%
%TO.N,SCL4*%
X101000000Y-81820000D03*
%TO.P,J3,10,Pin_10*%
%TO.N,SDA4*%
X101000000Y-84360000D03*
%TO.P,J3,11,Pin_11*%
%TO.N,SCL3*%
X101000000Y-86900000D03*
%TO.P,J3,12,Pin_12*%
%TO.N,SDA3*%
X101000000Y-89440000D03*
%TO.P,J3,13,Pin_13*%
%TO.N,SCL2*%
X101000000Y-91980000D03*
%TO.P,J3,14,Pin_14*%
%TO.N,SDA2*%
X101000000Y-94520000D03*
%TO.P,J3,15,Pin_15*%
%TO.N,SCL1*%
X101000000Y-97060000D03*
%TO.P,J3,16,Pin_16*%
%TO.N,SDA1*%
X101000000Y-99600000D03*
%TD*%
D14*
%TO.P,J1,1,Pin_1*%
%TO.N,GND*%
X116500000Y-91500000D03*
%TO.P,J1,2,Pin_2*%
%TO.N,unconnected-(J1-Pin_2-Pad2)*%
X117500000Y-91500000D03*
%TO.P,J1,3,Pin_3*%
%TO.N,unconnected-(J1-Pin_3-Pad3)*%
X118500000Y-91500000D03*
%TO.P,J1,4,Pin_4*%
%TO.N,unconnected-(J1-Pin_4-Pad4)*%
X119500000Y-91500000D03*
%TO.P,J1,5,Pin_5*%
%TO.N,unconnected-(J1-Pin_5-Pad5)*%
X120500000Y-91500000D03*
%TO.P,J1,6,Pin_6*%
%TO.N,unconnected-(J1-Pin_6-Pad6)*%
X121500000Y-91500000D03*
%TO.P,J1,7,Pin_7*%
%TO.N,unconnected-(J1-Pin_7-Pad7)*%
X122500000Y-91500000D03*
%TO.P,J1,8,Pin_8*%
%TO.N,unconnected-(J1-Pin_8-Pad8)*%
X123500000Y-91500000D03*
%TO.P,J1,9,Pin_9*%
%TO.N,unconnected-(J1-Pin_9-Pad9)*%
X124500000Y-91500000D03*
%TO.P,J1,10,Pin_10*%
%TO.N,unconnected-(J1-Pin_10-Pad10)*%
X125500000Y-91500000D03*
%TD*%
%TO.P,J3_breakoutL1,1,Pin_1*%
%TO.N,GND*%
X110050000Y-71000000D03*
%TO.P,J3_breakoutL1,2,Pin_2*%
%TO.N,Net-(J1_MB1-Pin_2)*%
X110050000Y-72000000D03*
%TO.P,J3_breakoutL1,3,Pin_3*%
%TO.N,Net-(J1_MB1-Pin_3)*%
X110050000Y-73000000D03*
%TO.P,J3_breakoutL1,4,Pin_4*%
%TO.N,Net-(J1_MB1-Pin_4)*%
X110050000Y-74000000D03*
%TO.P,J3_breakoutL1,5,Pin_5*%
%TO.N,Net-(J1_MB1-Pin_5)*%
X110050000Y-75000000D03*
%TO.P,J3_breakoutL1,6,Pin_6*%
%TO.N,+250V*%
X110050000Y-76000000D03*
%TO.P,J3_breakoutL1,7,Pin_7*%
%TO.N,+3.3V*%
X110050000Y-77000000D03*
%TO.P,J3_breakoutL1,8,Pin_8*%
%TO.N,GND*%
X110050000Y-78000000D03*
%TO.P,J3_breakoutL1,9,Pin_9*%
%TO.N,SCL4*%
X110050000Y-79000000D03*
%TO.P,J3_breakoutL1,10,Pin_10*%
%TO.N,SDA4*%
X110050000Y-80000000D03*
%TO.P,J3_breakoutL1,11,Pin_11*%
%TO.N,SCL3*%
X110050000Y-81000000D03*
%TO.P,J3_breakoutL1,12,Pin_12*%
%TO.N,SDA3*%
X110050000Y-82000000D03*
%TO.P,J3_breakoutL1,13,Pin_13*%
%TO.N,SCL2*%
X110050000Y-83000000D03*
%TO.P,J3_breakoutL1,14,Pin_14*%
%TO.N,SDA2*%
X110050000Y-84000000D03*
%TO.P,J3_breakoutL1,15,Pin_15*%
%TO.N,SCL1*%
X110050000Y-85000000D03*
%TO.P,J3_breakoutL1,16,Pin_16*%
%TO.N,SDA1*%
X110050000Y-86000000D03*
%TO.P,J3_breakoutL1,17,Pin_17*%
%TO.N,unconnected-(J3_breakoutL1-Pin_17-Pad17)*%
X110050000Y-87000000D03*
%TO.P,J3_breakoutL1,18,Pin_18*%
%TO.N,unconnected-(J3_breakoutL1-Pin_18-Pad18)*%
X110050000Y-88000000D03*
%TO.P,J3_breakoutL1,19,Pin_19*%
%TO.N,unconnected-(J3_breakoutL1-Pin_19-Pad19)*%
X110050000Y-89000000D03*
%TO.P,J3_breakoutL1,20,Pin_20*%
%TO.N,unconnected-(J3_breakoutL1-Pin_20-Pad20)*%
X110050000Y-90000000D03*
%TD*%
D10*
%TO.P,REF\u002A\u002A,1*%
%TO.N,N/C*%
X108920000Y-60500000D03*
X109622944Y-58802944D03*
X109622944Y-62197056D03*
X111320000Y-58100000D03*
D11*
X111320000Y-60500000D03*
D10*
X111320000Y-62900000D03*
X113017056Y-58802944D03*
X113017056Y-62197056D03*
X113720000Y-60500000D03*
%TD*%
%TO.P,REF\u002A\u002A,1*%
%TO.N,N/C*%
X128920000Y-100500000D03*
X129622944Y-98802944D03*
X129622944Y-102197056D03*
X131320000Y-98100000D03*
D11*
X131320000Y-100500000D03*
D10*
X131320000Y-102900000D03*
X133017056Y-98802944D03*
X133017056Y-102197056D03*
X133720000Y-100500000D03*
%TD*%
D15*
%TO.N,GND*%
X113500000Y-71000000D02*
X114500000Y-72000000D01*
X110050000Y-71000000D02*
X113500000Y-71000000D01*
%TO.N,Net-(J1-Pin_1)*%
X128000000Y-71500000D02*
X129500000Y-73000000D01*
X126500000Y-71500000D02*
X128000000Y-71500000D01*
X129500000Y-73000000D02*
X129500000Y-72950000D01*
X115500000Y-71500000D02*
X126500000Y-71500000D01*
X115500000Y-64680000D02*
X115500000Y-71500000D01*
X133017056Y-98802944D02*
X130000000Y-95785888D01*
X130000000Y-95785888D02*
X130000000Y-89000000D01*
X113017056Y-98802944D02*
X113017056Y-92482944D01*
X113017056Y-92482944D02*
X116000000Y-89500000D01*
X116500000Y-91500000D02*
X116500000Y-91198000D01*
X141500000Y-61500000D02*
X144000000Y-61500000D01*
X129500000Y-89000000D02*
X129500000Y-73000000D01*
X118698000Y-89000000D02*
X129500000Y-89000000D01*
X129500000Y-72950000D02*
X131450000Y-71000000D01*
X131450000Y-71000000D02*
X132000000Y-71000000D01*
X141500000Y-61500000D02*
X132000000Y-71000000D01*
X116500000Y-91198000D02*
X118698000Y-89000000D01*
%TO.N,Net-(J2_MB1-Pin_10)*%
X144000000Y-84360000D02*
X141500000Y-84360000D01*
X137140000Y-80000000D02*
X132000000Y-80000000D01*
X141500000Y-84360000D02*
X137140000Y-80000000D01*
%TO.N,+3.3V*%
X101000000Y-76740000D02*
X109790000Y-76740000D01*
X109790000Y-76740000D02*
X110050000Y-77000000D01*
X98350000Y-76740000D02*
X101000000Y-76740000D01*
%TO.N,SDA4*%
X105360000Y-80000000D02*
X110050000Y-80000000D01*
X101000000Y-84360000D02*
X105360000Y-80000000D01*
X98350000Y-84360000D02*
X101000000Y-84360000D01*
%TO.N,Net-(J1_MB1-Pin_3)*%
X107420000Y-73000000D02*
X110050000Y-73000000D01*
X101000000Y-66580000D02*
X107420000Y-73000000D01*
X98350000Y-66580000D02*
X101000000Y-66580000D01*
%TO.N,SDA2*%
X101000000Y-94520000D02*
X106500000Y-89020000D01*
X106500000Y-87000000D02*
X109500000Y-84000000D01*
X109500000Y-84000000D02*
X110050000Y-84000000D01*
X98350000Y-94520000D02*
X101000000Y-94520000D01*
X106500000Y-89020000D02*
X106500000Y-87000000D01*
%TO.N,GND*%
X98350000Y-79280000D02*
X101000000Y-79280000D01*
X96288898Y-77218898D02*
X98350000Y-79280000D01*
X96288898Y-63561102D02*
X96288898Y-77218898D01*
X110050000Y-70550000D02*
X110050000Y-71000000D01*
%TO.N,Net-(J1-Pin_1)*%
X113017056Y-62197056D02*
X115500000Y-64680000D01*
X126500000Y-65320000D02*
X126500000Y-71500000D01*
%TO.N,GND*%
X101000000Y-61500000D02*
X110050000Y-70550000D01*
X110701000Y-71349000D02*
X110701000Y-77899000D01*
X101000000Y-79280000D02*
X102280000Y-78000000D01*
X98350000Y-61500000D02*
X101000000Y-61500000D01*
%TO.N,Net-(J1-Pin_1)*%
X129622944Y-62197056D02*
X126500000Y-65320000D01*
%TO.N,GND*%
X110050000Y-71000000D02*
X110352000Y-71000000D01*
X102280000Y-78000000D02*
X110050000Y-78000000D01*
X101000000Y-61500000D02*
X102151000Y-62651000D01*
X110352000Y-71000000D02*
X110701000Y-71349000D01*
X98350000Y-61500000D02*
X96288898Y-63561102D01*
X110600000Y-78000000D02*
X110050000Y-78000000D01*
X110701000Y-77899000D02*
X110600000Y-78000000D01*
%TO.N,SCL1*%
X101000000Y-97060000D02*
X107000000Y-91060000D01*
X107000000Y-91060000D02*
X107000000Y-87500000D01*
X109500000Y-85000000D02*
X110050000Y-85000000D01*
X98350000Y-97060000D02*
X101000000Y-97060000D01*
X107000000Y-87500000D02*
X109500000Y-85000000D01*
%TO.N,+250V*%
X98350000Y-74200000D02*
X101000000Y-74200000D01*
X102800000Y-76000000D02*
X110050000Y-76000000D01*
X101000000Y-74200000D02*
X102800000Y-76000000D01*
%TO.N,Net-(J1_MB1-Pin_4)*%
X105880000Y-74000000D02*
X110050000Y-74000000D01*
X98350000Y-69120000D02*
X101000000Y-69120000D01*
X101000000Y-69120000D02*
X105880000Y-74000000D01*
%TO.N,Net-(J1_MB1-Pin_2)*%
X99100000Y-64100000D02*
X99100000Y-64040000D01*
X108960000Y-72000000D02*
X110050000Y-72000000D01*
X99040000Y-64040000D02*
X99100000Y-64100000D01*
X98350000Y-64040000D02*
X99040000Y-64040000D01*
X98350000Y-64040000D02*
X101000000Y-64040000D01*
X101000000Y-64040000D02*
X108960000Y-72000000D01*
%TO.N,Net-(J1_MB1-Pin_5)*%
X101000000Y-71660000D02*
X104340000Y-75000000D01*
X104340000Y-75000000D02*
X110050000Y-75000000D01*
X98350000Y-71660000D02*
X101000000Y-71660000D01*
%TO.N,SCL4*%
X103820000Y-79000000D02*
X110050000Y-79000000D01*
X98350000Y-81820000D02*
X101000000Y-81820000D01*
X101000000Y-81820000D02*
X103820000Y-79000000D01*
%TO.N,SCL3*%
X101000000Y-86900000D02*
X106900000Y-81000000D01*
X98350000Y-86900000D02*
X101000000Y-86900000D01*
X106900000Y-81000000D02*
X110050000Y-81000000D01*
%TO.N,SDA3*%
X98350000Y-89440000D02*
X101000000Y-89440000D01*
X108440000Y-82000000D02*
X110050000Y-82000000D01*
X101000000Y-89440000D02*
X108440000Y-82000000D01*
%TO.N,SDA1*%
X108000000Y-92600000D02*
X108000000Y-87500000D01*
X98350000Y-99600000D02*
X101000000Y-99600000D01*
X101000000Y-99600000D02*
X108000000Y-92600000D01*
X108000000Y-87500000D02*
X109500000Y-86000000D01*
X109500000Y-86000000D02*
X110050000Y-86000000D01*
%TO.N,SCL2*%
X109500000Y-83000000D02*
X110050000Y-83000000D01*
X98350000Y-91980000D02*
X101000000Y-91980000D01*
X101000000Y-91500000D02*
X109500000Y-83000000D01*
X101000000Y-91980000D02*
X101000000Y-91500000D01*
%TO.N,Net-(J2_MB1-Pin_3)*%
X141500000Y-66580000D02*
X135080000Y-73000000D01*
X135080000Y-73000000D02*
X132000000Y-73000000D01*
X141500000Y-66580000D02*
X144000000Y-66580000D01*
%TO.N,Net-(J2_MB1-Pin_11)*%
X141500000Y-86900000D02*
X135600000Y-81000000D01*
X141500000Y-86900000D02*
X144000000Y-86900000D01*
X135600000Y-81000000D02*
X132000000Y-81000000D01*
%TO.N,Net-(J2_MB1-Pin_5)*%
X141500000Y-71660000D02*
X144000000Y-71660000D01*
X141500000Y-71660000D02*
X138160000Y-75000000D01*
X138160000Y-75000000D02*
X132000000Y-75000000D01*
%TO.N,Net-(J2_MB1-Pin_2)*%
X141500000Y-64040000D02*
X144000000Y-64040000D01*
X141500000Y-64040000D02*
X133540000Y-72000000D01*
X133540000Y-72000000D02*
X132000000Y-72000000D01*
%TO.N,Net-(J2_MB1-Pin_8)*%
X141500000Y-79280000D02*
X140220000Y-78000000D01*
X140220000Y-78000000D02*
X132000000Y-78000000D01*
X141500000Y-79280000D02*
X144000000Y-79280000D01*
%TO.N,Net-(J2_MB1-Pin_6)*%
X141500000Y-74200000D02*
X144000000Y-74200000D01*
X141500000Y-74200000D02*
X139700000Y-76000000D01*
X139700000Y-76000000D02*
X132000000Y-76000000D01*
%TO.N,Net-(J2_MB1-Pin_12)*%
X134060000Y-82000000D02*
X132000000Y-82000000D01*
X141500000Y-89440000D02*
X134060000Y-82000000D01*
X141500000Y-89440000D02*
X144000000Y-89440000D01*
%TO.N,Net-(J2_MB1-Pin_7)*%
X141500000Y-76740000D02*
X132260000Y-76740000D01*
X132260000Y-76740000D02*
X132000000Y-77000000D01*
X141500000Y-76740000D02*
X144000000Y-76740000D01*
%TO.N,Net-(J2_MB1-Pin_9)*%
X141500000Y-81820000D02*
X138680000Y-79000000D01*
X141500000Y-81820000D02*
X144000000Y-81820000D01*
X138680000Y-79000000D02*
X132000000Y-79000000D01*
%TO.N,Net-(J2_MB1-Pin_13)*%
X141500000Y-91980000D02*
X132520000Y-83000000D01*
X141500000Y-91980000D02*
X144000000Y-91980000D01*
X132520000Y-83000000D02*
X132000000Y-83000000D01*
%TO.N,Net-(J2_MB1-Pin_4)*%
X141500000Y-69120000D02*
X136620000Y-74000000D01*
X141500000Y-69120000D02*
X144000000Y-69120000D01*
X136620000Y-74000000D02*
X132000000Y-74000000D01*
%TO.N,Net-(J2_MB1-Pin_16)*%
X132550000Y-86000000D02*
X132000000Y-86000000D01*
X136000000Y-94100000D02*
X136000000Y-89450000D01*
X136000000Y-89450000D02*
X132550000Y-86000000D01*
X141500000Y-99600000D02*
X136000000Y-94100000D01*
X141500000Y-99600000D02*
X144000000Y-99600000D01*
%TO.N,Net-(J2_MB1-Pin_14)*%
X138500000Y-90000000D02*
X132500000Y-84000000D01*
X141500000Y-94520000D02*
X138500000Y-91520000D01*
X141500000Y-94520000D02*
X144000000Y-94520000D01*
X138500000Y-91520000D02*
X138500000Y-90000000D01*
X132500000Y-84000000D02*
X132000000Y-84000000D01*
%TO.N,Net-(J2_MB1-Pin_15)*%
X141500000Y-97060000D02*
X137000000Y-92560000D01*
X137000000Y-92560000D02*
X137000000Y-89500000D01*
X132500000Y-85000000D02*
X132000000Y-85000000D01*
X137000000Y-89500000D02*
X132500000Y-85000000D01*
X141500000Y-97060000D02*
X144000000Y-97060000D01*
%TD*%
%TA.AperFunction,Conductor*%
%TO.N,GND*%
G36*
X142520447Y-56019685D02*
G01*
X142535061Y-56030679D01*
X145466033Y-58595279D01*
X145732184Y-58828161D01*
X145768790Y-58884193D01*
X145829730Y-59077470D01*
X145832530Y-59087919D01*
X145916658Y-59467396D01*
X145918536Y-59478050D01*
X145969268Y-59863398D01*
X145970211Y-59874174D01*
X145987280Y-60265103D01*
X145987398Y-60270512D01*
X145987398Y-100905191D01*
X145987280Y-100910600D01*
X145970208Y-101301621D01*
X145969265Y-101312397D01*
X145918532Y-101697747D01*
X145916654Y-101708400D01*
X145832527Y-102087876D01*
X145829727Y-102098326D01*
X145712849Y-102469015D01*
X145709149Y-102479180D01*
X145638636Y-102649412D01*
X145600204Y-102699839D01*
X142112362Y-105412605D01*
X142052419Y-105437664D01*
X141812397Y-105469265D01*
X141801620Y-105470208D01*
X141410601Y-105487280D01*
X141405192Y-105487398D01*
X140942152Y-105487398D01*
X140940676Y-105487389D01*
X100040512Y-105000482D01*
X99973712Y-104980001D01*
X99967588Y-104975691D01*
X96444530Y-102333397D01*
X96432022Y-102316657D01*
X96415965Y-102303292D01*
X96405001Y-102280494D01*
X96402709Y-102277426D01*
X96400678Y-102271511D01*
X96346067Y-102098308D01*
X96343275Y-102087888D01*
X96259142Y-101708388D01*
X96257269Y-101697760D01*
X96206532Y-101312377D01*
X96205592Y-101301642D01*
X96188515Y-100910500D01*
X96188398Y-100905109D01*
X96188398Y-63933713D01*
X96999500Y-63933713D01*
X96999500Y-64146286D01*
X97032753Y-64356239D01*
X97032753Y-64356241D01*
X97032754Y-64356243D01*
X97087431Y-64524522D01*
X97098444Y-64558414D01*
X97194951Y-64747820D01*
X97319890Y-64919786D01*
X97470213Y-65070109D01*
X97642182Y-65195050D01*
X97650946Y-65199516D01*
X97701742Y-65247491D01*
X97718536Y-65315312D01*
X97695998Y-65381447D01*
X97650946Y-65420484D01*
X97642182Y-65424949D01*
X97470213Y-65549890D01*
X97319890Y-65700213D01*
X97194951Y-65872179D01*
X97098444Y-66061585D01*
X97032753Y-66263760D01*
X96999500Y-66473713D01*
X96999500Y-66686286D01*
X97032753Y-66896239D01*
X97032753Y-66896241D01*
X97032754Y-66896243D01*
X97087431Y-67064522D01*
X97098444Y-67098414D01*
X97194951Y-67287820D01*
X97319890Y-67459786D01*
X97470213Y-67610109D01*
X97642182Y-67735050D01*
X97650946Y-67739516D01*
X97701742Y-67787491D01*
X97718536Y-67855312D01*
X97695998Y-67921447D01*
X97650946Y-67960484D01*
X97642182Y-67964949D01*
X97470213Y-68089890D01*
X97319890Y-68240213D01*
X97194951Y-68412179D01*
X97098444Y-68601585D01*
X97032753Y-68803760D01*
X96999500Y-69013713D01*
X96999500Y-69226286D01*
X97032753Y-69436239D01*
X97032753Y-69436241D01*
X97032754Y-69436243D01*
X97087431Y-69604522D01*
X97098444Y-69638414D01*
X97194951Y-69827820D01*
X97319890Y-69999786D01*
X97470213Y-70150109D01*
X97642182Y-70275050D01*
X97650946Y-70279516D01*
X97701742Y-70327491D01*
X97718536Y-70395312D01*
X97695998Y-70461447D01*
X97650946Y-70500484D01*
X97642182Y-70504949D01*
X97470213Y-70629890D01*
X97319890Y-70780213D01*
X97194951Y-70952179D01*
X97098444Y-71141585D01*
X97032753Y-71343760D01*
X96999500Y-71553713D01*
X96999500Y-71766286D01*
X97032753Y-71976239D01*
X97032753Y-71976241D01*
X97032754Y-71976243D01*
X97087431Y-72144522D01*
X97098444Y-72178414D01*
X97194951Y-72367820D01*
X97319890Y-72539786D01*
X97470213Y-72690109D01*
X97642182Y-72815050D01*
X97650946Y-72819516D01*
X97701742Y-72867491D01*
X97718536Y-72935312D01*
X97695998Y-73001447D01*
X97650946Y-73040484D01*
X97642182Y-73044949D01*
X97470213Y-73169890D01*
X97319890Y-73320213D01*
X97194951Y-73492179D01*
X97098444Y-73681585D01*
X97032753Y-73883760D01*
X96999500Y-74093713D01*
X96999500Y-74306286D01*
X97032753Y-74516239D01*
X97032753Y-74516241D01*
X97032754Y-74516243D01*
X97087431Y-74684522D01*
X97098444Y-74718414D01*
X97194951Y-74907820D01*
X97319890Y-75079786D01*
X97470213Y-75230109D01*
X97642182Y-75355050D01*
X97650946Y-75359516D01*
X97701742Y-75407491D01*
X97718536Y-75475312D01*
X97695998Y-75541447D01*
X97650946Y-75580484D01*
X97642182Y-75584949D01*
X97470213Y-75709890D01*
X97319890Y-75860213D01*
X97194951Y-76032179D01*
X97098444Y-76221585D01*
X97032753Y-76423760D01*
X96999500Y-76633713D01*
X96999500Y-76846286D01*
X97032753Y-77056239D01*
X97098444Y-77258414D01*
X97194951Y-77447820D01*
X97319890Y-77619786D01*
X97470213Y-77770109D01*
X97642179Y-77895048D01*
X97642181Y-77895049D01*
X97642184Y-77895051D01*
X97831588Y-77991557D01*
X98033757Y-78057246D01*
X98243713Y-78090500D01*
X98243714Y-78090500D01*
X98456286Y-78090500D01*
X98456287Y-78090500D01*
X98666243Y-78057246D01*
X98868412Y-77991557D01*
X99057816Y-77895051D01*
X99119137Y-77850499D01*
X99229786Y-77770109D01*
X99229788Y-77770106D01*
X99229792Y-77770104D01*
X99380104Y-77619792D01*
X99380106Y-77619788D01*
X99380109Y-77619786D01*
X99467137Y-77500000D01*
X99505051Y-77447816D01*
X99505349Y-77447230D01*
X99525235Y-77408205D01*
X99535683Y-77397142D01*
X99542006Y-77383297D01*
X99559187Y-77372255D01*
X99573209Y-77357409D01*
X99588888Y-77353167D01*
X99600784Y-77345523D01*
X99635719Y-77340500D01*
X99714281Y-77340500D01*
X99781320Y-77360185D01*
X99824765Y-77408205D01*
X99844947Y-77447814D01*
X99844948Y-77447815D01*
X99969890Y-77619786D01*
X100120213Y-77770109D01*
X100292179Y-77895048D01*
X100292181Y-77895049D01*
X100292184Y-77895051D01*
X100481588Y-77991557D01*
X100683757Y-78057246D01*
X100893713Y-78090500D01*
X100893714Y-78090500D01*
X101106286Y-78090500D01*
X101106287Y-78090500D01*
X101316243Y-78057246D01*
X101518412Y-77991557D01*
X101707816Y-77895051D01*
X101769137Y-77850499D01*
X101879786Y-77770109D01*
X101879788Y-77770106D01*
X101879792Y-77770104D01*
X102030104Y-77619792D01*
X102030106Y-77619788D01*
X102030109Y-77619786D01*
X102117137Y-77500000D01*
X102155051Y-77447816D01*
X102155349Y-77447230D01*
X102175235Y-77408205D01*
X102223209Y-77357409D01*
X102285719Y-77340500D01*
X109081949Y-77340500D01*
X109148988Y-77360185D01*
X109194743Y-77412989D01*
X109205239Y-77451251D01*
X109205908Y-77457482D01*
X109256202Y-77592328D01*
X109256206Y-77592335D01*
X109342452Y-77707544D01*
X109342455Y-77707547D01*
X109457664Y-77793793D01*
X109457671Y-77793797D01*
X109592517Y-77844091D01*
X109592516Y-77844091D01*
X109599444Y-77844835D01*
X109652127Y-77850500D01*
X109710280Y-77850499D01*
X109714377Y-78149500D01*
X109652129Y-78149500D01*
X109652123Y-78149501D01*
X109592516Y-78155908D01*
X109457671Y-78206202D01*
X109457664Y-78206206D01*
X109342457Y-78292451D01*
X109342451Y-78292457D01*
X109299515Y-78349812D01*
X109243581Y-78391682D01*
X109200249Y-78399500D01*
X103899057Y-78399500D01*
X103740942Y-78399500D01*
X103588215Y-78440423D01*
X103558667Y-78457483D01*
X103504975Y-78488481D01*
X103451285Y-78519479D01*
X103451282Y-78519481D01*
X103339478Y-78631286D01*
X101484522Y-80486241D01*
X101423199Y-80519726D01*
X101358523Y-80516491D01*
X101316245Y-80502754D01*
X101132495Y-80473651D01*
X101106287Y-80469500D01*
X100893713Y-80469500D01*
X100867505Y-80473651D01*
X100683760Y-80502753D01*
X100481585Y-80568444D01*
X100292179Y-80664951D01*
X100120213Y-80789890D01*
X99969890Y-80940213D01*
X99844948Y-81112184D01*
X99844947Y-81112185D01*
X99824765Y-81151795D01*
X99814316Y-81162857D01*
X99807994Y-81176703D01*
X99790812Y-81187744D01*
X99776791Y-81202591D01*
X99761111Y-81206832D01*
X99749216Y-81214477D01*
X99714281Y-81219500D01*
X99635719Y-81219500D01*
X99568680Y-81199815D01*
X99525235Y-81151795D01*
X99505052Y-81112185D01*
X99505051Y-81112184D01*
X99380109Y-80940213D01*
X99229786Y-80789890D01*
X99057820Y-80664951D01*
X98868414Y-80568444D01*
X98868413Y-80568443D01*
X98868412Y-80568443D01*
X98666243Y-80502754D01*
X98666241Y-80502753D01*
X98666240Y-80502753D01*
X98482495Y-80473651D01*
X98456287Y-80469500D01*
X98243713Y-80469500D01*
X98217505Y-80473651D01*
X98033760Y-80502753D01*
X97831585Y-80568444D01*
X97642179Y-80664951D01*
X97470213Y-80789890D01*
X97319890Y-80940213D01*
X97194951Y-81112179D01*
X97098444Y-81301585D01*
X97032753Y-81503760D01*
X97012555Y-81631286D01*
X96999500Y-81713713D01*
X96999500Y-81926287D01*
X97032754Y-82136243D01*
X97060321Y-82221086D01*
X97098444Y-82338414D01*
X97194951Y-82527820D01*
X97319890Y-82699786D01*
X97470213Y-82850109D01*
X97642182Y-82975050D01*
X97650946Y-82979516D01*
X97701742Y-83027491D01*
X97718536Y-83095312D01*
X97695998Y-83161447D01*
X97650946Y-83200484D01*
X97642182Y-83204949D01*
X97470213Y-83329890D01*
X97319890Y-83480213D01*
X97194951Y-83652179D01*
X97098444Y-83841585D01*
X97032753Y-84043760D01*
X97032753Y-84043762D01*
X96999500Y-84253713D01*
X96999500Y-84466287D01*
X97032754Y-84676243D01*
X97060321Y-84761086D01*
X97098444Y-84878414D01*
X97194951Y-85067820D01*
X97319890Y-85239786D01*
X97470213Y-85390109D01*
X97642182Y-85515050D01*
X97650946Y-85519516D01*
X97701742Y-85567491D01*
X97718536Y-85635312D01*
X97695998Y-85701447D01*
X97650946Y-85740484D01*
X97642182Y-85744949D01*
X97470213Y-85869890D01*
X97319890Y-86020213D01*
X97194951Y-86192179D01*
X97098444Y-86381585D01*
X97032753Y-86583760D01*
X97032753Y-86583762D01*
X96999500Y-86793713D01*
X96999500Y-87006287D01*
X97032754Y-87216243D01*
X97091770Y-87397876D01*
X97098444Y-87418414D01*
X97194951Y-87607820D01*
X97319890Y-87779786D01*
X97470213Y-87930109D01*
X97642182Y-88055050D01*
X97650946Y-88059516D01*
X97701742Y-88107491D01*
X97718536Y-88175312D01*
X97695998Y-88241447D01*
X97650946Y-88280484D01*
X97642182Y-88284949D01*
X97470213Y-88409890D01*
X97319890Y-88560213D01*
X97194951Y-88732179D01*
X97098444Y-88921585D01*
X97032753Y-89123760D01*
X96999500Y-89333713D01*
X96999500Y-89546286D01*
X97032753Y-89756239D01*
X97098444Y-89958414D01*
X97194951Y-90147820D01*
X97319890Y-90319786D01*
X97470213Y-90470109D01*
X97642182Y-90595050D01*
X97650946Y-90599516D01*
X97701742Y-90647491D01*
X97718536Y-90715312D01*
X97695998Y-90781447D01*
X97650946Y-90820484D01*
X97642182Y-90824949D01*
X97470213Y-90949890D01*
X97319890Y-91100213D01*
X97194951Y-91272179D01*
X97098444Y-91461585D01*
X97032753Y-91663760D01*
X97011413Y-91798499D01*
X96999500Y-91873713D01*
X96999500Y-92086287D01*
X97003926Y-92114229D01*
X97032366Y-92293797D01*
X97032754Y-92296243D01*
X97067730Y-92403889D01*
X97098444Y-92498414D01*
X97194951Y-92687820D01*
X97319890Y-92859786D01*
X97470213Y-93010109D01*
X97642182Y-93135050D01*
X97650946Y-93139516D01*
X97701742Y-93187491D01*
X97718536Y-93255312D01*
X97695998Y-93321447D01*
X97650946Y-93360484D01*
X97642182Y-93364949D01*
X97470213Y-93489890D01*
X97319890Y-93640213D01*
X97194951Y-93812179D01*
X97098444Y-94001585D01*
X97032753Y-94203760D01*
X97032753Y-94203762D01*
X96999500Y-94413713D01*
X96999500Y-94626287D01*
X97032754Y-94836243D01*
X97060321Y-94921086D01*
X97098444Y-95038414D01*
X97194951Y-95227820D01*
X97319890Y-95399786D01*
X97470213Y-95550109D01*
X97642182Y-95675050D01*
X97650946Y-95679516D01*
X97701742Y-95727491D01*
X97718536Y-95795312D01*
X97695998Y-95861447D01*
X97650946Y-95900484D01*
X97642182Y-95904949D01*
X97470213Y-96029890D01*
X97470211Y-96029893D01*
X97319894Y-96180209D01*
X97319890Y-96180213D01*
X97194951Y-96352179D01*
X97098444Y-96541585D01*
X97032753Y-96743760D01*
X96999500Y-96953713D01*
X96999500Y-97166286D01*
X97024186Y-97322151D01*
X97032754Y-97376243D01*
X97085890Y-97539779D01*
X97098444Y-97578414D01*
X97194951Y-97767820D01*
X97319890Y-97939786D01*
X97470213Y-98090109D01*
X97642182Y-98215050D01*
X97650946Y-98219516D01*
X97701742Y-98267491D01*
X97718536Y-98335312D01*
X97695998Y-98401447D01*
X97650946Y-98440484D01*
X97642182Y-98444949D01*
X97470213Y-98569890D01*
X97319890Y-98720213D01*
X97194951Y-98892179D01*
X97098444Y-99081585D01*
X97032753Y-99283760D01*
X96999500Y-99493713D01*
X96999500Y-99706286D01*
X97032753Y-99916239D01*
X97098444Y-100118414D01*
X97194951Y-100307820D01*
X97319890Y-100479786D01*
X97470213Y-100630109D01*
X97642179Y-100755048D01*
X97642181Y-100755049D01*
X97642184Y-100755051D01*
X97831588Y-100851557D01*
X98033757Y-100917246D01*
X98243713Y-100950500D01*
X98243714Y-100950500D01*
X98456286Y-100950500D01*
X98456287Y-100950500D01*
X98666243Y-100917246D01*
X98868412Y-100851557D01*
X99057816Y-100755051D01*
X99079789Y-100739086D01*
X99229786Y-100630109D01*
X99229788Y-100630106D01*
X99229792Y-100630104D01*
X99380104Y-100479792D01*
X99380106Y-100479788D01*
X99380109Y-100479786D01*
X99438661Y-100399193D01*
X99505051Y-100307816D01*
X99505349Y-100307230D01*
X99525235Y-100268205D01*
X99535683Y-100257142D01*
X99542006Y-100243297D01*
X99559187Y-100232255D01*
X99573209Y-100217409D01*
X99588888Y-100213167D01*
X99600784Y-100205523D01*
X99635719Y-100200500D01*
X99714281Y-100200500D01*
X99781320Y-100220185D01*
X99824765Y-100268205D01*
X99844947Y-100307814D01*
X99844948Y-100307815D01*
X99969890Y-100479786D01*
X100120213Y-100630109D01*
X100292179Y-100755048D01*
X100292181Y-100755049D01*
X100292184Y-100755051D01*
X100481588Y-100851557D01*
X100683757Y-100917246D01*
X100893713Y-100950500D01*
X100893714Y-100950500D01*
X101106286Y-100950500D01*
X101106287Y-100950500D01*
X101316243Y-100917246D01*
X101518412Y-100851557D01*
X101707816Y-100755051D01*
X101729789Y-100739086D01*
X101879786Y-100630109D01*
X101879788Y-100630106D01*
X101879792Y-100630104D01*
X102030104Y-100479792D01*
X102030106Y-100479788D01*
X102030109Y-100479786D01*
X102088661Y-100399193D01*
X102155051Y-100307816D01*
X102155613Y-100306712D01*
X102179990Y-100258872D01*
X102179992Y-100258867D01*
X102199701Y-100220185D01*
X102251557Y-100118412D01*
X102317246Y-99916243D01*
X102350500Y-99706287D01*
X102350500Y-99493713D01*
X102317246Y-99283757D01*
X102303506Y-99241473D01*
X102301512Y-99171635D01*
X102333755Y-99115478D01*
X108358506Y-93090728D01*
X108358511Y-93090724D01*
X108368714Y-93080520D01*
X108368716Y-93080520D01*
X108480520Y-92968716D01*
X108548102Y-92851660D01*
X108559577Y-92831785D01*
X108600501Y-92679057D01*
X108600501Y-92520943D01*
X108600501Y-92513348D01*
X108600500Y-92513330D01*
X108600500Y-87800096D01*
X108620185Y-87733057D01*
X108636815Y-87712419D01*
X108992148Y-87357085D01*
X109002388Y-87351494D01*
X109009770Y-87342455D01*
X109032494Y-87335055D01*
X109053469Y-87323602D01*
X109065109Y-87324434D01*
X109076206Y-87320821D01*
X109099322Y-87326881D01*
X109123160Y-87328586D01*
X109132502Y-87335579D01*
X109143791Y-87338539D01*
X109159961Y-87356134D01*
X109179094Y-87370457D01*
X109184376Y-87382701D01*
X109191069Y-87389984D01*
X109198358Y-87415109D01*
X109201997Y-87423544D01*
X109202688Y-87427525D01*
X109205909Y-87457483D01*
X109209623Y-87467441D01*
X109211592Y-87478775D01*
X109208882Y-87502526D01*
X109210585Y-87526371D01*
X109206173Y-87541396D01*
X109205908Y-87542517D01*
X109201912Y-87579689D01*
X109199501Y-87602123D01*
X109199500Y-87602135D01*
X109199500Y-88397870D01*
X109199501Y-88397876D01*
X109205908Y-88457479D01*
X109207692Y-88465026D01*
X109206229Y-88465371D01*
X109210585Y-88526371D01*
X109206173Y-88541396D01*
X109205908Y-88542517D01*
X109199501Y-88602116D01*
X109199501Y-88602123D01*
X109199500Y-88602135D01*
X109199500Y-89397870D01*
X109199501Y-89397876D01*
X109205908Y-89457479D01*
X109207692Y-89465026D01*
X109206229Y-89465371D01*
X109210585Y-89526371D01*
X109206173Y-89541396D01*
X109205908Y-89542517D01*
X109201980Y-89579057D01*
X109199501Y-89602123D01*
X109199500Y-89602135D01*
X109199500Y-90397870D01*
X109199501Y-90397876D01*
X109205908Y-90457483D01*
X109256202Y-90592328D01*
X109256206Y-90592335D01*
X109342452Y-90707544D01*
X109342455Y-90707547D01*
X109457664Y-90793793D01*
X109457671Y-90793797D01*
X109592517Y-90844091D01*
X109592516Y-90844091D01*
X109599444Y-90844835D01*
X109652127Y-90850500D01*
X109888363Y-90850499D01*
X109973320Y-97052419D01*
X109735921Y-97150754D01*
X109735916Y-97150756D01*
X109415279Y-97322140D01*
X109415261Y-97322151D01*
X109112964Y-97524140D01*
X109112950Y-97524150D01*
X108831893Y-97754807D01*
X108574807Y-98011893D01*
X108344150Y-98292950D01*
X108344140Y-98292964D01*
X108142151Y-98595261D01*
X108142140Y-98595279D01*
X107970756Y-98915916D01*
X107970754Y-98915921D01*
X107831614Y-99251834D01*
X107726067Y-99599776D01*
X107726064Y-99599787D01*
X107655137Y-99956369D01*
X107631093Y-100200500D01*
X107619796Y-100315206D01*
X107619500Y-100318209D01*
X107619500Y-100681790D01*
X107655137Y-101043630D01*
X107726064Y-101400212D01*
X107726067Y-101400223D01*
X107831614Y-101748165D01*
X107970754Y-102084078D01*
X107970756Y-102084083D01*
X108142140Y-102404720D01*
X108142151Y-102404738D01*
X108344140Y-102707035D01*
X108344150Y-102707049D01*
X108574807Y-102988106D01*
X108831893Y-103245192D01*
X108831898Y-103245196D01*
X108831899Y-103245197D01*
X109112956Y-103475854D01*
X109415268Y-103677853D01*
X109415277Y-103677858D01*
X109415279Y-103677859D01*
X109735916Y-103849243D01*
X109735918Y-103849243D01*
X109735924Y-103849247D01*
X110071836Y-103988386D01*
X110419767Y-104093930D01*
X110419773Y-104093931D01*
X110419776Y-104093932D01*
X110419787Y-104093935D01*
X110776369Y-104164862D01*
X111138206Y-104200500D01*
X111138209Y-104200500D01*
X111501791Y-104200500D01*
X111501794Y-104200500D01*
X111863631Y-104164862D01*
X111957990Y-104146093D01*
X112220212Y-104093935D01*
X112220223Y-104093932D01*
X112220223Y-104093931D01*
X112220233Y-104093930D01*
X112568164Y-103988386D01*
X112904076Y-103849247D01*
X113224732Y-103677853D01*
X113527044Y-103475854D01*
X113808101Y-103245197D01*
X114065197Y-102988101D01*
X114295854Y-102707044D01*
X114497853Y-102404732D01*
X114669247Y-102084076D01*
X114808386Y-101748164D01*
X114913930Y-101400233D01*
X114913932Y-101400223D01*
X114913935Y-101400212D01*
X114984862Y-101043630D01*
X114991741Y-100973790D01*
X115020500Y-100681794D01*
X115020500Y-100500000D01*
X127619500Y-100500000D01*
X127619500Y-100681790D01*
X127655137Y-101043630D01*
X127726064Y-101400212D01*
X127726067Y-101400223D01*
X127831614Y-101748165D01*
X127970754Y-102084078D01*
X127970756Y-102084083D01*
X128142140Y-102404720D01*
X128142151Y-102404738D01*
X128344140Y-102707035D01*
X128344150Y-102707049D01*
X128574807Y-102988106D01*
X128831893Y-103245192D01*
X128831898Y-103245196D01*
X128831899Y-103245197D01*
X129112956Y-103475854D01*
X129415268Y-103677853D01*
X129415277Y-103677858D01*
X129415279Y-103677859D01*
X129735916Y-103849243D01*
X129735918Y-103849243D01*
X129735924Y-103849247D01*
X130071836Y-103988386D01*
X130419767Y-104093930D01*
X130419773Y-104093931D01*
X130419776Y-104093932D01*
X130419787Y-104093935D01*
X130776369Y-104164862D01*
X131138206Y-104200500D01*
X131138209Y-104200500D01*
X131501791Y-104200500D01*
X131501794Y-104200500D01*
X131863631Y-104164862D01*
X131957990Y-104146093D01*
X132220212Y-104093935D01*
X132220223Y-104093932D01*
X132220223Y-104093931D01*
X132220233Y-104093930D01*
X132568164Y-103988386D01*
X132904076Y-103849247D01*
X133224732Y-103677853D01*
X133527044Y-103475854D01*
X133808101Y-103245197D01*
X134065197Y-102988101D01*
X134295854Y-102707044D01*
X134497853Y-102404732D01*
X134669247Y-102084076D01*
X134808386Y-101748164D01*
X134913930Y-101400233D01*
X134913932Y-101400223D01*
X134913935Y-101400212D01*
X134984862Y-101043630D01*
X134991741Y-100973790D01*
X135020500Y-100681794D01*
X135020500Y-100318206D01*
X134984862Y-99956369D01*
X134976880Y-99916239D01*
X134913935Y-99599787D01*
X134913932Y-99599776D01*
X134913931Y-99599773D01*
X134913930Y-99599767D01*
X134808386Y-99251836D01*
X134669247Y-98915924D01*
X134656558Y-98892185D01*
X134497859Y-98595279D01*
X134497858Y-98595277D01*
X134497853Y-98595268D01*
X134295854Y-98292956D01*
X134065197Y-98011899D01*
X134065196Y-98011898D01*
X134065192Y-98011893D01*
X133808106Y-97754807D01*
X133527049Y-97524150D01*
X133527048Y-97524149D01*
X133527044Y-97524146D01*
X133224732Y-97322147D01*
X133224727Y-97322144D01*
X133224720Y-97322140D01*
X133000000Y-97202024D01*
X133000000Y-87324650D01*
X133000837Y-87324621D01*
X133004569Y-87326746D01*
X133008567Y-87326863D01*
X133027296Y-87339688D01*
X133057853Y-87357088D01*
X135363181Y-89662416D01*
X135396666Y-89723739D01*
X135399500Y-89750097D01*
X135399500Y-94013330D01*
X135399499Y-94013348D01*
X135399499Y-94179054D01*
X135399498Y-94179054D01*
X135440423Y-94331785D01*
X135469358Y-94381900D01*
X135469359Y-94381904D01*
X135469360Y-94381904D01*
X135519479Y-94468714D01*
X135519481Y-94468717D01*
X135638349Y-94587585D01*
X135638355Y-94587590D01*
X140166241Y-99115476D01*
X140199726Y-99176799D01*
X140196492Y-99241473D01*
X140182753Y-99283757D01*
X140149500Y-99493713D01*
X140149500Y-99706286D01*
X140182753Y-99916239D01*
X140248444Y-100118414D01*
X140344951Y-100307820D01*
X140469890Y-100479786D01*
X140620213Y-100630109D01*
X140792179Y-100755048D01*
X140792181Y-100755049D01*
X140792184Y-100755051D01*
X140981588Y-100851557D01*
X141183757Y-100917246D01*
X141393713Y-100950500D01*
X141393714Y-100950500D01*
X141606286Y-100950500D01*
X141606287Y-100950500D01*
X141816243Y-100917246D01*
X142018412Y-100851557D01*
X142207816Y-100755051D01*
X142229789Y-100739086D01*
X142379786Y-100630109D01*
X142379788Y-100630106D01*
X142379792Y-100630104D01*
X142530104Y-100479792D01*
X142649683Y-100315204D01*
X142705011Y-100272540D01*
X142774624Y-100266561D01*
X142836420Y-100299166D01*
X142850313Y-100315199D01*
X142969892Y-100479786D01*
X142969896Y-100479792D01*
X143120213Y-100630109D01*
X143292179Y-100755048D01*
X143292181Y-100755049D01*
X143292184Y-100755051D01*
X143481588Y-100851557D01*
X143683757Y-100917246D01*
X143893713Y-100950500D01*
X143893714Y-100950500D01*
X144106286Y-100950500D01*
X144106287Y-100950500D01*
X144316243Y-100917246D01*
X144518412Y-100851557D01*
X144707816Y-100755051D01*
X144729789Y-100739086D01*
X144879786Y-100630109D01*
X144879788Y-100630106D01*
X144879792Y-100630104D01*
X145030104Y-100479792D01*
X145030106Y-100479788D01*
X145030109Y-100479786D01*
X145155048Y-100307820D01*
X145155047Y-100307820D01*
X145155051Y-100307816D01*
X145251557Y-100118412D01*
X145317246Y-99916243D01*
X145350500Y-99706287D01*
X145350500Y-99493713D01*
X145317246Y-99283757D01*
X145251557Y-99081588D01*
X145155051Y-98892184D01*
X145155049Y-98892181D01*
X145155048Y-98892179D01*
X145030109Y-98720213D01*
X144879786Y-98569890D01*
X144707820Y-98444951D01*
X144707115Y-98444591D01*
X144699054Y-98440485D01*
X144648259Y-98392512D01*
X144631463Y-98324692D01*
X144653999Y-98258556D01*
X144699054Y-98219515D01*
X144707816Y-98215051D01*
X144729789Y-98199086D01*
X144879786Y-98090109D01*
X144879788Y-98090106D01*
X144879792Y-98090104D01*
X145030104Y-97939792D01*
X145030106Y-97939788D01*
X145030109Y-97939786D01*
X145155048Y-97767820D01*
X145155047Y-97767820D01*
X145155051Y-97767816D01*
X145251557Y-97578412D01*
X145317246Y-97376243D01*
X145350500Y-97166287D01*
X145350500Y-96953713D01*
X145317246Y-96743757D01*
X145251557Y-96541588D01*
X145155051Y-96352184D01*
X145155049Y-96352181D01*
X145155048Y-96352179D01*
X145030109Y-96180213D01*
X144879786Y-96029890D01*
X144707820Y-95904951D01*
X144707115Y-95904591D01*
X144699054Y-95900485D01*
X144648259Y-95852512D01*
X144631463Y-95784692D01*
X144653999Y-95718556D01*
X144699054Y-95679515D01*
X144707816Y-95675051D01*
X144729789Y-95659086D01*
X144879786Y-95550109D01*
X144879788Y-95550106D01*
X144879792Y-95550104D01*
X145030104Y-95399792D01*
X145030106Y-95399788D01*
X145030109Y-95399786D01*
X145155048Y-95227820D01*
X145155047Y-95227820D01*
X145155051Y-95227816D01*
X145251557Y-95038412D01*
X145317246Y-94836243D01*
X145350500Y-94626287D01*
X145350500Y-94413713D01*
X145317246Y-94203757D01*
X145251557Y-94001588D01*
X145155051Y-93812184D01*
X145155049Y-93812181D01*
X145155048Y-93812179D01*
X145030109Y-93640213D01*
X144879786Y-93489890D01*
X144707820Y-93364951D01*
X144707115Y-93364591D01*
X144699054Y-93360485D01*
X144648259Y-93312512D01*
X144631463Y-93244692D01*
X144653999Y-93178556D01*
X144699054Y-93139515D01*
X144707816Y-93135051D01*
X144729789Y-93119086D01*
X144879786Y-93010109D01*
X144879788Y-93010106D01*
X144879792Y-93010104D01*
X145030104Y-92859792D01*
X145030106Y-92859788D01*
X145030109Y-92859786D01*
X145155048Y-92687820D01*
X145155047Y-92687820D01*
X145155051Y-92687816D01*
X145251557Y-92498412D01*
X145317246Y-92296243D01*
X145350500Y-92086287D01*
X145350500Y-91873713D01*
X145317246Y-91663757D01*
X145251557Y-91461588D01*
X145155051Y-91272184D01*
X145155049Y-91272181D01*
X145155048Y-91272179D01*
X145030109Y-91100213D01*
X144879786Y-90949890D01*
X144707820Y-90824951D01*
X144707115Y-90824591D01*
X144699054Y-90820485D01*
X144648259Y-90772512D01*
X144631463Y-90704692D01*
X144653999Y-90638556D01*
X144699054Y-90599515D01*
X144707816Y-90595051D01*
X144827835Y-90507853D01*
X144879786Y-90470109D01*
X144879788Y-90470106D01*
X144879792Y-90470104D01*
X145030104Y-90319792D01*
X145030106Y-90319788D01*
X145030109Y-90319786D01*
X145155048Y-90147820D01*
X145155047Y-90147820D01*
X145155051Y-90147816D01*
X145251557Y-89958412D01*
X145317246Y-89756243D01*
X145350500Y-89546287D01*
X145350500Y-89333713D01*
X145317246Y-89123757D01*
X145251557Y-88921588D01*
X145155051Y-88732184D01*
X145155049Y-88732181D01*
X145155048Y-88732179D01*
X145030109Y-88560213D01*
X144879786Y-88409890D01*
X144707820Y-88284951D01*
X144707115Y-88284591D01*
X144699054Y-88280485D01*
X144648259Y-88232512D01*
X144631463Y-88164692D01*
X144653999Y-88098556D01*
X144699054Y-88059515D01*
X144707816Y-88055051D01*
X144729789Y-88039086D01*
X144879786Y-87930109D01*
X144879788Y-87930106D01*
X144879792Y-87930104D01*
X145030104Y-87779792D01*
X145030106Y-87779788D01*
X145030109Y-87779786D01*
X145155048Y-87607820D01*
X145155047Y-87607820D01*
X145155051Y-87607816D01*
X145251557Y-87418412D01*
X145317246Y-87216243D01*
X145350500Y-87006287D01*
X145350500Y-86793713D01*
X145317246Y-86583757D01*
X145251557Y-86381588D01*
X145155051Y-86192184D01*
X145155049Y-86192181D01*
X145155048Y-86192179D01*
X145030109Y-86020213D01*
X144879786Y-85869890D01*
X144707820Y-85744951D01*
X144707115Y-85744591D01*
X144699054Y-85740485D01*
X144648259Y-85692512D01*
X144631463Y-85624692D01*
X144653999Y-85558556D01*
X144699054Y-85519515D01*
X144707816Y-85515051D01*
X144776670Y-85465026D01*
X144879786Y-85390109D01*
X144879788Y-85390106D01*
X144879792Y-85390104D01*
X145030104Y-85239792D01*
X145030106Y-85239788D01*
X145030109Y-85239786D01*
X145155048Y-85067820D01*
X145155047Y-85067820D01*
X145155051Y-85067816D01*
X145251557Y-84878412D01*
X145317246Y-84676243D01*
X145350500Y-84466287D01*
X145350500Y-84253713D01*
X145317246Y-84043757D01*
X145251557Y-83841588D01*
X145155051Y-83652184D01*
X145155049Y-83652181D01*
X145155048Y-83652179D01*
X145030109Y-83480213D01*
X144879786Y-83329890D01*
X144707820Y-83204951D01*
X144707115Y-83204591D01*
X144699054Y-83200485D01*
X144648259Y-83152512D01*
X144631463Y-83084692D01*
X144653999Y-83018556D01*
X144699054Y-82979515D01*
X144707816Y-82975051D01*
X144729789Y-82959086D01*
X144879786Y-82850109D01*
X144879788Y-82850106D01*
X144879792Y-82850104D01*
X145030104Y-82699792D01*
X145030106Y-82699788D01*
X145030109Y-82699786D01*
X145155048Y-82527820D01*
X145155047Y-82527820D01*
X145155051Y-82527816D01*
X145251557Y-82338412D01*
X145317246Y-82136243D01*
X145350500Y-81926287D01*
X145350500Y-81713713D01*
X145317246Y-81503757D01*
X145251557Y-81301588D01*
X145155051Y-81112184D01*
X145155049Y-81112181D01*
X145155048Y-81112179D01*
X145030109Y-80940213D01*
X144879786Y-80789890D01*
X144707820Y-80664951D01*
X144707115Y-80664591D01*
X144699054Y-80660485D01*
X144648259Y-80612512D01*
X144631463Y-80544692D01*
X144653999Y-80478556D01*
X144699054Y-80439515D01*
X144707816Y-80435051D01*
X144758974Y-80397883D01*
X144879786Y-80310109D01*
X144879788Y-80310106D01*
X144879792Y-80310104D01*
X145030104Y-80159792D01*
X145030106Y-80159788D01*
X145030109Y-80159786D01*
X145155048Y-79987820D01*
X145155047Y-79987820D01*
X145155051Y-79987816D01*
X145251557Y-79798412D01*
X145317246Y-79596243D01*
X145350500Y-79386287D01*
X145350500Y-79173713D01*
X145317246Y-78963757D01*
X145251557Y-78761588D01*
X145155051Y-78572184D01*
X145155049Y-78572181D01*
X145155048Y-78572179D01*
X145030109Y-78400213D01*
X144879786Y-78249890D01*
X144707820Y-78124951D01*
X144707115Y-78124591D01*
X144699054Y-78120485D01*
X144648259Y-78072512D01*
X144631463Y-78004692D01*
X144653999Y-77938556D01*
X144699054Y-77899515D01*
X144707816Y-77895051D01*
X144769137Y-77850499D01*
X144879786Y-77770109D01*
X144879788Y-77770106D01*
X144879792Y-77770104D01*
X145030104Y-77619792D01*
X145030106Y-77619788D01*
X145030109Y-77619786D01*
X145155048Y-77447820D01*
X145155047Y-77447820D01*
X145155051Y-77447816D01*
X145251557Y-77258412D01*
X145317246Y-77056243D01*
X145350500Y-76846287D01*
X145350500Y-76633713D01*
X145317246Y-76423757D01*
X145251557Y-76221588D01*
X145155051Y-76032184D01*
X145155049Y-76032181D01*
X145155048Y-76032179D01*
X145030109Y-75860213D01*
X144879786Y-75709890D01*
X144707820Y-75584951D01*
X144707115Y-75584591D01*
X144699054Y-75580485D01*
X144648259Y-75532512D01*
X144631463Y-75464692D01*
X144653999Y-75398556D01*
X144699054Y-75359515D01*
X144707816Y-75355051D01*
X144841599Y-75257853D01*
X144879786Y-75230109D01*
X144879788Y-75230106D01*
X144879792Y-75230104D01*
X145030104Y-75079792D01*
X145030106Y-75079788D01*
X145030109Y-75079786D01*
X145155048Y-74907820D01*
X145155047Y-74907820D01*
X145155051Y-74907816D01*
X145251557Y-74718412D01*
X145317246Y-74516243D01*
X145350500Y-74306287D01*
X145350500Y-74093713D01*
X145317246Y-73883757D01*
X145251557Y-73681588D01*
X145155051Y-73492184D01*
X145155049Y-73492181D01*
X145155048Y-73492179D01*
X145030109Y-73320213D01*
X144879786Y-73169890D01*
X144707820Y-73044951D01*
X144707115Y-73044591D01*
X144699054Y-73040485D01*
X144648259Y-72992512D01*
X144631463Y-72924692D01*
X144653999Y-72858556D01*
X144699054Y-72819515D01*
X144707816Y-72815051D01*
X144729789Y-72799086D01*
X144879786Y-72690109D01*
X144879788Y-72690106D01*
X144879792Y-72690104D01*
X145030104Y-72539792D01*
X145030106Y-72539788D01*
X145030109Y-72539786D01*
X145155048Y-72367820D01*
X145155047Y-72367820D01*
X145155051Y-72367816D01*
X145251557Y-72178412D01*
X145317246Y-71976243D01*
X145350500Y-71766287D01*
X145350500Y-71553713D01*
X145317246Y-71343757D01*
X145251557Y-71141588D01*
X145155051Y-70952184D01*
X145155049Y-70952181D01*
X145155048Y-70952179D01*
X145030109Y-70780213D01*
X144879786Y-70629890D01*
X144707820Y-70504951D01*
X144707115Y-70504591D01*
X144699054Y-70500485D01*
X144648259Y-70452512D01*
X144631463Y-70384692D01*
X144653999Y-70318556D01*
X144699054Y-70279515D01*
X144707816Y-70275051D01*
X144802574Y-70206206D01*
X144879786Y-70150109D01*
X144879788Y-70150106D01*
X144879792Y-70150104D01*
X145030104Y-69999792D01*
X145030106Y-69999788D01*
X145030109Y-69999786D01*
X145155048Y-69827820D01*
X145155047Y-69827820D01*
X145155051Y-69827816D01*
X145251557Y-69638412D01*
X145317246Y-69436243D01*
X145350500Y-69226287D01*
X145350500Y-69013713D01*
X145317246Y-68803757D01*
X145251557Y-68601588D01*
X145155051Y-68412184D01*
X145155049Y-68412181D01*
X145155048Y-68412179D01*
X145030109Y-68240213D01*
X144879786Y-68089890D01*
X144707820Y-67964951D01*
X144707115Y-67964591D01*
X144699054Y-67960485D01*
X144648259Y-67912512D01*
X144631463Y-67844692D01*
X144653999Y-67778556D01*
X144699054Y-67739515D01*
X144707816Y-67735051D01*
X144729789Y-67719086D01*
X144879786Y-67610109D01*
X144879788Y-67610106D01*
X144879792Y-67610104D01*
X145030104Y-67459792D01*
X145030106Y-67459788D01*
X145030109Y-67459786D01*
X145155048Y-67287820D01*
X145155047Y-67287820D01*
X145155051Y-67287816D01*
X145251557Y-67098412D01*
X145317246Y-66896243D01*
X145350500Y-66686287D01*
X145350500Y-66473713D01*
X145317246Y-66263757D01*
X145251557Y-66061588D01*
X145155051Y-65872184D01*
X145155049Y-65872181D01*
X145155048Y-65872179D01*
X145030109Y-65700213D01*
X144879786Y-65549890D01*
X144707820Y-65424951D01*
X144707115Y-65424591D01*
X144699054Y-65420485D01*
X144648259Y-65372512D01*
X144631463Y-65304692D01*
X144653999Y-65238556D01*
X144699054Y-65199515D01*
X144707816Y-65195051D01*
X144729789Y-65179086D01*
X144879786Y-65070109D01*
X144879788Y-65070106D01*
X144879792Y-65070104D01*
X145030104Y-64919792D01*
X145030106Y-64919788D01*
X145030109Y-64919786D01*
X145155048Y-64747820D01*
X145155047Y-64747820D01*
X145155051Y-64747816D01*
X145251557Y-64558412D01*
X145317246Y-64356243D01*
X145350500Y-64146287D01*
X145350500Y-63933713D01*
X145317246Y-63723757D01*
X145251557Y-63521588D01*
X145155051Y-63332184D01*
X145155049Y-63332181D01*
X145155048Y-63332179D01*
X145030109Y-63160213D01*
X144916569Y-63046673D01*
X144883084Y-62985350D01*
X144888068Y-62915658D01*
X144929940Y-62859725D01*
X144960915Y-62842810D01*
X145092331Y-62793796D01*
X145207546Y-62707546D01*
X145293796Y-62592331D01*
X145344091Y-62457483D01*
X145350500Y-62397873D01*
X145350499Y-60602128D01*
X145344091Y-60542517D01*
X145293796Y-60407669D01*
X145293795Y-60407668D01*
X145293793Y-60407664D01*
X145207547Y-60292455D01*
X145207544Y-60292452D01*
X145092335Y-60206206D01*
X145092328Y-60206202D01*
X144957482Y-60155908D01*
X144957483Y-60155908D01*
X144897883Y-60149501D01*
X144897881Y-60149500D01*
X144897873Y-60149500D01*
X144897864Y-60149500D01*
X143102129Y-60149500D01*
X143102123Y-60149501D01*
X143042516Y-60155908D01*
X142907671Y-60206202D01*
X142907669Y-60206203D01*
X142836074Y-60259799D01*
X142825380Y-60267806D01*
X142824311Y-60268606D01*
X142758847Y-60293023D01*
X142690574Y-60278172D01*
X142675689Y-60268606D01*
X142674620Y-60267806D01*
X142592331Y-60206204D01*
X142592330Y-60206203D01*
X142592328Y-60206202D01*
X142457482Y-60155908D01*
X142457483Y-60155908D01*
X142397883Y-60149501D01*
X142397881Y-60149500D01*
X142397873Y-60149500D01*
X142397864Y-60149500D01*
X140602129Y-60149500D01*
X140602123Y-60149501D01*
X140542516Y-60155908D01*
X140407671Y-60206202D01*
X140407664Y-60206206D01*
X140292455Y-60292452D01*
X140292452Y-60292455D01*
X140206206Y-60407664D01*
X140206202Y-60407671D01*
X140155908Y-60542517D01*
X140149501Y-60602116D01*
X140149501Y-60602123D01*
X140149500Y-60602135D01*
X140149500Y-61949902D01*
X140129815Y-62016941D01*
X140113181Y-62037583D01*
X133000000Y-69150763D01*
X133000000Y-63797974D01*
X133224732Y-63677853D01*
X133527044Y-63475854D01*
X133808101Y-63245197D01*
X134065197Y-62988101D01*
X134295854Y-62707044D01*
X134497853Y-62404732D01*
X134669247Y-62084076D01*
X134808386Y-61748164D01*
X134913930Y-61400233D01*
X134913932Y-61400223D01*
X134913935Y-61400212D01*
X134984862Y-61043630D01*
X135020500Y-60681790D01*
X135020500Y-60318209D01*
X135018019Y-60293023D01*
X134984862Y-59956369D01*
X134968513Y-59874174D01*
X134913935Y-59599787D01*
X134913932Y-59599776D01*
X134913931Y-59599773D01*
X134913930Y-59599767D01*
X134808386Y-59251836D01*
X134669247Y-58915924D01*
X134652286Y-58884193D01*
X134497859Y-58595279D01*
X134497858Y-58595277D01*
X134497853Y-58595268D01*
X134295854Y-58292956D01*
X134065197Y-58011899D01*
X134065196Y-58011898D01*
X134065192Y-58011893D01*
X133808106Y-57754807D01*
X133527049Y-57524150D01*
X133527048Y-57524149D01*
X133527044Y-57524146D01*
X133224732Y-57322147D01*
X133224727Y-57322144D01*
X133224720Y-57322140D01*
X132904083Y-57150756D01*
X132904078Y-57150754D01*
X132568165Y-57011614D01*
X132220223Y-56906067D01*
X132220212Y-56906064D01*
X131863630Y-56835137D01*
X131591111Y-56808296D01*
X131501794Y-56799500D01*
X131138206Y-56799500D01*
X131055679Y-56807628D01*
X130776369Y-56835137D01*
X130419787Y-56906064D01*
X130419776Y-56906067D01*
X130071834Y-57011614D01*
X129735921Y-57150754D01*
X129735916Y-57150756D01*
X129415279Y-57322140D01*
X129415261Y-57322151D01*
X129112964Y-57524140D01*
X129112950Y-57524150D01*
X128831893Y-57754807D01*
X128574807Y-58011893D01*
X128344150Y-58292950D01*
X128344140Y-58292964D01*
X128142151Y-58595261D01*
X128142140Y-58595279D01*
X127970756Y-58915916D01*
X127970754Y-58915921D01*
X127831614Y-59251834D01*
X127726067Y-59599776D01*
X127726064Y-59599787D01*
X127655137Y-59956369D01*
X127636116Y-60149500D01*
X127621981Y-60293023D01*
X127619500Y-60318209D01*
X127619500Y-60500000D01*
X115020500Y-60500000D01*
X115020500Y-60318209D01*
X115018019Y-60293023D01*
X114984862Y-59956369D01*
X114968513Y-59874174D01*
X114913935Y-59599787D01*
X114913932Y-59599776D01*
X114913931Y-59599773D01*
X114913930Y-59599767D01*
X114808386Y-59251836D01*
X114669247Y-58915924D01*
X114652286Y-58884193D01*
X114497859Y-58595279D01*
X114497858Y-58595277D01*
X114497853Y-58595268D01*
X114295854Y-58292956D01*
X114065197Y-58011899D01*
X114065196Y-58011898D01*
X114065192Y-58011893D01*
X113808106Y-57754807D01*
X113527049Y-57524150D01*
X113527048Y-57524149D01*
X113527044Y-57524146D01*
X113224732Y-57322147D01*
X113224727Y-57322144D01*
X113224720Y-57322140D01*
X112904083Y-57150756D01*
X112904078Y-57150754D01*
X112568165Y-57011614D01*
X112220223Y-56906067D01*
X112220212Y-56906064D01*
X111863630Y-56835137D01*
X111591111Y-56808296D01*
X111501794Y-56799500D01*
X111138206Y-56799500D01*
X111055679Y-56807628D01*
X110776369Y-56835137D01*
X110419787Y-56906064D01*
X110419776Y-56906067D01*
X110071834Y-57011614D01*
X109735921Y-57150754D01*
X109735916Y-57150756D01*
X109415279Y-57322140D01*
X109415261Y-57322151D01*
X109112964Y-57524140D01*
X109112950Y-57524150D01*
X108831893Y-57754807D01*
X108574807Y-58011893D01*
X108344150Y-58292950D01*
X108344140Y-58292964D01*
X108142151Y-58595261D01*
X108142140Y-58595279D01*
X107970756Y-58915916D01*
X107970754Y-58915921D01*
X107831614Y-59251834D01*
X107726067Y-59599776D01*
X107726064Y-59599787D01*
X107655137Y-59956369D01*
X107636116Y-60149500D01*
X107621981Y-60293023D01*
X107619500Y-60318209D01*
X107619500Y-60681790D01*
X107655137Y-61043630D01*
X107726064Y-61400212D01*
X107726067Y-61400223D01*
X107831614Y-61748165D01*
X107970754Y-62084078D01*
X107970756Y-62084083D01*
X108142140Y-62404720D01*
X108142151Y-62404738D01*
X108344140Y-62707035D01*
X108344150Y-62707049D01*
X108574807Y-62988106D01*
X108831893Y-63245192D01*
X108831898Y-63245196D01*
X108831899Y-63245197D01*
X109112956Y-63475854D01*
X109415268Y-63677853D01*
X109415277Y-63677858D01*
X109415279Y-63677859D01*
X109516878Y-63732165D01*
X109618535Y-71153111D01*
X109592516Y-71155908D01*
X109457671Y-71206202D01*
X109457664Y-71206206D01*
X109342457Y-71292451D01*
X109342450Y-71292457D01*
X109325134Y-71315588D01*
X109269198Y-71357457D01*
X109199506Y-71362438D01*
X109138189Y-71328954D01*
X102333757Y-64524522D01*
X102300272Y-64463199D01*
X102303507Y-64398523D01*
X102317246Y-64356243D01*
X102350500Y-64146287D01*
X102350500Y-63933713D01*
X102317246Y-63723757D01*
X102251557Y-63521588D01*
X102155051Y-63332184D01*
X102155049Y-63332181D01*
X102155048Y-63332179D01*
X102030109Y-63160213D01*
X101879786Y-63009890D01*
X101707820Y-62884951D01*
X101518414Y-62788444D01*
X101518413Y-62788443D01*
X101518412Y-62788443D01*
X101316243Y-62722754D01*
X101316241Y-62722753D01*
X101316240Y-62722753D01*
X101154957Y-62697208D01*
X101106287Y-62689500D01*
X100893713Y-62689500D01*
X100845042Y-62697208D01*
X100683760Y-62722753D01*
X100481585Y-62788444D01*
X100292179Y-62884951D01*
X100120213Y-63009890D01*
X99969890Y-63160213D01*
X99844948Y-63332184D01*
X99844947Y-63332185D01*
X99824765Y-63371795D01*
X99814316Y-63382857D01*
X99807994Y-63396703D01*
X99790812Y-63407744D01*
X99776791Y-63422591D01*
X99761111Y-63426832D01*
X99749216Y-63434477D01*
X99714281Y-63439500D01*
X99635719Y-63439500D01*
X99568680Y-63419815D01*
X99525235Y-63371795D01*
X99505052Y-63332185D01*
X99505051Y-63332184D01*
X99380109Y-63160213D01*
X99229786Y-63009890D01*
X99057820Y-62884951D01*
X98868414Y-62788444D01*
X98868413Y-62788443D01*
X98868412Y-62788443D01*
X98666243Y-62722754D01*
X98666241Y-62722753D01*
X98666240Y-62722753D01*
X98504957Y-62697208D01*
X98456287Y-62689500D01*
X98243713Y-62689500D01*
X98195042Y-62697208D01*
X98033760Y-62722753D01*
X97831585Y-62788444D01*
X97642179Y-62884951D01*
X97470213Y-63009890D01*
X97319890Y-63160213D01*
X97194951Y-63332179D01*
X97098444Y-63521585D01*
X97032753Y-63723760D01*
X96999500Y-63933713D01*
X96188398Y-63933713D01*
X96188398Y-60270604D01*
X96188516Y-60265195D01*
X96188520Y-60265103D01*
X96205589Y-59874153D01*
X96206529Y-59863420D01*
X96257266Y-59478026D01*
X96259136Y-59467419D01*
X96294733Y-59306852D01*
X96328459Y-59245668D01*
X96339646Y-59235830D01*
X100466417Y-56026119D01*
X100531420Y-56000500D01*
X100542546Y-56000000D01*
X142453408Y-56000000D01*
X142520447Y-56019685D01*
G37*
%TD.AperFunction*%
%TD*%
%TA.AperFunction,Conductor*%
%TO.N,GND*%
G36*
X113528275Y-63562210D02*
G01*
X113550790Y-63580025D01*
X114863181Y-64892416D01*
X114896666Y-64953739D01*
X114899500Y-64980097D01*
X114899500Y-71579056D01*
X114940423Y-71731783D01*
X114940426Y-71731790D01*
X115019475Y-71868709D01*
X115019479Y-71868714D01*
X115019480Y-71868716D01*
X115131284Y-71980520D01*
X115131286Y-71980521D01*
X115131290Y-71980524D01*
X115230987Y-72038083D01*
X115268216Y-72059577D01*
X115420943Y-72100500D01*
X115579057Y-72100500D01*
X126420943Y-72100500D01*
X126579057Y-72100500D01*
X127699903Y-72100500D01*
X127729343Y-72109144D01*
X127759330Y-72115668D01*
X127764345Y-72119422D01*
X127766942Y-72120185D01*
X127787584Y-72136819D01*
X127938584Y-72287819D01*
X127972069Y-72349142D01*
X127967085Y-72418834D01*
X127925213Y-72474767D01*
X127859749Y-72499184D01*
X127850903Y-72499500D01*
X113434108Y-72499500D01*
X113306812Y-72533608D01*
X113192686Y-72599500D01*
X113192683Y-72599502D01*
X113099502Y-72692683D01*
X113099500Y-72692686D01*
X113033608Y-72806812D01*
X112999500Y-72934108D01*
X112999500Y-88065891D01*
X113033608Y-88193187D01*
X113066554Y-88250250D01*
X113099500Y-88307314D01*
X113192686Y-88400500D01*
X113261840Y-88440426D01*
X113305045Y-88465371D01*
X113306814Y-88466392D01*
X113434108Y-88500500D01*
X113565892Y-88500500D01*
X118048902Y-88500500D01*
X118115941Y-88520185D01*
X118161696Y-88572989D01*
X118171640Y-88642147D01*
X118142615Y-88705703D01*
X118136583Y-88712181D01*
X116019481Y-90829282D01*
X116019477Y-90829287D01*
X115974225Y-90907668D01*
X115974225Y-90907669D01*
X115940423Y-90966214D01*
X115940423Y-90966215D01*
X115899499Y-91118943D01*
X115899499Y-91118945D01*
X115899499Y-91287046D01*
X115899500Y-91287059D01*
X115899500Y-91579056D01*
X115940423Y-91731783D01*
X115940426Y-91731790D01*
X116019475Y-91868709D01*
X116019479Y-91868714D01*
X116019480Y-91868716D01*
X116131284Y-91980520D01*
X116131286Y-91980521D01*
X116131290Y-91980524D01*
X116267317Y-92059058D01*
X116268216Y-92059577D01*
X116420943Y-92100500D01*
X116420945Y-92100500D01*
X116579053Y-92100500D01*
X116579057Y-92100500D01*
X116608990Y-92092479D01*
X116678837Y-92094142D01*
X116736700Y-92133304D01*
X116740348Y-92137942D01*
X116792455Y-92207547D01*
X116907664Y-92293793D01*
X116907671Y-92293797D01*
X117042517Y-92344091D01*
X117042516Y-92344091D01*
X117049444Y-92344835D01*
X117102127Y-92350500D01*
X117897872Y-92350499D01*
X117957483Y-92344091D01*
X117957485Y-92344090D01*
X117957487Y-92344090D01*
X117965031Y-92342308D01*
X117965377Y-92343775D01*
X118026342Y-92339408D01*
X118041378Y-92343822D01*
X118042513Y-92344089D01*
X118042517Y-92344091D01*
X118102127Y-92350500D01*
X118897872Y-92350499D01*
X118957483Y-92344091D01*
X118957485Y-92344090D01*
X118957487Y-92344090D01*
X118965031Y-92342308D01*
X118965377Y-92343775D01*
X119026342Y-92339408D01*
X119041378Y-92343822D01*
X119042513Y-92344089D01*
X119042517Y-92344091D01*
X119102127Y-92350500D01*
X119897872Y-92350499D01*
X119957483Y-92344091D01*
X119957485Y-92344090D01*
X119957487Y-92344090D01*
X119965031Y-92342308D01*
X119965377Y-92343775D01*
X120026342Y-92339408D01*
X120041378Y-92343822D01*
X120042513Y-92344089D01*
X120042517Y-92344091D01*
X120102127Y-92350500D01*
X120897872Y-92350499D01*
X120957483Y-92344091D01*
X120957485Y-92344090D01*
X120957487Y-92344090D01*
X120965031Y-92342308D01*
X120965377Y-92343775D01*
X121026342Y-92339408D01*
X121041378Y-92343822D01*
X121042513Y-92344089D01*
X121042517Y-92344091D01*
X121102127Y-92350500D01*
X121897872Y-92350499D01*
X121957483Y-92344091D01*
X121957485Y-92344090D01*
X121957487Y-92344090D01*
X121965031Y-92342308D01*
X121965377Y-92343775D01*
X122026342Y-92339408D01*
X122041378Y-92343822D01*
X122042513Y-92344089D01*
X122042517Y-92344091D01*
X122102127Y-92350500D01*
X122897872Y-92350499D01*
X122957483Y-92344091D01*
X122957485Y-92344090D01*
X122957487Y-92344090D01*
X122965031Y-92342308D01*
X122965377Y-92343775D01*
X123026342Y-92339408D01*
X123041378Y-92343822D01*
X123042513Y-92344089D01*
X123042517Y-92344091D01*
X123102127Y-92350500D01*
X123897872Y-92350499D01*
X123957483Y-92344091D01*
X123957485Y-92344090D01*
X123957487Y-92344090D01*
X123965031Y-92342308D01*
X123965377Y-92343775D01*
X124026342Y-92339408D01*
X124041378Y-92343822D01*
X124042513Y-92344089D01*
X124042517Y-92344091D01*
X124102127Y-92350500D01*
X124897872Y-92350499D01*
X124957483Y-92344091D01*
X124957485Y-92344090D01*
X124957487Y-92344090D01*
X124965031Y-92342308D01*
X124965377Y-92343775D01*
X125026342Y-92339408D01*
X125041378Y-92343822D01*
X125042513Y-92344089D01*
X125042517Y-92344091D01*
X125102127Y-92350500D01*
X125897872Y-92350499D01*
X125957483Y-92344091D01*
X126092331Y-92293796D01*
X126207546Y-92207546D01*
X126293796Y-92092331D01*
X126344091Y-91957483D01*
X126350500Y-91897873D01*
X126350499Y-91102128D01*
X126344091Y-91042517D01*
X126293796Y-90907669D01*
X126293795Y-90907668D01*
X126293793Y-90907664D01*
X126207547Y-90792455D01*
X126207544Y-90792452D01*
X126092335Y-90706206D01*
X126092328Y-90706202D01*
X125957482Y-90655908D01*
X125957483Y-90655908D01*
X125897883Y-90649501D01*
X125897881Y-90649500D01*
X125897873Y-90649500D01*
X125897864Y-90649500D01*
X125102129Y-90649500D01*
X125102123Y-90649501D01*
X125042520Y-90655908D01*
X125034974Y-90657692D01*
X125034628Y-90656230D01*
X124973622Y-90660584D01*
X124958600Y-90656172D01*
X124957482Y-90655908D01*
X124897883Y-90649501D01*
X124897881Y-90649500D01*
X124897873Y-90649500D01*
X124897864Y-90649500D01*
X124102129Y-90649500D01*
X124102123Y-90649501D01*
X124042520Y-90655908D01*
X124034974Y-90657692D01*
X124034628Y-90656230D01*
X123973622Y-90660584D01*
X123958600Y-90656172D01*
X123957482Y-90655908D01*
X123897883Y-90649501D01*
X123897881Y-90649500D01*
X123897873Y-90649500D01*
X123897864Y-90649500D01*
X123102129Y-90649500D01*
X123102123Y-90649501D01*
X123042520Y-90655908D01*
X123034974Y-90657692D01*
X123034628Y-90656230D01*
X122973622Y-90660584D01*
X122958600Y-90656172D01*
X122957482Y-90655908D01*
X122897883Y-90649501D01*
X122897881Y-90649500D01*
X122897873Y-90649500D01*
X122897864Y-90649500D01*
X122102129Y-90649500D01*
X122102123Y-90649501D01*
X122042520Y-90655908D01*
X122034974Y-90657692D01*
X122034628Y-90656230D01*
X121973622Y-90660584D01*
X121958600Y-90656172D01*
X121957482Y-90655908D01*
X121897883Y-90649501D01*
X121897881Y-90649500D01*
X121897873Y-90649500D01*
X121897864Y-90649500D01*
X121102129Y-90649500D01*
X121102123Y-90649501D01*
X121042520Y-90655908D01*
X121034974Y-90657692D01*
X121034628Y-90656230D01*
X120973622Y-90660584D01*
X120958600Y-90656172D01*
X120957482Y-90655908D01*
X120897883Y-90649501D01*
X120897881Y-90649500D01*
X120897873Y-90649500D01*
X120897864Y-90649500D01*
X120102129Y-90649500D01*
X120102123Y-90649501D01*
X120042520Y-90655908D01*
X120034974Y-90657692D01*
X120034628Y-90656230D01*
X119973622Y-90660584D01*
X119958600Y-90656172D01*
X119957482Y-90655908D01*
X119897883Y-90649501D01*
X119897881Y-90649500D01*
X119897873Y-90649500D01*
X119897864Y-90649500D01*
X119102129Y-90649500D01*
X119102123Y-90649501D01*
X119042520Y-90655908D01*
X119034974Y-90657692D01*
X119034628Y-90656230D01*
X118973622Y-90660584D01*
X118958600Y-90656172D01*
X118957482Y-90655908D01*
X118897883Y-90649501D01*
X118897881Y-90649500D01*
X118897873Y-90649500D01*
X118897865Y-90649500D01*
X118197095Y-90649500D01*
X118130056Y-90629815D01*
X118084301Y-90577011D01*
X118074357Y-90507853D01*
X118103382Y-90444297D01*
X118109397Y-90437836D01*
X118910416Y-89636819D01*
X118971739Y-89603334D01*
X118998097Y-89600500D01*
X129275500Y-89600500D01*
X129342539Y-89620185D01*
X129388294Y-89672989D01*
X129399500Y-89724500D01*
X129399500Y-95699218D01*
X129399499Y-95699236D01*
X129399499Y-95864942D01*
X129399498Y-95864942D01*
X129440423Y-96017673D01*
X129469358Y-96067788D01*
X129469359Y-96067792D01*
X129469360Y-96067792D01*
X129519479Y-96154602D01*
X129519481Y-96154605D01*
X129638349Y-96273473D01*
X129638355Y-96273478D01*
X130159296Y-96794420D01*
X130192781Y-96855743D01*
X130187797Y-96925435D01*
X130145925Y-96981368D01*
X130107611Y-97000761D01*
X130071841Y-97011612D01*
X129735921Y-97150754D01*
X129735916Y-97150756D01*
X129415279Y-97322140D01*
X129415261Y-97322151D01*
X129112964Y-97524140D01*
X129112950Y-97524150D01*
X128831893Y-97754807D01*
X128574807Y-98011893D01*
X128344150Y-98292950D01*
X128344140Y-98292964D01*
X128142151Y-98595261D01*
X128142140Y-98595279D01*
X127970756Y-98915916D01*
X127970754Y-98915921D01*
X127831614Y-99251834D01*
X127726067Y-99599776D01*
X127726064Y-99599787D01*
X127655137Y-99956369D01*
X127619500Y-100318209D01*
X127619500Y-100500000D01*
X115020500Y-100500000D01*
X115020500Y-100318206D01*
X114984862Y-99956369D01*
X114913935Y-99599787D01*
X114913932Y-99599776D01*
X114913931Y-99599773D01*
X114913930Y-99599767D01*
X114808386Y-99251836D01*
X114669247Y-98915924D01*
X114497853Y-98595268D01*
X114295854Y-98292956D01*
X114065197Y-98011899D01*
X114065196Y-98011898D01*
X114065192Y-98011893D01*
X113808106Y-97754807D01*
X113662891Y-97635632D01*
X113623557Y-97577886D01*
X113617556Y-97539779D01*
X113617556Y-92783041D01*
X113637241Y-92716002D01*
X113653875Y-92695360D01*
X115062189Y-91287046D01*
X116480519Y-89868716D01*
X116559577Y-89731785D01*
X116600501Y-89579057D01*
X116600501Y-89420943D01*
X116559577Y-89268215D01*
X116480519Y-89131284D01*
X116368716Y-89019481D01*
X116231785Y-88940423D01*
X116079057Y-88899499D01*
X115920943Y-88899499D01*
X115806397Y-88930192D01*
X115768214Y-88940423D01*
X115631284Y-89019481D01*
X115631281Y-89019483D01*
X112648342Y-92002422D01*
X112536537Y-92114226D01*
X112536535Y-92114229D01*
X112486417Y-92201038D01*
X112486415Y-92201040D01*
X112457481Y-92251153D01*
X112457480Y-92251154D01*
X112457479Y-92251159D01*
X112416555Y-92403887D01*
X112416555Y-92403889D01*
X112416555Y-92571990D01*
X112416556Y-92572003D01*
X112416556Y-96798429D01*
X112396871Y-96865468D01*
X112344067Y-96911223D01*
X112274909Y-96921167D01*
X112256562Y-96917090D01*
X112235495Y-96910699D01*
X112220233Y-96906070D01*
X112220230Y-96906069D01*
X112220229Y-96906069D01*
X112220212Y-96906064D01*
X111863630Y-96835137D01*
X111591111Y-96808296D01*
X111501794Y-96799500D01*
X111138206Y-96799500D01*
X111055679Y-96807628D01*
X110776369Y-96835137D01*
X110419787Y-96906064D01*
X110419776Y-96906067D01*
X110071830Y-97011615D01*
X109973320Y-97052418D01*
X109888363Y-90850499D01*
X110447872Y-90850499D01*
X110507483Y-90844091D01*
X110642331Y-90793796D01*
X110757546Y-90707546D01*
X110843796Y-90592331D01*
X110894091Y-90457483D01*
X110900500Y-90397873D01*
X110900499Y-89602128D01*
X110894091Y-89542517D01*
X110894090Y-89542515D01*
X110894090Y-89542512D01*
X110892308Y-89534969D01*
X110893773Y-89534622D01*
X110889409Y-89473651D01*
X110893819Y-89458633D01*
X110894089Y-89457488D01*
X110894091Y-89457483D01*
X110900500Y-89397873D01*
X110900499Y-88602128D01*
X110894091Y-88542517D01*
X110894090Y-88542515D01*
X110894090Y-88542512D01*
X110892308Y-88534969D01*
X110893773Y-88534622D01*
X110889409Y-88473651D01*
X110893819Y-88458633D01*
X110894089Y-88457488D01*
X110894091Y-88457483D01*
X110900500Y-88397873D01*
X110900499Y-87602128D01*
X110894091Y-87542517D01*
X110894090Y-87542515D01*
X110894090Y-87542512D01*
X110892308Y-87534969D01*
X110893773Y-87534622D01*
X110889409Y-87473651D01*
X110893819Y-87458633D01*
X110894089Y-87457488D01*
X110894091Y-87457483D01*
X110900500Y-87397873D01*
X110900499Y-86602128D01*
X110894091Y-86542517D01*
X110894090Y-86542515D01*
X110894090Y-86542512D01*
X110892308Y-86534969D01*
X110893773Y-86534622D01*
X110889409Y-86473651D01*
X110893819Y-86458633D01*
X110894089Y-86457488D01*
X110894091Y-86457483D01*
X110900500Y-86397873D01*
X110900499Y-85602128D01*
X110894091Y-85542517D01*
X110894090Y-85542515D01*
X110894090Y-85542512D01*
X110892308Y-85534969D01*
X110893773Y-85534622D01*
X110889409Y-85473651D01*
X110893819Y-85458633D01*
X110894089Y-85457488D01*
X110894091Y-85457483D01*
X110900500Y-85397873D01*
X110900499Y-84602128D01*
X110894091Y-84542517D01*
X110894090Y-84542515D01*
X110894090Y-84542512D01*
X110892308Y-84534969D01*
X110893773Y-84534622D01*
X110889409Y-84473651D01*
X110893819Y-84458633D01*
X110894089Y-84457488D01*
X110894091Y-84457483D01*
X110900500Y-84397873D01*
X110900499Y-83602128D01*
X110894091Y-83542517D01*
X110894090Y-83542515D01*
X110894090Y-83542512D01*
X110892308Y-83534969D01*
X110893773Y-83534622D01*
X110889409Y-83473651D01*
X110893819Y-83458633D01*
X110894089Y-83457488D01*
X110894091Y-83457483D01*
X110900500Y-83397873D01*
X110900499Y-82602128D01*
X110894091Y-82542517D01*
X110894090Y-82542515D01*
X110894090Y-82542512D01*
X110892308Y-82534969D01*
X110893773Y-82534622D01*
X110889409Y-82473651D01*
X110893819Y-82458633D01*
X110894089Y-82457488D01*
X110894091Y-82457483D01*
X110900500Y-82397873D01*
X110900499Y-81602128D01*
X110894091Y-81542517D01*
X110894090Y-81542515D01*
X110894090Y-81542512D01*
X110892308Y-81534969D01*
X110893773Y-81534622D01*
X110889409Y-81473651D01*
X110893819Y-81458633D01*
X110894089Y-81457488D01*
X110894091Y-81457483D01*
X110900500Y-81397873D01*
X110900499Y-80602128D01*
X110894091Y-80542517D01*
X110894090Y-80542515D01*
X110894090Y-80542512D01*
X110892308Y-80534969D01*
X110893773Y-80534622D01*
X110889409Y-80473651D01*
X110893819Y-80458633D01*
X110894089Y-80457488D01*
X110894091Y-80457483D01*
X110900500Y-80397873D01*
X110900499Y-79602128D01*
X110894091Y-79542517D01*
X110894090Y-79542515D01*
X110894090Y-79542512D01*
X110892308Y-79534969D01*
X110893773Y-79534622D01*
X110889409Y-79473651D01*
X110893819Y-79458633D01*
X110894089Y-79457488D01*
X110894091Y-79457483D01*
X110900500Y-79397873D01*
X110900499Y-78602128D01*
X110894091Y-78542517D01*
X110878233Y-78500000D01*
X110843797Y-78407671D01*
X110843793Y-78407664D01*
X110757547Y-78292455D01*
X110757544Y-78292452D01*
X110642335Y-78206206D01*
X110642328Y-78206202D01*
X110507482Y-78155908D01*
X110507483Y-78155908D01*
X110447883Y-78149501D01*
X110447881Y-78149500D01*
X110447873Y-78149500D01*
X110447864Y-78149500D01*
X109714377Y-78149500D01*
X109710281Y-77850499D01*
X110447872Y-77850499D01*
X110507483Y-77844091D01*
X110642331Y-77793796D01*
X110757546Y-77707546D01*
X110843796Y-77592331D01*
X110894091Y-77457483D01*
X110900500Y-77397873D01*
X110900499Y-76602128D01*
X110894091Y-76542517D01*
X110894090Y-76542515D01*
X110894090Y-76542512D01*
X110892308Y-76534969D01*
X110893773Y-76534622D01*
X110889409Y-76473651D01*
X110893819Y-76458633D01*
X110894089Y-76457488D01*
X110894091Y-76457483D01*
X110900500Y-76397873D01*
X110900499Y-75602128D01*
X110894091Y-75542517D01*
X110894090Y-75542515D01*
X110894090Y-75542512D01*
X110892308Y-75534969D01*
X110893773Y-75534622D01*
X110889409Y-75473651D01*
X110893819Y-75458633D01*
X110894089Y-75457488D01*
X110894091Y-75457483D01*
X110900500Y-75397873D01*
X110900499Y-74602128D01*
X110894091Y-74542517D01*
X110894090Y-74542515D01*
X110894090Y-74542512D01*
X110892308Y-74534969D01*
X110893773Y-74534622D01*
X110889409Y-74473651D01*
X110893819Y-74458633D01*
X110894089Y-74457488D01*
X110894091Y-74457483D01*
X110900500Y-74397873D01*
X110900499Y-73602128D01*
X110894091Y-73542517D01*
X110894090Y-73542515D01*
X110894090Y-73542512D01*
X110892308Y-73534969D01*
X110893773Y-73534622D01*
X110889409Y-73473651D01*
X110893819Y-73458633D01*
X110894089Y-73457488D01*
X110894091Y-73457483D01*
X110900500Y-73397873D01*
X110900499Y-72602128D01*
X110894091Y-72542517D01*
X110894090Y-72542515D01*
X110894090Y-72542512D01*
X110892308Y-72534969D01*
X110893773Y-72534622D01*
X110889409Y-72473651D01*
X110893819Y-72458633D01*
X110894089Y-72457488D01*
X110894091Y-72457483D01*
X110900500Y-72397873D01*
X110900499Y-71602128D01*
X110894091Y-71542517D01*
X110843796Y-71407669D01*
X110843795Y-71407668D01*
X110843793Y-71407664D01*
X110757547Y-71292455D01*
X110757544Y-71292452D01*
X110642335Y-71206206D01*
X110642328Y-71206202D01*
X110507482Y-71155908D01*
X110507483Y-71155908D01*
X110447883Y-71149501D01*
X110447881Y-71149500D01*
X110447873Y-71149500D01*
X110447864Y-71149500D01*
X109652129Y-71149500D01*
X109652123Y-71149501D01*
X109618535Y-71153111D01*
X109516878Y-63732165D01*
X109735916Y-63849243D01*
X109735918Y-63849243D01*
X109735924Y-63849247D01*
X110071836Y-63988386D01*
X110419767Y-64093930D01*
X110419773Y-64093931D01*
X110419776Y-64093932D01*
X110419787Y-64093935D01*
X110776369Y-64164862D01*
X111138206Y-64200500D01*
X111138209Y-64200500D01*
X111501791Y-64200500D01*
X111501794Y-64200500D01*
X111863631Y-64164862D01*
X111933045Y-64151054D01*
X112220212Y-64093935D01*
X112220223Y-64093932D01*
X112220223Y-64093931D01*
X112220233Y-64093930D01*
X112568164Y-63988386D01*
X112904076Y-63849247D01*
X113224732Y-63677853D01*
X113394221Y-63564602D01*
X113460895Y-63543726D01*
X113528275Y-63562210D01*
G37*
%TD.AperFunction*%
%TA.AperFunction,Conductor*%
G36*
X131073160Y-72328586D02*
G01*
X131129094Y-72370458D01*
X131153117Y-72431513D01*
X131155909Y-72457483D01*
X131157481Y-72461698D01*
X131158916Y-72466874D01*
X131158463Y-72496659D01*
X131160585Y-72526371D01*
X131157872Y-72535611D01*
X131157855Y-72536735D01*
X131157294Y-72537578D01*
X131156173Y-72541396D01*
X131155908Y-72542517D01*
X131149782Y-72599500D01*
X131149501Y-72602123D01*
X131149500Y-72602135D01*
X131149500Y-73397870D01*
X131149501Y-73397876D01*
X131155908Y-73457479D01*
X131157692Y-73465026D01*
X131156229Y-73465371D01*
X131160585Y-73526371D01*
X131156173Y-73541396D01*
X131155908Y-73542517D01*
X131149501Y-73602116D01*
X131149501Y-73602123D01*
X131149500Y-73602135D01*
X131149500Y-74397870D01*
X131149501Y-74397876D01*
X131155908Y-74457479D01*
X131157692Y-74465026D01*
X131156229Y-74465371D01*
X131160585Y-74526371D01*
X131156173Y-74541396D01*
X131155908Y-74542517D01*
X131149501Y-74602116D01*
X131149501Y-74602123D01*
X131149500Y-74602135D01*
X131149500Y-75397870D01*
X131149501Y-75397876D01*
X131155908Y-75457479D01*
X131157692Y-75465026D01*
X131156229Y-75465371D01*
X131160585Y-75526371D01*
X131156173Y-75541396D01*
X131155908Y-75542517D01*
X131149501Y-75602116D01*
X131149501Y-75602123D01*
X131149500Y-75602135D01*
X131149500Y-76397870D01*
X131149501Y-76397876D01*
X131155908Y-76457479D01*
X131157692Y-76465026D01*
X131156229Y-76465371D01*
X131160585Y-76526371D01*
X131156173Y-76541396D01*
X131155908Y-76542517D01*
X131149501Y-76602116D01*
X131149501Y-76602123D01*
X131149500Y-76602135D01*
X131149500Y-77397870D01*
X131149501Y-77397876D01*
X131155908Y-77457479D01*
X131157692Y-77465026D01*
X131156229Y-77465371D01*
X131160585Y-77526371D01*
X131156173Y-77541396D01*
X131155908Y-77542517D01*
X131149501Y-77602116D01*
X131149500Y-77602135D01*
X131149500Y-78397870D01*
X131149501Y-78397876D01*
X131155908Y-78457479D01*
X131157692Y-78465026D01*
X131156229Y-78465371D01*
X131160585Y-78526371D01*
X131156173Y-78541396D01*
X131155908Y-78542517D01*
X131149675Y-78600500D01*
X131149501Y-78602123D01*
X131149500Y-78602135D01*
X131149500Y-79397870D01*
X131149501Y-79397876D01*
X131155908Y-79457479D01*
X131157692Y-79465026D01*
X131156229Y-79465371D01*
X131160585Y-79526371D01*
X131156173Y-79541396D01*
X131155908Y-79542517D01*
X131149675Y-79600500D01*
X131149501Y-79602123D01*
X131149500Y-79602135D01*
X131149500Y-80397870D01*
X131149501Y-80397876D01*
X131155908Y-80457479D01*
X131157692Y-80465026D01*
X131156229Y-80465371D01*
X131160585Y-80526371D01*
X131156173Y-80541396D01*
X131155908Y-80542517D01*
X131149675Y-80600500D01*
X131149501Y-80602123D01*
X131149500Y-80602135D01*
X131149500Y-81397870D01*
X131149501Y-81397876D01*
X131155908Y-81457479D01*
X131157692Y-81465026D01*
X131156229Y-81465371D01*
X131160585Y-81526371D01*
X131156173Y-81541396D01*
X131155908Y-81542517D01*
X131149675Y-81600500D01*
X131149501Y-81602123D01*
X131149500Y-81602135D01*
X131149500Y-82397870D01*
X131149501Y-82397876D01*
X131155908Y-82457479D01*
X131157692Y-82465026D01*
X131156229Y-82465371D01*
X131160585Y-82526371D01*
X131156173Y-82541396D01*
X131155908Y-82542517D01*
X131149675Y-82600500D01*
X131149501Y-82602123D01*
X131149500Y-82602135D01*
X131149500Y-83397870D01*
X131149501Y-83397876D01*
X131155908Y-83457479D01*
X131157692Y-83465026D01*
X131156229Y-83465371D01*
X131160585Y-83526371D01*
X131156173Y-83541396D01*
X131155908Y-83542517D01*
X131149501Y-83602116D01*
X131149501Y-83602123D01*
X131149500Y-83602135D01*
X131149500Y-84397870D01*
X131149501Y-84397876D01*
X131155908Y-84457479D01*
X131157692Y-84465026D01*
X131156229Y-84465371D01*
X131160585Y-84526371D01*
X131156173Y-84541396D01*
X131155908Y-84542517D01*
X131149501Y-84602116D01*
X131149501Y-84602123D01*
X131149500Y-84602135D01*
X131149500Y-85397870D01*
X131149501Y-85397876D01*
X131155908Y-85457479D01*
X131157692Y-85465026D01*
X131156229Y-85465371D01*
X131160585Y-85526371D01*
X131156173Y-85541396D01*
X131155908Y-85542517D01*
X131149501Y-85602116D01*
X131149501Y-85602123D01*
X131149500Y-85602135D01*
X131149500Y-86397870D01*
X131149501Y-86397876D01*
X131155908Y-86457479D01*
X131157692Y-86465026D01*
X131156229Y-86465371D01*
X131160585Y-86526371D01*
X131156173Y-86541396D01*
X131155908Y-86542517D01*
X131149501Y-86602116D01*
X131149501Y-86602123D01*
X131149500Y-86602135D01*
X131149500Y-87397870D01*
X131149501Y-87397876D01*
X131155908Y-87457479D01*
X131157692Y-87465026D01*
X131156229Y-87465371D01*
X131160585Y-87526371D01*
X131156173Y-87541396D01*
X131155908Y-87542517D01*
X131150162Y-87595969D01*
X131149501Y-87602123D01*
X131149500Y-87602135D01*
X131149500Y-88397870D01*
X131149501Y-88397876D01*
X131155908Y-88457479D01*
X131157692Y-88465026D01*
X131156229Y-88465371D01*
X131160585Y-88526371D01*
X131156173Y-88541396D01*
X131155908Y-88542517D01*
X131149501Y-88602116D01*
X131149501Y-88602123D01*
X131149500Y-88602135D01*
X131149500Y-89397870D01*
X131149501Y-89397876D01*
X131155908Y-89457479D01*
X131157692Y-89465026D01*
X131156229Y-89465371D01*
X131160585Y-89526371D01*
X131156173Y-89541396D01*
X131155908Y-89542517D01*
X131151980Y-89579057D01*
X131149501Y-89602123D01*
X131149500Y-89602135D01*
X131149500Y-90397870D01*
X131149501Y-90397876D01*
X131155908Y-90457483D01*
X131206202Y-90592328D01*
X131206206Y-90592335D01*
X131292452Y-90707544D01*
X131292455Y-90707547D01*
X131407664Y-90793793D01*
X131407671Y-90793797D01*
X131542517Y-90844091D01*
X131542516Y-90844091D01*
X131549444Y-90844835D01*
X131602127Y-90850500D01*
X132397872Y-90850499D01*
X132457483Y-90844091D01*
X132592331Y-90793796D01*
X132707546Y-90707546D01*
X132793796Y-90592331D01*
X132844091Y-90457483D01*
X132850500Y-90397873D01*
X132850499Y-89602128D01*
X132844091Y-89542517D01*
X132844090Y-89542515D01*
X132844090Y-89542512D01*
X132842308Y-89534969D01*
X132843773Y-89534622D01*
X132839409Y-89473651D01*
X132843819Y-89458633D01*
X132844089Y-89457488D01*
X132844091Y-89457483D01*
X132850500Y-89397873D01*
X132850499Y-88602128D01*
X132844091Y-88542517D01*
X132844090Y-88542515D01*
X132844090Y-88542512D01*
X132842308Y-88534969D01*
X132843773Y-88534622D01*
X132839409Y-88473651D01*
X132843819Y-88458633D01*
X132844089Y-88457488D01*
X132844091Y-88457483D01*
X132850500Y-88397873D01*
X132850499Y-87602128D01*
X132844091Y-87542517D01*
X132844090Y-87542515D01*
X132844090Y-87542512D01*
X132842308Y-87534969D01*
X132843592Y-87534665D01*
X132838407Y-87478776D01*
X132840375Y-87467444D01*
X132844091Y-87457483D01*
X132847314Y-87427504D01*
X132848002Y-87423545D01*
X132861728Y-87395670D01*
X132873620Y-87366963D01*
X132877033Y-87364592D01*
X132878870Y-87360864D01*
X132905490Y-87344834D01*
X132931012Y-87327115D01*
X132935165Y-87326966D01*
X132938727Y-87324822D01*
X132969792Y-87325729D01*
X133000000Y-87324650D01*
X133000000Y-97202024D01*
X132904083Y-97150756D01*
X132904078Y-97150754D01*
X132568165Y-97011614D01*
X132220223Y-96906067D01*
X132220212Y-96906064D01*
X131944031Y-96851130D01*
X131882120Y-96818746D01*
X131880541Y-96817194D01*
X130636819Y-95573471D01*
X130603334Y-95512148D01*
X130600500Y-95485790D01*
X130600500Y-88920945D01*
X130600500Y-88920943D01*
X130559577Y-88768216D01*
X130559573Y-88768209D01*
X130480524Y-88631290D01*
X130480518Y-88631282D01*
X130368717Y-88519481D01*
X130368709Y-88519475D01*
X130231790Y-88440426D01*
X130231782Y-88440422D01*
X130192403Y-88429870D01*
X130132744Y-88393504D01*
X130102216Y-88330656D01*
X130100500Y-88310096D01*
X130100500Y-73250096D01*
X130120185Y-73183057D01*
X130136814Y-73162419D01*
X130942148Y-72357085D01*
X131003469Y-72323602D01*
X131073160Y-72328586D01*
G37*
%TD.AperFunction*%
%TA.AperFunction,Conductor*%
G36*
X129182192Y-63548805D02*
G01*
X129213942Y-63549372D01*
X129218128Y-63551375D01*
X129220223Y-63551525D01*
X129245780Y-63564605D01*
X129334471Y-63623866D01*
X129415268Y-63677853D01*
X129415277Y-63677858D01*
X129415279Y-63677859D01*
X129735916Y-63849243D01*
X129735918Y-63849243D01*
X129735924Y-63849247D01*
X130071836Y-63988386D01*
X130419767Y-64093930D01*
X130419773Y-64093931D01*
X130419776Y-64093932D01*
X130419787Y-64093935D01*
X130776369Y-64164862D01*
X131138206Y-64200500D01*
X131138209Y-64200500D01*
X131501791Y-64200500D01*
X131501794Y-64200500D01*
X131863631Y-64164862D01*
X131933045Y-64151054D01*
X132220212Y-64093935D01*
X132220223Y-64093932D01*
X132220223Y-64093931D01*
X132220233Y-64093930D01*
X132568164Y-63988386D01*
X132904076Y-63849247D01*
X133000000Y-63797974D01*
X133000000Y-69150763D01*
X132037582Y-70113181D01*
X131976259Y-70146666D01*
X131949901Y-70149500D01*
X131602130Y-70149500D01*
X131602123Y-70149501D01*
X131542516Y-70155908D01*
X131407671Y-70206202D01*
X131407664Y-70206206D01*
X131292456Y-70292452D01*
X131292455Y-70292453D01*
X131292454Y-70292454D01*
X131206204Y-70407669D01*
X131206202Y-70407672D01*
X131206200Y-70407675D01*
X131202913Y-70416489D01*
X131161039Y-70472420D01*
X131148736Y-70480535D01*
X131081287Y-70519478D01*
X131081281Y-70519482D01*
X130969478Y-70631286D01*
X129562680Y-72038083D01*
X129501357Y-72071568D01*
X129431665Y-72066584D01*
X129387318Y-72038083D01*
X128487590Y-71138355D01*
X128487588Y-71138352D01*
X128368717Y-71019481D01*
X128368716Y-71019480D01*
X128281904Y-70969360D01*
X128281904Y-70969359D01*
X128281900Y-70969358D01*
X128231785Y-70940423D01*
X128079057Y-70899499D01*
X127920943Y-70899499D01*
X127913347Y-70899499D01*
X127913331Y-70899500D01*
X127224500Y-70899500D01*
X127157461Y-70879815D01*
X127111706Y-70827011D01*
X127100500Y-70775500D01*
X127100500Y-65620097D01*
X127120185Y-65553058D01*
X127136819Y-65532416D01*
X128068292Y-64600943D01*
X129089210Y-63580024D01*
X129117066Y-63564814D01*
X129144083Y-63548125D01*
X129147517Y-63548186D01*
X129150531Y-63546541D01*
X129182192Y-63548805D01*
G37*
%TD.AperFunction*%
%TA.AperFunction,Conductor*%
G36*
X127619500Y-60681790D02*
G01*
X127655137Y-61043630D01*
X127726064Y-61400212D01*
X127726067Y-61400223D01*
X127831614Y-61748165D01*
X127970754Y-62084078D01*
X127970756Y-62084083D01*
X128142140Y-62404720D01*
X128142148Y-62404733D01*
X128255394Y-62574219D01*
X128276271Y-62640896D01*
X128257786Y-62708276D01*
X128239972Y-62730790D01*
X126131286Y-64839478D01*
X126019481Y-64951282D01*
X126019479Y-64951285D01*
X125969361Y-65038094D01*
X125969359Y-65038096D01*
X125940425Y-65088209D01*
X125940424Y-65088210D01*
X125940423Y-65088215D01*
X125899499Y-65240943D01*
X125899499Y-65240945D01*
X125899499Y-65409046D01*
X125899500Y-65409059D01*
X125899500Y-70775500D01*
X125879815Y-70842539D01*
X125827011Y-70888294D01*
X125775500Y-70899500D01*
X116224500Y-70899500D01*
X116157461Y-70879815D01*
X116111706Y-70827011D01*
X116100500Y-70775500D01*
X116100500Y-64600945D01*
X116100500Y-64600943D01*
X116059577Y-64448216D01*
X116059577Y-64448215D01*
X116059577Y-64448214D01*
X116030639Y-64398095D01*
X116030637Y-64398092D01*
X115980520Y-64311284D01*
X115868716Y-64199480D01*
X115868715Y-64199479D01*
X115864385Y-64195149D01*
X115864374Y-64195139D01*
X114400025Y-62730790D01*
X114366540Y-62669467D01*
X114371524Y-62599775D01*
X114384598Y-62574226D01*
X114497853Y-62404732D01*
X114669247Y-62084076D01*
X114808386Y-61748164D01*
X114913930Y-61400233D01*
X114913932Y-61400223D01*
X114913935Y-61400212D01*
X114984862Y-61043630D01*
X115020500Y-60681794D01*
X115020500Y-60500000D01*
X127619500Y-60500000D01*
X127619500Y-60681790D01*
G37*
%TD.AperFunction*%
%TD*%
M02*
