M48
; DRILL file {KiCad 9.0.0} date 2025-05-23T20:48:14-0700
; FORMAT={-:-/ absolute / metric / decimal}
; #@! TF.CreationDate,2025-05-23T20:48:14-07:00
; #@! TF.GenerationSoftware,Kicad,Pcbnew,9.0.0
; #@! TF.FileFunction,Plated,1,2,PTH
FMAT,2
METRIC
; #@! TA.AperFunction,Plated,PTH,ComponentDrill
T1C0.500
; #@! TA.AperFunction,Plated,PTH,ComponentDrill
T2C1.000
; #@! TA.AperFunction,Plated,PTH,ComponentDrill
T3C3.200
%
G90
G05
T1
X108.92Y-60.5
X108.92Y-100.5
X109.623Y-58.803
X109.623Y-62.197
X109.623Y-98.803
X109.623Y-102.197
X111.32Y-58.1
X111.32Y-62.9
X111.32Y-98.1
X111.32Y-102.9
X113.017Y-58.803
X113.017Y-62.197
X113.017Y-98.803
X113.017Y-102.197
X113.72Y-60.5
X113.72Y-100.5
X128.92Y-60.5
X128.92Y-100.5
X129.623Y-58.803
X129.623Y-62.197
X129.623Y-98.803
X129.623Y-102.197
X131.32Y-58.1
X131.32Y-62.9
X131.32Y-98.1
X131.32Y-102.9
X133.017Y-58.803
X133.017Y-62.197
X133.017Y-98.803
X133.017Y-102.197
X133.72Y-60.5
X133.72Y-100.5
T2
X98.35Y-61.5
X98.35Y-64.04
X98.35Y-66.58
X98.35Y-69.12
X98.35Y-71.66
X98.35Y-74.2
X98.35Y-76.74
X98.35Y-79.28
X98.35Y-81.82
X98.35Y-84.36
X98.35Y-86.9
X98.35Y-89.44
X98.35Y-91.98
X98.35Y-94.52
X98.35Y-97.06
X98.35Y-99.6
X101.0Y-61.5
X101.0Y-64.04
X101.0Y-66.58
X101.0Y-69.12
X101.0Y-71.66
X101.0Y-74.2
X101.0Y-76.74
X101.0Y-79.28
X101.0Y-81.82
X101.0Y-84.36
X101.0Y-86.9
X101.0Y-89.44
X101.0Y-91.98
X101.0Y-94.52
X101.0Y-97.06
X101.0Y-99.6
X141.5Y-61.5
X141.5Y-64.04
X141.5Y-66.58
X141.5Y-69.12
X141.5Y-71.66
X141.5Y-74.2
X141.5Y-76.74
X141.5Y-79.28
X141.5Y-81.82
X141.5Y-84.36
X141.5Y-86.9
X141.5Y-89.44
X141.5Y-91.98
X141.5Y-94.52
X141.5Y-97.06
X141.5Y-99.6
X144.0Y-61.5
X144.0Y-64.04
X144.0Y-66.58
X144.0Y-69.12
X144.0Y-71.66
X144.0Y-74.2
X144.0Y-76.74
X144.0Y-79.28
X144.0Y-81.82
X144.0Y-84.36
X144.0Y-86.9
X144.0Y-89.44
X144.0Y-91.98
X144.0Y-94.52
X144.0Y-97.06
X144.0Y-99.6
T3
X111.32Y-60.5
X111.32Y-100.5
X131.32Y-60.5
X131.32Y-100.5
M30
