G04 #@! TF.GenerationSoftware,KiCad,Pcbnew,8.0.6*
G04 #@! TF.CreationDate,2025-01-16T18:08:50-08:00*
G04 #@! TF.ProjectId,levitas,6c657669-7461-4732-9e6b-696361645f70,rev?*
G04 #@! TF.SameCoordinates,Original*
G04 #@! TF.FileFunction,Paste,Top*
G04 #@! TF.FilePolarity,Positive*
%FSLAX46Y46*%
G04 Gerber Fmt 4.6, Leading zero omitted, Abs format (unit mm)*
G04 Created by KiCad (PCBNEW 8.0.6) date 2025-01-16 18:08:50*
%MOMM*%
%LPD*%
G01*
G04 APERTURE LIST*
G04 Aperture macros list*
%AMRoundRect*
0 Rectangle with rounded corners*
0 $1 Rounding radius*
0 $2 $3 $4 $5 $6 $7 $8 $9 X,Y pos of 4 corners*
0 Add a 4 corners polygon primitive as box body*
4,1,4,$2,$3,$4,$5,$6,$7,$8,$9,$2,$3,0*
0 Add four circle primitives for the rounded corners*
1,1,$1+$1,$2,$3*
1,1,$1+$1,$4,$5*
1,1,$1+$1,$6,$7*
1,1,$1+$1,$8,$9*
0 Add four rect primitives between the rounded corners*
20,1,$1+$1,$2,$3,$4,$5,0*
20,1,$1+$1,$4,$5,$6,$7,0*
20,1,$1+$1,$6,$7,$8,$9,0*
20,1,$1+$1,$8,$9,$2,$3,0*%
G04 Aperture macros list end*
%ADD10RoundRect,0.250000X-0.475000X0.250000X-0.475000X-0.250000X0.475000X-0.250000X0.475000X0.250000X0*%
%ADD11RoundRect,0.100000X-0.637500X-0.100000X0.637500X-0.100000X0.637500X0.100000X-0.637500X0.100000X0*%
%ADD12RoundRect,0.225000X0.225000X0.250000X-0.225000X0.250000X-0.225000X-0.250000X0.225000X-0.250000X0*%
%ADD13RoundRect,0.250000X0.250000X0.475000X-0.250000X0.475000X-0.250000X-0.475000X0.250000X-0.475000X0*%
%ADD14RoundRect,0.100000X0.637500X0.100000X-0.637500X0.100000X-0.637500X-0.100000X0.637500X-0.100000X0*%
%ADD15RoundRect,0.250000X-0.250000X-0.475000X0.250000X-0.475000X0.250000X0.475000X-0.250000X0.475000X0*%
%ADD16RoundRect,0.225000X-0.225000X-0.250000X0.225000X-0.250000X0.225000X0.250000X-0.225000X0.250000X0*%
%ADD17RoundRect,0.225000X-0.250000X0.225000X-0.250000X-0.225000X0.250000X-0.225000X0.250000X0.225000X0*%
G04 APERTURE END LIST*
D10*
G04 #@! TO.C,C6*
X115570000Y-71440000D03*
X115570000Y-73340000D03*
G04 #@! TD*
D11*
G04 #@! TO.C,U2*
X112380000Y-79210000D03*
X112380000Y-79860000D03*
X112380000Y-80510000D03*
X112380000Y-81160000D03*
X112380000Y-81810000D03*
X112380000Y-82460000D03*
X112380000Y-83110000D03*
X112380000Y-83760000D03*
X112380000Y-84410000D03*
X112380000Y-85060000D03*
X112380000Y-85710000D03*
X112380000Y-86360000D03*
X118105000Y-86360000D03*
X118105000Y-85710000D03*
X118105000Y-85060000D03*
X118105000Y-84410000D03*
X118105000Y-83760000D03*
X118105000Y-83110000D03*
X118105000Y-82460000D03*
X118105000Y-81810000D03*
X118105000Y-81160000D03*
X118105000Y-80510000D03*
X118105000Y-79860000D03*
X118105000Y-79210000D03*
G04 #@! TD*
D12*
G04 #@! TO.C,C2*
X103640000Y-78650000D03*
X102090000Y-78650000D03*
G04 #@! TD*
D13*
G04 #@! TO.C,C3*
X103495000Y-76745000D03*
X101595000Y-76745000D03*
G04 #@! TD*
D14*
G04 #@! TO.C,U4*
X104770000Y-84455000D03*
X104770000Y-83805000D03*
X104770000Y-83155000D03*
X104770000Y-82505000D03*
X104770000Y-81855000D03*
X104770000Y-81205000D03*
X104770000Y-80555000D03*
X99045000Y-80555000D03*
X99045000Y-81205000D03*
X99045000Y-81855000D03*
X99045000Y-82505000D03*
X99045000Y-83155000D03*
X99045000Y-83805000D03*
X99045000Y-84455000D03*
G04 #@! TD*
D15*
G04 #@! TO.C,C8*
X110490000Y-75565000D03*
X112390000Y-75565000D03*
G04 #@! TD*
D16*
G04 #@! TO.C,C7*
X111120000Y-77470000D03*
X112670000Y-77470000D03*
G04 #@! TD*
G04 #@! TO.C,C1*
X99410000Y-86270000D03*
X100960000Y-86270000D03*
G04 #@! TD*
D17*
G04 #@! TO.C,C5*
X118110000Y-71615000D03*
X118110000Y-73165000D03*
G04 #@! TD*
M02*
