M48
INCH,TZ
T1C0.0118
T2C0.0197
T3C0.0315
T4C0.0354
T5C0.0394
T6C0.0402
T7C0.0429
T8C0.0433
T9C0.1260
%
G90
G05
T1
X32000Y-38500
X36500Y-35500
X37000Y-36500
X38000Y-37500
X41500Y-30500
X44998Y-31500
X44998Y-33250
X45000Y-30500
X47000Y-32500
X47000Y-34250
T2
X22055Y-23000
X22055Y-52000
X22332Y-22332
X22332Y-23668
X22332Y-51332
X22332Y-52668
X23000Y-22055
X23000Y-23945
X23000Y-51055
X23000Y-52945
X23668Y-22332
X23668Y-23668
X23668Y-51332
X23668Y-52668
X23945Y-23000
X23945Y-52000
X58055Y-23000
X58055Y-52000
X58332Y-22332
X58332Y-23668
X58332Y-51332
X58332Y-52668
X59000Y-22055
X59000Y-23945
X59000Y-51055
X59000Y-52945
X59668Y-22332
X59668Y-23668
X59668Y-51332
X59668Y-52668
X59945Y-23000
X59945Y-52000
X72118Y-29681
X72118Y-45429
X72395Y-29013
X72395Y-30349
X72395Y-44761
X72395Y-46097
X73063Y-28736
X73063Y-30626
X73063Y-44484
X73063Y-46374
X73731Y-29013
X73731Y-30349
X73731Y-44761
X73731Y-46097
X74008Y-29681
X74008Y-45429
X79984Y-45429
X79992Y-29668
X80261Y-44761
X80261Y-46097
X80269Y-29000
X80269Y-30336
X80929Y-44484
X80929Y-46374
X80937Y-28723
X80937Y-30613
X81597Y-44761
X81597Y-46097
X81605Y-29000
X81605Y-30336
X81874Y-45429
X81882Y-29668
X94055Y-23000
X94055Y-52000
X94332Y-22332
X94332Y-23668
X94332Y-51332
X94332Y-52668
X95000Y-22055
X95000Y-23945
X95000Y-51055
X95000Y-52945
X95668Y-22332
X95668Y-23668
X95668Y-51332
X95668Y-52668
X95945Y-23000
X95945Y-52000
T3
X27000Y-26000
X27000Y-29000
X30000Y-26000
X30000Y-29000
X34500Y-27500
X37500Y-27500
X38500Y-27500
X41500Y-27500
X48750Y-30500
X48750Y-31750
X48750Y-33000
X48750Y-34250
X51750Y-30500
X51750Y-31750
X51750Y-33000
X51750Y-34250
X52750Y-30500
X52750Y-31750
X52750Y-33000
X52750Y-34250
X54000Y-25000
X54000Y-28000
X55750Y-30500
X55750Y-31750
X55750Y-33000
X55750Y-34250
T4
X27000Y-23500
X27000Y-24500
X30000Y-23500
X30000Y-24500
X63000Y-30000
X63000Y-31000
X63000Y-32000
X63000Y-33000
X63000Y-34000
X63000Y-35000
X63000Y-36000
X63000Y-37000
X63000Y-38000
X63000Y-39000
X63000Y-40000
X63000Y-41000
X63000Y-42000
X63000Y-43000
X63000Y-44000
X63000Y-45000
X69000Y-30000
X69000Y-31000
X69000Y-32000
X69000Y-33000
X69000Y-34000
X69000Y-35000
X69000Y-36000
X69000Y-37000
X69000Y-38000
X69000Y-39000
X69000Y-40000
X69000Y-41000
X69000Y-42000
X69000Y-43000
X69000Y-44000
X69000Y-45000
X85000Y-30000
X85000Y-31000
X85000Y-32000
X85000Y-33000
X85000Y-34000
X85000Y-35000
X85000Y-36000
X85000Y-37000
X85000Y-38000
X85000Y-39000
X85000Y-40000
X85000Y-41000
X85000Y-42000
X85000Y-43000
X85000Y-44000
X85000Y-45000
X91000Y-30000
X91000Y-31000
X91000Y-32000
X91000Y-33000
X91000Y-34000
X91000Y-35000
X91000Y-36000
X91000Y-37000
X91000Y-38000
X91000Y-39000
X91000Y-40000
X91000Y-41000
X91000Y-42000
X91000Y-43000
X91000Y-44000
X91000Y-45000
T5
X37500Y-25000
X37500Y-26000
X46500Y-23000
X46500Y-24000
X48250Y-43500
X48250Y-48500
X49250Y-43500
X49250Y-48500
X50250Y-43500
X50250Y-48500
X51250Y-43500
X51250Y-48500
X52250Y-43500
X52250Y-48500
X53250Y-43500
X53250Y-48500
X55500Y-25531
X55500Y-27500
X57500Y-26500
X57500Y-27500
X60000Y-30000
X60000Y-31000
X60000Y-32000
X60000Y-33000
X60000Y-34000
X60000Y-35000
X60000Y-36000
X60000Y-37000
X60000Y-38000
X60000Y-39000
X60000Y-40000
X60000Y-41000
X60000Y-42000
X60000Y-43000
X60000Y-44000
X60000Y-45000
X68000Y-30000
X68000Y-31000
X68000Y-32000
X68000Y-33000
X68000Y-34000
X68000Y-35000
X68000Y-36000
X68000Y-37000
X68000Y-38000
X68000Y-39000
X68000Y-40000
X68000Y-41000
X68000Y-42000
X68000Y-43000
X68000Y-44000
X68000Y-45000
X86000Y-30000
X86000Y-31000
X86000Y-32000
X86000Y-33000
X86000Y-34000
X86000Y-35000
X86000Y-36000
X86000Y-37000
X86000Y-38000
X86000Y-39000
X86000Y-40000
X86000Y-41000
X86000Y-42000
X86000Y-43000
X86000Y-44000
X86000Y-45000
X94000Y-30000
X94000Y-31000
X94000Y-32000
X94000Y-33000
X94000Y-34000
X94000Y-35000
X94000Y-36000
X94000Y-37000
X94000Y-38000
X94000Y-39000
X94000Y-40000
X94000Y-41000
X94000Y-42000
X94000Y-43000
X94000Y-44000
X94000Y-45000
T6
X26500Y-31500
X26500Y-32500
X26500Y-33500
X26500Y-34500
X26500Y-35500
X26500Y-36500
X26500Y-37500
X26500Y-38500
X26500Y-39500
X26500Y-40500
X26500Y-41500
X26500Y-42500
X26500Y-43500
X26500Y-44500
X26500Y-45500
X26500Y-46500
X26500Y-47500
X26500Y-48500
X26500Y-49500
X26500Y-50500
X29000Y-31591
X30000Y-31591
X31000Y-31591
X33500Y-31500
X33500Y-32500
X33500Y-33500
X33500Y-34500
X33500Y-35500
X33500Y-36500
X33500Y-37500
X33500Y-38500
X33500Y-39500
X33500Y-40500
X33500Y-41500
X33500Y-42500
X33500Y-43500
X33500Y-44500
X33500Y-45500
X33500Y-46500
X33500Y-47500
X33500Y-48500
X33500Y-49500
X33500Y-50500
T7
X49000Y-24000
X49000Y-25500
X49000Y-27000
X52500Y-24000
X52500Y-28000
T8
X42500Y-26000
X42500Y-36250
X46500Y-26000
X46500Y-36250
T9
X23000Y-23000
X23000Y-52000
X59000Y-23000
X59000Y-52000
X73063Y-29681
X73063Y-45429
X80929Y-45429
X80937Y-29668
X95000Y-23000
X95000Y-52000
M30
