<?xml version="1.0" encoding="UTF-8" standalone="no"?>
<svg
   xmlns:dc="http://purl.org/dc/elements/1.1/"
   xmlns:cc="http://creativecommons.org/ns#"
   xmlns:rdf="http://www.w3.org/1999/02/22-rdf-syntax-ns#"
   xmlns:svg="http://www.w3.org/2000/svg"
   xmlns="http://www.w3.org/2000/svg"
   xmlns:sodipodi="http://sodipodi.sourceforge.net/DTD/sodipodi-0.dtd"
   xmlns:inkscape="http://www.inkscape.org/namespaces/inkscape"
   viewBox="0 0 522.80646 434.16754"
   height="434.16754"
   width="522.80646"
   xml:space="preserve"
   id="svg2"
   version="1.1"
   sodipodi:docname="BSAC-3-color.svg"
   inkscape:version="0.92.4 (5da689c313, 2019-01-14)"><sodipodi:namedview
     pagecolor="#ffffff"
     bordercolor="#666666"
     borderopacity="1"
     objecttolerance="10"
     gridtolerance="10"
     guidetolerance="10"
     inkscape:pageopacity="0"
     inkscape:pageshadow="2"
     inkscape:window-width="1920"
     inkscape:window-height="1017"
     id="namedview108"
     showgrid="false"
     fit-margin-top="0"
     fit-margin-left="0"
     fit-margin-right="0"
     fit-margin-bottom="0"
     inkscape:zoom="1.3743569"
     inkscape:cx="195.67019"
     inkscape:cy="215.81802"
     inkscape:window-x="-8"
     inkscape:window-y="-8"
     inkscape:window-maximized="1"
     inkscape:current-layer="svg2" /><metadata
     id="metadata8"><rdf:RDF><cc:Work
         rdf:about=""><dc:format>image/svg+xml</dc:format><dc:type
           rdf:resource="http://purl.org/dc/dcmitype/StillImage" /><dc:title></dc:title></cc:Work></rdf:RDF></metadata><defs
     id="defs6" /><path
     id="path14"
     style="fill:#cdd2d8;fill-opacity:1;fill-rule:nonzero;stroke:none;stroke-width:0.13333333"
     d="m 397.01332,269.62354 v 40.416 l 71.988,34.264 0.40667,-43.78933 v -6.62 l -0.388,-35.30133 -72.00667,11.03066"
     inkscape:connector-curvature="0" /><path
     id="path16"
     style="fill:none;stroke:#231f20;stroke-width:2.07773328;stroke-linecap:butt;stroke-linejoin:miter;stroke-miterlimit:4;stroke-dasharray:none;stroke-opacity:1"
     d="m 397.01332,269.62354 v 40.416 l 71.988,34.264 0.40667,-43.78933 v -6.62 l -0.388,-35.30133 z"
     inkscape:connector-curvature="0" /><path
     id="path20"
     style="display:inline;fill:none;fill-opacity:1;stroke:#ffffff;stroke-width:6.35788012;stroke-linecap:butt;stroke-linejoin:miter;stroke-miterlimit:4;stroke-dasharray:none;stroke-opacity:1"
     d="m 424.47999,344.73288 c -1.264,-14.47067 -23.132,-22.76667 -23.132,-22.76667 l -66.692,38.97733 c 0,0 28.55733,-72.93733 64.88267,-72.93733 39.76133,0 61.992,21.032 65.42533,56.72667 z"
     inkscape:connector-curvature="0"
     sodipodi:nodetypes="cccscc" /><path
     id="path22"
     style="display:inline;fill:#231f20;fill-opacity:1;fill-rule:nonzero;stroke:none;stroke-width:0.13333333"
     d="m 424.80132,344.90488 c -1.79733,-14.736 -10.29066,-23.03467 -23.66533,-23.03467 -15,0 -24.036,13.70133 -24.036,40.52266 0,19.48934 3.976,37.81734 25.664,37.81734 13.736,0 20.24,-10.224 21.86667,-23.54 h 41.028 c -3.79467,35.89066 -27.83334,57.49733 -62.172,57.49733 -43.01467,0 -69.04,-28.16667 -69.04,-73.31733 0,-44.96133 28.55466,-72.93867 64.884,-72.93867 39.76133,0 61.992,21.032 65.95333,56.99334 h -40.48267"
     inkscape:connector-curvature="0" /><path
     id="path24"
     style="fill:#231f20;fill-opacity:1;fill-rule:nonzero;stroke:none;stroke-width:0.13333333"
     d="M 0,430.43287 V 291.50621 h 62.171865 c 29.279199,0 52.593735,7.33333 52.593735,34.92533 0,14.27867 -8.67494,24.69734 -16.989069,30.29333 14.097999,3.86 21.688529,16.78667 21.688529,31.83734 0,31.06533 -22.230662,41.87066 -56.027595,41.87066 z M 42.653066,323.92354 v 23.15334 h 17.711999 c 8.4948,0 14.6396,-4.05067 14.6396,-12.156 0,-10.80534 -8.314,-10.99734 -17.351066,-10.99734 z m 0,48.432 v 25.66133 h 18.615199 c 10.483333,0 18.435333,-2.31466 18.435333,-12.73466 0,-12.156 -9.940533,-12.92667 -23.495199,-12.92667 H 42.653066"
     inkscape:connector-curvature="0" /><path
     id="path26"
     style="fill:#231f20;fill-opacity:1;fill-rule:nonzero;stroke:none;stroke-width:0.13333333"
     d="m 190.13066,331.83421 c -0.72266,-4.824 -3.072,-7.71867 -6.144,-9.45467 -3.072,-1.73733 -6.86933,-2.508 -11.02533,-2.508 -9.39867,0 -13.55467,2.89334 -13.55467,7.91067 0,20.83733 74.824,7.912 74.824,58.464 0,32.224 -25.12133,47.852 -60.908,47.852 -34.34,0 -56.75026,-21.41734 -57.6544,-46.5 h 40.8464 c 0.904,5.016 3.43334,8.68133 7.048,10.99733 3.43467,2.316 7.95334,3.47333 12.10934,3.47333 10.66266,0 17.71333,-3.66533 17.71333,-10.22666 0,-21.032 -74.82547,-6.56 -74.82547,-59.62133 0,-29.52267 23.85747,-44.38134 56.38947,-44.38134 36.14666,0 52.59466,19.68267 55.66533,43.99467 h -40.484"
     inkscape:connector-curvature="0" /><path
     id="path28"
     style="fill:#231f20;fill-opacity:1;fill-rule:nonzero;stroke:none;stroke-width:0.13333333"
     d="m 218.68399,430.43287 46.628,-138.92666 h 43.376 l 46.62933,138.92666 h -42.47199 l -5.06,-18.33066 h -42.47334 l -4.88,18.33066 z m 67.95467,-97.05599 -13.19333,49.78399 h 26.92933 l -13.736,-49.78399"
     inkscape:connector-curvature="0" /><path
     id="path30"
     style="fill:none;stroke:#231f20;stroke-width:2.15359998;stroke-linecap:round;stroke-linejoin:miter;stroke-miterlimit:4;stroke-dasharray:none;stroke-opacity:1"
     d="m 516.15199,165.93688 5.56266,1.184"
     inkscape:connector-curvature="0" /><path
     id="path32"
     style="fill:none;stroke:#231f20;stroke-width:3.36333323;stroke-linecap:round;stroke-linejoin:miter;stroke-miterlimit:4;stroke-dasharray:none;stroke-opacity:1"
     d="m 517.17332,170.64221 2.52133,0.69067"
     inkscape:connector-curvature="0" /><path
     id="path34"
     style="fill:#5b686e;fill-opacity:1;fill-rule:nonzero;stroke:none;stroke-width:0.13333333"
     d="m 516.84265,431.88487 h -47.656 V 156.24488 l 47.204,9.84667 0.452,265.79332"
     inkscape:connector-curvature="0" /><path
     id="path36"
     style="fill:none;stroke:#231f20;stroke-width:2.13933325;stroke-linecap:butt;stroke-linejoin:miter;stroke-miterlimit:4;stroke-dasharray:none;stroke-opacity:1"
     d="m 516.84265,431.88487 h -47.656 V 156.24488 l 47.204,9.84667 z"
     inkscape:connector-curvature="0" /><path
     id="path38"
     style="fill:#cdd2d8;fill-opacity:1;fill-rule:nonzero;stroke:none;stroke-width:0.13333333"
     d="m 397.29999,269.69688 72.456,-10.50667 -0.16667,-99.33333 -72.04533,10.48533 -0.244,99.35467"
     inkscape:connector-curvature="0" /><path
     id="path40"
     style="fill:none;stroke:#231f20;stroke-width:2.63559985;stroke-linecap:butt;stroke-linejoin:miter;stroke-miterlimit:4;stroke-dasharray:none;stroke-opacity:1"
     d="m 397.29999,269.69688 72.456,-10.50667 -0.16667,-99.33333 -72.04533,10.48533 z"
     inkscape:connector-curvature="0" /><path
     id="path42"
     style="fill:none;stroke:#231f20;stroke-width:2.60293317;stroke-linecap:round;stroke-linejoin:round;stroke-miterlimit:4;stroke-dasharray:none;stroke-opacity:1"
     d="m 455.07732,173.49288 -46.87466,6.33067 0.20266,76.06133"
     inkscape:connector-curvature="0" /><path
     id="path44"
     style="fill:#231f20;fill-opacity:1;fill-rule:nonzero;stroke:none;stroke-width:0.13333333"
     d="m 413.84399,253.99688 v -64.464 c 0,0 0.004,-5.18267 4.60133,-5.18267 4.59467,0 5.39734,3.76667 5.39734,3.76667 v 64.464 l -9.99867,1.416"
     inkscape:connector-curvature="0" /><path
     id="path46"
     style="fill:none;stroke:#231f20;stroke-width:2.60293317;stroke-linecap:butt;stroke-linejoin:round;stroke-miterlimit:4;stroke-dasharray:none;stroke-opacity:1"
     d="m 413.84399,253.99688 v -64.464 c 0,0 0.004,-5.18267 4.60133,-5.18267 4.59467,0 5.39734,3.76667 5.39734,3.76667 v 64.464 z"
     inkscape:connector-curvature="0" /><path
     id="path48"
     style="fill:#231f20;fill-opacity:1;fill-rule:nonzero;stroke:none;stroke-width:0.13333333"
     d="m 429.43466,251.41021 v -63.6 c 0,0 0.005,-5.224 4.60266,-5.224 4.59467,0 5.392,3.79867 5.392,3.79867 v 63.596 l -9.99466,1.42933"
     inkscape:connector-curvature="0" /><path
     id="path50"
     style="fill:none;stroke:#231f20;stroke-width:2.6134665;stroke-linecap:butt;stroke-linejoin:round;stroke-miterlimit:4;stroke-dasharray:none;stroke-opacity:1"
     d="m 429.43466,251.41021 v -63.6 c 0,0 0.005,-5.224 4.60266,-5.224 4.59467,0 5.392,3.79867 5.392,3.79867 v 63.596 z"
     inkscape:connector-curvature="0" /><path
     id="path52"
     style="fill:#231f20;fill-opacity:1;fill-rule:nonzero;stroke:none;stroke-width:0.13333333"
     d="m 445.22799,248.58221 v -63.08533 c 0,0 0.004,-5.18267 4.6,-5.18267 4.596,0 5.396,3.77067 5.396,3.77067 v 63.08533 l -9.996,1.412"
     inkscape:connector-curvature="0" /><path
     id="path54"
     style="fill:none;stroke:#231f20;stroke-width:2.60293317;stroke-linecap:butt;stroke-linejoin:round;stroke-miterlimit:4;stroke-dasharray:none;stroke-opacity:1"
     d="m 445.22799,248.58221 v -63.08533 c 0,0 0.004,-5.18267 4.6,-5.18267 4.596,0 5.396,3.77067 5.396,3.77067 v 63.08533 z"
     inkscape:connector-curvature="0" /><path
     id="path56"
     style="fill:none;stroke:#cdd2d8;stroke-width:2.26826644;stroke-linecap:round;stroke-linejoin:round;stroke-miterlimit:4;stroke-dasharray:none;stroke-opacity:1"
     d="m 476.23732,174.05688 36.58267,7.44667 -0.16134,71.53733"
     inkscape:connector-curvature="0" /><path
     id="path58"
     style="fill:#cdd2d8;fill-opacity:1;fill-rule:nonzero;stroke:none;stroke-width:0.13333333"
     d="m 507.13465,251.64088 v -58.33467 c 0,0 -0.005,-4.792 -2.884,-4.792 -2.88133,0 -3.384,3.484 -3.384,3.484 v 58.33467 l 6.268,1.308"
     inkscape:connector-curvature="0" /><path
     id="path60"
     style="fill:none;stroke:#cdd2d8;stroke-width:1.98213327;stroke-linecap:butt;stroke-linejoin:round;stroke-miterlimit:4;stroke-dasharray:none;stroke-opacity:1"
     d="m 507.13465,251.64088 v -58.33467 c 0,0 -0.005,-4.792 -2.884,-4.792 -2.88133,0 -3.384,3.484 -3.384,3.484 v 58.33467 z"
     inkscape:connector-curvature="0" /><path
     id="path62"
     style="fill:#cdd2d8;fill-opacity:1;fill-rule:nonzero;stroke:none;stroke-width:0.13333333"
     d="m 495.03865,249.73688 v -59.36 c 0,0 -0.007,-4.87067 -2.99066,-4.87067 -2.98267,0 -3.50134,3.544 -3.50134,3.544 v 59.35467 l 6.492,1.332"
     inkscape:connector-curvature="0" /><path
     id="path64"
     style="fill:none;stroke:#cdd2d8;stroke-width:2.03426671;stroke-linecap:butt;stroke-linejoin:round;stroke-miterlimit:4;stroke-dasharray:none;stroke-opacity:1"
     d="m 495.03865,249.73688 v -59.36 c 0,0 -0.007,-4.87067 -2.99066,-4.87067 -2.98267,0 -3.50134,3.544 -3.50134,3.544 v 59.35467 z"
     inkscape:connector-curvature="0" /><path
     id="path66"
     style="fill:#cdd2d8;fill-opacity:1;fill-rule:nonzero;stroke:none;stroke-width:0.13333333"
     d="m 482.17465,247.72888 v -59.756 c 0,0 -0.007,-4.908 -3.10133,-4.908 -3.096,0 -3.632,3.564 -3.632,3.564 v 59.756 l 6.73333,1.344"
     inkscape:connector-curvature="0" /><path
     id="path68"
     style="fill:none;stroke:#cdd2d8;stroke-width:2.07946658;stroke-linecap:butt;stroke-linejoin:round;stroke-miterlimit:4;stroke-dasharray:none;stroke-opacity:1"
     d="m 482.17465,247.72888 v -59.756 c 0,0 -0.007,-4.908 -3.10133,-4.908 -3.096,0 -3.632,3.564 -3.632,3.564 v 59.756 z"
     inkscape:connector-curvature="0" /><path
     id="path70"
     style="fill:none;stroke:#231f20;stroke-width:3.03973341;stroke-linecap:round;stroke-linejoin:miter;stroke-miterlimit:4;stroke-dasharray:none;stroke-opacity:1"
     d="m 469.86265,259.15021 -73.95466,10.79867"
     inkscape:connector-curvature="0" /><path
     id="path72"
     style="fill:#5b686e;fill-opacity:1;fill-rule:nonzero;stroke:none;stroke-width:0.13333333"
     d="m 516.28399,170.58621 -0.016,-28.99333 -10.764,-40.46133 1.41333,41.43066 -14.12133,-4.236 0.0613,-17.69066 h 2.796 L 452.45066,0.35821608 l 2.37466,12.25466692 13.864,83.406664 0.748,64.405333 46.84667,10.16133"
     inkscape:connector-curvature="0" /><path
     id="path74"
     style="fill:none;stroke:#231f20;stroke-width:2.11933327;stroke-linecap:butt;stroke-linejoin:miter;stroke-miterlimit:4;stroke-dasharray:none;stroke-opacity:1"
     d="m 516.28399,170.58621 -0.016,-28.99333 -10.764,-40.46133 1.41333,41.43066 -14.12133,-4.236 0.0613,-17.69066 h 2.796 L 452.45066,0.35821608 l 2.37466,12.25466692 13.864,83.406664 0.748,64.405333 z"
     inkscape:connector-curvature="0" /><path
     id="path76"
     style="fill:#cdd2d8;fill-opacity:1;fill-rule:nonzero;stroke:none;stroke-width:0.13333333"
     d="M 452.72266,0.42621608 411.65732,120.21555 408.42666,99.80888 398.05999,144.60755 v 25.94266 l 71.72,-10.40666 -0.23734,-57.02534 L 452.72266,0.42621608"
     inkscape:connector-curvature="0" /><path
     id="path78"
     style="fill:none;stroke:#231f20;stroke-width:2.11933327;stroke-linecap:butt;stroke-linejoin:miter;stroke-miterlimit:4;stroke-dasharray:none;stroke-opacity:1"
     d="M 452.72266,0.42621608 411.65732,120.21555 408.42666,99.80888 398.05999,144.60755 v 25.94266 l 71.72,-10.40666 -0.23734,-57.02534 z"
     inkscape:connector-curvature="0" /><path
     id="path80"
     style="fill:#231f20;fill-opacity:1;fill-rule:nonzero;stroke:none;stroke-width:0.13333333"
     d="m 408.77866,100.33821 13.39733,39.164 -9.41333,1.412 -3.984,-40.576"
     inkscape:connector-curvature="0" /><path
     id="path82"
     style="fill:none;stroke:#231f20;stroke-width:1.19933331;stroke-linecap:butt;stroke-linejoin:miter;stroke-miterlimit:4;stroke-dasharray:none;stroke-opacity:1"
     d="m 408.77866,100.33821 13.39733,39.164 -9.41333,1.412 z"
     inkscape:connector-curvature="0" /><path
     id="path84"
     style="fill:none;stroke:#231f20;stroke-width:3.59800005;stroke-linecap:round;stroke-linejoin:miter;stroke-miterlimit:4;stroke-dasharray:none;stroke-opacity:1"
     d="m 469.65865,160.09555 -74.02933,10.788"
     inkscape:connector-curvature="0" /><path
     id="path86"
     style="fill:none;stroke:#231f20;stroke-width:2.39479995;stroke-linecap:round;stroke-linejoin:miter;stroke-miterlimit:4;stroke-dasharray:none;stroke-opacity:1"
     d="m 468.72132,155.64355 -75.88666,11.472"
     inkscape:connector-curvature="0" /><path
     id="path88"
     style="fill:none;stroke:#cdd2d8;stroke-width:1.97666657;stroke-linecap:round;stroke-linejoin:miter;stroke-miterlimit:4;stroke-dasharray:none;stroke-opacity:1"
     d="m 517.21599,166.16888 -47.332,-10.54267"
     inkscape:connector-curvature="0" /><path
     id="path90"
     style="fill:none;stroke:#cdd2d8;stroke-width:3.29639983;stroke-linecap:round;stroke-linejoin:miter;stroke-miterlimit:4;stroke-dasharray:none;stroke-opacity:1"
     d="M 517.34799,170.67288 470.55732,160.18755"
     inkscape:connector-curvature="0" /><path
     id="path92"
     style="fill:#cdd2d8;fill-opacity:1;fill-rule:nonzero;stroke:none;stroke-width:0.13333333"
     d="m 506.87199,141.06621 -1.42667,-40.184 -11.58,37.05734"
     inkscape:connector-curvature="0" /><path
     id="path94"
     style="fill:none;stroke:#231f20;stroke-width:1.97666657;stroke-linecap:butt;stroke-linejoin:miter;stroke-miterlimit:4;stroke-dasharray:none;stroke-opacity:1"
     d="m 506.87199,141.06621 -1.42667,-40.184 -11.58,37.05734"
     inkscape:connector-curvature="0" /><path
     id="path96"
     style="fill:none;stroke:#231f20;stroke-width:3.03973341;stroke-linecap:round;stroke-linejoin:miter;stroke-miterlimit:4;stroke-dasharray:none;stroke-opacity:1"
     d="m 468.46799,132.82755 -73.168,10.72"
     inkscape:connector-curvature="0" /><path
     id="path98"
     style="fill:#231f20;fill-opacity:1;fill-rule:nonzero;stroke:none;stroke-width:0.13333333"
     d="m 470.61332,132.18621 -2.14133,-39.795996 11.83066,42.023996"
     inkscape:connector-curvature="0" /><path
     id="path100"
     style="fill:none;stroke:#231f20;stroke-width:1.19933331;stroke-linecap:round;stroke-linejoin:miter;stroke-miterlimit:4;stroke-dasharray:none;stroke-opacity:1"
     d="m 470.61332,132.18621 -2.14133,-39.795996 11.83066,42.023996"
     inkscape:connector-curvature="0" /><path
     id="path102"
     style="fill:none;stroke:#231f20;stroke-width:3.22881341;stroke-linecap:round;stroke-linejoin:miter;stroke-miterlimit:4;stroke-dasharray:none;stroke-opacity:1"
     d="m 517.16665,145.08888 2.50267,0.71067"
     inkscape:connector-curvature="0" /><path
     id="path104"
     style="fill:#231f20;fill-opacity:1;fill-rule:nonzero;stroke:none;stroke-width:0.13333333"
     d="m 517.24799,168.95021 0.0333,3.444 1.49867,0.42534 0.468,-3.36267 -2,-0.50667"
     inkscape:connector-curvature="0" /><path
     id="path106"
     style="fill:#231f20;fill-opacity:1;fill-rule:nonzero;stroke:none;stroke-width:0.13333333"
     d="m 517.18132,165.04355 -0.032,2.18533 2.644,0.57067 0.924,-1.98667 -3.536,-0.76933"
     inkscape:connector-curvature="0" /><path
     id="path108"
     style="fill:none;stroke:#231f20;stroke-width:3.36333323;stroke-linecap:round;stroke-linejoin:miter;stroke-miterlimit:4;stroke-dasharray:none;stroke-opacity:1"
     d="m 517.09999,265.86354 2.57333,0.46"
     inkscape:connector-curvature="0" /><path
     id="path110"
     style="fill:none;stroke:#cdd2d8;stroke-width:3.03973341;stroke-linecap:round;stroke-linejoin:miter;stroke-miterlimit:4;stroke-dasharray:none;stroke-opacity:1"
     d="m 471.27465,258.95154 46.14,6.92534"
     inkscape:connector-curvature="0" /><path
     id="path112"
     style="fill:#231f20;fill-opacity:1;fill-rule:nonzero;stroke:none;stroke-width:0.13333333"
     d="m 517.47999,264.22088 v 3.344 l 1.416,0.32666 0.16133,-3.38933 -1.57733,-0.28133"
     inkscape:connector-curvature="0" /><path
     id="path114"
     style="fill:#cdd2d8;fill-opacity:1;fill-rule:nonzero;stroke:none;stroke-width:0.13333333"
     d="m 453.77466,135.09821 16.38666,-2.52133 -2.21867,-41.422666 -14.16799,43.943996"
     inkscape:connector-curvature="0" /><path
     id="path116"
     style="fill:none;stroke:#231f20;stroke-width:1.97666657;stroke-linecap:butt;stroke-linejoin:miter;stroke-miterlimit:4;stroke-dasharray:none;stroke-opacity:1"
     d="m 453.77466,135.09821 16.38666,-2.52133 -2.21867,-41.422666 z"
     inkscape:connector-curvature="0" /><path
     id="path118"
     style="fill:none;stroke:#cdd2d8;stroke-width:3.03973341;stroke-linecap:round;stroke-linejoin:miter;stroke-miterlimit:4;stroke-dasharray:none;stroke-opacity:1"
     d="m 470.35199,132.59421 47.19466,12.548"
     inkscape:connector-curvature="0" /><path
     id="path120"
     style="fill:#231f20;fill-opacity:1;fill-rule:nonzero;stroke:none;stroke-width:0.13333333"
     d="m 517.14932,143.32088 -0.0667,3.444 1.82134,0.496 0.464,-3.24533 -2.21867,-0.69467"
     inkscape:connector-curvature="0" /><path
     id="path122"
     style="fill:#231f20;fill-opacity:1;fill-rule:nonzero;stroke:none;stroke-width:0.13333333"
     d="m 506.33599,101.06355 10.17066,42.176 -9.56266,-2.612 -0.608,-39.564"
     inkscape:connector-curvature="0" /></svg>