999
"DXF R12 Output" (www.mydxf.blogspot.com)
 0 
SECTION
 2 
HEADER
 9 
$ACADVER
 1 
AC1009
 9 
$EXTMIN
 10 
 0 
 20 
 0 
 9 
$EXTMAX
 10 
 8.5 
 20 
 11 
 0 
ENDSEC
 0 
SECTION
 2 
ENTITIES
0
LINE
8
Layer 1
10
146.282000
20
276.127000
11
143.659709
21
275.808040
0
LINE
8
Layer 1
10
143.659709
20
275.808040
11
141.236840
21
275.209567
0
LINE
8
Layer 1
10
141.236840
20
275.209567
11
139.009353
21
274.330299
0
LINE
8
Layer 1
10
139.009353
20
274.330299
11
136.973210
21
273.168950
0
LINE
8
Layer 1
10
136.973210
20
273.168950
11
135.007699
21
271.580270
0
LINE
8
Layer 1
10
135.007699
20
271.580270
11
133.323700
21
269.707730
0
LINE
8
Layer 1
10
133.323700
20
269.707730
11
133.111410
21
269.454370
0
LINE
8
Layer 1
10
133.111410
20
269.454370
11
134.039840
21
272.273500
0
LINE
8
Layer 1
10
134.039840
20
272.273500
11
134.981190
21
275.119870
0
LINE
8
Layer 1
10
134.981190
20
275.119870
11
129.381160
21
275.160070
0
LINE
8
Layer 1
10
129.381160
20
275.160070
11
123.781130
21
275.160070
0
LINE
8
Layer 1
10
123.781130
20
275.160070
11
123.755030
21
275.056350
0
LINE
8
Layer 1
10
123.755030
20
275.056350
11
123.092980
21
272.647730
0
LINE
8
Layer 1
10
123.092980
20
272.647730
11
122.457020
21
270.342830
0
LINE
8
Layer 1
10
122.457020
20
270.342830
11
116.833970
21
270.331130
0
LINE
8
Layer 1
10
116.833970
20
270.331130
11
111.210920
21
270.319430
0
LINE
8
Layer 1
10
111.210920
20
270.319430
11
110.569030
21
272.739750
0
LINE
8
Layer 1
10
110.569030
20
272.739750
11
109.927150
21
275.160080
0
LINE
8
Layer 1
10
109.927150
20
275.160080
11
104.408950
21
275.160080
0
LINE
8
Layer 1
10
104.408950
20
275.160080
11
98.890750
21
275.160080
0
LINE
8
Layer 1
10
98.890750
20
275.160080
11
99.461222
21
273.465980
0
LINE
8
Layer 1
10
99.461222
20
273.465980
11
100.065375
21
271.679680
0
LINE
8
Layer 1
10
100.065375
20
271.679680
11
99.642563
21
272.029380
0
LINE
8
Layer 1
10
99.642563
20
272.029380
11
97.586362
21
273.615669
0
LINE
8
Layer 1
10
97.586362
20
273.615669
11
95.090709
21
274.822897
0
LINE
8
Layer 1
10
95.090709
20
274.822897
11
92.165083
21
275.647509
0
LINE
8
Layer 1
10
92.165083
20
275.647509
11
88.818963
21
276.085950
0
LINE
8
Layer 1
10
88.818963
20
276.085950
11
86.478052
21
276.115950
0
LINE
8
Layer 1
10
86.478052
20
276.115950
11
84.341673
21
275.995350
0
LINE
8
Layer 1
10
84.341673
20
275.995350
11
81.932631
21
275.524668
0
LINE
8
Layer 1
10
81.932631
20
275.524668
11
79.754716
21
274.797927
0
LINE
8
Layer 1
10
79.754716
20
274.797927
11
77.786098
21
273.806080
0
LINE
8
Layer 1
10
77.786098
20
273.806080
11
76.004953
21
272.540080
0
LINE
8
Layer 1
10
76.004953
20
272.540080
11
74.909322
21
271.506222
0
LINE
8
Layer 1
10
74.909322
20
271.506222
11
73.933409
21
270.333712
0
LINE
8
Layer 1
10
73.933409
20
270.333712
11
73.110363
21
269.067486
0
LINE
8
Layer 1
10
73.110363
20
269.067486
11
72.473333
21
267.752480
0
LINE
8
Layer 1
10
72.473333
20
267.752480
11
72.270995
21
267.371040
0
LINE
8
Layer 1
10
72.270995
20
267.371040
11
72.079611
21
267.991800
0
LINE
8
Layer 1
10
72.079611
20
267.991800
11
71.191122
21
269.993299
0
LINE
8
Layer 1
10
71.191122
20
269.993299
11
69.838041
21
271.680630
0
LINE
8
Layer 1
10
69.838041
20
271.680630
11
68.661154
21
272.665967
0
LINE
8
Layer 1
10
68.661154
20
272.665967
11
67.286241
21
273.454730
0
LINE
8
Layer 1
10
67.286241
20
273.454730
11
65.767154
21
274.081160
0
LINE
8
Layer 1
10
65.767154
20
274.081160
11
64.067807
21
274.563416
0
LINE
8
Layer 1
10
64.067807
20
274.563416
11
62.168527
21
274.906010
0
LINE
8
Layer 1
10
62.168527
20
274.906010
11
60.049641
21
275.113450
0
LINE
8
Layer 1
10
60.049641
20
275.113450
11
50.173141
21
275.160050
0
LINE
8
Layer 1
10
50.173141
20
275.160050
11
41.033421
21
275.160050
0
LINE
8
Layer 1
10
41.033421
20
275.160050
11
41.033421
21
256.811350
0
LINE
8
Layer 1
10
41.033421
20
256.811350
11
41.033421
21
238.462650
0
LINE
8
Layer 1
10
41.033421
20
238.462650
11
50.495041
21
238.478850
0
LINE
8
Layer 1
10
50.495041
20
238.478850
11
59.485305
21
238.522179
0
LINE
8
Layer 1
10
59.485305
20
238.522179
11
62.146341
21
238.745980
0
LINE
8
Layer 1
10
62.146341
20
238.745980
11
63.888753
21
239.066624
0
LINE
8
Layer 1
10
63.888753
20
239.066624
11
65.430156
21
239.499176
0
LINE
8
Layer 1
10
65.430156
20
239.499176
11
66.782896
21
240.047823
0
LINE
8
Layer 1
10
66.782896
20
240.047823
11
67.959321
21
240.716750
0
LINE
8
Layer 1
10
67.959321
20
240.716750
11
69.203806
21
241.731944
0
LINE
8
Layer 1
10
69.203806
20
241.731944
11
70.158399
21
242.928656
0
LINE
8
Layer 1
10
70.158399
20
242.928656
11
70.838255
21
244.330983
0
LINE
8
Layer 1
10
70.838255
20
244.330983
11
71.258531
21
245.963020
0
LINE
8
Layer 1
10
71.258531
20
245.963020
11
71.348809
21
247.618701
0
LINE
8
Layer 1
10
71.348809
20
247.618701
11
71.257031
21
249.229870
0
LINE
8
Layer 1
10
71.257031
20
249.229870
11
70.614596
21
251.301059
0
LINE
8
Layer 1
10
70.614596
20
251.301059
11
69.506501
21
253.205110
0
LINE
8
Layer 1
10
69.506501
20
253.205110
11
68.494915
21
254.337591
0
LINE
8
Layer 1
10
68.494915
20
254.337591
11
67.373761
21
255.342130
0
LINE
8
Layer 1
10
67.373761
20
255.342130
11
66.908048
21
255.687860
0
LINE
8
Layer 1
10
66.908048
20
255.687860
11
67.350712
21
255.839210
0
LINE
8
Layer 1
10
67.350712
20
255.839210
11
68.786154
21
256.507227
0
LINE
8
Layer 1
10
68.786154
20
256.507227
11
70.030432
21
257.453501
0
LINE
8
Layer 1
10
70.030432
20
257.453501
11
71.056670
21
258.652640
0
LINE
8
Layer 1
10
71.056670
20
258.652640
11
71.837992
21
260.079250
0
LINE
8
Layer 1
10
71.837992
20
260.079250
11
72.351138
21
261.673513
0
LINE
8
Layer 1
10
72.351138
20
261.673513
11
72.594787
21
263.342760
0
LINE
8
Layer 1
10
72.594787
20
263.342760
11
72.624667
21
263.865980
0
LINE
8
Layer 1
10
72.624667
20
263.865980
11
77.526197
21
263.865980
0
LINE
8
Layer 1
10
77.526197
20
263.865980
11
82.427727
21
263.865980
0
LINE
8
Layer 1
10
82.427727
20
263.865980
11
82.453867
21
263.992750
0
LINE
8
Layer 1
10
82.453867
20
263.992750
11
82.621526
21
264.569670
0
LINE
8
Layer 1
10
82.621526
20
264.569670
11
83.347951
21
265.910026
0
LINE
8
Layer 1
10
83.347951
20
265.910026
11
84.528489
21
266.909668
0
LINE
8
Layer 1
10
84.528489
20
266.909668
11
86.073187
21
267.515601
0
LINE
8
Layer 1
10
86.073187
20
267.515601
11
87.892096
21
267.674830
0
LINE
8
Layer 1
10
87.892096
20
267.674830
11
89.454336
21
267.499133
0
LINE
8
Layer 1
10
89.454336
20
267.499133
11
90.657716
21
267.095720
0
LINE
8
Layer 1
10
90.657716
20
267.095720
11
91.293627
21
266.717129
0
LINE
8
Layer 1
10
91.293627
20
266.717129
11
91.751722
21
266.278576
0
LINE
8
Layer 1
10
91.751722
20
266.278576
11
92.044776
21
265.763848
0
LINE
8
Layer 1
10
92.044776
20
265.763848
11
92.185566
21
265.156730
0
LINE
8
Layer 1
10
92.185566
20
265.156730
11
92.141306
21
264.528071
0
LINE
8
Layer 1
10
92.141306
20
264.528071
11
91.886919
21
263.926336
0
LINE
8
Layer 1
10
91.886919
20
263.926336
11
91.438738
21
263.378258
0
LINE
8
Layer 1
10
91.438738
20
263.378258
11
90.813096
21
262.910570
0
LINE
8
Layer 1
10
90.813096
20
262.910570
11
89.002194
21
262.109056
0
LINE
8
Layer 1
10
89.002194
20
262.109056
11
85.471946
21
261.122810
0
LINE
8
Layer 1
10
85.471946
20
261.122810
11
81.309841
21
259.950558
0
LINE
8
Layer 1
10
81.309841
20
259.950558
11
78.580296
21
258.840660
0
LINE
8
Layer 1
10
78.580296
20
258.840660
11
76.792950
21
257.826106
0
LINE
8
Layer 1
10
76.792950
20
257.826106
11
75.352966
21
256.665670
0
LINE
8
Layer 1
10
75.352966
20
256.665670
11
73.972390
21
255.009227
0
LINE
8
Layer 1
10
73.972390
20
255.009227
11
73.024187
21
253.090400
0
LINE
8
Layer 1
10
73.024187
20
253.090400
11
72.509547
21
250.912516
0
LINE
8
Layer 1
10
72.509547
20
250.912516
11
72.429656
21
248.478900
0
LINE
8
Layer 1
10
72.429656
20
248.478900
11
72.700704
21
246.447590
0
LINE
8
Layer 1
10
72.700704
20
246.447590
11
73.285369
21
244.606236
0
LINE
8
Layer 1
10
73.285369
20
244.606236
11
74.184558
21
242.952707
0
LINE
8
Layer 1
10
74.184558
20
242.952707
11
75.399176
21
241.484870
0
LINE
8
Layer 1
10
75.399176
20
241.484870
11
77.173016
21
240.043003
0
LINE
8
Layer 1
10
77.173016
20
240.043003
11
79.305590
21
238.919750
0
LINE
8
Layer 1
10
79.305590
20
238.919750
11
81.812996
21
238.108399
0
LINE
8
Layer 1
10
81.812996
20
238.108399
11
84.711336
21
237.602240
0
LINE
8
Layer 1
10
84.711336
20
237.602240
11
87.273420
21
237.516535
0
LINE
8
Layer 1
10
87.273420
20
237.516535
11
89.800656
21
237.602700
0
LINE
8
Layer 1
10
89.800656
20
237.602700
11
92.921017
21
238.207458
0
LINE
8
Layer 1
10
92.921017
20
238.207458
11
95.516266
21
239.230550
0
LINE
8
Layer 1
10
95.516266
20
239.230550
11
96.826554
21
240.019507
0
LINE
8
Layer 1
10
96.826554
20
240.019507
11
98.011699
21
240.953544
0
LINE
8
Layer 1
10
98.011699
20
240.953544
11
99.059822
21
242.022008
0
LINE
8
Layer 1
10
99.059822
20
242.022008
11
99.959046
21
243.214250
0
LINE
8
Layer 1
10
99.959046
20
243.214250
11
101.214046
21
245.718610
0
LINE
8
Layer 1
10
101.214046
20
245.718610
11
101.687755
21
247.306893
0
LINE
8
Layer 1
10
101.687755
20
247.306893
11
101.998946
21
248.872780
0
LINE
8
Layer 1
10
101.998946
20
248.872780
11
102.029746
21
249.114790
0
LINE
8
Layer 1
10
102.029746
20
249.114790
11
96.687436
21
249.114790
0
LINE
8
Layer 1
10
96.687436
20
249.114790
11
91.345126
21
249.114790
0
LINE
8
Layer 1
10
91.345126
20
249.114790
11
91.263646
21
248.757530
0
LINE
8
Layer 1
10
91.263646
20
248.757530
11
90.972011
21
247.962340
0
LINE
8
Layer 1
10
90.972011
20
247.962340
11
90.364168
21
247.130710
0
LINE
8
Layer 1
10
90.364168
20
247.130710
11
89.528540
21
246.521670
0
LINE
8
Layer 1
10
89.528540
20
246.521670
11
88.260369
21
246.081575
0
LINE
8
Layer 1
10
88.260369
20
246.081575
11
86.693510
21
245.961640
0
LINE
8
Layer 1
10
86.693510
20
245.961640
11
85.455776
21
246.040059
0
LINE
8
Layer 1
10
85.455776
20
246.040059
11
84.504315
21
246.270910
0
LINE
8
Layer 1
10
84.504315
20
246.270910
11
83.820679
21
246.661083
0
LINE
8
Layer 1
10
83.820679
20
246.661083
11
83.386420
21
247.217470
0
LINE
8
Layer 1
10
83.386420
20
247.217470
11
83.236155
21
248.054900
0
LINE
8
Layer 1
10
83.236155
20
248.054900
11
83.389380
21
248.897970
0
LINE
8
Layer 1
10
83.389380
20
248.897970
11
83.837375
21
249.524847
0
LINE
8
Layer 1
10
83.837375
20
249.524847
11
84.545132
21
250.086849
0
LINE
8
Layer 1
10
84.545132
20
250.086849
11
85.541381
21
250.602138
0
LINE
8
Layer 1
10
85.541381
20
250.602138
11
86.854850
21
251.088880
0
LINE
8
Layer 1
10
86.854850
20
251.088880
11
90.173910
21
252.018640
0
LINE
8
Layer 1
10
90.173910
20
252.018640
11
94.331260
21
253.229710
0
LINE
8
Layer 1
10
94.331260
20
253.229710
11
97.091240
21
254.376310
0
LINE
8
Layer 1
10
97.091240
20
254.376310
11
99.408206
21
255.829303
0
LINE
8
Layer 1
10
99.408206
20
255.829303
11
100.349360
21
256.667665
0
LINE
8
Layer 1
10
100.349360
20
256.667665
11
101.145578
21
257.580538
0
LINE
8
Layer 1
10
101.145578
20
257.580538
11
101.796821
21
258.567871
0
LINE
8
Layer 1
10
101.796821
20
258.567871
11
102.303053
21
259.629616
0
LINE
8
Layer 1
10
102.303053
20
259.629616
11
102.664235
21
260.765722
0
LINE
8
Layer 1
10
102.664235
20
260.765722
11
102.880330
21
261.976140
0
LINE
8
Layer 1
10
102.880330
20
261.976140
11
103.008350
21
262.891280
0
LINE
8
Layer 1
10
103.008350
20
262.891280
11
107.116870
21
250.670580
0
LINE
8
Layer 1
10
107.116870
20
250.670580
11
111.212140
21
238.466180
0
LINE
8
Layer 1
10
111.212140
20
238.466180
11
116.954100
21
238.466870
0
LINE
8
Layer 1
10
116.954100
20
238.466870
11
122.696060
21
238.467560
0
LINE
8
Layer 1
10
122.696060
20
238.467560
11
126.127960
21
248.699160
0
LINE
8
Layer 1
10
126.127960
20
248.699160
11
129.570210
21
258.920460
0
LINE
8
Layer 1
10
129.570210
20
258.920460
11
129.531810
21
257.873170
0
LINE
8
Layer 1
10
129.531810
20
257.873170
11
129.659910
21
253.932060
0
LINE
8
Layer 1
10
129.659910
20
253.932060
11
130.108710
21
251.286054
0
LINE
8
Layer 1
10
130.108710
20
251.286054
11
130.841331
21
248.779273
0
LINE
8
Layer 1
10
130.841331
20
248.779273
11
131.834632
21
246.476210
0
LINE
8
Layer 1
10
131.834632
20
246.476210
11
133.065470
21
244.441360
0
LINE
8
Layer 1
10
133.065470
20
244.441360
11
134.573982
21
242.613186
0
LINE
8
Layer 1
10
134.573982
20
242.613186
11
136.194290
21
241.083790
0
LINE
8
Layer 1
10
136.194290
20
241.083790
11
138.297275
21
239.659570
0
LINE
8
Layer 1
10
138.297275
20
239.659570
11
140.570412
21
238.588734
0
LINE
8
Layer 1
10
140.570412
20
238.588734
11
142.997086
21
237.877581
0
LINE
8
Layer 1
10
142.997086
20
237.877581
11
145.560680
21
237.532410
0
LINE
8
Layer 1
10
145.560680
20
237.532410
11
145.745070
21
237.521210
0
LINE
8
Layer 1
10
145.745070
20
237.521210
11
145.757070
21
235.325880
0
LINE
8
Layer 1
10
145.757070
20
235.325880
11
145.769070
21
233.130550
0
LINE
8
Layer 1
10
145.769070
20
233.130550
11
145.632320
21
233.103250
0
LINE
8
Layer 1
10
145.632320
20
233.103250
11
145.383624
21
232.829993
0
LINE
8
Layer 1
10
145.383624
20
232.829993
11
145.482680
21
232.460720
0
LINE
8
Layer 1
10
145.482680
20
232.460720
11
145.659030
21
232.362320
0
LINE
8
Layer 1
10
145.659030
20
232.362320
11
145.785210
21
230.247890
0
LINE
8
Layer 1
10
145.785210
20
230.247890
11
145.830210
21
217.571290
0
LINE
8
Layer 1
10
145.830210
20
217.571290
11
145.765010
21
207.005390
0
LINE
8
Layer 1
10
145.765010
20
207.005390
11
145.314530
21
206.828950
0
LINE
8
Layer 1
10
145.314530
20
206.828950
11
145.229030
21
206.577550
0
LINE
8
Layer 1
10
145.229030
20
206.577550
11
145.319936
21
206.256393
0
LINE
8
Layer 1
10
145.319936
20
206.256393
11
145.621090
21
206.080900
0
LINE
8
Layer 1
10
145.621090
20
206.080900
11
145.997537
21
206.001086
0
LINE
8
Layer 1
10
145.997537
20
206.001086
11
146.044720
21
205.846190
0
LINE
8
Layer 1
10
146.044720
20
205.846190
11
146.024117
21
205.711775
0
LINE
8
Layer 1
10
146.024117
20
205.711775
11
145.894900
21
205.712120
0
LINE
8
Layer 1
10
145.894900
20
205.712120
11
144.940791
21
205.833703
0
LINE
8
Layer 1
10
144.940791
20
205.833703
11
144.667930
21
205.662620
0
LINE
8
Layer 1
10
144.667930
20
205.662620
11
144.662560
21
205.438271
0
LINE
8
Layer 1
10
144.662560
20
205.438271
11
144.810670
21
205.274890
0
LINE
8
Layer 1
10
144.810670
20
205.274890
11
145.468490
21
205.148690
0
LINE
8
Layer 1
10
145.468490
20
205.148690
11
146.021670
21
205.068290
0
LINE
8
Layer 1
10
146.021670
20
205.068290
11
146.033570
21
202.361730
0
LINE
8
Layer 1
10
146.033570
20
202.361730
11
146.045470
21
199.655180
0
LINE
8
Layer 1
10
146.045470
20
199.655180
11
145.749640
21
199.682780
0
LINE
8
Layer 1
10
145.749640
20
199.682780
11
145.334390
21
199.590980
0
LINE
8
Layer 1
10
145.334390
20
199.590980
11
145.212864
21
199.310436
0
LINE
8
Layer 1
10
145.212864
20
199.310436
11
145.319390
21
199.036050
0
LINE
8
Layer 1
10
145.319390
20
199.036050
11
145.811060
21
198.876850
0
LINE
8
Layer 1
10
145.811060
20
198.876850
11
146.215480
21
198.804850
0
LINE
8
Layer 1
10
146.215480
20
198.804850
11
147.514630
21
193.249320
0
LINE
8
Layer 1
10
147.514630
20
193.249320
11
148.815120
21
187.697840
0
LINE
8
Layer 1
10
148.815120
20
187.697840
11
149.098710
21
187.702840
0
LINE
8
Layer 1
10
149.098710
20
187.702840
11
149.325605
21
187.735938
0
LINE
8
Layer 1
10
149.325605
20
187.735938
11
149.363380
21
187.843420
0
LINE
8
Layer 1
10
149.363380
20
187.843420
11
150.379340
21
190.893150
0
LINE
8
Layer 1
10
150.379340
20
190.893150
11
155.458940
21
176.153350
0
LINE
8
Layer 1
10
155.458940
20
176.153350
11
160.511970
21
161.413350
0
LINE
8
Layer 1
10
160.511970
20
161.413350
11
160.748880
21
161.388750
0
LINE
8
Layer 1
10
160.748880
20
161.388750
11
161.002284
21
161.405228
0
LINE
8
Layer 1
10
161.002284
20
161.405228
11
161.095870
21
161.617470
0
LINE
8
Layer 1
10
161.095870
20
161.617470
11
166.817350
21
177.607970
0
LINE
8
Layer 1
10
166.817350
20
177.607970
11
172.504980
21
193.480470
0
LINE
8
Layer 1
10
172.504980
20
193.480470
11
172.090100
21
193.520570
0
LINE
8
Layer 1
10
172.090100
20
193.520570
11
171.675220
21
193.520570
0
LINE
8
Layer 1
10
171.675220
20
193.520570
11
171.679220
21
195.214680
0
LINE
8
Layer 1
10
171.679220
20
195.214680
11
171.701920
21
196.862680
0
LINE
8
Layer 1
10
171.701920
20
196.862680
11
173.101390
21
192.397900
0
LINE
8
Layer 1
10
173.101390
20
192.397900
11
174.496180
21
187.965610
0
LINE
8
Layer 1
10
174.496180
20
187.965610
11
175.017300
21
188.044610
0
LINE
8
Layer 1
10
175.017300
20
188.044610
11
176.438040
21
193.360040
0
LINE
8
Layer 1
10
176.438040
20
193.360040
11
177.861740
21
198.959150
0
LINE
8
Layer 1
10
177.861740
20
198.959150
11
177.875740
21
199.256200
0
LINE
8
Layer 1
10
177.875740
20
199.256200
11
178.313580
21
199.405380
0
LINE
8
Layer 1
10
178.313580
20
199.405380
11
178.791945
21
199.627006
0
LINE
8
Layer 1
10
178.791945
20
199.627006
11
178.912950
21
199.900030
0
LINE
8
Layer 1
10
178.912950
20
199.900030
11
178.843784
21
200.138293
0
LINE
8
Layer 1
10
178.843784
20
200.138293
11
178.644620
21
200.293590
0
LINE
8
Layer 1
10
178.644620
20
200.293590
11
178.232780
21
200.276890
0
LINE
8
Layer 1
10
178.232780
20
200.276890
11
177.898160
21
200.204790
0
LINE
8
Layer 1
10
177.898160
20
200.204790
11
177.860060
21
202.576300
0
LINE
8
Layer 1
10
177.860060
20
202.576300
11
177.907360
21
204.976830
0
LINE
8
Layer 1
10
177.907360
20
204.976830
11
178.567280
21
205.148940
0
LINE
8
Layer 1
10
178.567280
20
205.148940
11
179.268080
21
205.398710
0
LINE
8
Layer 1
10
179.268080
20
205.398710
11
179.306805
21
205.620875
0
LINE
8
Layer 1
10
179.306805
20
205.620875
11
179.174680
21
205.787330
0
LINE
8
Layer 1
10
179.174680
20
205.787330
11
178.013700
21
205.617100
0
LINE
8
Layer 1
10
178.013700
20
205.617100
11
177.910932
21
205.619644
0
LINE
8
Layer 1
10
177.910932
20
205.619644
11
177.907600
21
205.807250
0
LINE
8
Layer 1
10
177.907600
20
205.807250
11
177.921900
21
206.027620
0
LINE
8
Layer 1
10
177.921900
20
206.027620
11
178.327940
21
206.153950
0
LINE
8
Layer 1
10
178.327940
20
206.153950
11
178.820880
21
206.358940
0
LINE
8
Layer 1
10
178.820880
20
206.358940
11
178.936537
21
206.716130
0
LINE
8
Layer 1
10
178.936537
20
206.716130
11
178.694520
21
207.032730
0
LINE
8
Layer 1
10
178.694520
20
207.032730
11
178.041010
21
207.001730
0
LINE
8
Layer 1
10
178.041010
20
207.001730
11
177.883540
21
206.966630
0
LINE
8
Layer 1
10
177.883540
20
206.966630
11
177.914240
21
211.917940
0
LINE
8
Layer 1
10
177.914240
20
211.917940
11
177.944940
21
224.045740
0
LINE
8
Layer 1
10
177.944940
20
224.045740
11
177.944960
21
231.222230
0
LINE
8
Layer 1
10
177.944960
20
231.222230
11
178.210020
21
231.273630
0
LINE
8
Layer 1
10
178.210020
20
231.273630
11
178.683720
21
231.404568
0
LINE
8
Layer 1
10
178.683720
20
231.404568
11
178.880550
21
231.606380
0
LINE
8
Layer 1
10
178.880550
20
231.606380
11
178.895950
21
231.935990
0
LINE
8
Layer 1
10
178.895950
20
231.935990
11
178.702635
21
232.157271
0
LINE
8
Layer 1
10
178.702635
20
232.157271
11
178.280480
21
232.183170
0
LINE
8
Layer 1
10
178.280480
20
232.183170
11
177.941020
21
232.157470
0
LINE
8
Layer 1
10
177.941020
20
232.157470
11
177.966020
21
243.390470
0
LINE
8
Layer 1
10
177.966020
20
243.390470
11
178.016020
21
265.237470
0
LINE
8
Layer 1
10
178.016020
20
265.237470
11
178.041020
21
275.851570
0
LINE
8
Layer 1
10
178.041020
20
275.851570
11
171.447050
21
275.851570
0
LINE
8
Layer 1
10
171.447050
20
275.851570
11
164.853080
21
275.851570
0
LINE
8
Layer 1
10
164.853080
20
275.851570
11
164.853080
21
264.221970
0
LINE
8
Layer 1
10
164.853080
20
264.221970
11
164.853080
21
252.592370
0
LINE
8
Layer 1
10
164.853080
20
252.592370
11
164.506580
21
252.420920
0
LINE
8
Layer 1
10
164.506580
20
252.420920
11
164.109620
21
252.249470
0
LINE
8
Layer 1
10
164.109620
20
252.249470
11
164.089420
21
252.410810
0
LINE
8
Layer 1
10
164.089420
20
252.410810
11
164.119720
21
252.572150
0
LINE
8
Layer 1
10
164.119720
20
252.572150
11
158.771150
21
252.572150
0
LINE
8
Layer 1
10
158.771150
20
252.572150
11
153.422560
21
252.572150
0
LINE
8
Layer 1
10
153.422560
20
252.572150
11
153.401060
21
252.468430
0
LINE
8
Layer 1
10
153.401060
20
252.468430
11
153.328860
21
252.042030
0
LINE
8
Layer 1
10
153.328860
20
252.042030
11
153.142480
21
251.195490
0
LINE
8
Layer 1
10
153.142480
20
251.195490
11
152.420869
21
249.372437
0
LINE
8
Layer 1
10
152.420869
20
249.372437
11
151.323447
21
247.971300
0
LINE
8
Layer 1
10
151.323447
20
247.971300
11
149.876447
21
247.016368
0
LINE
8
Layer 1
10
149.876447
20
247.016368
11
148.106100
21
246.531930
0
LINE
8
Layer 1
10
148.106100
20
246.531930
11
146.892271
21
246.499743
0
LINE
8
Layer 1
10
146.892271
20
246.499743
11
145.814650
21
246.617630
0
LINE
8
Layer 1
10
145.814650
20
246.617630
11
144.618522
21
247.071418
0
LINE
8
Layer 1
10
144.618522
20
247.071418
11
143.625000
21
247.773020
0
LINE
8
Layer 1
10
143.625000
20
247.773020
11
142.537000
21
249.075618
0
LINE
8
Layer 1
10
142.537000
20
249.075618
11
141.711786
21
250.788935
0
LINE
8
Layer 1
10
141.711786
20
250.788935
11
141.144694
21
252.925874
0
LINE
8
Layer 1
10
141.144694
20
252.925874
11
140.831060
21
255.499340
0
LINE
8
Layer 1
10
140.831060
20
255.499340
11
140.901560
21
259.924740
0
LINE
8
Layer 1
10
140.901560
20
259.924740
11
141.401767
21
262.541238
0
LINE
8
Layer 1
10
141.401767
20
262.541238
11
142.262687
21
264.536981
0
LINE
8
Layer 1
10
142.262687
20
264.536981
11
142.836582
21
265.315287
0
LINE
8
Layer 1
10
142.836582
20
265.315287
11
143.510455
21
265.954266
0
LINE
8
Layer 1
10
143.510455
20
265.954266
11
144.287572
21
266.459205
0
LINE
8
Layer 1
10
144.287572
20
266.459205
11
145.171200
21
266.835390
0
LINE
8
Layer 1
10
145.171200
20
266.835390
11
146.130980
21
267.078445
0
LINE
8
Layer 1
10
146.130980
20
267.078445
11
147.245410
21
267.172730
0
LINE
8
Layer 1
10
147.245410
20
267.172730
11
148.469996
21
267.126238
0
LINE
8
Layer 1
10
148.469996
20
267.126238
11
149.517342
21
266.893980
0
LINE
8
Layer 1
10
149.517342
20
266.893980
11
150.432242
21
266.460760
0
LINE
8
Layer 1
10
150.432242
20
266.460760
11
151.259490
21
265.811380
0
LINE
8
Layer 1
10
151.259490
20
265.811380
11
151.936547
21
265.030903
0
LINE
8
Layer 1
10
151.936547
20
265.030903
11
152.490405
21
264.102790
0
LINE
8
Layer 1
10
152.490405
20
264.102790
11
152.917836
21
263.033617
0
LINE
8
Layer 1
10
152.917836
20
263.033617
11
153.215610
21
261.829960
0
LINE
8
Layer 1
10
153.215610
20
261.829960
11
153.356430
21
261.065670
0
LINE
8
Layer 1
10
153.356430
20
261.065670
11
153.376530
21
260.961950
0
LINE
8
Layer 1
10
153.376530
20
260.961950
11
158.796230
21
260.961950
0
LINE
8
Layer 1
10
158.796230
20
260.961950
11
164.215920
21
260.961950
0
LINE
8
Layer 1
10
164.215920
20
260.961950
11
164.189620
21
261.134820
0
LINE
8
Layer 1
10
164.189620
20
261.134820
11
164.113220
21
261.699520
0
LINE
8
Layer 1
10
164.113220
20
261.699520
11
163.584971
21
264.291454
0
LINE
8
Layer 1
10
163.584971
20
264.291454
11
162.749110
21
266.760230
0
LINE
8
Layer 1
10
162.749110
20
266.760230
11
161.676924
21
268.850056
0
LINE
8
Layer 1
10
161.676924
20
268.850056
11
160.348260
21
270.723560
0
LINE
8
Layer 1
10
160.348260
20
270.723560
11
158.788057
21
272.302939
0
LINE
8
Layer 1
10
158.788057
20
272.302939
11
157.039560
21
273.647950
0
LINE
8
Layer 1
10
157.039560
20
273.647950
11
155.464679
21
274.521090
0
LINE
8
Layer 1
10
155.464679
20
274.521090
11
153.772619
21
275.210628
0
LINE
8
Layer 1
10
153.772619
20
275.210628
11
151.962304
21
275.716929
0
LINE
8
Layer 1
10
151.962304
20
275.716929
11
150.032660
21
276.040360
0
LINE
8
Layer 1
10
150.032660
20
276.040360
11
146.282480
21
276.127060
0
LINE
8
Layer 1
10
146.282480
20
276.127060
11
146.282000
21
276.127000
0
LINE
8
Layer 1
10
177.457000
20
262.955600
11
177.407900
21
241.300800
0
LINE
8
Layer 1
10
177.407900
20
241.300800
11
177.380100
21
231.988770
0
LINE
8
Layer 1
10
177.380100
20
231.988770
11
171.466800
21
231.101280
0
LINE
8
Layer 1
10
171.466800
20
231.101280
11
165.491240
21
230.237690
0
LINE
8
Layer 1
10
165.491240
20
230.237690
11
165.413140
21
252.779990
0
LINE
8
Layer 1
10
165.413140
20
252.779990
11
165.397340
21
275.298390
0
LINE
8
Layer 1
10
165.397340
20
275.298390
11
171.437810
21
275.298390
0
LINE
8
Layer 1
10
171.437810
20
275.298390
11
177.478290
21
275.298390
0
LINE
8
Layer 1
10
177.478290
20
275.298390
11
177.457000
21
262.955600
0
LINE
8
Layer 1
10
58.903000
20
266.523080
11
60.123479
21
266.226497
0
LINE
8
Layer 1
10
60.123479
20
266.226497
11
61.043889
21
265.734494
0
LINE
8
Layer 1
10
61.043889
20
265.734494
11
61.676335
21
265.037806
0
LINE
8
Layer 1
10
61.676335
20
265.037806
11
62.032920
21
264.127170
0
LINE
8
Layer 1
10
62.032920
20
264.127170
11
62.096667
21
263.041010
0
LINE
8
Layer 1
10
62.096667
20
263.041010
11
61.945210
21
261.991810
0
LINE
8
Layer 1
10
61.945210
20
261.991810
11
61.432375
21
261.072060
0
LINE
8
Layer 1
10
61.432375
20
261.072060
11
60.556440
21
260.431190
0
LINE
8
Layer 1
10
60.556440
20
260.431190
11
59.719997
21
260.122182
0
LINE
8
Layer 1
10
59.719997
20
260.122182
11
58.597469
21
259.932172
0
LINE
8
Layer 1
10
58.597469
20
259.932172
11
54.529130
21
259.809640
0
LINE
8
Layer 1
10
54.529130
20
259.809640
11
52.327950
21
259.809410
0
LINE
8
Layer 1
10
52.327950
20
259.809410
11
52.327950
21
263.224620
0
LINE
8
Layer 1
10
52.327950
20
263.224620
11
52.327950
21
266.639840
0
LINE
8
Layer 1
10
52.327950
20
266.639840
11
55.358890
21
266.619140
0
LINE
8
Layer 1
10
55.358890
20
266.619140
11
58.903010
21
266.523040
0
LINE
8
Layer 1
10
58.903010
20
266.523040
11
58.903000
21
266.523080
0
LINE
8
Layer 1
10
118.701900
20
256.179180
11
116.877130
21
249.611580
0
LINE
8
Layer 1
10
116.877130
20
249.611580
11
115.118060
21
256.042250
0
LINE
8
Layer 1
10
115.118060
20
256.042250
11
113.374020
21
262.609850
0
LINE
8
Layer 1
10
113.374020
20
262.609850
11
116.922790
21
262.667450
0
LINE
8
Layer 1
10
116.922790
20
262.667450
11
120.491600
21
262.667450
0
LINE
8
Layer 1
10
120.491600
20
262.667450
11
118.701900
21
256.179180
0
LINE
8
Layer 1
10
58.046600
20
253.050000
11
59.075371
21
252.749462
0
LINE
8
Layer 1
10
59.075371
20
252.749462
11
59.886111
21
252.242736
0
LINE
8
Layer 1
10
59.886111
20
252.242736
11
60.468335
21
251.538935
0
LINE
8
Layer 1
10
60.468335
20
251.538935
11
60.811560
21
250.647170
0
LINE
8
Layer 1
10
60.811560
20
250.647170
11
60.858360
21
249.878040
0
LINE
8
Layer 1
10
60.858360
20
249.878040
11
60.693515
21
248.703976
0
LINE
8
Layer 1
10
60.693515
20
248.703976
11
60.169871
21
247.871590
0
LINE
8
Layer 1
10
60.169871
20
247.871590
11
59.680844
21
247.498735
0
LINE
8
Layer 1
10
59.680844
20
247.498735
11
59.031671
21
247.249840
0
LINE
8
Layer 1
10
59.031671
20
247.249840
11
57.896261
21
247.064220
0
LINE
8
Layer 1
10
57.896261
20
247.064220
11
55.104461
21
247.007240
0
LINE
8
Layer 1
10
55.104461
20
247.007240
11
52.327061
21
246.982740
0
LINE
8
Layer 1
10
52.327061
20
246.982740
11
52.327061
21
250.053600
0
LINE
8
Layer 1
10
52.327061
20
250.053600
11
52.327061
21
253.124460
0
LINE
8
Layer 1
10
52.327061
20
253.124460
11
54.969571
21
253.124460
0
LINE
8
Layer 1
10
54.969571
20
253.124460
11
58.046611
21
253.049960
0
LINE
8
Layer 1
10
58.046611
20
253.049960
11
58.046600
21
253.050000
0
LINE
8
Layer 1
10
164.852000
20
241.133000
11
164.852000
21
230.345100
0
LINE
8
Layer 1
10
164.852000
20
230.345100
11
164.725230
21
230.370700
0
LINE
8
Layer 1
10
164.725230
20
230.370700
11
148.648530
21
232.719030
0
LINE
8
Layer 1
10
148.648530
20
232.719030
11
146.343630
21
233.054220
0
LINE
8
Layer 1
10
146.343630
20
233.054220
11
146.331630
21
235.275920
0
LINE
8
Layer 1
10
146.331630
20
235.275920
11
146.319630
21
237.497630
0
LINE
8
Layer 1
10
146.319630
20
237.497630
11
146.907820
21
237.497630
0
LINE
8
Layer 1
10
146.907820
20
237.497630
11
149.683450
21
237.670640
0
LINE
8
Layer 1
10
149.683450
20
237.670640
11
152.366680
21
238.146230
0
LINE
8
Layer 1
10
152.366680
20
238.146230
11
154.624582
21
238.860849
0
LINE
8
Layer 1
10
154.624582
20
238.860849
11
156.655099
21
239.835091
0
LINE
8
Layer 1
10
156.655099
20
239.835091
11
158.454681
21
241.065017
0
LINE
8
Layer 1
10
158.454681
20
241.065017
11
160.019780
21
242.546684
0
LINE
8
Layer 1
10
160.019780
20
242.546684
11
161.346848
21
244.276150
0
LINE
8
Layer 1
10
161.346848
20
244.276150
11
162.432336
21
246.249474
0
LINE
8
Layer 1
10
162.432336
20
246.249474
11
163.272696
21
248.462715
0
LINE
8
Layer 1
10
163.272696
20
248.462715
11
163.864380
21
250.911930
0
LINE
8
Layer 1
10
163.864380
20
250.911930
11
164.022420
21
251.594180
0
LINE
8
Layer 1
10
164.022420
20
251.594180
11
164.420890
21
251.784050
0
LINE
8
Layer 1
10
164.420890
20
251.784050
11
164.817340
21
251.940370
0
LINE
8
Layer 1
10
164.817340
20
251.940370
11
164.851940
21
241.132770
0
LINE
8
Layer 1
10
164.851940
20
241.132770
11
164.852000
21
241.133000
0
LINE
8
Layer 1
10
150.699900
20
231.618780
11
163.572800
21
229.701870
0
LINE
8
Layer 1
10
163.572800
20
229.701870
11
164.852020
21
229.506630
0
LINE
8
Layer 1
10
164.852020
20
229.506630
11
164.852020
21
216.861930
0
LINE
8
Layer 1
10
164.852020
20
216.861930
11
164.852020
21
204.217230
0
LINE
8
Layer 1
10
164.852020
20
204.217230
11
164.725250
21
204.240530
0
LINE
8
Layer 1
10
164.725250
20
204.240530
11
158.260010
21
205.185040
0
LINE
8
Layer 1
10
158.260010
20
205.185040
11
146.563910
21
206.906480
0
LINE
8
Layer 1
10
146.563910
20
206.906480
11
146.485810
21
223.866980
0
LINE
8
Layer 1
10
146.485810
20
223.866980
11
146.466510
21
232.248120
0
LINE
8
Layer 1
10
146.466510
20
232.248120
11
146.589480
21
232.223520
0
LINE
8
Layer 1
10
146.589480
20
232.223520
11
150.699910
21
231.618770
0
LINE
8
Layer 1
10
150.699910
20
231.618770
11
150.699900
21
231.618780
0
LINE
8
Layer 1
10
148.813230
20
229.216840
11
148.717730
21
225.167860
0
LINE
8
Layer 1
10
148.717730
20
225.167860
11
148.688030
21
215.020960
0
LINE
8
Layer 1
10
148.688030
20
215.020960
11
148.745730
21
208.695490
0
LINE
8
Layer 1
10
148.745730
20
208.695490
11
155.125450
21
207.736400
0
LINE
8
Layer 1
10
155.125450
20
207.736400
11
161.532910
21
206.921640
0
LINE
8
Layer 1
10
161.532910
20
206.921640
11
161.709940
21
207.088980
0
LINE
8
Layer 1
10
161.709940
20
207.088980
11
161.720234
21
207.346509
0
LINE
8
Layer 1
10
161.720234
20
207.346509
11
161.540590
21
207.528040
0
LINE
8
Layer 1
10
161.540590
20
207.528040
11
155.563310
21
208.363650
0
LINE
8
Layer 1
10
155.563310
20
208.363650
11
149.528380
21
209.179400
0
LINE
8
Layer 1
10
149.528380
20
209.179400
11
149.347880
21
209.207700
0
LINE
8
Layer 1
10
149.347880
20
209.207700
11
149.378380
21
219.138100
0
LINE
8
Layer 1
10
149.378380
20
219.138100
11
149.385824
21
227.954238
0
LINE
8
Layer 1
10
149.385824
20
227.954238
11
149.342668
21
229.085448
0
LINE
8
Layer 1
10
149.342668
20
229.085448
11
149.252530
21
229.303000
0
LINE
8
Layer 1
10
149.252530
20
229.303000
11
149.024180
21
229.335163
0
LINE
8
Layer 1
10
149.024180
20
229.335163
11
148.813320
21
229.216800
0
LINE
8
Layer 1
10
148.813320
20
229.216800
11
148.813230
21
229.216840
0
LINE
8
Layer 1
10
150.375370
20
228.815890
11
150.205940
21
228.645920
0
LINE
8
Layer 1
10
150.205940
20
228.645920
11
150.147640
21
220.003460
0
LINE
8
Layer 1
10
150.147640
20
220.003460
11
150.189040
21
211.221790
0
LINE
8
Layer 1
10
150.189040
20
211.221790
11
150.408933
21
210.542088
0
LINE
8
Layer 1
10
150.408933
20
210.542088
11
150.798767
21
210.065739
0
LINE
8
Layer 1
10
150.798767
20
210.065739
11
151.337879
21
209.809047
0
LINE
8
Layer 1
10
151.337879
20
209.809047
11
152.005600
21
209.788320
0
LINE
8
Layer 1
10
152.005600
20
209.788320
11
152.791435
21
210.074328
0
LINE
8
Layer 1
10
152.791435
20
210.074328
11
153.320560
21
210.662690
0
LINE
8
Layer 1
10
153.320560
20
210.662690
11
153.465730
21
210.935060
0
LINE
8
Layer 1
10
153.465730
20
210.935060
11
153.465730
21
219.622460
0
LINE
8
Layer 1
10
153.465730
20
219.622460
11
153.376930
21
228.390250
0
LINE
8
Layer 1
10
153.376930
20
228.390250
11
152.005510
21
228.648970
0
LINE
8
Layer 1
10
152.005510
20
228.648970
11
150.604920
21
228.849410
0
LINE
8
Layer 1
10
150.604920
20
228.849410
11
150.375340
21
228.815910
0
LINE
8
Layer 1
10
150.375340
20
228.815910
11
150.375370
21
228.815890
0
LINE
8
Layer 1
10
154.408700
20
228.072700
11
154.295550
21
227.959550
0
LINE
8
Layer 1
10
154.295550
20
227.959550
11
154.295550
21
219.369870
0
LINE
8
Layer 1
10
154.295550
20
219.369870
11
154.322401
21
211.363620
0
LINE
8
Layer 1
10
154.322401
20
211.363620
11
154.397648
21
210.373127
0
LINE
8
Layer 1
10
154.397648
20
210.373127
11
154.551160
21
210.038640
0
LINE
8
Layer 1
10
154.551160
20
210.038640
11
154.853138
21
209.668613
0
LINE
8
Layer 1
10
154.853138
20
209.668613
11
155.243419
21
209.420500
0
LINE
8
Layer 1
10
155.243419
20
209.420500
11
156.203750
21
209.326700
0
LINE
8
Layer 1
10
156.203750
20
209.326700
11
156.977876
21
209.647096
0
LINE
8
Layer 1
10
156.977876
20
209.647096
11
157.480000
21
210.268970
0
LINE
8
Layer 1
10
157.480000
20
210.268970
11
157.614540
21
210.553370
0
LINE
8
Layer 1
10
157.614540
20
210.553370
11
157.614580
21
219.069970
0
LINE
8
Layer 1
10
157.614580
20
219.069970
11
157.523580
21
227.677600
0
LINE
8
Layer 1
10
157.523580
20
227.677600
11
157.327660
21
227.791920
0
LINE
8
Layer 1
10
157.327660
20
227.791920
11
154.562580
21
228.185850
0
LINE
8
Layer 1
10
154.562580
20
228.185850
11
154.408690
21
228.072700
0
LINE
8
Layer 1
10
154.408690
20
228.072700
11
154.408700
21
228.072700
0
LINE
8
Layer 1
10
158.696320
20
227.402550
11
158.557773
21
227.294129
0
LINE
8
Layer 1
10
158.557773
20
227.294129
11
158.489300
21
226.475435
0
LINE
8
Layer 1
10
158.489300
20
226.475435
11
158.454180
21
218.901550
0
LINE
8
Layer 1
10
158.454180
20
218.901550
11
158.486880
21
210.249020
0
LINE
8
Layer 1
10
158.486880
20
210.249020
11
158.643430
21
209.628601
0
LINE
8
Layer 1
10
158.643430
20
209.628601
11
158.927146
21
209.159688
0
LINE
8
Layer 1
10
158.927146
20
209.159688
11
159.331846
21
208.849275
0
LINE
8
Layer 1
10
159.331846
20
208.849275
11
159.851350
21
208.704360
0
LINE
8
Layer 1
10
159.851350
20
208.704360
11
160.417251
21
208.733528
0
LINE
8
Layer 1
10
160.417251
20
208.733528
11
160.941781
21
208.923798
0
LINE
8
Layer 1
10
160.941781
20
208.923798
11
161.379771
21
209.250893
0
LINE
8
Layer 1
10
161.379771
20
209.250893
11
161.686050
21
209.690540
0
LINE
8
Layer 1
10
161.686050
20
209.690540
11
161.786510
21
209.907990
0
LINE
8
Layer 1
10
161.786510
20
209.907990
11
161.786510
21
218.377220
0
LINE
8
Layer 1
10
161.786510
20
218.377220
11
161.693610
21
226.939370
0
LINE
8
Layer 1
10
161.693610
20
226.939370
11
160.310670
21
227.215860
0
LINE
8
Layer 1
10
160.310670
20
227.215860
11
158.905410
21
227.419070
0
LINE
8
Layer 1
10
158.905410
20
227.419070
11
158.696370
21
227.402570
0
LINE
8
Layer 1
10
158.696370
20
227.402570
11
158.696320
21
227.402550
0
LINE
8
Layer 1
10
177.376720
20
219.006220
11
177.333320
21
206.815920
0
LINE
8
Layer 1
10
177.333320
20
206.815920
11
175.338020
21
206.357460
0
LINE
8
Layer 1
10
175.338020
20
206.357460
11
165.596390
21
204.193080
0
LINE
8
Layer 1
10
165.596390
20
204.193080
11
165.614490
21
216.814580
0
LINE
8
Layer 1
10
165.614490
20
216.814580
11
165.648690
21
229.420480
0
LINE
8
Layer 1
10
165.648690
20
229.420480
11
166.160720
21
229.497480
0
LINE
8
Layer 1
10
166.160720
20
229.497480
11
171.974010
21
230.374090
0
LINE
8
Layer 1
10
171.974010
20
230.374090
11
177.340490
21
231.177940
0
LINE
8
Layer 1
10
177.340490
20
231.177940
11
177.376590
21
219.006140
0
LINE
8
Layer 1
10
177.376590
20
219.006140
11
177.376720
21
219.006220
0
LINE
8
Layer 1
10
176.442900
20
228.489190
11
176.370800
21
219.004520
0
LINE
8
Layer 1
10
176.370800
20
219.004520
11
176.388100
21
209.585310
0
LINE
8
Layer 1
10
176.388100
20
209.585310
11
171.645700
21
208.623820
0
LINE
8
Layer 1
10
171.645700
20
208.623820
11
166.823810
21
207.592070
0
LINE
8
Layer 1
10
166.823810
20
207.592070
11
166.716270
21
207.433410
0
LINE
8
Layer 1
10
166.716270
20
207.433410
11
166.915120
21
207.099580
0
LINE
8
Layer 1
10
166.915120
20
207.099580
11
176.839700
21
209.102500
0
LINE
8
Layer 1
10
176.839700
20
209.102500
11
176.959660
21
209.274060
0
LINE
8
Layer 1
10
176.959660
20
209.274060
11
176.961660
21
218.890200
0
LINE
8
Layer 1
10
176.961660
20
218.890200
11
176.854790
21
228.468470
0
LINE
8
Layer 1
10
176.854790
20
228.468470
11
176.442650
21
228.489170
0
LINE
8
Layer 1
10
176.442650
20
228.489170
11
176.442900
21
228.489190
0
LINE
8
Layer 1
10
174.276890
20
227.980700
11
173.444635
21
227.788400
0
LINE
8
Layer 1
10
173.444635
20
227.788400
11
173.293080
21
227.644790
0
LINE
8
Layer 1
10
173.293080
20
227.644790
11
173.252680
21
219.749920
0
LINE
8
Layer 1
10
173.252680
20
219.749920
11
173.264880
21
211.982400
0
LINE
8
Layer 1
10
173.264880
20
211.982400
11
173.367790
21
211.728350
0
LINE
8
Layer 1
10
173.367790
20
211.728350
11
173.953070
21
211.047810
0
LINE
8
Layer 1
10
173.953070
20
211.047810
11
174.397450
21
210.970210
0
LINE
8
Layer 1
10
174.397450
20
210.970210
11
174.889200
21
211.093140
0
LINE
8
Layer 1
10
174.889200
20
211.093140
11
175.210504
21
211.491826
0
LINE
8
Layer 1
10
175.210504
20
211.491826
11
175.406820
21
212.097640
0
LINE
8
Layer 1
10
175.406820
20
212.097640
11
175.454220
21
220.166060
0
LINE
8
Layer 1
10
175.454220
20
220.166060
11
175.425415
21
227.401766
0
LINE
8
Layer 1
10
175.425415
20
227.401766
11
175.333536
21
228.111706
0
LINE
8
Layer 1
10
175.333536
20
228.111706
11
175.140800
21
228.134680
0
LINE
8
Layer 1
10
175.140800
20
228.134680
11
174.276950
21
227.980690
0
LINE
8
Layer 1
10
174.276950
20
227.980690
11
174.276890
21
227.980700
0
LINE
8
Layer 1
10
171.075200
20
227.485580
11
170.095620
21
227.229520
0
LINE
8
Layer 1
10
170.095620
20
227.229520
11
170.015020
21
219.155020
0
LINE
8
Layer 1
10
170.015020
20
219.155020
11
170.015050
21
211.152640
0
LINE
8
Layer 1
10
170.015050
20
211.152640
11
170.147700
21
210.876050
0
LINE
8
Layer 1
10
170.147700
20
210.876050
11
170.418181
21
210.475534
0
LINE
8
Layer 1
10
170.418181
20
210.475534
11
170.762590
21
210.233020
0
LINE
8
Layer 1
10
170.762590
20
210.233020
11
171.579970
21
210.229020
0
LINE
8
Layer 1
10
171.579970
20
210.229020
11
172.112440
21
210.882160
0
LINE
8
Layer 1
10
172.112440
20
210.882160
11
172.217260
21
219.311530
0
LINE
8
Layer 1
10
172.217260
20
219.311530
11
172.229860
21
227.516980
0
LINE
8
Layer 1
10
172.229860
20
227.516980
11
172.131460
21
227.597680
0
LINE
8
Layer 1
10
172.131460
20
227.597680
11
172.003580
21
227.673680
0
LINE
8
Layer 1
10
172.003580
20
227.673680
11
171.075200
21
227.485110
0
LINE
8
Layer 1
10
171.075200
20
227.485110
11
171.075200
21
227.485580
0
LINE
8
Layer 1
10
167.550620
20
226.941430
11
166.593580
21
226.663570
0
LINE
8
Layer 1
10
166.593580
20
226.663570
11
166.522480
21
218.534110
0
LINE
8
Layer 1
10
166.522480
20
218.534110
11
166.534480
21
210.507270
0
LINE
8
Layer 1
10
166.534480
20
210.507270
11
166.632980
21
210.294180
0
LINE
8
Layer 1
10
166.632980
20
210.294180
11
166.921814
21
209.875134
0
LINE
8
Layer 1
10
166.921814
20
209.875134
11
167.289720
21
209.596090
0
LINE
8
Layer 1
10
167.289720
20
209.596090
11
167.741863
21
209.506041
0
LINE
8
Layer 1
10
167.741863
20
209.506041
11
168.151360
21
209.575090
0
LINE
8
Layer 1
10
168.151360
20
209.575090
11
168.489559
21
209.873596
0
LINE
8
Layer 1
10
168.489559
20
209.873596
11
168.732890
21
210.331500
0
LINE
8
Layer 1
10
168.732890
20
210.331500
11
168.839360
21
210.645570
0
LINE
8
Layer 1
10
168.839360
20
210.645570
11
168.851660
21
218.777290
0
LINE
8
Layer 1
10
168.851660
20
218.777290
11
168.835234
21
226.330313
0
LINE
8
Layer 1
10
168.835234
20
226.330313
11
168.751053
21
227.087974
0
LINE
8
Layer 1
10
168.751053
20
227.087974
11
168.573250
21
227.121140
0
LINE
8
Layer 1
10
168.573250
20
227.121140
11
167.550550
21
226.941440
0
LINE
8
Layer 1
10
167.550550
20
226.941440
11
167.550620
21
226.941430
0
LINE
8
Layer 1
10
155.874420
20
204.579930
11
164.852010
21
203.272810
0
LINE
8
Layer 1
10
164.852010
20
203.272810
11
164.852010
21
203.056700
0
LINE
8
Layer 1
10
164.852010
20
203.056700
11
164.771310
21
202.859540
0
LINE
8
Layer 1
10
164.771310
20
202.859540
11
156.738730
21
204.077580
0
LINE
8
Layer 1
10
156.738730
20
204.077580
11
147.732410
21
205.437260
0
LINE
8
Layer 1
10
147.732410
20
205.437260
11
146.637590
21
205.597840
0
LINE
8
Layer 1
10
146.637590
20
205.597840
11
146.597190
21
205.765220
0
LINE
8
Layer 1
10
146.597190
20
205.765220
11
146.617418
21
205.906860
0
LINE
8
Layer 1
10
146.617418
20
205.906860
11
146.747010
21
205.909810
0
LINE
8
Layer 1
10
146.747010
20
205.909810
11
155.874420
21
204.579930
0
LINE
8
Layer 1
10
155.874420
20
204.579930
11
155.874420
21
204.579930
0
LINE
8
Layer 1
10
177.336220
20
205.665170
11
177.321520
21
205.489860
0
LINE
8
Layer 1
10
177.321520
20
205.489860
11
171.513170
21
204.277430
0
LINE
8
Layer 1
10
171.513170
20
204.277430
11
165.647200
21
203.063730
0
LINE
8
Layer 1
10
165.647200
20
203.063730
11
165.589600
21
203.172700
0
LINE
8
Layer 1
10
165.589600
20
203.172700
11
165.693320
21
203.308410
0
LINE
8
Layer 1
10
165.693320
20
203.308410
11
170.360740
21
204.354520
0
LINE
8
Layer 1
10
170.360740
20
204.354520
11
176.099940
21
205.640430
0
LINE
8
Layer 1
10
176.099940
20
205.640430
11
177.313160
21
205.873080
0
LINE
8
Layer 1
10
177.313160
20
205.873080
11
177.336260
21
205.665170
0
LINE
8
Layer 1
10
177.336260
20
205.665170
11
177.336220
21
205.665170
0
LINE
8
Layer 1
10
153.800920
20
203.891170
11
162.858330
21
202.522110
0
LINE
8
Layer 1
10
162.858330
20
202.522110
11
164.898170
21
202.214340
0
LINE
8
Layer 1
10
164.898170
20
202.214340
11
164.898170
21
200.871120
0
LINE
8
Layer 1
10
164.898170
20
200.871120
11
164.867670
21
198.204590
0
LINE
8
Layer 1
10
164.867670
20
198.204590
11
164.837170
21
196.881270
0
LINE
8
Layer 1
10
164.837170
20
196.881270
11
164.717860
21
196.906370
0
LINE
8
Layer 1
10
164.717860
20
196.906370
11
146.615460
21
199.559050
0
LINE
8
Layer 1
10
146.615460
20
199.559050
11
146.597260
21
202.255790
0
LINE
8
Layer 1
10
146.597260
20
202.255790
11
146.690360
21
204.952520
0
LINE
8
Layer 1
10
146.690360
20
204.952520
11
153.800980
21
203.891220
0
LINE
8
Layer 1
10
153.800980
20
203.891220
11
153.800920
21
203.891170
0
LINE
8
Layer 1
10
177.344620
20
202.462190
11
177.344620
21
200.018010
0
LINE
8
Layer 1
10
177.344620
20
200.018010
11
177.240900
21
199.973310
0
LINE
8
Layer 1
10
177.240900
20
199.973310
11
172.435180
21
198.680020
0
LINE
8
Layer 1
10
172.435180
20
198.680020
11
166.649880
21
197.142650
0
LINE
8
Layer 1
10
166.649880
20
197.142650
11
165.566580
21
196.853910
0
LINE
8
Layer 1
10
165.566580
20
196.853910
11
165.552380
21
199.024680
0
LINE
8
Layer 1
10
165.552380
20
199.024680
11
165.567980
21
201.748630
0
LINE
8
Layer 1
10
165.567980
20
201.748630
11
165.597780
21
202.301800
0
LINE
8
Layer 1
10
165.597780
20
202.301800
11
171.413540
21
203.599070
0
LINE
8
Layer 1
10
171.413540
20
203.599070
11
177.286930
21
204.901330
0
LINE
8
Layer 1
10
177.286930
20
204.901330
11
177.344530
21
202.462160
0
LINE
8
Layer 1
10
177.344530
20
202.462160
11
177.344620
21
202.462190
0
LINE
8
Layer 1
10
177.345620
20
199.040400
11
176.249401
21
194.798351
0
LINE
8
Layer 1
10
176.249401
20
194.798351
11
175.138190
21
190.791210
0
LINE
8
Layer 1
10
175.138190
20
190.791210
11
175.398560
21
198.541400
0
LINE
8
Layer 1
10
175.398560
20
198.541400
11
176.329970
21
198.894770
0
LINE
8
Layer 1
10
176.329970
20
198.894770
11
177.286500
21
199.140230
0
LINE
8
Layer 1
10
177.286500
20
199.140230
11
177.345600
21
199.040430
0
LINE
8
Layer 1
10
177.345600
20
199.040430
11
177.345620
21
199.040400
0
LINE
8
Layer 1
10
148.552120
20
198.476570
11
150.000720
21
198.244830
0
LINE
8
Layer 1
10
150.000720
20
198.244830
11
149.360900
21
191.537950
0
LINE
8
Layer 1
10
149.360900
20
191.537950
11
149.014510
21
189.243190
0
LINE
8
Layer 1
10
149.014510
20
189.243190
11
146.840370
21
198.608920
0
LINE
8
Layer 1
10
146.840370
20
198.608920
11
146.837864
21
198.720428
0
LINE
8
Layer 1
10
146.837864
20
198.720428
11
146.970020
21
198.713540
0
LINE
8
Layer 1
10
146.970020
20
198.713540
11
148.552120
21
198.476570
0
LINE
8
Layer 1
10
148.552120
20
198.476570
11
148.552120
21
198.476570
0
LINE
8
Layer 1
10
174.672420
20
194.026840
11
174.532150
21
189.836170
0
LINE
8
Layer 1
10
174.532150
20
189.836170
11
174.508350
21
189.656420
0
LINE
8
Layer 1
10
174.508350
20
189.656420
11
171.996810
21
197.690870
0
LINE
8
Layer 1
10
171.996810
20
197.690870
11
173.391270
21
198.109750
0
LINE
8
Layer 1
10
173.391270
20
198.109750
11
174.785740
21
198.479550
0
LINE
8
Layer 1
10
174.785740
20
198.479550
11
174.799240
21
198.246730
0
LINE
8
Layer 1
10
174.799240
20
198.246730
11
174.672420
21
194.026840
0
LINE
8
Layer 1
10
174.672420
20
194.026840
11
174.672420
21
194.026840
0
LINE
8
Layer 1
10
156.125320
20
197.367650
11
160.161040
21
196.776200
0
LINE
8
Layer 1
10
160.161040
20
196.776200
11
160.916040
21
196.641390
0
LINE
8
Layer 1
10
160.916040
20
196.641390
11
162.710630
21
191.140390
0
LINE
8
Layer 1
10
162.710630
20
191.140390
11
164.476130
21
185.668490
0
LINE
8
Layer 1
10
164.476130
20
185.668490
11
162.706320
21
174.877490
0
LINE
8
Layer 1
10
162.706320
20
174.877490
11
160.964573
21
164.323390
0
LINE
8
Layer 1
10
160.964573
20
164.323390
11
160.639230
21
162.750390
0
LINE
8
Layer 1
10
160.639230
20
162.750390
11
150.699570
21
191.811590
0
LINE
8
Layer 1
10
150.699570
20
191.811590
11
151.557490
21
194.402290
0
LINE
8
Layer 1
10
151.557490
20
194.402290
11
152.575730
21
197.380840
0
LINE
8
Layer 1
10
152.575730
20
197.380840
11
152.775770
21
197.853350
0
LINE
8
Layer 1
10
152.775770
20
197.853350
11
156.125330
21
197.367620
0
LINE
8
Layer 1
10
156.125330
20
197.367620
11
156.125320
21
197.367650
0
LINE
8
Layer 1
10
171.121020
20
195.225790
11
171.121020
21
192.966990
0
LINE
8
Layer 1
10
171.121020
20
192.966990
11
171.426030
21
192.966990
0
LINE
8
Layer 1
10
171.426030
20
192.966990
11
171.705340
21
192.868690
0
LINE
8
Layer 1
10
171.705340
20
192.868690
11
161.688040
21
164.999090
0
LINE
8
Layer 1
10
161.688040
20
164.999090
11
163.422130
21
175.496490
0
LINE
8
Layer 1
10
163.422130
20
175.496490
11
165.167060
21
185.983090
0
LINE
8
Layer 1
10
165.167060
20
185.983090
11
166.672920
21
191.330460
0
LINE
8
Layer 1
10
166.672920
20
191.330460
11
168.209330
21
196.709280
0
LINE
8
Layer 1
10
168.209330
20
196.709280
11
171.040330
21
197.479120
0
LINE
8
Layer 1
10
171.040330
20
197.479120
11
171.121030
21
195.225740
0
LINE
8
Layer 1
10
171.121030
20
195.225740
11
171.121020
21
195.225790
0
LINE
8
Layer 1
10
163.224030
20
196.327800
11
164.839770
21
196.082350
0
LINE
8
Layer 1
10
164.839770
20
196.082350
11
164.806570
21
192.710010
0
LINE
8
Layer 1
10
164.806570
20
192.710010
11
164.622950
21
187.029870
0
LINE
8
Layer 1
10
164.622950
20
187.029870
11
163.615070
21
190.003190
0
LINE
8
Layer 1
10
163.615070
20
190.003190
11
162.068420
21
194.799380
0
LINE
8
Layer 1
10
162.068420
20
194.799380
11
161.559180
21
196.562630
0
LINE
8
Layer 1
10
161.559180
20
196.562630
11
163.224020
21
196.327800
0
LINE
8
Layer 1
10
163.224020
20
196.327800
11
163.224030
21
196.327800
 0 
ENDSEC
 0 
EOF