<?xml version="1.0" encoding="UTF-8" standalone="no"?>
<svg
   xmlns:dc="http://purl.org/dc/elements/1.1/"
   xmlns:cc="http://creativecommons.org/ns#"
   xmlns:rdf="http://www.w3.org/1999/02/22-rdf-syntax-ns#"
   xmlns:svg="http://www.w3.org/2000/svg"
   xmlns="http://www.w3.org/2000/svg"
   xmlns:sodipodi="http://sodipodi.sourceforge.net/DTD/sodipodi-0.dtd"
   xmlns:inkscape="http://www.inkscape.org/namespaces/inkscape"
   inkscape:version="1.0 (4035a4fb49, 2020-05-01)"
   sodipodi:docname="bsac-presentation-outline.svg"
   viewBox="0 0 960 540"
   height="540"
   width="960"
   xml:space="preserve"
   id="svg2"
   version="1.1"><metadata
     id="metadata8"><rdf:RDF><cc:Work
         rdf:about=""><dc:format>image/svg+xml</dc:format><dc:type
           rdf:resource="http://purl.org/dc/dcmitype/StillImage" /><dc:title></dc:title></cc:Work></rdf:RDF></metadata><defs
     id="defs6"><clipPath
       id="clipPath18"
       clipPathUnits="userSpaceOnUse"><path
         id="path16"
         clip-rule="evenodd"
         d="M 0,9.1553e-5 H 720 V 405.00009 H 0 Z" /></clipPath><clipPath
       id="clipPath30"
       clipPathUnits="userSpaceOnUse"><path
         id="path28"
         clip-rule="evenodd"
         d="M 1.0729e-5,0 H 720.00001 V 405 H 1.0729e-5 Z" /></clipPath><clipPath
       id="clipPath42"
       clipPathUnits="userSpaceOnUse"><path
         id="path40"
         clip-rule="evenodd"
         d="m 644.4,3.3601 h 72.36 v 60 H 644.4 Z" /></clipPath><clipPath
       id="clipPath52"
       clipPathUnits="userSpaceOnUse"><path
         id="path50"
         d="M 0,0 H 62.878 V 52.21 H 0 Z" /></clipPath><clipPath
       id="clipPath66"
       clipPathUnits="userSpaceOnUse"><path
         id="path64"
         clip-rule="evenodd"
         d="m 0.085,0.045166 h 62.76 v 52.08 H 0.085 Z" /></clipPath><clipPath
       id="clipPath82"
       clipPathUnits="userSpaceOnUse"><path
         id="path80"
         clip-rule="evenodd"
         d="m 0.085,0.045166 h 62.76 v 52.08 H 0.085 Z" /></clipPath><clipPath
       id="clipPath134"
       clipPathUnits="userSpaceOnUse"><path
         id="path132"
         clip-rule="evenodd"
         d="m 0.085,0.045166 h 62.76 v 52.08 H 0.085 Z" /></clipPath><clipPath
       id="clipPath192"
       clipPathUnits="userSpaceOnUse"><path
         id="path190"
         clip-rule="evenodd"
         d="M 1.0729e-5,0 H 720.00001 V 405 H 1.0729e-5 Z" /></clipPath><clipPath
       id="clipPath204"
       clipPathUnits="userSpaceOnUse"><path
         id="path202"
         clip-rule="evenodd"
         d="M 1.0729e-5,0 H 720.00001 V 405 H 1.0729e-5 Z" /></clipPath></defs><sodipodi:namedview
     inkscape:current-layer="g10"
     inkscape:window-maximized="0"
     inkscape:window-y="0"
     inkscape:window-x="0"
     inkscape:cy="228.83372"
     inkscape:cx="462.32211"
     inkscape:zoom="1.5739583"
     showgrid="false"
     id="namedview4"
     inkscape:window-height="1304"
     inkscape:window-width="2251"
     inkscape:pageshadow="2"
     inkscape:pageopacity="0"
     guidetolerance="10"
     gridtolerance="10"
     objecttolerance="10"
     borderopacity="1"
     bordercolor="#666666"
     pagecolor="#ffffff" /><g
     transform="matrix(1.3333333,0,0,-1.3333333,0,540)"
     inkscape:label="test"
     inkscape:groupmode="layer"
     id="g10"><path
       transform="matrix(0.75000002,0,0,-0.75000002,0,405.00001)"
       d="M 11.066406,11.066406 V 516.93359 H 851.51562 v -4 H 15.066406 V 15.066406 H 944.93359 V 449.18555 h 4 V 11.066406 Z m 5.333985,5.333985 V 511.59961 H 851.51562 v -1.33203 H 17.732422 V 17.732422 H 942.26758 V 449.18555 h 1.33203 V 16.400391 Z"
       style="fill:#000000;fill-opacity:1;fill-rule:nonzero;stroke:none;stroke-width:1.33333"
       id="path22" /><g
       id="g36"><g
         clip-path="url(#clipPath42)"
         id="g38"><g
           transform="matrix(1.005,0,0,0.83333,644.4,3.3601)"
           id="g44"><g
             transform="scale(1.1451,1.379)"
             id="g46"><g
               clip-path="url(#clipPath52)"
               id="g48"><path
                 id="path54"
                 style="fill:#cdd2d8;fill-opacity:1;fill-rule:nonzero;stroke:none"
                 d="m 47.732,19.783 v -4.848 l 8.635,-4.11 0.049,5.252 v 0.794 l -0.047,4.235 -8.637,-1.323" /><path
                 id="path56"
                 style="fill:#231f20;fill-opacity:1;fill-rule:nonzero;stroke:none"
                 d="m 47.769,19.647 0.106,0.123 v -4.85 l -0.071,0.113 8.638,-4.112 -0.178,-0.111 0.049,5.255 v -0.002 0.795 -0.001 l -0.047,4.236 0.144,-0.122 z m 8.745,1.592 0.048,-4.38 v -0.796 l -0.05,-5.451 -8.886,4.23 v 5.035 z" /><path
                 id="path58"
                 style="fill:#ffffff;fill-opacity:1;fill-rule:nonzero;stroke:none"
                 d="m 50.707,10.391 -0.106,0.634 0.019,-0.071 -0.112,0.3 0.031,-0.065 -0.33,0.54 0.05,-0.064 -0.45,0.472 0.04,-0.036 -0.495,0.39 0.035,-0.025 -0.495,0.308 0.023,-0.014 -0.427,0.225 0.025,-0.012 -0.177,0.077 -0.133,0.063 0.032,-0.014 -0.103,0.038 -0.05,0.025 0.364,0.012 -8.878,-5.1922 0.332,0.9948 0.036,0.0903 0.122,0.2824 0.189,0.4387 0.259,0.564 0.334,0.676 0.388,0.744 0.456,0.807 0.503,0.822 0.557,0.833 0.615,0.815 0.664,0.756 0.709,0.693 0.75,0.584 0.802,0.466 0.842,0.299 0.459,0.085 0.446,0.025 0.902,-0.031 0.846,-0.093 0.803,-0.148 0.753,-0.212 0.709,-0.268 0.649,-0.324 0.604,-0.382 0.548,-0.437 0.503,-0.487 0.439,-0.55 0.388,-0.586 0.333,-0.643 0.268,-0.686 0.219,-0.719 0.164,-0.773 0.165,-1.227 z m 5.183,0.763 -0.378,-0.432 -0.105,0.78 0.005,-0.028 -0.158,0.742 0.009,-0.032 -0.21,0.69 0.009,-0.028 -0.255,0.653 0.017,-0.037 -0.315,0.608 0.02,-0.035 -0.367,0.555 0.02,-0.027 -0.413,0.517 0.033,-0.036 -0.472,0.457 0.027,-0.024 -0.517,0.413 0.034,-0.025 -0.57,0.36 0.033,-0.018 -0.615,0.307 0.036,-0.016 -0.675,0.255 0.031,-0.01 -0.72,0.203 0.034,-0.008 -0.772,0.142 0.027,-0.004 -0.817,0.09 0.028,-0.002 -0.87,0.03 h 0.035 l -0.405,-0.022 0.048,0.006 -0.405,-0.075 0.058,0.015 -0.78,-0.277 0.064,0.029 -0.75,-0.435 0.043,0.029 -0.713,-0.555 0.033,0.029 -0.683,-0.668 0.02,0.021 -0.645,-0.735 0.018,0.022 -0.6,-0.795 0.012,0.018 -0.547,-0.818 0.008,0.013 -0.495,-0.81 0.007,0.011 -0.45,-0.795 0.006,0.012 -0.382,-0.735 0.003,0.007 -0.33,-0.667 0.005,0.01 -0.255,-0.5554 0.004,0.0082 -0.188,-0.4354 -0.12,-0.2775 0.004,0.0098 -0.03,-0.075 0.008,0.021 -0.008,-0.0225 -0.554,0.4499 8.181,4.7839 0.215,-0.107 -0.041,0.017 0.099,-0.036 0.143,-0.067 -0.01,0.005 0.186,-0.081 0.452,-0.238 0.524,-0.326 0.533,-0.42 0.497,-0.522 0.37,-0.605 0.139,-0.369 0.058,-0.351 -0.376,0.318 z" /><g
                 id="g60"><g
                   clip-path="url(#clipPath66)"
                   id="g62"><path
                     id="path68"
                     style="fill:#231f20;fill-opacity:1;fill-rule:nonzero;stroke:none"
                     d="m 51.065,10.753 c -0.215,1.767 -1.234,2.763 -2.839,2.763 -1.799,0 -2.883,-1.644 -2.883,-4.8612 0,-2.3378 0.477,-4.5363 3.079,-4.5363 1.647,0 2.428,1.2264 2.623,2.8237 h 4.921 C 55.511,2.6369 52.627,0.045143 48.508,0.045143 c -5.159,0 -8.281,3.378657 -8.281,8.794657 0,5.3932 3.425,8.7492 7.783,8.7492 4.769,0 7.436,-2.523 7.911,-6.836 h -4.856" /></g></g><path
                 id="path70"
                 style="fill:#231f20;fill-opacity:1;fill-rule:nonzero;stroke:none"
                 d="M 0.10872,0.49313 V 17.158 H 7.5665 c 3.5125,0 6.3085,-0.88 6.3085,-4.19 0,-1.712 -1.04,-2.962 -2.038,-3.6333 1.691,-0.463 2.602,-2.0136 2.602,-3.819 0,-3.7264 -2.667,-5.02257 -6.7207,-5.02257 z M 5.2251,13.269 v -2.777 h 2.1246 c 1.019,0 1.7561,0.486 1.7561,1.458 0,1.296 -0.9973,1.319 -2.0813,1.319 z m 0,-5.8093 V 4.3815 h 2.233 c 1.2575,0 2.2114,0.2777 2.2114,1.5276 0,1.4582 -1.1924,1.5506 -2.8184,1.5506 h -1.626" /><path
                 id="path72"
                 style="fill:#231f20;fill-opacity:1;fill-rule:nonzero;stroke:none"
                 d="m 22.916,12.32 c -0.087,0.579 -0.369,0.926 -0.737,1.135 -0.369,0.208 -0.824,0.3 -1.323,0.3 -1.127,0 -1.626,-0.347 -1.626,-0.949 0,-2.499 8.976,-0.949 8.976,-7.0125 0,-3.8654 -3.014,-5.740037 -7.307,-5.740037 -4.119,0 -6.807,2.569137 -6.915,5.577837 h 4.899 c 0.109,-0.6017 0.412,-1.0413 0.846,-1.3192 0.412,-0.2778 0.954,-0.4166 1.452,-0.4166 1.279,0 2.125,0.4397 2.125,1.2267 0,2.5229 -8.976,0.7869 -8.976,7.1518 0,3.541 2.862,5.324 6.765,5.324 4.335,0 6.308,-2.361 6.677,-5.278 h -4.856" /><path
                 id="path74"
                 style="fill:#231f20;fill-opacity:1;fill-rule:nonzero;stroke:none"
                 d="M 26.341,0.49313 31.934,17.158 h 5.203 L 42.73,0.49313 H 37.636 L 37.029,2.692 H 31.934 L 31.348,0.49313 Z M 34.492,12.135 32.909,6.1636 h 3.231 l -1.648,5.9714" /><g
                 id="g76"><g
                   clip-path="url(#clipPath82)"
                   id="g78"><path
                     id="path84"
                     style="fill:#231f20;fill-opacity:1;fill-rule:nonzero;stroke:none"
                     d="m 62.074,32.339 0.667,-0.142 c 0.07,-0.015 0.115,-0.083 0.1,-0.153 -0.015,-0.07 -0.084,-0.115 -0.153,-0.1 l -0.668,0.142 c -0.07,0.015 -0.114,0.084 -0.099,0.154 0.014,0.069 0.083,0.114 0.153,0.099 z" /></g></g><path
                 id="path86"
                 style="fill:#231f20;fill-opacity:1;fill-rule:nonzero;stroke:none"
                 d="m 62.223,31.843 0.302,-0.083 c 0.108,-0.03 0.171,-0.141 0.142,-0.248 -0.03,-0.108 -0.141,-0.171 -0.248,-0.141 l -0.303,0.082 c -0.107,0.03 -0.171,0.141 -0.141,0.248 0.029,0.108 0.14,0.171 0.248,0.142 z" /><path
                 id="path88"
                 style="fill:#5b686e;fill-opacity:1;fill-rule:nonzero;stroke:none"
                 d="M 62.106,0.31896 H 56.389 V 33.383 l 5.663,-1.181 0.054,-31.88304" /><path
                 id="path90"
                 style="fill:#231f20;fill-opacity:1;fill-rule:nonzero;stroke:none"
                 d="M 62.258,0.17064 H 56.283 V 33.534 l 5.921,-1.235 z m -0.311,32.02336 0.102,-0.125 -5.664,1.181 0.154,0.126 V 0.299 L 56.411,0.42736 H 62.13 L 62.001,0.29878 Z" /><path
                 id="path92"
                 style="fill:#cdd2d8;fill-opacity:1;fill-rule:nonzero;stroke:none"
                 d="m 47.766,19.774 8.692,1.26 -0.02,11.916 -8.642,-1.258 -0.03,-11.918" /><path
                 id="path94"
                 style="fill:#231f20;fill-opacity:1;fill-rule:nonzero;stroke:none"
                 d="m 47.943,19.761 -0.181,0.157 8.695,1.261 -0.136,-0.157 -0.02,11.92 0.181,-0.156 -8.645,-1.258 0.135,0.156 z m -0.287,12.06 8.961,1.304 0.021,-12.239 -9.012,-1.307 z" /><path
                 id="path96"
                 style="fill:none;stroke:#231f20;stroke-width:0.31223;stroke-linecap:round;stroke-linejoin:round;stroke-miterlimit:10;stroke-dasharray:none;stroke-opacity:1"
                 d="m 54.697,31.314 -5.623,-0.759 0.024,-9.124" /><path
                 id="path98"
                 style="fill:#231f20;fill-opacity:1;fill-rule:nonzero;stroke:none"
                 d="m 49.751,21.657 v 7.733 c 0,0 0,0.622 0.552,0.622 0.551,0 0.647,-0.452 0.647,-0.452 v -7.733 l -1.199,-0.17" /><path
                 id="path100"
                 style="fill:none;stroke:#231f20;stroke-width:0.31223;stroke-linecap:butt;stroke-linejoin:round;stroke-miterlimit:10;stroke-dasharray:none;stroke-opacity:1"
                 d="m 49.751,21.657 v 7.733 c 0,0 0,0.622 0.552,0.622 0.551,0 0.647,-0.452 0.647,-0.452 v -7.733 z" /><path
                 id="path102"
                 style="fill:#231f20;fill-opacity:1;fill-rule:nonzero;stroke:none"
                 d="m 51.621,21.968 v 7.629 c 0,0 10e-4,0.626 0.552,0.626 0.551,0 0.647,-0.455 0.647,-0.455 v -7.629 l -1.199,-0.171" /><path
                 id="path104"
                 style="fill:none;stroke:#231f20;stroke-width:0.31349;stroke-linecap:butt;stroke-linejoin:round;stroke-miterlimit:10;stroke-dasharray:none;stroke-opacity:1"
                 d="m 51.621,21.968 v 7.629 c 0,0 10e-4,0.626 0.552,0.626 0.551,0 0.647,-0.455 0.647,-0.455 v -7.629 z" /><path
                 id="path106"
                 style="fill:#231f20;fill-opacity:1;fill-rule:nonzero;stroke:none"
                 d="m 53.515,22.307 v 7.567 c 0,0 10e-4,0.622 0.552,0.622 0.552,0 0.648,-0.453 0.648,-0.453 v -7.567 l -1.2,-0.169" /><path
                 id="path108"
                 style="fill:none;stroke:#231f20;stroke-width:0.31223;stroke-linecap:butt;stroke-linejoin:round;stroke-miterlimit:10;stroke-dasharray:none;stroke-opacity:1"
                 d="m 53.515,22.307 v 7.567 c 0,0 10e-4,0.622 0.552,0.622 0.552,0 0.648,-0.453 0.648,-0.453 v -7.567 z" /><path
                 id="path110"
                 style="fill:none;stroke:#cdd2d8;stroke-width:0.27209;stroke-linecap:round;stroke-linejoin:round;stroke-miterlimit:10;stroke-dasharray:none;stroke-opacity:1"
                 d="m 57.235,31.246 4.388,-0.893 -0.019,-8.581" /><path
                 id="path112"
                 style="fill:#cdd2d8;fill-opacity:1;fill-rule:nonzero;stroke:none"
                 d="m 60.941,21.94 v 6.997 c 0,0 0,0.575 -0.346,0.575 -0.345,0 -0.405,-0.418 -0.405,-0.418 v -6.997 l 0.751,-0.157" /><path
                 id="path114"
                 style="fill:none;stroke:#cdd2d8;stroke-width:0.23776;stroke-linecap:butt;stroke-linejoin:round;stroke-miterlimit:10;stroke-dasharray:none;stroke-opacity:1"
                 d="m 60.941,21.94 v 6.997 c 0,0 0,0.575 -0.346,0.575 -0.345,0 -0.405,-0.418 -0.405,-0.418 v -6.997 z" /><path
                 id="path116"
                 style="fill:#cdd2d8;fill-opacity:1;fill-rule:nonzero;stroke:none"
                 d="m 59.49,22.168 v 7.121 c 0,0 0,0.584 -0.358,0.584 -0.358,0 -0.42,-0.425 -0.42,-0.425 v -7.12 l 0.778,-0.16" /><path
                 id="path118"
                 style="fill:none;stroke:#cdd2d8;stroke-width:0.24402;stroke-linecap:butt;stroke-linejoin:round;stroke-miterlimit:10;stroke-dasharray:none;stroke-opacity:1"
                 d="m 59.49,22.168 v 7.121 c 0,0 0,0.584 -0.358,0.584 -0.358,0 -0.42,-0.425 -0.42,-0.425 v -7.12 z" /><path
                 id="path120"
                 style="fill:#cdd2d8;fill-opacity:1;fill-rule:nonzero;stroke:none"
                 d="m 57.947,22.409 v 7.168 c 0,0 0,0.589 -0.372,0.589 -0.371,0 -0.435,-0.428 -0.435,-0.428 V 22.57 l 0.807,-0.161" /><path
                 id="path122"
                 style="fill:none;stroke:#cdd2d8;stroke-width:0.24944;stroke-linecap:butt;stroke-linejoin:round;stroke-miterlimit:10;stroke-dasharray:none;stroke-opacity:1"
                 d="m 57.947,22.409 v 7.168 c 0,0 0,0.589 -0.372,0.589 -0.371,0 -0.435,-0.428 -0.435,-0.428 V 22.57 Z" /><path
                 id="path124"
                 style="fill:#231f20;fill-opacity:1;fill-rule:nonzero;stroke:none"
                 d="m 56.519,20.847 -8.875,-1.296 c -0.1,-0.015 -0.192,0.054 -0.207,0.154 -0.014,0.1 0.055,0.192 0.154,0.207 l 8.875,1.296 c 0.1,0.014 0.192,-0.055 0.207,-0.154 0.014,-0.1 -0.055,-0.193 -0.154,-0.207 z" /><path
                 id="path126"
                 style="fill:#5b686e;fill-opacity:1;fill-rule:nonzero;stroke:none"
                 d="m 62.039,31.663 -0.002,3.478 -1.291,4.853 0.169,-4.97 -1.694,0.508 0.008,2.122 h 0.335 l -5.182,14.428 0.285,-1.47 1.663,-10.005 0.089,-7.725 5.62,-1.219" /><g
                 id="g128"><g
                   clip-path="url(#clipPath134)"
                   id="g130"><path
                     id="path136"
                     style="fill:#231f20;fill-opacity:1;fill-rule:nonzero;stroke:none"
                     d="m 62.09,31.779 -0.154,-0.124 -0.002,3.479 0.004,-0.033 -1.292,4.856 0.25,0.037 0.176,-5.149 -1.955,0.587 0.008,2.344 h 0.462 l -0.12,-0.17 -5.184,14.433 0.245,0.067 0.285,-1.472 1.665,-10.02 0.09,-7.738 -0.1,0.122 z m -5.775,0.992 -0.091,7.83 0.002,-0.019 -1.664,10.009 0.001,-0.004 -0.285,1.471 0.244,0.067 5.246,-14.603 h -0.516 l 0.127,0.126 -0.008,-2.122 -0.09,0.122 1.694,-0.508 -0.163,-0.127 -0.17,4.972 0.25,0.037 1.296,-4.871 0.002,-3.654 z" /></g></g><path
                 id="path138"
                 style="fill:#cdd2d8;fill-opacity:1;fill-rule:nonzero;stroke:none"
                 d="m 54.414,52.074 -4.925,-14.369 -0.388,2.448 -1.244,-5.374 v -3.112 l 8.604,1.248 -0.029,6.841 -2.018,12.318" /><path
                 id="path140"
                 style="fill:#231f20;fill-opacity:1;fill-rule:nonzero;stroke:none"
                 d="m 54.31,52.053 0.246,-0.02 -4.928,-14.375 -0.246,0.021 -0.388,2.449 0.25,-0.009 -1.244,-5.375 0.003,0.028 v -3.113 l -0.145,0.126 8.606,1.249 -0.109,-0.127 -0.028,6.843 0.001,-0.02 z m 2.271,-12.291 0.029,-6.964 -8.861,-1.286 v 3.275 l 1.247,5.39 0.249,-0.009 0.388,-2.449 -0.246,0.022 4.928,14.374 0.246,-0.02 z" /><path
                 id="path142"
                 style="fill:#231f20;fill-opacity:1;fill-rule:nonzero;stroke:none"
                 d="m 49.143,40.089 1.607,-4.698 -1.129,-0.169 -0.478,4.867" /><path
                 id="path144"
                 style="fill:#231f20;fill-opacity:1;fill-rule:nonzero;stroke:none"
                 d="m 49.09,40.078 0.14,0.03 1.636,-4.781 -1.29,-0.194 z m 0.622,-4.855 -0.082,0.064 1.129,0.169 -0.057,-0.094 -1.608,4.699 0.14,0.031 z" /><path
                 id="path146"
                 style="fill:#231f20;fill-opacity:1;fill-rule:nonzero;stroke:none"
                 d="m 56.499,32.7 -8.884,-1.294 c -0.118,-0.018 -0.227,0.064 -0.244,0.182 -0.018,0.118 0.064,0.228 0.182,0.245 l 8.884,1.294 c 0.118,0.018 0.227,-0.064 0.244,-0.182 0.018,-0.118 -0.064,-0.228 -0.182,-0.245 z" /><path
                 id="path148"
                 style="fill:#231f20;fill-opacity:1;fill-rule:nonzero;stroke:none"
                 d="M 56.377,33.306 47.27,31.929 c -0.078,-0.012 -0.151,0.042 -0.163,0.121 -0.012,0.078 0.042,0.152 0.12,0.163 l 9.107,1.377 c 0.078,0.012 0.151,-0.042 0.163,-0.121 0.012,-0.078 -0.042,-0.151 -0.12,-0.163 z" /><path
                 id="path150"
                 style="fill:#cdd2d8;fill-opacity:1;fill-rule:nonzero;stroke:none"
                 d="m 62.149,32.069 -5.68,1.265 c -0.064,0.015 -0.104,0.078 -0.09,0.142 0.014,0.064 0.078,0.104 0.142,0.09 L 62.2,32.301 c 0.064,-0.015 0.105,-0.078 0.09,-0.142 -0.014,-0.064 -0.077,-0.104 -0.141,-0.09 z" /><path
                 id="path152"
                 style="fill:#cdd2d8;fill-opacity:1;fill-rule:nonzero;stroke:none"
                 d="m 62.147,31.451 -5.615,1.259 c -0.106,0.024 -0.173,0.129 -0.149,0.236 0.023,0.107 0.129,0.174 0.236,0.15 l 5.615,-1.259 c 0.106,-0.023 0.173,-0.129 0.149,-0.236 -0.023,-0.106 -0.129,-0.173 -0.236,-0.15 z" /><path
                 id="path154"
                 style="fill:#cdd2d8;fill-opacity:1;fill-rule:nonzero;stroke:none"
                 d="m 60.91,35.204 -0.171,4.82 -1.389,-4.445" /><path
                 id="path156"
                 style="fill:#231f20;fill-opacity:1;fill-rule:nonzero;stroke:none"
                 d="m 60.815,35.193 -0.171,4.822 0.231,-0.031 -1.389,-4.447 -0.227,0.071 1.39,4.447 0.232,-0.031 0.171,-4.823 z" /><path
                 id="path158"
                 style="fill:#231f20;fill-opacity:1;fill-rule:nonzero;stroke:none"
                 d="m 56.351,36.005 -8.78,-1.286 c -0.1,-0.015 -0.192,0.054 -0.207,0.154 -0.014,0.1 0.055,0.192 0.154,0.207 l 8.78,1.286 c 0.1,0.015 0.193,-0.054 0.207,-0.154 0.015,-0.099 -0.054,-0.192 -0.154,-0.207 z" /><path
                 id="path160"
                 style="fill:#231f20;fill-opacity:1;fill-rule:nonzero;stroke:none"
                 d="m 56.561,36.269 -0.257,4.774 1.419,-5.041" /><path
                 id="path162"
                 style="fill:#231f20;fill-opacity:1;fill-rule:nonzero;stroke:none"
                 d="m 56.51,36.259 -0.257,4.775 0.142,0.024 1.419,-5.043 c 0.011,-0.038 -0.011,-0.078 -0.05,-0.089 -0.038,-0.011 -0.078,0.012 -0.088,0.05 l -1.42,5.043 0.141,0.023 0.257,-4.775 c 0.002,-0.04 -0.028,-0.074 -0.068,-0.076 -0.04,-0.002 -0.073,0.028 -0.076,0.068 z" /><path
                 id="path164"
                 style="fill:#231f20;fill-opacity:1;fill-rule:nonzero;stroke:none"
                 d="m 62.222,34.901 0.3,-0.085 c 0.103,-0.03 0.163,-0.137 0.133,-0.24 -0.029,-0.103 -0.136,-0.162 -0.239,-0.133 l -0.3,0.085 c -0.103,0.029 -0.163,0.137 -0.134,0.239 0.03,0.103 0.137,0.163 0.24,0.134 z" /><path
                 id="path166"
                 style="fill:#231f20;fill-opacity:1;fill-rule:nonzero;stroke:none"
                 d="m 62.155,31.859 0.004,-0.413 0.179,-0.051 0.056,0.403 -0.239,0.061" /><path
                 id="path168"
                 style="fill:#231f20;fill-opacity:1;fill-rule:nonzero;stroke:none"
                 d="m 62.147,32.328 -0.004,-0.263 0.317,-0.068 0.111,0.238 -0.424,0.093" /><path
                 id="path170"
                 style="fill:#231f20;fill-opacity:1;fill-rule:nonzero;stroke:none"
                 d="m 62.196,20.42 0.309,-0.055 c 0.11,-0.02 0.183,-0.124 0.163,-0.234 -0.02,-0.11 -0.124,-0.183 -0.234,-0.163 l -0.309,0.055 c -0.11,0.02 -0.183,0.124 -0.163,0.234 0.02,0.11 0.124,0.183 0.234,0.163 z" /><path
                 id="path172"
                 style="fill:#cdd2d8;fill-opacity:1;fill-rule:nonzero;stroke:none"
                 d="M 56.689,21.231 62.225,20.4 c 0.1,-0.015 0.169,-0.108 0.154,-0.207 -0.015,-0.1 -0.108,-0.168 -0.208,-0.153 l -5.536,0.831 c -0.1,0.015 -0.169,0.107 -0.154,0.207 0.015,0.1 0.108,0.168 0.208,0.153 z" /><path
                 id="path174"
                 style="fill:#231f20;fill-opacity:1;fill-rule:nonzero;stroke:none"
                 d="M 62.182,20.431 V 20.03 l 0.17,-0.039 0.02,0.406 -0.19,0.034" /><path
                 id="path176"
                 style="fill:#cdd2d8;fill-opacity:1;fill-rule:nonzero;stroke:none"
                 d="m 54.541,35.92 1.965,0.302 -0.266,4.969 -1.699,-5.271" /><path
                 id="path178"
                 style="fill:#231f20;fill-opacity:1;fill-rule:nonzero;stroke:none"
                 d="m 54.675,35.877 -0.131,0.154 1.966,0.302 -0.1,-0.123 -0.267,4.97 0.232,-0.03 z m 1.474,5.346 0.231,-0.03 0.272,-5.078 -2.262,-0.348 z" /><path
                 id="path180"
                 style="fill:#cdd2d8;fill-opacity:1;fill-rule:nonzero;stroke:none"
                 d="m 56.598,36.39 5.663,-1.506 c 0.097,-0.026 0.155,-0.125 0.13,-0.223 -0.026,-0.097 -0.126,-0.155 -0.224,-0.129 l -5.663,1.506 c -0.097,0.025 -0.155,0.125 -0.129,0.223 0.026,0.097 0.125,0.155 0.223,0.129 z" /><path
                 id="path182"
                 style="fill:#231f20;fill-opacity:1;fill-rule:nonzero;stroke:none"
                 d="m 62.143,34.933 -0.008,-0.413 0.218,-0.059 0.056,0.389 -0.266,0.083" /><path
                 id="path184"
                 style="fill:#231f20;fill-opacity:1;fill-rule:nonzero;stroke:none"
                 d="m 60.846,40.002 1.22,-5.059 -1.147,0.313 -0.073,4.746" /></g></g></g></g></g></g></svg>
