<?xml version="1.0" encoding="UTF-8" standalone="no"?>
<!-- Created with Inkscape (http://www.inkscape.org/) -->

<svg
   xmlns:dc="http://purl.org/dc/elements/1.1/"
   xmlns:cc="http://creativecommons.org/ns#"
   xmlns:rdf="http://www.w3.org/1999/02/22-rdf-syntax-ns#"
   xmlns:svg="http://www.w3.org/2000/svg"
   xmlns="http://www.w3.org/2000/svg"
   xmlns:sodipodi="http://sodipodi.sourceforge.net/DTD/sodipodi-0.dtd"
   xmlns:inkscape="http://www.inkscape.org/namespaces/inkscape"
   width="138.28113mm"
   height="114.7765mm"
   viewBox="0 0 138.28113 114.7765"
   version="1.1"
   id="svg874"
   inkscape:version="0.92.4 (5da689c313, 2019-01-14)"
   sodipodi:docname="BSAC.svg">
  <defs
     id="defs868" />
  <sodipodi:namedview
     id="base"
     pagecolor="#ffffff"
     bordercolor="#666666"
     borderopacity="1.0"
     inkscape:pageopacity="0.0"
     inkscape:pageshadow="2"
     inkscape:zoom="0.49497475"
     inkscape:cx="266.62748"
     inkscape:cy="225.18519"
     inkscape:document-units="mm"
     inkscape:current-layer="layer1"
     showgrid="false"
     fit-margin-top="0"
     fit-margin-left="0"
     fit-margin-right="0"
     fit-margin-bottom="0"
     inkscape:window-width="1920"
     inkscape:window-height="1137"
     inkscape:window-x="1912"
     inkscape:window-y="-8"
     inkscape:window-maximized="1" />
  <metadata
     id="metadata871">
    <rdf:RDF>
      <cc:Work
         rdf:about="">
        <dc:format>image/svg+xml</dc:format>
        <dc:type
           rdf:resource="http://purl.org/dc/dcmitype/StillImage" />
        <dc:title></dc:title>
      </cc:Work>
    </rdf:RDF>
  </metadata>
  <g
     inkscape:label="Layer 1"
     inkscape:groupmode="layer"
     id="layer1"
     transform="translate(-41.033037,-161.37934)">
    <path
       style="fill:#000000;stroke-width:0.046098"
       d="m 146.2816,276.12678 c -3.63113,-0.23951 -6.7197,-1.22096 -9.30879,-2.95805 -1.32346,-0.88795 -2.7014,-2.19479 -3.64951,-3.46122 -0.10964,-0.14645 -0.20517,-0.26046 -0.21229,-0.25336 -0.007,0.007 0.41069,1.27573 0.92843,2.81913 0.51774,1.54341 0.94135,2.82428 0.94135,2.84637 0,0.0226 -2.4483,0.0402 -5.60003,0.0402 h -5.60003 l -0.0261,-0.10372 c -0.0143,-0.057 -0.31226,-1.14092 -0.66205,-2.40862 l -0.63596,-2.3049 -5.62305,-0.0117 -5.62305,-0.0117 -0.64189,2.42032 -0.64188,2.42033 h -5.5182 -5.518195 l 0.570472,-1.6941 c 0.313757,-0.93175 0.585633,-1.73559 0.604153,-1.7863 0.0185,-0.0507 -0.171735,0.10666 -0.422812,0.3497 -2.444416,2.36618 -6.085993,3.73101 -10.823604,4.05657 -1.159397,0.0797 -3.5906,0.0305 -4.477288,-0.0906 -3.375838,-0.46089 -6.07714,-1.58048 -8.336721,-3.45527 -1.525918,-1.26607 -2.820986,-3.02171 -3.531617,-4.7876 -0.09938,-0.24697 -0.190437,-0.41861 -0.202338,-0.38144 -0.0119,0.0372 -0.09802,0.31652 -0.191384,0.62076 -0.445783,1.45275 -1.176334,2.65497 -2.24157,3.68883 -0.809406,0.78556 -1.478355,1.25064 -2.551796,1.7741 -1.914015,0.93336 -4.25627,1.47023 -7.2366,1.65872 -0.454788,0.0288 -4.234883,0.0466 -9.876497,0.0466 h -9.139716 v -18.34866 -18.34868 l 9.461615,0.0162 c 10.23076,0.0175 9.859469,0.009 11.651271,0.26713 2.462708,0.35478 4.356474,0.99682 5.812982,1.97077 1.859308,1.24329 2.905161,2.90637 3.299205,5.24627 0.121061,0.71888 0.12018,2.60732 -0.0015,3.26685 -0.259318,1.40527 -0.870333,2.79282 -1.75053,3.97524 -0.46428,0.6237 -1.522366,1.68391 -2.132744,2.13702 l -0.465713,0.34573 0.442664,0.15135 c 2.029425,0.6939 3.620739,2.19753 4.487277,4.24004 0.421826,0.99428 0.694297,2.16925 0.756795,3.26351 l 0.02988,0.52322 h 4.901533 4.901534 l 0.02614,0.12677 c 0.01438,0.0697 0.08982,0.32934 0.167659,0.57692 0.625847,1.99073 2.702531,3.21421 5.270572,3.10516 1.209644,-0.0514 2.034461,-0.22409 2.765622,-0.57911 0.972105,-0.47202 1.435962,-1.0607 1.527854,-1.93899 0.08833,-0.84428 -0.427232,-1.68805 -1.372467,-2.24616 -1.018595,-0.60144 -2.030105,-0.94001 -5.341154,-1.78776 -3.657192,-0.93638 -5.14454,-1.42891 -6.891652,-2.28215 -1.36519,-0.66672 -2.325285,-1.31376 -3.227332,-2.17499 -2.128486,-2.03219 -3.107145,-4.77294 -2.923306,-8.18677 0.152721,-2.836 1.139338,-5.15976 2.969517,-6.99403 2.133118,-2.13788 5.179931,-3.40823 9.312156,-3.88263 0.996773,-0.11444 4.139015,-0.11426 5.089316,4.6e-4 2.304702,0.2778 4.111057,0.79227 5.715608,1.62785 1.8252,0.95049 3.348361,2.31626 4.442778,3.9837 0.370723,0.56482 1.017103,1.85466 1.255003,2.50436 0.32651,0.89162 0.67508,2.29241 0.7849,3.15417 l 0.0308,0.24201 h -5.342308 -5.342311 l -0.08148,-0.35726 c -0.04482,-0.19649 -0.176049,-0.55432 -0.291635,-0.79519 -0.178514,-0.372 -0.270019,-0.4972 -0.607843,-0.83163 -0.326798,-0.32352 -0.475773,-0.4321 -0.835628,-0.60904 -0.85929,-0.42252 -1.577492,-0.56439 -2.835027,-0.56003 -1.84936,0.006 -2.886133,0.40011 -3.307086,1.25583 -0.143293,0.2913 -0.150265,0.33015 -0.150265,0.83743 0,0.50945 0.0065,0.54512 0.153225,0.84307 0.436919,0.88716 1.489933,1.55288 3.465469,2.19091 0.730999,0.23608 1.342401,0.40735 3.319056,0.92976 3.586286,0.9478 5.194198,1.49583 6.917328,2.35767 3.475555,1.73832 5.406315,4.27301 5.789085,7.59983 0.0899,0.78162 0.11145,0.93546 0.12802,0.91514 0.007,-0.009 1.85612,-5.50823 4.10852,-12.22068 l 4.09527,-12.20444 5.74196,6.9e-4 5.74196,6.9e-4 3.4319,10.23162 c 1.88755,5.62738 3.43656,10.22695 3.44225,10.22126 0.006,-0.006 -0.0116,-0.47697 -0.0384,-1.04729 -0.0537,-1.14314 -4.6e-4,-2.7836 0.1281,-3.94111 0.3989,-3.59216 1.61637,-6.98504 3.40556,-9.4907 0.8529,-1.19442 2.12686,-2.56152 3.12882,-3.35757 2.68316,-2.13175 5.86437,-3.33794 9.36639,-3.55138 l 0.18439,-0.0112 0.012,-2.19533 0.012,-2.19533 -0.13675,-0.0273 c -0.25879,-0.0517 -0.35452,-0.46281 -0.14964,-0.64253 0.0429,-0.0377 0.12229,-0.0819 0.17635,-0.0984 0.0979,-0.0298 0.0984,-0.0384 0.12618,-2.11443 0.0153,-1.1465 0.0356,-6.85098 0.045,-12.67661 0.0164,-10.15144 0.0137,-10.59097 -0.0652,-10.56593 -0.0988,0.0314 -0.36441,-0.0727 -0.45048,-0.17644 -0.034,-0.041 -0.0724,-0.15409 -0.0855,-0.2514 -0.0315,-0.23477 0.14323,-0.4561 0.39206,-0.49665 0.43902,-0.0716 0.42363,-0.063 0.42363,-0.23471 0,-0.15479 -0.005,-0.15896 -0.14982,-0.13407 -1.00739,0.17279 -1.12791,0.16793 -1.22697,-0.0495 -0.0649,-0.14247 0.003,-0.32655 0.14274,-0.38773 0.0576,-0.0252 0.35358,-0.082 0.65782,-0.1262 l 0.55318,-0.0804 0.0119,-2.70656 0.0119,-2.70655 -0.29583,0.0276 c -0.2751,0.0257 -0.3042,0.0193 -0.41525,-0.0918 -0.15615,-0.15615 -0.16292,-0.40699 -0.015,-0.55493 0.0791,-0.0791 0.19844,-0.11774 0.49167,-0.1592 0.21297,-0.0301 0.39496,-0.0625 0.40442,-0.072 0.009,-0.009 0.59407,-2.50945 1.29915,-5.55553 0.70508,-3.04609 1.2903,-5.54425 1.30049,-5.55148 0.0102,-0.007 0.13781,-0.005 0.28359,0.005 0.25178,0.0172 0.26505,0.0242 0.26467,0.14058 -4.6e-4,0.13167 0.97167,3.04973 1.01596,3.04973 0.0146,0 2.30043,-6.63293 5.0796,-14.73984 l 5.05303,-14.73999 0.23691,-0.0246 c 0.26314,-0.0273 0.29694,-0.005 0.34699,0.22872 0.0186,0.0869 2.59328,7.28263 5.72148,15.99046 3.1282,8.70782 5.68763,15.85046 5.68763,15.87253 0,0.0221 -0.1867,0.0401 -0.41488,0.0401 h -0.41488 l 0.004,1.69411 c 0.002,0.93175 0.0122,1.67335 0.0227,1.648 0.0105,-0.0254 0.64025,-2.03451 1.39947,-4.46478 0.75921,-2.43028 1.38687,-4.42481 1.39479,-4.43229 0.0164,-0.0155 0.50421,0.0585 0.52112,0.079 0.006,0.007 0.6454,2.39931 1.42074,5.31543 0.99646,3.74783 1.4138,5.38913 1.4237,5.59911 l 0.014,0.29705 0.43784,0.14918 c 0.47648,0.16235 0.59937,0.26377 0.59937,0.49465 0,0.18241 -0.095,0.32177 -0.26833,0.39356 -0.10794,0.0447 -0.18727,0.0415 -0.41184,-0.0167 -0.15298,-0.0396 -0.30356,-0.0721 -0.33462,-0.0721 -0.0441,0 -0.0524,0.52092 -0.0381,2.37151 0.0101,1.30433 0.0314,2.38456 0.0473,2.40053 0.016,0.016 0.31293,0.0934 0.65992,0.17211 0.51958,0.11784 0.64323,0.16191 0.7008,0.24977 0.0899,0.13714 0.0445,0.32576 -0.0934,0.38862 -0.0951,0.0433 -0.61224,-0.0325 -1.16098,-0.17023 -0.11851,-0.0298 -0.12017,-0.0268 -0.1061,0.19015 l 0.0143,0.22037 0.40604,0.12633 c 0.22332,0.0695 0.44514,0.16173 0.49294,0.20499 0.20819,0.18841 0.14235,0.5395 -0.12636,0.67379 -0.14902,0.0745 -0.18819,0.0726 -0.65351,-0.031 l -0.15747,-0.0351 0.0307,4.95131 c 0.0169,2.72322 0.0307,8.18073 0.0307,12.1278 l 2e-5,7.17649 0.26506,0.0514 c 0.45939,0.0891 0.5803,0.14915 0.67053,0.33275 0.0748,0.15222 0.0763,0.18394 0.0154,0.32961 -0.0962,0.23015 -0.21415,0.27754 -0.61547,0.24718 l -0.33946,-0.0257 0.025,11.23298 c 0.0138,6.17815 0.0363,16.00931 0.05,21.84705 l 0.025,10.61406 h -6.59397 -6.59397 v -11.62963 -11.62964 l -0.3465,-0.17145 c -0.19057,-0.0943 -0.36921,-0.17145 -0.39696,-0.17145 -0.0327,0 -0.0398,0.0568 -0.0202,0.16134 l 0.0303,0.16134 h -5.34857 -5.34859 l -0.0215,-0.10372 c -0.0119,-0.057 -0.0443,-0.24893 -0.0722,-0.4264 -0.0279,-0.17748 -0.11172,-0.55842 -0.18638,-0.84654 -0.69995,-2.70122 -2.47201,-4.3421 -5.03638,-4.66356 -0.63542,-0.0797 -1.83764,-0.0347 -2.29145,0.0857 -0.90151,0.23921 -1.55828,0.58576 -2.18965,1.15539 -1.62793,1.46872 -2.54266,3.99828 -2.79394,7.72632 -0.0678,1.00636 -0.0273,3.55006 0.0705,4.4254 0.43808,3.9213 1.76838,6.07446 4.26964,6.91065 0.6754,0.22579 1.19261,0.30991 2.07421,0.33734 1.77085,0.0551 2.94961,-0.34465 4.01408,-1.36135 0.98344,-0.93929 1.64696,-2.28981 1.95612,-3.98142 0.0664,-0.36331 0.12977,-0.70724 0.14082,-0.76429 l 0.0201,-0.10372 h 5.4197 5.41969 l -0.0263,0.17287 c -0.0144,0.0951 -0.0488,0.34919 -0.0764,0.5647 -0.20571,1.60608 -0.74825,3.61884 -1.36411,5.06071 -0.6177,1.44618 -1.44118,2.80558 -2.40085,3.96333 -0.82839,0.99937 -2.22925,2.23751 -3.3087,2.92439 -2.0222,1.28675 -4.35401,2.08292 -7.0069,2.39241 -0.90851,0.10599 -2.79632,0.14964 -3.75018,0.0867 z m 31.17497,-13.1714 c -0.0117,-6.78851 -0.0338,-16.53316 -0.0491,-21.65477 l -0.0278,-9.31203 -5.9133,-0.88749 c -3.25231,-0.48812 -5.94132,-0.87674 -5.97556,-0.86359 -0.0521,0.02 -0.0648,3.6847 -0.0781,22.54226 l -0.0158,22.51836 h 6.04047 6.04048 z m -118.554441,3.56748 c 1.832729,-0.26928 2.833001,-1.03498 3.129916,-2.39591 0.121589,-0.5573 0.07764,-1.62734 -0.08771,-2.13536 -0.234999,-0.72202 -0.669637,-1.21044 -1.388773,-1.56062 -1.031761,-0.5024 -2.183057,-0.62113 -6.027314,-0.62155 l -2.201179,-2.3e-4 v 3.41521 3.41522 l 3.030944,-0.0207 c 2.485331,-0.017 3.123322,-0.0343 3.544117,-0.0961 z m 59.798921,-10.34389 c -0.98434,-3.56856 -1.80548,-6.52398 -1.82477,-6.5676 -0.0226,-0.0511 -0.64919,2.23969 -1.75907,6.43067 -0.94821,3.58049 -1.73303,6.53591 -1.74404,6.5676 -0.0159,0.0458 0.71378,0.0576 3.54877,0.0576 h 3.56881 z M 58.046621,253.0505 c 1.512395,-0.25921 2.471319,-1.09255 2.764959,-2.40283 0.02619,-0.11686 0.04725,-0.46297 0.0468,-0.76913 -0.0014,-0.92891 -0.208689,-1.53311 -0.688489,-2.00645 -0.320166,-0.31585 -0.604506,-0.47118 -1.138204,-0.62175 -0.69876,-0.19714 -1.019926,-0.21698 -3.927213,-0.2426 l -2.777405,-0.0245 v 3.07086 3.07086 h 2.642512 c 2.222907,0 2.711511,-0.0118 3.077041,-0.0745 z M 164.8523,241.13311 v -10.78787 l -0.12677,0.0256 c -0.10723,0.0216 -6.77781,0.99602 -16.07669,2.34833 l -2.3049,0.33519 -0.012,2.2217 -0.012,2.22171 h 0.58819 c 1.76474,6.4e-4 3.81732,0.24452 5.45886,0.6486 6.3211,1.55598 10.25465,5.92333 11.49771,12.7657 0.0668,0.36764 0.1379,0.67465 0.15804,0.68225 0.0201,0.008 0.19944,0.0931 0.39847,0.18987 0.19903,0.0968 0.37743,0.16717 0.39645,0.15632 0.019,-0.0109 0.0346,-4.87426 0.0346,-10.8076 z m -14.1521,-9.51422 c 3.61007,-0.52524 9.55171,-1.41002 12.87288,-1.91691 l 1.27922,-0.19524 v -12.64472 -12.64471 l -0.12677,0.0233 c -0.0697,0.0128 -2.97908,0.43787 -6.46524,0.94451 -11.25952,1.63633 -11.67164,1.69699 -11.6961,1.72144 -0.0254,0.0254 -0.0528,5.9808 -0.0781,16.96049 l -0.0193,8.38114 0.12297,-0.0246 c 0.0676,-0.0135 1.91732,-0.28567 4.11043,-0.60475 z m -1.88667,-2.40194 c -0.095,-0.12072 -0.0955,-0.14542 -0.0955,-4.04898 0,-2.16013 -0.0134,-6.72622 -0.0297,-10.14687 -0.029,-6.06138 -0.0275,-6.22204 0.0577,-6.32547 0.0833,-0.10116 0.3822,-0.14609 6.37972,-0.95909 4.26455,-0.57808 6.32942,-0.84065 6.40746,-0.81476 0.0633,0.021 0.14299,0.0963 0.17703,0.16734 0.0809,0.1687 0.003,0.37169 -0.16935,0.43906 -0.0676,0.0265 -2.75732,0.4025 -5.97728,0.83561 -3.21994,0.43312 -5.93566,0.8002 -6.03493,0.81575 l -0.1805,0.0283 0.0305,9.9304 c 0.0309,10.0611 0.0309,10.06026 -0.12585,10.16492 -0.11876,0.0793 -0.34377,0.0352 -0.43921,-0.0862 z m 1.56214,-0.40095 c -0.0614,-0.0306 -0.13761,-0.10708 -0.16943,-0.16997 -0.0458,-0.0905 -0.0579,-1.89409 -0.0583,-8.64246 -4.6e-4,-4.89144 0.0174,-8.63625 0.0414,-8.78167 0.17071,-1.03459 0.84971,-1.57039 1.81656,-1.43347 0.60267,0.0854 1.05457,0.38583 1.31496,0.87437 l 0.14517,0.27237 v 8.6874 c 0,8.51906 -0.002,8.68895 -0.0888,8.76779 -0.0675,0.061 -0.39762,0.12332 -1.37142,0.25872 -0.70542,0.0981 -1.33569,0.18828 -1.40059,0.20044 -0.0649,0.0121 -0.16822,-0.003 -0.22958,-0.0335 z m 4.03333,-0.74319 -0.11315,-0.11315 v -8.58968 c 0,-9.36781 -0.0136,-8.87178 0.25561,-9.33123 0.33431,-0.57057 0.96085,-0.84049 1.65259,-0.71194 0.60612,0.11264 1.0328,0.42766 1.27625,0.94227 l 0.13454,0.2844 4e-5,8.5166 c 4e-5,8.4186 -0.001,8.51765 -0.091,8.60763 -0.0501,0.0501 -0.13822,0.10151 -0.19592,0.11432 -0.11609,0.0258 -2.70017,0.39393 -2.76508,0.39393 -0.0224,0 -0.0917,-0.0509 -0.15389,-0.11315 z m 4.28762,-0.67015 c -0.24349,-0.0939 -0.22785,0.45526 -0.24214,-8.501 -0.008,-5.32623 0.003,-8.4277 0.0327,-8.65253 0.12121,-0.92512 0.59801,-1.46488 1.36447,-1.54466 0.76204,-0.0793 1.53421,0.33574 1.8347,0.98618 l 0.10046,0.21745 v 8.46923 c 0,8.42992 -4.6e-4,8.46966 -0.0929,8.56215 -0.0778,0.0778 -0.30276,0.12279 -1.38294,0.27649 -0.70951,0.10096 -1.34188,0.1924 -1.40526,0.20321 -0.0634,0.0108 -0.15745,0.003 -0.20904,-0.0165 z m 18.68043,-8.39633 c -0.016,-6.6968 -0.0355,-12.18242 -0.0434,-12.19027 -0.008,-0.008 -0.90574,-0.21416 -1.9953,-0.45846 -8.33077,-1.86792 -9.72735,-2.17821 -9.74163,-2.16438 -0.009,0.009 -7.4e-4,5.6883 0.0181,12.62153 l 0.0342,12.60587 0.51203,0.077 c 0.28161,0.0423 2.89759,0.43683 5.81329,0.87661 2.9157,0.43979 5.33062,0.80152 5.36648,0.80385 0.0561,0.004 0.0612,-1.6915 0.0361,-12.17176 z m -0.93382,9.48297 c -0.0882,-0.0645 -0.0892,-0.2035 -0.0721,-9.48467 l 0.0173,-9.41921 -4.7424,-0.96149 c -3.00168,-0.60856 -4.77158,-0.98727 -4.82189,-1.03175 -0.0437,-0.0387 -0.0921,-0.11005 -0.10754,-0.15866 -0.0332,-0.10475 0.0809,-0.2964 0.19885,-0.33383 0.0918,-0.0291 9.7816,1.9264 9.92458,2.00292 0.0488,0.0261 0.10284,0.10335 0.11996,0.17156 0.0171,0.0682 0.0181,4.39548 0.002,9.61614 -0.0269,8.8262 -0.0344,9.49815 -0.10687,9.57827 -0.0926,0.1023 -0.28722,0.11208 -0.41214,0.0207 z m -2.16601,-0.50849 c -0.96649,-0.20751 -0.92492,-0.19332 -0.98381,-0.33591 -0.0388,-0.0941 -0.0494,-2.1572 -0.0404,-7.89487 l 0.0122,-7.76752 0.10291,-0.25405 c 0.11037,-0.27245 0.35602,-0.55808 0.58528,-0.68054 0.0884,-0.0472 0.25539,-0.0764 0.44438,-0.0776 0.254,-0.002 0.33328,0.0182 0.49175,0.12293 0.2343,0.1549 0.44997,0.57343 0.51762,1.0045 0.0306,0.19487 0.0471,3.01582 0.0474,8.06842 4.6e-4,8.66026 0.0272,7.97875 -0.31342,7.96862 -0.0936,-0.003 -0.48237,-0.0721 -0.86385,-0.15399 z m -3.20169,-0.49512 c -0.51561,-0.10551 -0.93331,-0.2147 -0.97958,-0.25606 -0.0762,-0.0682 -0.0807,-0.51136 -0.0806,-8.0745 l 3e-5,-8.00238 0.13265,-0.27659 c 0.15097,-0.31475 0.36535,-0.53895 0.61489,-0.64303 0.21675,-0.0904 0.64582,-0.0923 0.81738,-0.004 0.18434,0.0953 0.42368,0.38889 0.53247,0.65314 0.0908,0.22065 0.0924,0.34419 0.10482,8.42937 l 0.0126,8.20545 -0.0984,0.0807 c -0.0541,0.0444 -0.11167,0.0786 -0.12788,0.076 -0.0162,-0.003 -0.43398,-0.0874 -0.92838,-0.18857 z m -3.52458,-0.54415 c -0.72375,-0.14513 -0.88823,-0.19288 -0.95704,-0.27786 -0.0795,-0.0981 -0.0826,-0.45433 -0.0711,-8.12946 l 0.012,-8.02684 0.0985,-0.21309 c 0.13584,-0.29376 0.41547,-0.591 0.65674,-0.69809 0.25118,-0.11149 0.66732,-0.12164 0.86164,-0.021 0.24082,0.12471 0.4672,0.41917 0.58153,0.75641 l 0.10647,0.31407 0.0123,8.13172 c 0.0136,9.00684 0.0354,8.35327 -0.27841,8.34385 -0.0818,-0.002 -0.54203,-0.0833 -1.0227,-0.1797 z m -11.67624,-22.36151 8.97759,-1.30712 v -0.21611 c 0,-0.18231 -0.0126,-0.21314 -0.0807,-0.19716 -0.0444,0.0104 -3.65903,0.55855 -8.03258,1.21804 -4.37355,0.6595 -8.42639,1.27135 -9.00632,1.35968 -0.57992,0.0883 -1.07259,0.16058 -1.09482,0.16058 -0.0222,0 -0.0404,0.0753 -0.0404,0.16738 0,0.16277 0.004,0.16674 0.14982,0.14459 0.0824,-0.0125 4.18973,-0.61097 9.12741,-1.32988 z m 21.46177,1.08524 -0.0147,-0.17531 -5.80835,-1.21243 c -3.19459,-0.66683 -5.83428,-1.213 -5.86597,-1.2137 -0.0317,-7e-4 -0.0576,0.0483 -0.0576,0.10897 0,0.076 0.0322,0.11814 0.10372,0.13571 0.057,0.014 2.15739,0.48475 4.66742,1.04611 2.51004,0.56136 5.09268,1.14002 5.7392,1.28591 0.64653,0.14589 1.19248,0.25058 1.21322,0.23265 0.0207,-0.0179 0.0311,-0.11149 0.0231,-0.20791 z m -23.53533,-1.774 c 3.85967,-0.58371 7.9355,-1.19979 9.05741,-1.36906 l 2.03984,-0.30777 v -1.34322 c 0,-0.73877 -0.0137,-1.93871 -0.0305,-2.66653 l -0.0305,-1.32332 -0.11931,0.0251 c -0.10546,0.0221 -18.05677,2.65268 -18.10242,2.65268 -0.01,0 -0.0182,1.21353 -0.0182,2.69674 0,2.67424 7.9e-4,2.69673 0.0931,2.69673 0.0512,0 3.25096,-0.47758 7.11062,-1.0613 z m 23.54371,-1.42898 v -2.44418 l -0.10372,-0.0447 c -0.0571,-0.0246 -2.21962,-0.60655 -4.80572,-1.29329 -2.58609,-0.68674 -5.18948,-1.37856 -5.7853,-1.53737 l -1.0833,-0.28874 -0.0142,2.17077 c -0.008,1.19392 -7.8e-4,2.4197 0.0156,2.72395 l 0.0298,0.55317 5.81576,1.29727 c 3.19867,0.71349 5.8417,1.29951 5.87339,1.30226 0.0454,0.004 0.0576,-0.51189 0.0576,-2.43917 z m 10e-4,-3.42179 c 0.003,-0.18341 -2.19044,-8.37899 -2.20743,-8.24919 -0.0256,0.19553 0.22402,7.62518 0.26037,7.75019 0.0295,0.10142 0.11597,0.13423 0.93141,0.35337 0.4944,0.13287 0.92484,0.24333 0.95653,0.24546 0.0317,0.002 0.0583,-0.0428 0.0591,-0.0998 z m -28.79352,-0.56383 c 0.78387,-0.1146 1.43574,-0.21888 1.4486,-0.23174 0.0233,-0.0233 -0.4769,-5.26709 -0.63982,-6.70688 -0.0853,-0.75393 -0.32165,-2.3196 -0.34639,-2.29476 -0.0116,0.0116 -2.10891,9.04646 -2.17414,9.36573 -0.0265,0.12996 -0.0234,0.13252 0.12965,0.10462 0.0863,-0.0157 0.79823,-0.12237 1.5821,-0.23697 z m 26.12026,-4.44973 c -0.0772,-2.19289 -0.1403,-4.07869 -0.14027,-4.19067 4e-5,-0.11198 -0.0107,-0.19287 -0.0238,-0.17975 -0.0302,0.0302 -2.51154,7.96808 -2.51154,8.03445 0,0.027 0.62751,0.21549 1.39446,0.41888 l 1.39447,0.3698 0.0135,-0.23282 c 0.007,-0.12805 -0.0496,-2.027 -0.12682,-4.21989 z m -18.54713,3.34081 c 1.8204,-0.26715 3.63648,-0.53331 4.03572,-0.59145 0.39925,-0.0581 0.73899,-0.11881 0.755,-0.13481 0.016,-0.016 0.82356,-2.49145 1.79459,-5.501 l 1.7655,-5.4719 -1.76981,-10.79095 c -1.94164,-11.83875 -2.01399,-12.26321 -2.06709,-12.12707 -0.17744,0.45489 -9.93966,28.99726 -9.93966,29.06115 0,0.0466 0.38607,1.21238 0.85792,2.5907 0.47186,1.37833 0.93007,2.71867 1.01824,2.97855 0.0882,0.25988 0.1782,0.47251 0.20004,0.47251 0.0219,0 1.52914,-0.21858 3.34956,-0.48573 z m 14.99568,-2.14186 v -2.2588 h 0.30501 c 0.28865,0 0.30364,-0.005 0.27931,-0.0983 -0.0425,-0.16252 -10.00558,-27.88127 -10.01728,-27.86956 -0.006,0.006 0.77439,4.7298 1.73409,10.49743 l 1.74493,10.4866 1.50586,5.34737 c 0.82822,2.94105 1.5196,5.36152 1.53641,5.37882 0.0342,0.0352 2.70449,0.76134 2.831,0.76984 0.0758,0.005 0.0807,-0.13081 0.0807,-2.25338 z m -7.89699,1.10201 c 0.88253,-0.12915 1.60962,-0.23961 1.61574,-0.24545 0.006,-0.006 -0.009,-1.5234 -0.0332,-3.37234 -0.0424,-3.21519 -0.11795,-5.55261 -0.18362,-5.68014 -0.0169,-0.0328 -0.47044,1.30521 -1.00788,2.97332 -0.53745,1.66812 -1.23344,3.82641 -1.54665,4.79619 -0.38474,1.1913 -0.54993,1.76325 -0.50924,1.76325 0.0331,0 0.7823,-0.10567 1.66484,-0.23483 z"
       id="path1433"
       inkscape:connector-curvature="0" />
  </g>
</svg>
