G04 #@! TF.GenerationSoftware,KiCad,Pcbnew,8.0.6*
G04 #@! TF.CreationDate,2025-01-16T18:06:10-08:00*
G04 #@! TF.ProjectId,levitas_daughterboard,6c657669-7461-4735-9f64-617567687465,rev?*
G04 #@! TF.SameCoordinates,Original*
G04 #@! TF.FileFunction,Copper,L2,Bot*
G04 #@! TF.FilePolarity,Positive*
%FSLAX46Y46*%
G04 Gerber Fmt 4.6, Leading zero omitted, Abs format (unit mm)*
G04 Created by KiCad (PCBNEW 8.0.6) date 2025-01-16 18:06:10*
%MOMM*%
%LPD*%
G01*
G04 APERTURE LIST*
G04 Aperture macros list*
%AMRoundRect*
0 Rectangle with rounded corners*
0 $1 Rounding radius*
0 $2 $3 $4 $5 $6 $7 $8 $9 X,Y pos of 4 corners*
0 Add a 4 corners polygon primitive as box body*
4,1,4,$2,$3,$4,$5,$6,$7,$8,$9,$2,$3,0*
0 Add four circle primitives for the rounded corners*
1,1,$1+$1,$2,$3*
1,1,$1+$1,$4,$5*
1,1,$1+$1,$6,$7*
1,1,$1+$1,$8,$9*
0 Add four rect primitives between the rounded corners*
20,1,$1+$1,$2,$3,$4,$5,0*
20,1,$1+$1,$4,$5,$6,$7,0*
20,1,$1+$1,$6,$7,$8,$9,0*
20,1,$1+$1,$8,$9,$2,$3,0*%
%AMFreePoly0*
4,1,19,0.500000,-0.750000,0.000000,-0.750000,0.000000,-0.744911,-0.071157,-0.744911,-0.207708,-0.704816,-0.327430,-0.627875,-0.420627,-0.520320,-0.479746,-0.390866,-0.500000,-0.250000,-0.500000,0.250000,-0.479746,0.390866,-0.420627,0.520320,-0.327430,0.627875,-0.207708,0.704816,-0.071157,0.744911,0.000000,0.744911,0.000000,0.750000,0.500000,0.750000,0.500000,-0.750000,0.500000,-0.750000,
$1*%
%AMFreePoly1*
4,1,19,0.000000,0.744911,0.071157,0.744911,0.207708,0.704816,0.327430,0.627875,0.420627,0.520320,0.479746,0.390866,0.500000,0.250000,0.500000,-0.250000,0.479746,-0.390866,0.420627,-0.520320,0.327430,-0.627875,0.207708,-0.704816,0.071157,-0.744911,0.000000,-0.744911,0.000000,-0.750000,-0.500000,-0.750000,-0.500000,0.750000,0.000000,0.750000,0.000000,0.744911,0.000000,0.744911,
$1*%
G04 Aperture macros list end*
G04 #@! TA.AperFunction,EtchedComponent*
%ADD10C,0.000000*%
G04 #@! TD*
G04 #@! TA.AperFunction,ComponentPad*
%ADD11R,1.700000X1.700000*%
G04 #@! TD*
G04 #@! TA.AperFunction,ComponentPad*
%ADD12O,1.700000X1.700000*%
G04 #@! TD*
G04 #@! TA.AperFunction,ComponentPad*
%ADD13C,0.800000*%
G04 #@! TD*
G04 #@! TA.AperFunction,ComponentPad*
%ADD14C,6.400000*%
G04 #@! TD*
G04 #@! TA.AperFunction,ComponentPad*
%ADD15C,2.000000*%
G04 #@! TD*
G04 #@! TA.AperFunction,SMDPad,CuDef*
%ADD16C,1.000000*%
G04 #@! TD*
G04 #@! TA.AperFunction,SMDPad,CuDef*
%ADD17RoundRect,0.200000X0.275000X-0.200000X0.275000X0.200000X-0.275000X0.200000X-0.275000X-0.200000X0*%
G04 #@! TD*
G04 #@! TA.AperFunction,SMDPad,CuDef*
%ADD18FreePoly0,180.000000*%
G04 #@! TD*
G04 #@! TA.AperFunction,SMDPad,CuDef*
%ADD19FreePoly1,180.000000*%
G04 #@! TD*
G04 #@! TA.AperFunction,SMDPad,CuDef*
%ADD20FreePoly0,0.000000*%
G04 #@! TD*
G04 #@! TA.AperFunction,SMDPad,CuDef*
%ADD21FreePoly1,0.000000*%
G04 #@! TD*
G04 #@! TA.AperFunction,SMDPad,CuDef*
%ADD22RoundRect,0.062500X0.375000X0.062500X-0.375000X0.062500X-0.375000X-0.062500X0.375000X-0.062500X0*%
G04 #@! TD*
G04 #@! TA.AperFunction,HeatsinkPad*
%ADD23R,2.600000X3.000000*%
G04 #@! TD*
G04 #@! TA.AperFunction,SMDPad,CuDef*
%ADD24RoundRect,0.225000X-0.225000X-0.250000X0.225000X-0.250000X0.225000X0.250000X-0.225000X0.250000X0*%
G04 #@! TD*
G04 #@! TA.AperFunction,SMDPad,CuDef*
%ADD25RoundRect,0.250000X-0.475000X0.250000X-0.475000X-0.250000X0.475000X-0.250000X0.475000X0.250000X0*%
G04 #@! TD*
G04 #@! TA.AperFunction,SMDPad,CuDef*
%ADD26RoundRect,0.218750X-0.218750X-0.256250X0.218750X-0.256250X0.218750X0.256250X-0.218750X0.256250X0*%
G04 #@! TD*
G04 #@! TA.AperFunction,SMDPad,CuDef*
%ADD27FreePoly0,90.000000*%
G04 #@! TD*
G04 #@! TA.AperFunction,SMDPad,CuDef*
%ADD28FreePoly1,90.000000*%
G04 #@! TD*
G04 #@! TA.AperFunction,SMDPad,CuDef*
%ADD29RoundRect,0.200000X-0.275000X0.200000X-0.275000X-0.200000X0.275000X-0.200000X0.275000X0.200000X0*%
G04 #@! TD*
G04 #@! TA.AperFunction,SMDPad,CuDef*
%ADD30RoundRect,0.200000X0.200000X0.275000X-0.200000X0.275000X-0.200000X-0.275000X0.200000X-0.275000X0*%
G04 #@! TD*
G04 #@! TA.AperFunction,SMDPad,CuDef*
%ADD31RoundRect,0.225000X0.250000X-0.225000X0.250000X0.225000X-0.250000X0.225000X-0.250000X-0.225000X0*%
G04 #@! TD*
G04 #@! TA.AperFunction,SMDPad,CuDef*
%ADD32RoundRect,0.218750X0.218750X0.256250X-0.218750X0.256250X-0.218750X-0.256250X0.218750X-0.256250X0*%
G04 #@! TD*
G04 #@! TA.AperFunction,SMDPad,CuDef*
%ADD33RoundRect,0.208750X0.208750X0.431250X-0.208750X0.431250X-0.208750X-0.431250X0.208750X-0.431250X0*%
G04 #@! TD*
G04 #@! TA.AperFunction,SMDPad,CuDef*
%ADD34RoundRect,0.208750X-0.208750X-0.431250X0.208750X-0.431250X0.208750X0.431250X-0.208750X0.431250X0*%
G04 #@! TD*
G04 #@! TA.AperFunction,SMDPad,CuDef*
%ADD35RoundRect,0.200000X-0.200000X-0.275000X0.200000X-0.275000X0.200000X0.275000X-0.200000X0.275000X0*%
G04 #@! TD*
G04 #@! TA.AperFunction,SMDPad,CuDef*
%ADD36RoundRect,0.250000X0.250000X0.475000X-0.250000X0.475000X-0.250000X-0.475000X0.250000X-0.475000X0*%
G04 #@! TD*
G04 #@! TA.AperFunction,SMDPad,CuDef*
%ADD37RoundRect,0.250000X-0.250000X-0.475000X0.250000X-0.475000X0.250000X0.475000X-0.250000X0.475000X0*%
G04 #@! TD*
G04 #@! TA.AperFunction,SMDPad,CuDef*
%ADD38RoundRect,0.225000X-0.250000X0.225000X-0.250000X-0.225000X0.250000X-0.225000X0.250000X0.225000X0*%
G04 #@! TD*
G04 #@! TA.AperFunction,SMDPad,CuDef*
%ADD39RoundRect,0.062500X-0.375000X-0.062500X0.375000X-0.062500X0.375000X0.062500X-0.375000X0.062500X0*%
G04 #@! TD*
G04 #@! TA.AperFunction,SMDPad,CuDef*
%ADD40RoundRect,0.225000X0.225000X0.250000X-0.225000X0.250000X-0.225000X-0.250000X0.225000X-0.250000X0*%
G04 #@! TD*
G04 #@! TA.AperFunction,SMDPad,CuDef*
%ADD41RoundRect,0.250000X0.475000X-0.250000X0.475000X0.250000X-0.475000X0.250000X-0.475000X-0.250000X0*%
G04 #@! TD*
G04 #@! TA.AperFunction,ViaPad*
%ADD42C,0.600000*%
G04 #@! TD*
G04 #@! TA.AperFunction,Conductor*
%ADD43C,0.200000*%
G04 #@! TD*
G04 APERTURE END LIST*
D10*
G04 #@! TA.AperFunction,EtchedComponent*
G04 #@! TO.C,JP6*
G36*
X136013000Y-87142600D02*
G01*
X135513000Y-87142600D01*
X135513000Y-86542600D01*
X136013000Y-86542600D01*
X136013000Y-87142600D01*
G37*
G04 #@! TD.AperFunction*
G04 #@! TA.AperFunction,EtchedComponent*
G04 #@! TO.C,JP1*
G36*
X143140000Y-100376000D02*
G01*
X142640000Y-100376000D01*
X142640000Y-99776000D01*
X143140000Y-99776000D01*
X143140000Y-100376000D01*
G37*
G04 #@! TD.AperFunction*
G04 #@! TA.AperFunction,EtchedComponent*
G04 #@! TO.C,JP5*
G36*
X135723200Y-84501000D02*
G01*
X135223200Y-84501000D01*
X135223200Y-83901000D01*
X135723200Y-83901000D01*
X135723200Y-84501000D01*
G37*
G04 #@! TD.AperFunction*
G04 #@! TA.AperFunction,EtchedComponent*
G04 #@! TO.C,JP7*
G36*
X150922000Y-75332400D02*
G01*
X150322000Y-75332400D01*
X150322000Y-74832400D01*
X150922000Y-74832400D01*
X150922000Y-75332400D01*
G37*
G04 #@! TD.AperFunction*
G04 #@! TA.AperFunction,EtchedComponent*
G04 #@! TO.C,JP3*
G36*
X153828800Y-94838800D02*
G01*
X153328800Y-94838800D01*
X153328800Y-94238800D01*
X153828800Y-94238800D01*
X153828800Y-94838800D01*
G37*
G04 #@! TD.AperFunction*
G04 #@! TA.AperFunction,EtchedComponent*
G04 #@! TO.C,JP2*
G36*
X139838000Y-102408000D02*
G01*
X139338000Y-102408000D01*
X139338000Y-101808000D01*
X139838000Y-101808000D01*
X139838000Y-102408000D01*
G37*
G04 #@! TD.AperFunction*
G04 #@! TA.AperFunction,EtchedComponent*
G04 #@! TO.C,JP8*
G36*
X147824000Y-76195200D02*
G01*
X147324000Y-76195200D01*
X147324000Y-75595200D01*
X147824000Y-75595200D01*
X147824000Y-76195200D01*
G37*
G04 #@! TD.AperFunction*
G04 #@! TA.AperFunction,EtchedComponent*
G04 #@! TO.C,JP4*
G36*
X153854200Y-92197200D02*
G01*
X153354200Y-92197200D01*
X153354200Y-91597200D01*
X153854200Y-91597200D01*
X153854200Y-92197200D01*
G37*
G04 #@! TD.AperFunction*
G04 #@! TD*
D11*
G04 #@! TO.P,J3,1,Pin_1*
G04 #@! TO.N,GND*
X124460000Y-69850000D03*
D12*
G04 #@! TO.P,J3,2,Pin_2*
G04 #@! TO.N,Net-(J1-Pin_2)*
X124460000Y-72390000D03*
G04 #@! TO.P,J3,3,Pin_3*
G04 #@! TO.N,Net-(J1-Pin_3)*
X124460000Y-74930000D03*
G04 #@! TO.P,J3,4,Pin_4*
G04 #@! TO.N,Net-(J1-Pin_4)*
X124460000Y-77470000D03*
G04 #@! TO.P,J3,5,Pin_5*
G04 #@! TO.N,Net-(J1-Pin_5)*
X124460000Y-80010000D03*
G04 #@! TO.P,J3,6,Pin_6*
G04 #@! TO.N,+250V*
X124460000Y-82550000D03*
G04 #@! TO.P,J3,7,Pin_7*
G04 #@! TO.N,+3.3V*
X124460000Y-85090000D03*
G04 #@! TO.P,J3,8,Pin_8*
G04 #@! TO.N,GND*
X124460000Y-87630000D03*
G04 #@! TO.P,J3,9,Pin_9*
G04 #@! TO.N,SCL4*
X124460000Y-90170000D03*
G04 #@! TO.P,J3,10,Pin_10*
G04 #@! TO.N,SDA4*
X124460000Y-92710000D03*
G04 #@! TO.P,J3,11,Pin_11*
G04 #@! TO.N,SCL3*
X124460000Y-95250000D03*
G04 #@! TO.P,J3,12,Pin_12*
G04 #@! TO.N,SDA3*
X124460000Y-97790000D03*
G04 #@! TO.P,J3,13,Pin_13*
G04 #@! TO.N,SCL2*
X124460000Y-100330000D03*
G04 #@! TO.P,J3,14,Pin_14*
G04 #@! TO.N,SDA2*
X124460000Y-102870000D03*
G04 #@! TO.P,J3,15,Pin_15*
G04 #@! TO.N,SCL1*
X124460000Y-105410000D03*
G04 #@! TO.P,J3,16,Pin_16*
G04 #@! TO.N,SDA1*
X124460000Y-107950000D03*
G04 #@! TD*
D11*
G04 #@! TO.P,J2,1,Pin_1*
G04 #@! TO.N,Net-(J2-Pin_1)*
X165100000Y-69850000D03*
D12*
G04 #@! TO.P,J2,2,Pin_2*
G04 #@! TO.N,Net-(J2-Pin_2)*
X165100000Y-72390000D03*
G04 #@! TO.P,J2,3,Pin_3*
G04 #@! TO.N,Net-(J2-Pin_3)*
X165100000Y-74930000D03*
G04 #@! TO.P,J2,4,Pin_4*
G04 #@! TO.N,Net-(J2-Pin_4)*
X165100000Y-77470000D03*
G04 #@! TO.P,J2,5,Pin_5*
G04 #@! TO.N,Net-(J2-Pin_5)*
X165100000Y-80010000D03*
G04 #@! TO.P,J2,6,Pin_6*
G04 #@! TO.N,Net-(J2-Pin_6)*
X165100000Y-82550000D03*
G04 #@! TO.P,J2,7,Pin_7*
G04 #@! TO.N,Net-(J2-Pin_7)*
X165100000Y-85090000D03*
G04 #@! TO.P,J2,8,Pin_8*
G04 #@! TO.N,Net-(J2-Pin_8)*
X165100000Y-87630000D03*
G04 #@! TO.P,J2,9,Pin_9*
G04 #@! TO.N,Net-(J2-Pin_9)*
X165100000Y-90170000D03*
G04 #@! TO.P,J2,10,Pin_10*
G04 #@! TO.N,Net-(J2-Pin_10)*
X165100000Y-92710000D03*
G04 #@! TO.P,J2,11,Pin_11*
G04 #@! TO.N,Net-(J2-Pin_11)*
X165100000Y-95250000D03*
G04 #@! TO.P,J2,12,Pin_12*
G04 #@! TO.N,Net-(J2-Pin_12)*
X165100000Y-97790000D03*
G04 #@! TO.P,J2,13,Pin_13*
G04 #@! TO.N,Net-(J2-Pin_13)*
X165100000Y-100330000D03*
G04 #@! TO.P,J2,14,Pin_14*
G04 #@! TO.N,Net-(J2-Pin_14)*
X165100000Y-102870000D03*
G04 #@! TO.P,J2,15,Pin_15*
G04 #@! TO.N,Net-(J2-Pin_15)*
X165100000Y-105410000D03*
G04 #@! TO.P,J2,16,Pin_16*
G04 #@! TO.N,Net-(J2-Pin_16)*
X165100000Y-107950000D03*
G04 #@! TD*
D13*
G04 #@! TO.P,REF\u002A\u002A,1*
G04 #@! TO.N,N/C*
X132380000Y-108900000D03*
X133082944Y-107202944D03*
X133082944Y-110597056D03*
X134780000Y-106500000D03*
D14*
X134780000Y-108900000D03*
D13*
X134780000Y-111300000D03*
X136477056Y-107202944D03*
X136477056Y-110597056D03*
X137180000Y-108900000D03*
G04 #@! TD*
G04 #@! TO.P,REF\u002A\u002A,1*
G04 #@! TO.N,N/C*
X152380000Y-108900000D03*
X153082944Y-107202944D03*
X153082944Y-110597056D03*
X154780000Y-106500000D03*
D14*
X154780000Y-108900000D03*
D13*
X154780000Y-111300000D03*
X156477056Y-107202944D03*
X156477056Y-110597056D03*
X157180000Y-108900000D03*
G04 #@! TD*
G04 #@! TO.P,REF\u002A\u002A,1*
G04 #@! TO.N,N/C*
X152380000Y-68900000D03*
X153082944Y-67202944D03*
X153082944Y-70597056D03*
X154780000Y-66500000D03*
D14*
X154780000Y-68900000D03*
D13*
X154780000Y-71300000D03*
X156477056Y-67202944D03*
X156477056Y-70597056D03*
X157180000Y-68900000D03*
G04 #@! TD*
G04 #@! TO.P,REF\u002A\u002A,1*
G04 #@! TO.N,N/C*
X132380000Y-68900000D03*
X133082944Y-67202944D03*
X133082944Y-70597056D03*
X134780000Y-66500000D03*
D14*
X134780000Y-68900000D03*
D13*
X134780000Y-71300000D03*
X136477056Y-67202944D03*
X136477056Y-70597056D03*
X137180000Y-68900000D03*
G04 #@! TD*
D15*
G04 #@! TO.P,J6,1,Pin_1*
G04 #@! TO.N,Net-(J6-Pin_1)*
X141732000Y-90170000D03*
G04 #@! TD*
D11*
G04 #@! TO.P,J4,1,Pin_1*
G04 #@! TO.N,Net-(J2-Pin_1)*
X167640000Y-69850000D03*
D12*
G04 #@! TO.P,J4,2,Pin_2*
G04 #@! TO.N,Net-(J2-Pin_2)*
X167640000Y-72390000D03*
G04 #@! TO.P,J4,3,Pin_3*
G04 #@! TO.N,Net-(J2-Pin_3)*
X167640000Y-74930000D03*
G04 #@! TO.P,J4,4,Pin_4*
G04 #@! TO.N,Net-(J2-Pin_4)*
X167640000Y-77470000D03*
G04 #@! TO.P,J4,5,Pin_5*
G04 #@! TO.N,Net-(J2-Pin_5)*
X167640000Y-80010000D03*
G04 #@! TO.P,J4,6,Pin_6*
G04 #@! TO.N,Net-(J2-Pin_6)*
X167640000Y-82550000D03*
G04 #@! TO.P,J4,7,Pin_7*
G04 #@! TO.N,Net-(J2-Pin_7)*
X167640000Y-85090000D03*
G04 #@! TO.P,J4,8,Pin_8*
G04 #@! TO.N,Net-(J2-Pin_8)*
X167640000Y-87630000D03*
G04 #@! TO.P,J4,9,Pin_9*
G04 #@! TO.N,Net-(J2-Pin_9)*
X167640000Y-90170000D03*
G04 #@! TO.P,J4,10,Pin_10*
G04 #@! TO.N,Net-(J2-Pin_10)*
X167640000Y-92710000D03*
G04 #@! TO.P,J4,11,Pin_11*
G04 #@! TO.N,Net-(J2-Pin_11)*
X167640000Y-95250000D03*
G04 #@! TO.P,J4,12,Pin_12*
G04 #@! TO.N,Net-(J2-Pin_12)*
X167640000Y-97790000D03*
G04 #@! TO.P,J4,13,Pin_13*
G04 #@! TO.N,Net-(J2-Pin_13)*
X167640000Y-100330000D03*
G04 #@! TO.P,J4,14,Pin_14*
G04 #@! TO.N,Net-(J2-Pin_14)*
X167640000Y-102870000D03*
G04 #@! TO.P,J4,15,Pin_15*
G04 #@! TO.N,Net-(J2-Pin_15)*
X167640000Y-105410000D03*
G04 #@! TO.P,J4,16,Pin_16*
G04 #@! TO.N,Net-(J2-Pin_16)*
X167640000Y-107950000D03*
G04 #@! TD*
D15*
G04 #@! TO.P,J5,1,Pin_1*
G04 #@! TO.N,Net-(J5-Pin_1)*
X143510000Y-91948000D03*
G04 #@! TD*
D11*
G04 #@! TO.P,J1,1,Pin_1*
G04 #@! TO.N,GND*
X121920000Y-69850000D03*
D12*
G04 #@! TO.P,J1,2,Pin_2*
G04 #@! TO.N,Net-(J1-Pin_2)*
X121920000Y-72390000D03*
G04 #@! TO.P,J1,3,Pin_3*
G04 #@! TO.N,Net-(J1-Pin_3)*
X121920000Y-74930000D03*
G04 #@! TO.P,J1,4,Pin_4*
G04 #@! TO.N,Net-(J1-Pin_4)*
X121920000Y-77470000D03*
G04 #@! TO.P,J1,5,Pin_5*
G04 #@! TO.N,Net-(J1-Pin_5)*
X121920000Y-80010000D03*
G04 #@! TO.P,J1,6,Pin_6*
G04 #@! TO.N,+250V*
X121920000Y-82550000D03*
G04 #@! TO.P,J1,7,Pin_7*
G04 #@! TO.N,+3.3V*
X121920000Y-85090000D03*
G04 #@! TO.P,J1,8,Pin_8*
G04 #@! TO.N,GND*
X121920000Y-87630000D03*
G04 #@! TO.P,J1,9,Pin_9*
G04 #@! TO.N,SCL4*
X121920000Y-90170000D03*
G04 #@! TO.P,J1,10,Pin_10*
G04 #@! TO.N,SDA4*
X121920000Y-92710000D03*
G04 #@! TO.P,J1,11,Pin_11*
G04 #@! TO.N,SCL3*
X121920000Y-95250000D03*
G04 #@! TO.P,J1,12,Pin_12*
G04 #@! TO.N,SDA3*
X121920000Y-97790000D03*
G04 #@! TO.P,J1,13,Pin_13*
G04 #@! TO.N,SCL2*
X121920000Y-100330000D03*
G04 #@! TO.P,J1,14,Pin_14*
G04 #@! TO.N,SDA2*
X121920000Y-102870000D03*
G04 #@! TO.P,J1,15,Pin_15*
G04 #@! TO.N,SCL1*
X121920000Y-105410000D03*
G04 #@! TO.P,J1,16,Pin_16*
G04 #@! TO.N,SDA1*
X121920000Y-107950000D03*
G04 #@! TD*
D16*
G04 #@! TO.P,TP5,1,1*
G04 #@! TO.N,Net-(U2-INTB)*
X154559000Y-101777800D03*
G04 #@! TD*
G04 #@! TO.P,TP9,1,1*
G04 #@! TO.N,Net-(U3-SD)*
X135382000Y-75946000D03*
G04 #@! TD*
D17*
G04 #@! TO.P,R15,1*
G04 #@! TO.N,Net-(J11-Pin_1)*
X147650200Y-81864200D03*
G04 #@! TO.P,R15,2*
G04 #@! TO.N,Net-(U4-IN0B)*
X147650200Y-80214200D03*
G04 #@! TD*
D18*
G04 #@! TO.P,JP6,1,A*
G04 #@! TO.N,Net-(JP6-A)*
X136413000Y-86842600D03*
D19*
G04 #@! TO.P,JP6,2,B*
G04 #@! TO.N,GND*
X135113000Y-86842600D03*
G04 #@! TD*
D20*
G04 #@! TO.P,JP1,1,A*
G04 #@! TO.N,Net-(JP1-A)*
X142240000Y-100076000D03*
D21*
G04 #@! TO.P,JP1,2,B*
G04 #@! TO.N,GND*
X143540000Y-100076000D03*
G04 #@! TD*
D15*
G04 #@! TO.P,J9,1,Pin_1*
G04 #@! TO.N,Net-(J9-Pin_1)*
X141732000Y-87630000D03*
G04 #@! TD*
D17*
G04 #@! TO.P,R11,1*
G04 #@! TO.N,Net-(J9-Pin_1)*
X140233400Y-82016600D03*
G04 #@! TO.P,R11,2*
G04 #@! TO.N,Net-(U3-IN0B)*
X140233400Y-80366600D03*
G04 #@! TD*
D15*
G04 #@! TO.P,J7,1,Pin_1*
G04 #@! TO.N,Net-(J7-Pin_1)*
X147828000Y-90170000D03*
G04 #@! TD*
G04 #@! TO.P,J8,1,Pin_1*
G04 #@! TO.N,Net-(J8-Pin_1)*
X146050000Y-91948000D03*
G04 #@! TD*
D18*
G04 #@! TO.P,JP5,1,A*
G04 #@! TO.N,Net-(JP5-A)*
X136123200Y-84201000D03*
D19*
G04 #@! TO.P,JP5,2,B*
G04 #@! TO.N,GND*
X134823200Y-84201000D03*
G04 #@! TD*
D22*
G04 #@! TO.P,U2,1,SCL*
G04 #@! TO.N,SCL1*
X155284400Y-96951800D03*
G04 #@! TO.P,U2,2,SDA*
G04 #@! TO.N,SDA1*
X155284400Y-97451800D03*
G04 #@! TO.P,U2,3,CLKIN*
G04 #@! TO.N,Net-(U2-CLKIN)*
X155284400Y-97951800D03*
G04 #@! TO.P,U2,4,ADDR*
G04 #@! TO.N,+3.3V*
X155284400Y-98451800D03*
G04 #@! TO.P,U2,5,INTB*
G04 #@! TO.N,Net-(U2-INTB)*
X155284400Y-98951800D03*
G04 #@! TO.P,U2,6,SD*
G04 #@! TO.N,Net-(U2-SD)*
X155284400Y-99451800D03*
G04 #@! TO.P,U2,7,VDD*
G04 #@! TO.N,+3.3V*
X151409400Y-99451800D03*
G04 #@! TO.P,U2,8,GND*
G04 #@! TO.N,GND*
X151409400Y-98951800D03*
G04 #@! TO.P,U2,9,IN0A*
G04 #@! TO.N,Net-(U2-IN0A)*
X151409400Y-98451800D03*
G04 #@! TO.P,U2,10,IN0B*
G04 #@! TO.N,Net-(U2-IN0B)*
X151409400Y-97951800D03*
G04 #@! TO.P,U2,11,IN1A*
G04 #@! TO.N,Net-(JP4-A)*
X151409400Y-97451800D03*
G04 #@! TO.P,U2,12,IN1B*
G04 #@! TO.N,Net-(JP3-A)*
X151409400Y-96951800D03*
D23*
G04 #@! TO.P,U2,13*
G04 #@! TO.N,N/C*
X153346900Y-98201800D03*
G04 #@! TD*
D24*
G04 #@! TO.P,C2,1*
G04 #@! TO.N,+3.3V*
X135115000Y-95504000D03*
G04 #@! TO.P,C2,2*
G04 #@! TO.N,GND*
X136665000Y-95504000D03*
G04 #@! TD*
D25*
G04 #@! TO.P,C7,1*
G04 #@! TO.N,+3.3V*
X141274800Y-76164400D03*
G04 #@! TO.P,C7,2*
G04 #@! TO.N,GND*
X141274800Y-78064400D03*
G04 #@! TD*
D22*
G04 #@! TO.P,U4,1,SCL*
G04 #@! TO.N,SCL4*
X155563800Y-77916400D03*
G04 #@! TO.P,U4,2,SDA*
G04 #@! TO.N,SDA4*
X155563800Y-78416400D03*
G04 #@! TO.P,U4,3,CLKIN*
G04 #@! TO.N,Net-(U4-CLKIN)*
X155563800Y-78916400D03*
G04 #@! TO.P,U4,4,ADDR*
G04 #@! TO.N,+3.3V*
X155563800Y-79416400D03*
G04 #@! TO.P,U4,5,INTB*
G04 #@! TO.N,Net-(U4-INTB)*
X155563800Y-79916400D03*
G04 #@! TO.P,U4,6,SD*
G04 #@! TO.N,Net-(U4-SD)*
X155563800Y-80416400D03*
G04 #@! TO.P,U4,7,VDD*
G04 #@! TO.N,+3.3V*
X151688800Y-80416400D03*
G04 #@! TO.P,U4,8,GND*
G04 #@! TO.N,GND*
X151688800Y-79916400D03*
G04 #@! TO.P,U4,9,IN0A*
G04 #@! TO.N,Net-(U4-IN0A)*
X151688800Y-79416400D03*
G04 #@! TO.P,U4,10,IN0B*
G04 #@! TO.N,Net-(U4-IN0B)*
X151688800Y-78916400D03*
G04 #@! TO.P,U4,11,IN1A*
G04 #@! TO.N,Net-(JP8-A)*
X151688800Y-78416400D03*
G04 #@! TO.P,U4,12,IN1B*
G04 #@! TO.N,Net-(JP7-A)*
X151688800Y-77916400D03*
D23*
G04 #@! TO.P,U4,13*
G04 #@! TO.N,N/C*
X153626300Y-79166400D03*
G04 #@! TD*
D16*
G04 #@! TO.P,TP4,1,1*
G04 #@! TO.N,Net-(U2-CLKIN)*
X157581600Y-98526600D03*
G04 #@! TD*
D26*
G04 #@! TO.P,L4,1,1*
G04 #@! TO.N,Net-(J11-Pin_1)*
X147700900Y-83591400D03*
G04 #@! TO.P,L4,2,2*
G04 #@! TO.N,Net-(J12-Pin_1)*
X149275900Y-83591400D03*
G04 #@! TD*
D16*
G04 #@! TO.P,TP10,1,1*
G04 #@! TO.N,Net-(U4-CLKIN)*
X158445200Y-77647800D03*
G04 #@! TD*
D27*
G04 #@! TO.P,JP7,1,A*
G04 #@! TO.N,Net-(JP7-A)*
X150622000Y-75732400D03*
D28*
G04 #@! TO.P,JP7,2,B*
G04 #@! TO.N,GND*
X150622000Y-74432400D03*
G04 #@! TD*
D20*
G04 #@! TO.P,JP3,1,A*
G04 #@! TO.N,Net-(JP3-A)*
X152928800Y-94538800D03*
D21*
G04 #@! TO.P,JP3,2,B*
G04 #@! TO.N,GND*
X154228800Y-94538800D03*
G04 #@! TD*
D20*
G04 #@! TO.P,JP2,1,A*
G04 #@! TO.N,Net-(JP2-A)*
X138938000Y-102108000D03*
D21*
G04 #@! TO.P,JP2,2,B*
G04 #@! TO.N,GND*
X140238000Y-102108000D03*
G04 #@! TD*
D16*
G04 #@! TO.P,TP12,1,1*
G04 #@! TO.N,Net-(U4-SD)*
X157048200Y-82397600D03*
G04 #@! TD*
D15*
G04 #@! TO.P,J12,1,Pin_1*
G04 #@! TO.N,Net-(J12-Pin_1)*
X147828000Y-87630000D03*
G04 #@! TD*
D29*
G04 #@! TO.P,R7,1*
G04 #@! TO.N,Net-(J7-Pin_1)*
X149301200Y-95631000D03*
G04 #@! TO.P,R7,2*
G04 #@! TO.N,Net-(U2-IN0B)*
X149301200Y-97281000D03*
G04 #@! TD*
D26*
G04 #@! TO.P,L3,1,1*
G04 #@! TO.N,Net-(J9-Pin_1)*
X140284200Y-83667600D03*
G04 #@! TO.P,L3,2,2*
G04 #@! TO.N,Net-(J10-Pin_1)*
X141859200Y-83667600D03*
G04 #@! TD*
D30*
G04 #@! TO.P,R13,1*
G04 #@! TO.N,+3.3V*
X158482800Y-75692000D03*
G04 #@! TO.P,R13,2*
G04 #@! TO.N,SDA4*
X156832800Y-75692000D03*
G04 #@! TD*
D16*
G04 #@! TO.P,TP11,1,1*
G04 #@! TO.N,Net-(U4-INTB)*
X157454600Y-80340200D03*
G04 #@! TD*
G04 #@! TO.P,TP2,1,1*
G04 #@! TO.N,Net-(U1-INTB)*
X131064000Y-95504000D03*
G04 #@! TD*
D30*
G04 #@! TO.P,R14,1*
G04 #@! TO.N,+3.3V*
X156615400Y-74193400D03*
G04 #@! TO.P,R14,2*
G04 #@! TO.N,SCL4*
X154965400Y-74193400D03*
G04 #@! TD*
D17*
G04 #@! TO.P,R10,1*
G04 #@! TO.N,+3.3V*
X130454400Y-82968600D03*
G04 #@! TO.P,R10,2*
G04 #@! TO.N,SCL3*
X130454400Y-81318600D03*
G04 #@! TD*
D31*
G04 #@! TO.P,C5,1*
G04 #@! TO.N,+3.3V*
X149479000Y-100914800D03*
G04 #@! TO.P,C5,2*
G04 #@! TO.N,GND*
X149479000Y-99364800D03*
G04 #@! TD*
D32*
G04 #@! TO.P,L2,1,1*
G04 #@! TO.N,Net-(J7-Pin_1)*
X149352000Y-94132400D03*
G04 #@! TO.P,L2,2,2*
G04 #@! TO.N,Net-(J8-Pin_1)*
X147777000Y-94132400D03*
G04 #@! TD*
D16*
G04 #@! TO.P,TP6,1,1*
G04 #@! TO.N,Net-(U2-SD)*
X152425400Y-101676200D03*
G04 #@! TD*
D33*
G04 #@! TO.P,C3,1*
G04 #@! TO.N,Net-(J5-Pin_1)*
X141597500Y-92202000D03*
G04 #@! TO.P,C3,2*
G04 #@! TO.N,Net-(J6-Pin_1)*
X140342500Y-92202000D03*
G04 #@! TD*
D34*
G04 #@! TO.P,C12,1*
G04 #@! TO.N,Net-(J11-Pin_1)*
X148013300Y-85318600D03*
G04 #@! TO.P,C12,2*
G04 #@! TO.N,Net-(J12-Pin_1)*
X149268300Y-85318600D03*
G04 #@! TD*
D35*
G04 #@! TO.P,R5,1*
G04 #@! TO.N,+3.3V*
X157061400Y-100888800D03*
G04 #@! TO.P,R5,2*
G04 #@! TO.N,SDA1*
X158711400Y-100888800D03*
G04 #@! TD*
D15*
G04 #@! TO.P,J11,1,Pin_1*
G04 #@! TO.N,Net-(J11-Pin_1)*
X146050000Y-85852000D03*
G04 #@! TD*
D36*
G04 #@! TO.P,C10,1*
G04 #@! TO.N,+3.3V*
X154594600Y-84429600D03*
G04 #@! TO.P,C10,2*
G04 #@! TO.N,GND*
X152694600Y-84429600D03*
G04 #@! TD*
D17*
G04 #@! TO.P,R12,1*
G04 #@! TO.N,Net-(J10-Pin_1)*
X141859000Y-82054200D03*
G04 #@! TO.P,R12,2*
G04 #@! TO.N,Net-(U3-IN0A)*
X141859000Y-80404200D03*
G04 #@! TD*
D37*
G04 #@! TO.P,C1,1*
G04 #@! TO.N,+3.3V*
X135260000Y-93538000D03*
G04 #@! TO.P,C1,2*
G04 #@! TO.N,GND*
X137160000Y-93538000D03*
G04 #@! TD*
D33*
G04 #@! TO.P,C6,1*
G04 #@! TO.N,Net-(J7-Pin_1)*
X149192100Y-92278200D03*
G04 #@! TO.P,C6,2*
G04 #@! TO.N,Net-(J8-Pin_1)*
X147937100Y-92278200D03*
G04 #@! TD*
D38*
G04 #@! TO.P,C8,1*
G04 #@! TO.N,+3.3V*
X139319000Y-76593400D03*
G04 #@! TO.P,C8,2*
G04 #@! TO.N,GND*
X139319000Y-78143400D03*
G04 #@! TD*
D17*
G04 #@! TO.P,R16,1*
G04 #@! TO.N,Net-(J12-Pin_1)*
X149250400Y-81940400D03*
G04 #@! TO.P,R16,2*
G04 #@! TO.N,Net-(U4-IN0A)*
X149250400Y-80290400D03*
G04 #@! TD*
D18*
G04 #@! TO.P,JP8,1,A*
G04 #@! TO.N,Net-(JP8-A)*
X148224000Y-75895200D03*
D19*
G04 #@! TO.P,JP8,2,B*
G04 #@! TO.N,GND*
X146924000Y-75895200D03*
G04 #@! TD*
D16*
G04 #@! TO.P,TP7,1,1*
G04 #@! TO.N,Net-(U3-CLKIN)*
X131114800Y-78562200D03*
G04 #@! TD*
D39*
G04 #@! TO.P,U3,1,SCL*
G04 #@! TO.N,SCL3*
X133894600Y-80695800D03*
G04 #@! TO.P,U3,2,SDA*
G04 #@! TO.N,SDA3*
X133894600Y-80195800D03*
G04 #@! TO.P,U3,3,CLKIN*
G04 #@! TO.N,Net-(U3-CLKIN)*
X133894600Y-79695800D03*
G04 #@! TO.P,U3,4,ADDR*
G04 #@! TO.N,+3.3V*
X133894600Y-79195800D03*
G04 #@! TO.P,U3,5,INTB*
G04 #@! TO.N,Net-(U3-INTB)*
X133894600Y-78695800D03*
G04 #@! TO.P,U3,6,SD*
G04 #@! TO.N,Net-(U3-SD)*
X133894600Y-78195800D03*
G04 #@! TO.P,U3,7,VDD*
G04 #@! TO.N,+3.3V*
X137769600Y-78195800D03*
G04 #@! TO.P,U3,8,GND*
G04 #@! TO.N,GND*
X137769600Y-78695800D03*
G04 #@! TO.P,U3,9,IN0A*
G04 #@! TO.N,Net-(U3-IN0A)*
X137769600Y-79195800D03*
G04 #@! TO.P,U3,10,IN0B*
G04 #@! TO.N,Net-(U3-IN0B)*
X137769600Y-79695800D03*
G04 #@! TO.P,U3,11,IN1A*
G04 #@! TO.N,Net-(JP6-A)*
X137769600Y-80195800D03*
G04 #@! TO.P,U3,12,IN1B*
G04 #@! TO.N,Net-(JP5-A)*
X137769600Y-80695800D03*
D23*
G04 #@! TO.P,U3,13*
G04 #@! TO.N,N/C*
X135832100Y-79445800D03*
G04 #@! TD*
D15*
G04 #@! TO.P,J10,1,Pin_1*
G04 #@! TO.N,Net-(J10-Pin_1)*
X143510000Y-85852000D03*
G04 #@! TD*
D35*
G04 #@! TO.P,R2,1*
G04 #@! TO.N,+3.3V*
X131064000Y-101854000D03*
G04 #@! TO.P,R2,2*
G04 #@! TO.N,SCL2*
X132714000Y-101854000D03*
G04 #@! TD*
G04 #@! TO.P,R1,1*
G04 #@! TO.N,+3.3V*
X128270000Y-99314000D03*
G04 #@! TO.P,R1,2*
G04 #@! TO.N,SDA2*
X129920000Y-99314000D03*
G04 #@! TD*
D29*
G04 #@! TO.P,R3,1*
G04 #@! TO.N,Net-(J5-Pin_1)*
X141986000Y-95504000D03*
G04 #@! TO.P,R3,2*
G04 #@! TO.N,Net-(U1-IN0B)*
X141986000Y-97154000D03*
G04 #@! TD*
G04 #@! TO.P,R4,1*
G04 #@! TO.N,Net-(J6-Pin_1)*
X140208000Y-95504000D03*
G04 #@! TO.P,R4,2*
G04 #@! TO.N,Net-(U1-IN0A)*
X140208000Y-97154000D03*
G04 #@! TD*
G04 #@! TO.P,R9,1*
G04 #@! TO.N,+3.3V*
X129133600Y-78155800D03*
G04 #@! TO.P,R9,2*
G04 #@! TO.N,SDA3*
X129133600Y-79805800D03*
G04 #@! TD*
D20*
G04 #@! TO.P,JP4,1,A*
G04 #@! TO.N,Net-(JP4-A)*
X152954200Y-91897200D03*
D21*
G04 #@! TO.P,JP4,2,B*
G04 #@! TO.N,GND*
X154254200Y-91897200D03*
G04 #@! TD*
D34*
G04 #@! TO.P,C9,1*
G04 #@! TO.N,Net-(J9-Pin_1)*
X140266300Y-85344000D03*
G04 #@! TO.P,C9,2*
G04 #@! TO.N,Net-(J10-Pin_1)*
X141521300Y-85344000D03*
G04 #@! TD*
D40*
G04 #@! TO.P,C11,1*
G04 #@! TO.N,+3.3V*
X152616200Y-82473800D03*
G04 #@! TO.P,C11,2*
G04 #@! TO.N,GND*
X151066200Y-82473800D03*
G04 #@! TD*
D39*
G04 #@! TO.P,U1,1,SCL*
G04 #@! TO.N,SCL2*
X134318500Y-99790000D03*
G04 #@! TO.P,U1,2,SDA*
G04 #@! TO.N,SDA2*
X134318500Y-99290000D03*
G04 #@! TO.P,U1,3,CLKIN*
G04 #@! TO.N,Net-(U1-CLKIN)*
X134318500Y-98790000D03*
G04 #@! TO.P,U1,4,ADDR*
G04 #@! TO.N,+3.3V*
X134318500Y-98290000D03*
G04 #@! TO.P,U1,5,INTB*
G04 #@! TO.N,Net-(U1-INTB)*
X134318500Y-97790000D03*
G04 #@! TO.P,U1,6,SD*
G04 #@! TO.N,Net-(U1-SD)*
X134318500Y-97290000D03*
G04 #@! TO.P,U1,7,VDD*
G04 #@! TO.N,+3.3V*
X138193500Y-97290000D03*
G04 #@! TO.P,U1,8,GND*
G04 #@! TO.N,GND*
X138193500Y-97790000D03*
G04 #@! TO.P,U1,9,IN0A*
G04 #@! TO.N,Net-(U1-IN0A)*
X138193500Y-98290000D03*
G04 #@! TO.P,U1,10,IN0B*
G04 #@! TO.N,Net-(U1-IN0B)*
X138193500Y-98790000D03*
G04 #@! TO.P,U1,11,IN1A*
G04 #@! TO.N,Net-(JP1-A)*
X138193500Y-99290000D03*
G04 #@! TO.P,U1,12,IN1B*
G04 #@! TO.N,Net-(JP2-A)*
X138193500Y-99790000D03*
D23*
G04 #@! TO.P,U1,13*
G04 #@! TO.N,N/C*
X136256000Y-98540000D03*
G04 #@! TD*
D16*
G04 #@! TO.P,TP3,1,1*
G04 #@! TO.N,Net-(U1-CLKIN)*
X131445000Y-98044000D03*
G04 #@! TD*
D41*
G04 #@! TO.P,C4,1*
G04 #@! TO.N,+3.3V*
X147599400Y-102372200D03*
G04 #@! TO.P,C4,2*
G04 #@! TO.N,GND*
X147599400Y-100472200D03*
G04 #@! TD*
D29*
G04 #@! TO.P,R8,1*
G04 #@! TO.N,Net-(J8-Pin_1)*
X147701000Y-95631000D03*
G04 #@! TO.P,R8,2*
G04 #@! TO.N,Net-(U2-IN0A)*
X147701000Y-97281000D03*
G04 #@! TD*
D16*
G04 #@! TO.P,TP1,1,1*
G04 #@! TO.N,Net-(U1-SD)*
X133096000Y-94488000D03*
G04 #@! TD*
D32*
G04 #@! TO.P,L1,1,1*
G04 #@! TO.N,Net-(J5-Pin_1)*
X141783000Y-93980000D03*
G04 #@! TO.P,L1,2,2*
G04 #@! TO.N,Net-(J6-Pin_1)*
X140208000Y-93980000D03*
G04 #@! TD*
D30*
G04 #@! TO.P,R6,1*
G04 #@! TO.N,+3.3V*
X160413200Y-96342200D03*
G04 #@! TO.P,R6,2*
G04 #@! TO.N,SCL1*
X158763200Y-96342200D03*
G04 #@! TD*
D16*
G04 #@! TO.P,TP8,1,1*
G04 #@! TO.N,Net-(U3-INTB)*
X133273800Y-75920600D03*
G04 #@! TD*
D42*
G04 #@! TO.N,GND*
X158750000Y-93268800D03*
X129540000Y-88900000D03*
X144907000Y-75412600D03*
X142875000Y-109855000D03*
X145389600Y-70688200D03*
X147269200Y-67614800D03*
G04 #@! TO.N,+3.3V*
X126365000Y-83820000D03*
X148031200Y-108229400D03*
X128524000Y-100584000D03*
X158445200Y-103835200D03*
X140589000Y-108585000D03*
X144754600Y-74091800D03*
X144830800Y-108585000D03*
X156641800Y-102311200D03*
X144729200Y-71755000D03*
X130048000Y-102108000D03*
X128778000Y-84302600D03*
G04 #@! TD*
D43*
G04 #@! TO.N,SDA4*
X121328800Y-76080000D02*
X120497600Y-76911200D01*
X156832800Y-77599286D02*
X156832800Y-75692000D01*
X154806848Y-72847200D02*
X153568400Y-72847200D01*
X155665400Y-73705752D02*
X154806848Y-72847200D01*
X129489200Y-72618600D02*
X126027800Y-76080000D01*
X156015686Y-78416400D02*
X156832800Y-77599286D01*
X153568400Y-72847200D02*
X153339800Y-72618600D01*
X126027800Y-76080000D02*
X121328800Y-76080000D01*
X120497600Y-76911200D02*
X120497600Y-91287600D01*
X153339800Y-72618600D02*
X129489200Y-72618600D01*
X155665400Y-74524600D02*
X155665400Y-73705752D01*
X155563800Y-78416400D02*
X156015686Y-78416400D01*
X120497600Y-91287600D02*
X121920000Y-92710000D01*
X156832800Y-75692000D02*
X155665400Y-74524600D01*
G04 #@! TO.N,SCL1*
X159411400Y-101377286D02*
X156324886Y-104463800D01*
X126096346Y-112800000D02*
X123240800Y-109944454D01*
X159411400Y-96990400D02*
X159411400Y-101377286D01*
X156324886Y-104463800D02*
X150762286Y-104463800D01*
X155284400Y-96951800D02*
X158153600Y-96951800D01*
X150762286Y-104463800D02*
X142426086Y-112800000D01*
X158153600Y-96951800D02*
X158763200Y-96342200D01*
X123240800Y-106629200D02*
X124460000Y-105410000D01*
X158763200Y-96342200D02*
X159411400Y-96990400D01*
X123240800Y-109944454D02*
X123240800Y-106629200D01*
X142426086Y-112800000D02*
X126096346Y-112800000D01*
G04 #@! TO.N,SCL4*
X155265400Y-77618000D02*
X155265400Y-74493400D01*
X123266200Y-88823800D02*
X121920000Y-90170000D01*
X123552600Y-78860000D02*
X123266200Y-79146400D01*
X150659277Y-73075800D02*
X129717800Y-73075800D01*
X123266200Y-79146400D02*
X123266200Y-88823800D01*
X155563800Y-77916400D02*
X155265400Y-77618000D01*
X151776877Y-74193400D02*
X150659277Y-73075800D01*
X154965400Y-74193400D02*
X151776877Y-74193400D01*
X155265400Y-74493400D02*
X154965400Y-74193400D01*
X129717800Y-73838546D02*
X124696346Y-78860000D01*
X124696346Y-78860000D02*
X123552600Y-78860000D01*
X129717800Y-73075800D02*
X129717800Y-73838546D01*
G04 #@! TO.N,SDA2*
X129920000Y-99314000D02*
X132818000Y-99314000D01*
X132842000Y-99290000D02*
X134318500Y-99290000D01*
X127254000Y-102870000D02*
X124460000Y-102870000D01*
X129920000Y-99314000D02*
X129920000Y-100204000D01*
X129920000Y-100204000D02*
X127254000Y-102870000D01*
X132818000Y-99314000D02*
X132842000Y-99290000D01*
G04 #@! TO.N,SCL2*
X132714000Y-101394500D02*
X132714000Y-101854000D01*
X123310000Y-101480000D02*
X124460000Y-100330000D01*
X123983654Y-104020000D02*
X123310000Y-103346346D01*
X134318500Y-99790000D02*
X132929250Y-101179250D01*
X132080000Y-100330000D02*
X130810000Y-100330000D01*
X130810000Y-100330000D02*
X127120000Y-104020000D01*
X123310000Y-103346346D02*
X123310000Y-101480000D01*
X132929250Y-101179250D02*
X132080000Y-100330000D01*
X132929250Y-101179250D02*
X132714000Y-101394500D01*
X127120000Y-104020000D02*
X123983654Y-104020000D01*
G04 #@! TO.N,GND*
X134823200Y-84201000D02*
X134823200Y-85394800D01*
X138645386Y-97790000D02*
X138931000Y-97504386D01*
X144907000Y-76377800D02*
X144907000Y-75412600D01*
X131318000Y-88900000D02*
X129540000Y-88900000D01*
X146924000Y-75895200D02*
X145674200Y-77145000D01*
X142875000Y-104745000D02*
X142875000Y-104775000D01*
X145674200Y-77145000D02*
X144754800Y-78064400D01*
X139319000Y-78143400D02*
X141195800Y-78143400D01*
X143967200Y-78064400D02*
X141274800Y-78064400D01*
X137160000Y-95009000D02*
X136665000Y-95504000D01*
X143540000Y-100831000D02*
X143540000Y-100076000D01*
X149582800Y-80990400D02*
X146893200Y-80990400D01*
X132522000Y-88900000D02*
X131318000Y-88900000D01*
X140238000Y-102108000D02*
X142263000Y-102108000D01*
X145674200Y-77145000D02*
X144907000Y-76377800D01*
X150622000Y-74432400D02*
X147631800Y-74432400D01*
X154254200Y-91897200D02*
X154254200Y-91142200D01*
X146924000Y-75140200D02*
X146924000Y-75895200D01*
X155625800Y-93268800D02*
X158750000Y-93268800D01*
X154254200Y-94513400D02*
X154228800Y-94538800D01*
X145389600Y-69494400D02*
X147269200Y-67614800D01*
X148371600Y-100472200D02*
X149479000Y-99364800D01*
X152694600Y-89582600D02*
X152694600Y-84429600D01*
X147631800Y-74432400D02*
X146924000Y-75140200D01*
X150951300Y-82358900D02*
X151066200Y-82473800D01*
X152694600Y-84429600D02*
X151066200Y-82801200D01*
X151688800Y-79916400D02*
X151236914Y-79916400D01*
X138931000Y-97504386D02*
X138931000Y-97021000D01*
X137160000Y-93538000D02*
X132522000Y-88900000D01*
X138193500Y-97790000D02*
X138645386Y-97790000D01*
X151066200Y-82473800D02*
X149582800Y-80990400D01*
X154254200Y-91897200D02*
X155625800Y-93268800D01*
X150951300Y-80202014D02*
X150951300Y-82358900D01*
X149892000Y-98951800D02*
X151409400Y-98951800D01*
X140238000Y-102108000D02*
X142875000Y-104745000D01*
X143936200Y-100472200D02*
X143540000Y-100076000D01*
X134823200Y-85394800D02*
X131318000Y-88900000D01*
X147599400Y-100472200D02*
X143936200Y-100472200D01*
X146893200Y-80990400D02*
X143967200Y-78064400D01*
X138766600Y-78695800D02*
X139319000Y-78143400D01*
X154254200Y-91897200D02*
X154254200Y-94513400D01*
X136665000Y-95504000D02*
X137414000Y-95504000D01*
X138931000Y-97021000D02*
X137414000Y-95504000D01*
X137769600Y-78695800D02*
X138766600Y-78695800D01*
X141195800Y-78143400D02*
X141274800Y-78064400D01*
X145389600Y-70688200D02*
X145389600Y-69494400D01*
X142263000Y-102108000D02*
X143540000Y-100831000D01*
X151236914Y-79916400D02*
X150951300Y-80202014D01*
X154254200Y-91142200D02*
X152694600Y-89582600D01*
X134823200Y-84201000D02*
X134823200Y-86552800D01*
X151066200Y-82801200D02*
X151066200Y-82473800D01*
X149479000Y-99364800D02*
X149892000Y-98951800D01*
X134823200Y-86552800D02*
X135113000Y-86842600D01*
X142875000Y-104775000D02*
X142875000Y-109855000D01*
X137160000Y-93538000D02*
X137160000Y-95009000D01*
X147599400Y-100472200D02*
X148371600Y-100472200D01*
X144754800Y-78064400D02*
X143967200Y-78064400D01*
G04 #@! TO.N,SCL3*
X131077200Y-80695800D02*
X130454400Y-81318600D01*
X129349000Y-81318600D02*
X127990600Y-82677000D01*
X127990600Y-82677000D02*
X127990600Y-91719400D01*
X130454400Y-81318600D02*
X129349000Y-81318600D01*
X133894600Y-80695800D02*
X131077200Y-80695800D01*
X127990600Y-91719400D02*
X124460000Y-95250000D01*
G04 #@! TO.N,SDA3*
X129133600Y-79805800D02*
X127050800Y-81888600D01*
X127050800Y-81888600D02*
X127050800Y-91821000D01*
X133894600Y-80195800D02*
X129523600Y-80195800D01*
X125011800Y-93860000D02*
X123716400Y-93860000D01*
X129523600Y-80195800D02*
X129133600Y-79805800D01*
X123310000Y-94266400D02*
X123310000Y-96640000D01*
X123310000Y-96640000D02*
X124460000Y-97790000D01*
X127050800Y-91821000D02*
X125011800Y-93860000D01*
X123716400Y-93860000D02*
X123310000Y-94266400D01*
G04 #@! TO.N,SDA1*
X158800800Y-99923600D02*
X158711400Y-100013000D01*
X150596600Y-104063800D02*
X142260400Y-112400000D01*
X155284400Y-97451800D02*
X157638171Y-97451800D01*
X157638171Y-97451800D02*
X158800800Y-98614429D01*
X158711400Y-100013000D02*
X158711400Y-100888800D01*
X158711400Y-100888800D02*
X158711400Y-101511600D01*
X142260400Y-112400000D02*
X128910000Y-112400000D01*
X158711400Y-101511600D02*
X156159200Y-104063800D01*
X128910000Y-112400000D02*
X124460000Y-107950000D01*
X158800800Y-98614429D02*
X158800800Y-99923600D01*
X156159200Y-104063800D02*
X150596600Y-104063800D01*
G04 #@! TO.N,+3.3V*
X135890000Y-96279000D02*
X135115000Y-95504000D01*
X154594600Y-84429600D02*
X160070800Y-89905800D01*
X128270000Y-100330000D02*
X128524000Y-100584000D01*
X134633000Y-102629000D02*
X131839000Y-102629000D01*
X154594600Y-84429600D02*
X156147571Y-84429600D01*
X156641800Y-102311200D02*
X156641800Y-101308400D01*
X134318500Y-98290000D02*
X132822371Y-98290000D01*
X157022800Y-99974400D02*
X157022800Y-99672628D01*
X129527200Y-77762200D02*
X129133600Y-78155800D01*
X133858000Y-93218000D02*
X134178000Y-93538000D01*
X160070800Y-89905800D02*
X160070800Y-95999800D01*
X139319000Y-76646400D02*
X139319000Y-76593400D01*
X131839000Y-102629000D02*
X131064000Y-101854000D01*
X159245200Y-76454400D02*
X158482800Y-75692000D01*
X157226000Y-105054400D02*
X151130000Y-105054400D01*
X140845800Y-76593400D02*
X141274800Y-76164400D01*
X160413200Y-96342200D02*
X160413200Y-101867200D01*
X150942000Y-99451800D02*
X149479000Y-100914800D01*
X156147571Y-84429600D02*
X159245200Y-81331971D01*
X144830800Y-108585000D02*
X144830800Y-105140800D01*
X133894600Y-79195800D02*
X133377028Y-79195800D01*
X139319000Y-76593400D02*
X140845800Y-76593400D01*
X145192800Y-72218600D02*
X153505486Y-72218600D01*
X140589000Y-108585000D02*
X134633000Y-102629000D01*
X151688800Y-81546400D02*
X152616200Y-82473800D01*
X157061400Y-100013000D02*
X157022800Y-99974400D01*
X129133600Y-78155800D02*
X132168800Y-75120600D01*
X130048000Y-102108000D02*
X130810000Y-102108000D01*
X128778000Y-84321000D02*
X128778000Y-84302600D01*
X129794000Y-94742000D02*
X131318000Y-93218000D01*
X132822371Y-98290000D02*
X131306371Y-96774000D01*
X151409400Y-99451800D02*
X150942000Y-99451800D01*
X130454400Y-82968600D02*
X130454400Y-83235800D01*
X155563800Y-79416400D02*
X157807971Y-79416400D01*
X155801972Y-98451800D02*
X155284400Y-98451800D01*
X128940000Y-89570000D02*
X129794000Y-90424000D01*
X125907800Y-83820000D02*
X125730000Y-83820000D01*
X140231000Y-75120600D02*
X141274800Y-76164400D01*
X151130000Y-105054400D02*
X148031200Y-108153200D01*
X132168800Y-75120600D02*
X140231000Y-75120600D01*
X128270000Y-99314000D02*
X128270000Y-100330000D01*
X129794000Y-94996000D02*
X129794000Y-90424000D01*
X152638800Y-82473800D02*
X154594600Y-84429600D01*
X137769600Y-78195800D02*
X139319000Y-76646400D01*
X144729200Y-71755000D02*
X145192800Y-72218600D01*
X142682000Y-76164400D02*
X144754600Y-74091800D01*
X160070800Y-95999800D02*
X160413200Y-96342200D01*
X126650800Y-83077000D02*
X125907800Y-83820000D01*
X160413200Y-101867200D02*
X158445200Y-103835200D01*
X148031200Y-108153200D02*
X148031200Y-108229400D01*
X130810000Y-102108000D02*
X131064000Y-101854000D01*
X129794000Y-94996000D02*
X129794000Y-94742000D01*
X128940000Y-84483000D02*
X128940000Y-89570000D01*
X156984200Y-74193400D02*
X158482800Y-75692000D01*
X156615400Y-74193400D02*
X156984200Y-74193400D01*
X131318000Y-93218000D02*
X133858000Y-93218000D01*
X129794000Y-96774000D02*
X128270000Y-98298000D01*
X128270000Y-98298000D02*
X128270000Y-99314000D01*
X149056800Y-100914800D02*
X147599400Y-102372200D01*
X156641800Y-101308400D02*
X157061400Y-100888800D01*
X151688800Y-80416400D02*
X151688800Y-81546400D01*
X125730000Y-83820000D02*
X124460000Y-85090000D01*
X126365000Y-83820000D02*
X125907800Y-83820000D01*
X137395000Y-96279000D02*
X135890000Y-96279000D01*
X156615400Y-74090066D02*
X156615400Y-74193400D01*
X157807971Y-79416400D02*
X159245200Y-77979171D01*
X126650800Y-80638600D02*
X126650800Y-83077000D01*
X128940000Y-84483000D02*
X128778000Y-84321000D01*
X149479000Y-100914800D02*
X149056800Y-100914800D01*
X153505486Y-72218600D02*
X153734085Y-72447200D01*
X130454400Y-82968600D02*
X128940000Y-84483000D01*
X131943428Y-77762200D02*
X129527200Y-77762200D01*
X131306371Y-96774000D02*
X129794000Y-96774000D01*
X129133600Y-78155800D02*
X126650800Y-80638600D01*
X133377028Y-79195800D02*
X131943428Y-77762200D01*
X138193500Y-97290000D02*
X138193500Y-97077500D01*
X141274800Y-76164400D02*
X142682000Y-76164400D01*
X138193500Y-97077500D02*
X137395000Y-96279000D01*
X129794000Y-96774000D02*
X129794000Y-94996000D01*
X158445200Y-103835200D02*
X157226000Y-105054400D01*
X154972534Y-72447200D02*
X156615400Y-74090066D01*
X153734085Y-72447200D02*
X154972534Y-72447200D01*
X144830800Y-105140800D02*
X147599400Y-102372200D01*
X135260000Y-95359000D02*
X135115000Y-95504000D01*
X157022800Y-99672628D02*
X155801972Y-98451800D01*
X135260000Y-93538000D02*
X135260000Y-95359000D01*
X159245200Y-77979171D02*
X159245200Y-76454400D01*
X152616200Y-82473800D02*
X152638800Y-82473800D01*
X134178000Y-93538000D02*
X135260000Y-93538000D01*
X157061400Y-100888800D02*
X157061400Y-100013000D01*
X159245200Y-81331971D02*
X159245200Y-77979171D01*
G04 #@! TO.N,Net-(JP1-A)*
X141454000Y-99290000D02*
X142240000Y-100076000D01*
X138193500Y-99290000D02*
X141454000Y-99290000D01*
G04 #@! TO.N,Net-(JP2-A)*
X138938000Y-100534500D02*
X138938000Y-102108000D01*
X138193500Y-99790000D02*
X138938000Y-100534500D01*
G04 #@! TO.N,Net-(U1-INTB)*
X131826000Y-95504000D02*
X132588000Y-96266000D01*
X131064000Y-95504000D02*
X131826000Y-95504000D01*
X132588000Y-96511386D02*
X133866614Y-97790000D01*
X132588000Y-96266000D02*
X132588000Y-96511386D01*
X133866614Y-97790000D02*
X134318500Y-97790000D01*
G04 #@! TO.N,Net-(J5-Pin_1)*
X141986000Y-95504000D02*
X141986000Y-94183000D01*
X141597500Y-92202000D02*
X143256000Y-92202000D01*
X141783000Y-93980000D02*
X141783000Y-92507000D01*
X143256000Y-92202000D02*
X143510000Y-91948000D01*
X141986000Y-94183000D02*
X141783000Y-93980000D01*
G04 #@! TO.N,Net-(J6-Pin_1)*
X140223000Y-93965000D02*
X140208000Y-93980000D01*
X140342500Y-91559500D02*
X141732000Y-90170000D01*
X140223000Y-92202000D02*
X140223000Y-93965000D01*
X140342500Y-92202000D02*
X140342500Y-91559500D01*
X140208000Y-93980000D02*
X140208000Y-95504000D01*
G04 #@! TO.N,Net-(U1-CLKIN)*
X134318500Y-98790000D02*
X132191000Y-98790000D01*
X132191000Y-98790000D02*
X131445000Y-98044000D01*
G04 #@! TO.N,Net-(U1-IN0B)*
X138193500Y-98790000D02*
X140350000Y-98790000D01*
X140350000Y-98790000D02*
X141986000Y-97154000D01*
G04 #@! TO.N,Net-(U1-IN0A)*
X139072000Y-98290000D02*
X140208000Y-97154000D01*
X140208000Y-97154000D02*
X140455000Y-97401000D01*
X138193500Y-98290000D02*
X139072000Y-98290000D01*
G04 #@! TO.N,Net-(U1-SD)*
X133096000Y-96067500D02*
X134318500Y-97290000D01*
X133096000Y-94488000D02*
X133096000Y-96067500D01*
G04 #@! TO.N,Net-(J8-Pin_1)*
X147937100Y-92278200D02*
X146380200Y-92278200D01*
X147701000Y-95631000D02*
X147701000Y-94208400D01*
X147701000Y-94208400D02*
X147777000Y-94132400D01*
X147777000Y-92438300D02*
X147937100Y-92278200D01*
X146380200Y-92278200D02*
X146050000Y-91948000D01*
X147777000Y-94132400D02*
X147777000Y-92438300D01*
G04 #@! TO.N,Net-(J7-Pin_1)*
X149192100Y-92278200D02*
X149192100Y-93972500D01*
X149192100Y-91280100D02*
X149192100Y-92278200D01*
X149301200Y-95631000D02*
X149301200Y-94183200D01*
X149192100Y-93972500D02*
X149352000Y-94132400D01*
X148082000Y-90170000D02*
X149192100Y-91280100D01*
X149301200Y-94183200D02*
X149352000Y-94132400D01*
G04 #@! TO.N,Net-(JP3-A)*
X151409400Y-96058200D02*
X152928800Y-94538800D01*
X151409400Y-96951800D02*
X151409400Y-96058200D01*
G04 #@! TO.N,Net-(JP4-A)*
X151409400Y-97451800D02*
X150957514Y-97451800D01*
X150495000Y-94356400D02*
X152954200Y-91897200D01*
X150495000Y-96989286D02*
X150495000Y-94356400D01*
X150957514Y-97451800D02*
X150495000Y-96989286D01*
G04 #@! TO.N,Net-(U2-IN0B)*
X149972000Y-97951800D02*
X151409400Y-97951800D01*
X149301200Y-97281000D02*
X149972000Y-97951800D01*
G04 #@! TO.N,Net-(U2-IN0A)*
X151409400Y-98451800D02*
X148871800Y-98451800D01*
X148871800Y-98451800D02*
X147701000Y-97281000D01*
G04 #@! TO.N,Net-(U2-CLKIN)*
X157006800Y-97951800D02*
X157581600Y-98526600D01*
X155284400Y-97951800D02*
X157006800Y-97951800D01*
G04 #@! TO.N,Net-(U2-INTB)*
X155736286Y-98951800D02*
X156021900Y-99237414D01*
X155284400Y-98951800D02*
X155736286Y-98951800D01*
X156021900Y-100314900D02*
X154559000Y-101777800D01*
X156021900Y-99237414D02*
X156021900Y-100314900D01*
G04 #@! TO.N,Net-(U2-SD)*
X154567900Y-100380800D02*
X153720800Y-100380800D01*
X155284400Y-99451800D02*
X155284400Y-99664300D01*
X155284400Y-99664300D02*
X154567900Y-100380800D01*
X153720800Y-100380800D02*
X152425400Y-101676200D01*
G04 #@! TO.N,Net-(J9-Pin_1)*
X140266300Y-85344000D02*
X140266300Y-86164300D01*
X140284200Y-83667600D02*
X140284200Y-82067400D01*
X140284200Y-82067400D02*
X140233400Y-82016600D01*
X140266300Y-85344000D02*
X140266300Y-83685500D01*
X140266300Y-83685500D02*
X140284200Y-83667600D01*
X140266300Y-86164300D02*
X141732000Y-87630000D01*
G04 #@! TO.N,Net-(J10-Pin_1)*
X141859200Y-82054400D02*
X141859000Y-82054200D01*
X141521300Y-85344000D02*
X142029300Y-85852000D01*
X142029300Y-85852000D02*
X143510000Y-85852000D01*
X141859200Y-83667600D02*
X141859200Y-85006100D01*
X141859200Y-85006100D02*
X141521300Y-85344000D01*
X141859200Y-83667600D02*
X141859200Y-82054400D01*
G04 #@! TO.N,Net-(JP5-A)*
X137769600Y-82554600D02*
X136123200Y-84201000D01*
X137769600Y-80695800D02*
X137769600Y-82554600D01*
G04 #@! TO.N,Net-(JP6-A)*
X138607800Y-80582114D02*
X138607800Y-84647800D01*
X138607800Y-84647800D02*
X136413000Y-86842600D01*
X138221486Y-80195800D02*
X138607800Y-80582114D01*
X137769600Y-80195800D02*
X138221486Y-80195800D01*
G04 #@! TO.N,Net-(U3-IN0B)*
X137769600Y-79695800D02*
X139562600Y-79695800D01*
X139562600Y-79695800D02*
X140233400Y-80366600D01*
G04 #@! TO.N,Net-(U3-IN0A)*
X137769600Y-79195800D02*
X140650600Y-79195800D01*
X140650600Y-79195800D02*
X141859000Y-80404200D01*
G04 #@! TO.N,Net-(U3-CLKIN)*
X132248400Y-79695800D02*
X131114800Y-78562200D01*
X133894600Y-79695800D02*
X132248400Y-79695800D01*
G04 #@! TO.N,Net-(U3-INTB)*
X133894600Y-78695800D02*
X133442714Y-78695800D01*
X132773801Y-76420599D02*
X133273800Y-75920600D01*
X133442714Y-78695800D02*
X132773801Y-78026887D01*
X132773801Y-78026887D02*
X132773801Y-76420599D01*
G04 #@! TO.N,Net-(U3-SD)*
X133894600Y-78195800D02*
X133894600Y-77433400D01*
X133894600Y-77433400D02*
X135382000Y-75946000D01*
G04 #@! TO.N,Net-(J11-Pin_1)*
X147479900Y-85852000D02*
X146050000Y-85852000D01*
X147700900Y-83591400D02*
X147700900Y-85006200D01*
X148013300Y-85318600D02*
X147479900Y-85852000D01*
X147650200Y-83540700D02*
X147700900Y-83591400D01*
X147650200Y-81864200D02*
X147650200Y-83540700D01*
X147700900Y-85006200D02*
X148013300Y-85318600D01*
G04 #@! TO.N,Net-(J12-Pin_1)*
X149268300Y-86443700D02*
X148082000Y-87630000D01*
X149268300Y-85318600D02*
X149268300Y-86443700D01*
X149250400Y-81940400D02*
X149250400Y-83565900D01*
X149250400Y-83565900D02*
X149275900Y-83591400D01*
X149275900Y-85311000D02*
X149268300Y-85318600D01*
X149275900Y-83591400D02*
X149275900Y-85311000D01*
G04 #@! TO.N,Net-(JP7-A)*
X150622000Y-76849600D02*
X150622000Y-75732400D01*
X151688800Y-77916400D02*
X150622000Y-76849600D01*
G04 #@! TO.N,Net-(JP8-A)*
X151688800Y-78416400D02*
X150745200Y-78416400D01*
X150745200Y-78416400D02*
X148224000Y-75895200D01*
G04 #@! TO.N,Net-(U4-IN0B)*
X148948000Y-78916400D02*
X147650200Y-80214200D01*
X151688800Y-78916400D02*
X148948000Y-78916400D01*
G04 #@! TO.N,Net-(U4-IN0A)*
X150124400Y-79416400D02*
X151688800Y-79416400D01*
X149250400Y-80290400D02*
X150124400Y-79416400D01*
G04 #@! TO.N,Net-(U4-CLKIN)*
X156922600Y-78916400D02*
X157276800Y-78562200D01*
X155563800Y-78916400D02*
X156922600Y-78916400D01*
X157276800Y-78562200D02*
X157530800Y-78562200D01*
X157530800Y-78562200D02*
X158445200Y-77647800D01*
G04 #@! TO.N,Net-(U4-INTB)*
X155563800Y-79916400D02*
X157030800Y-79916400D01*
X157030800Y-79916400D02*
X157454600Y-80340200D01*
G04 #@! TO.N,Net-(U4-SD)*
X157048200Y-81900800D02*
X157048200Y-82397600D01*
X155563800Y-80416400D02*
X157048200Y-81900800D01*
G04 #@! TD*
M02*
