M48
INCH,TZ
T1C0.0118
T2C0.0197
T3C0.0236
T4C0.0394
T5C0.1260
%
G90
G05
T1
X49750Y-33000
X50600Y-39600
X50700Y-33190
X51000Y-35000
X51200Y-40200
X55350Y-42750
X56250Y-43250
X56980Y-28250
X56990Y-29170
X57020Y-42750
X57050Y-29690
X57240Y-27830
X57980Y-26620
X58280Y-42610
X61670Y-40280
X62380Y-40880
X62500Y-36720
T2
X52118Y-27126
X52118Y-42874
X52395Y-26458
X52395Y-27794
X52395Y-42206
X52395Y-43542
X53063Y-26181
X53063Y-28071
X53063Y-41929
X53063Y-43819
X53731Y-26458
X53731Y-27794
X53731Y-42206
X53731Y-43542
X54008Y-27126
X54008Y-42874
X59992Y-27126
X59992Y-42874
X60269Y-26458
X60269Y-27794
X60269Y-42206
X60269Y-43542
X60937Y-26181
X60937Y-28071
X60937Y-41929
X60937Y-43819
X61605Y-26458
X61605Y-27794
X61605Y-42206
X61605Y-43542
X61882Y-27126
X61882Y-42874
T3
X55800Y-34500
X55800Y-35500
X56500Y-33800
X56500Y-36200
X57500Y-33800
X57500Y-36200
X58200Y-34500
X58200Y-35500
T4
X48000Y-27500
X48000Y-28500
X48000Y-29500
X48000Y-30500
X48000Y-31500
X48000Y-32500
X48000Y-33500
X48000Y-34500
X48000Y-35500
X48000Y-36500
X48000Y-37500
X48000Y-38500
X48000Y-39500
X48000Y-40500
X48000Y-41500
X48000Y-42500
X49000Y-27500
X49000Y-28500
X49000Y-29500
X49000Y-30500
X49000Y-31500
X49000Y-32500
X49000Y-33500
X49000Y-34500
X49000Y-35500
X49000Y-36500
X49000Y-37500
X49000Y-38500
X49000Y-39500
X49000Y-40500
X49000Y-41500
X49000Y-42500
X65000Y-27500
X65000Y-28500
X65000Y-29500
X65000Y-30500
X65000Y-31500
X65000Y-32500
X65000Y-33500
X65000Y-34500
X65000Y-35500
X65000Y-36500
X65000Y-37500
X65000Y-38500
X65000Y-39500
X65000Y-40500
X65000Y-41500
X65000Y-42500
X66000Y-27500
X66000Y-28500
X66000Y-29500
X66000Y-30500
X66000Y-31500
X66000Y-32500
X66000Y-33500
X66000Y-34500
X66000Y-35500
X66000Y-36500
X66000Y-37500
X66000Y-38500
X66000Y-39500
X66000Y-40500
X66000Y-41500
X66000Y-42500
T5
X53063Y-27126
X53063Y-42874
X60937Y-27126
X60937Y-42874
M30
