G04 #@! TF.GenerationSoftware,KiCad,Pcbnew,8.0.6*
G04 #@! TF.CreationDate,2025-01-16T18:06:10-08:00*
G04 #@! TF.ProjectId,levitas_daughterboard,6c657669-7461-4735-9f64-617567687465,rev?*
G04 #@! TF.SameCoordinates,Original*
G04 #@! TF.FileFunction,Copper,L1,Top*
G04 #@! TF.FilePolarity,Positive*
%FSLAX46Y46*%
G04 Gerber Fmt 4.6, Leading zero omitted, Abs format (unit mm)*
G04 Created by KiCad (PCBNEW 8.0.6) date 2025-01-16 18:06:10*
%MOMM*%
%LPD*%
G01*
G04 APERTURE LIST*
G04 Aperture macros list*
%AMFreePoly0*
4,1,19,0.500000,-0.750000,0.000000,-0.750000,0.000000,-0.744911,-0.071157,-0.744911,-0.207708,-0.704816,-0.327430,-0.627875,-0.420627,-0.520320,-0.479746,-0.390866,-0.500000,-0.250000,-0.500000,0.250000,-0.479746,0.390866,-0.420627,0.520320,-0.327430,0.627875,-0.207708,0.704816,-0.071157,0.744911,0.000000,0.744911,0.000000,0.750000,0.500000,0.750000,0.500000,-0.750000,0.500000,-0.750000,
$1*%
%AMFreePoly1*
4,1,19,0.000000,0.744911,0.071157,0.744911,0.207708,0.704816,0.327430,0.627875,0.420627,0.520320,0.479746,0.390866,0.500000,0.250000,0.500000,-0.250000,0.479746,-0.390866,0.420627,-0.520320,0.327430,-0.627875,0.207708,-0.704816,0.071157,-0.744911,0.000000,-0.744911,0.000000,-0.750000,-0.500000,-0.750000,-0.500000,0.750000,0.000000,0.750000,0.000000,0.744911,0.000000,0.744911,
$1*%
G04 Aperture macros list end*
G04 #@! TA.AperFunction,Conductor*
%ADD10C,0.200000*%
G04 #@! TD*
G04 #@! TA.AperFunction,EtchedComponent*
%ADD11C,0.000000*%
G04 #@! TD*
G04 #@! TA.AperFunction,ComponentPad*
%ADD12R,1.700000X1.700000*%
G04 #@! TD*
G04 #@! TA.AperFunction,ComponentPad*
%ADD13O,1.700000X1.700000*%
G04 #@! TD*
G04 #@! TA.AperFunction,ComponentPad*
%ADD14C,0.800000*%
G04 #@! TD*
G04 #@! TA.AperFunction,ComponentPad*
%ADD15C,6.400000*%
G04 #@! TD*
G04 #@! TA.AperFunction,SMDPad,CuDef*
%ADD16FreePoly0,0.000000*%
G04 #@! TD*
G04 #@! TA.AperFunction,SMDPad,CuDef*
%ADD17FreePoly1,0.000000*%
G04 #@! TD*
G04 #@! TA.AperFunction,ComponentPad*
%ADD18C,2.000000*%
G04 #@! TD*
G04 #@! TA.AperFunction,ViaPad*
%ADD19C,0.600000*%
G04 #@! TD*
G04 APERTURE END LIST*
D10*
G04 #@! TO.N,Net-(J8-Pin_1)*
X145288000Y-89712800D02*
X147777200Y-92202000D01*
X147828000Y-92456000D01*
X145542000Y-93472000D01*
X145034000Y-93472000D01*
X145034000Y-89662000D01*
X145288000Y-89712800D01*
G04 #@! TA.AperFunction,Conductor*
G36*
X145288000Y-89712800D02*
G01*
X147777200Y-92202000D01*
X147828000Y-92456000D01*
X145542000Y-93472000D01*
X145034000Y-93472000D01*
X145034000Y-89662000D01*
X145288000Y-89712800D01*
G37*
G04 #@! TD.AperFunction*
G04 #@! TO.N,Net-(J5-Pin_1)*
X144526000Y-93472000D02*
X144018000Y-93472000D01*
X141732000Y-92456000D01*
X141782800Y-92202000D01*
X144272000Y-89712800D01*
X144526000Y-89662000D01*
X144526000Y-93472000D01*
G04 #@! TA.AperFunction,Conductor*
G36*
X144526000Y-93472000D02*
G01*
X144018000Y-93472000D01*
X141732000Y-92456000D01*
X141782800Y-92202000D01*
X144272000Y-89712800D01*
X144526000Y-89662000D01*
X144526000Y-93472000D01*
G37*
G04 #@! TD.AperFunction*
G04 #@! TO.N,Net-(J1-Pin_5)*
X154940000Y-102870000D02*
X149860000Y-106680000D01*
X146050000Y-106680000D01*
X146050000Y-100330000D01*
X154940000Y-100330000D01*
X154940000Y-102870000D01*
G04 #@! TA.AperFunction,Conductor*
G36*
X154940000Y-102870000D02*
G01*
X149860000Y-106680000D01*
X146050000Y-106680000D01*
X146050000Y-100330000D01*
X154940000Y-100330000D01*
X154940000Y-102870000D01*
G37*
G04 #@! TD.AperFunction*
G04 #@! TO.N,Net-(J1-Pin_3)*
X143510000Y-77470000D02*
X134620000Y-77470000D01*
X134620000Y-74930000D01*
X139700000Y-71120000D01*
X143510000Y-71120000D01*
X143510000Y-77470000D01*
G04 #@! TA.AperFunction,Conductor*
G36*
X143510000Y-77470000D02*
G01*
X134620000Y-77470000D01*
X134620000Y-74930000D01*
X139700000Y-71120000D01*
X143510000Y-71120000D01*
X143510000Y-77470000D01*
G37*
G04 #@! TD.AperFunction*
G04 #@! TO.N,Net-(J12-Pin_1)*
X149352000Y-88138000D02*
X149352000Y-88646000D01*
X145542000Y-88646000D01*
X145592800Y-88392000D01*
X148082000Y-85902800D01*
X148336000Y-85852000D01*
X149352000Y-88138000D01*
G04 #@! TA.AperFunction,Conductor*
G36*
X149352000Y-88138000D02*
G01*
X149352000Y-88646000D01*
X145542000Y-88646000D01*
X145592800Y-88392000D01*
X148082000Y-85902800D01*
X148336000Y-85852000D01*
X149352000Y-88138000D01*
G37*
G04 #@! TD.AperFunction*
G04 #@! TO.N,Net-(J1-Pin_4)*
X143510000Y-106680000D02*
X139700000Y-106680000D01*
X134620000Y-102870000D01*
X134620000Y-100330000D01*
X143510000Y-100330000D01*
X143510000Y-106680000D01*
G04 #@! TA.AperFunction,Conductor*
G36*
X143510000Y-106680000D02*
G01*
X139700000Y-106680000D01*
X134620000Y-102870000D01*
X134620000Y-100330000D01*
X143510000Y-100330000D01*
X143510000Y-106680000D01*
G37*
G04 #@! TD.AperFunction*
G04 #@! TO.N,GND*
X156210000Y-99060000D02*
X146050000Y-99060000D01*
X146050000Y-95250000D01*
X149860000Y-95250000D01*
X151130000Y-93980000D01*
X151130000Y-90170000D01*
X156210000Y-90170000D01*
X156210000Y-99060000D01*
G04 #@! TA.AperFunction,Conductor*
G36*
X156210000Y-99060000D02*
G01*
X146050000Y-99060000D01*
X146050000Y-95250000D01*
X149860000Y-95250000D01*
X151130000Y-93980000D01*
X151130000Y-90170000D01*
X156210000Y-90170000D01*
X156210000Y-99060000D01*
G37*
G04 #@! TD.AperFunction*
X156210000Y-87630000D02*
X151130000Y-87630000D01*
X151130000Y-83820000D01*
X149860000Y-82550000D01*
X146050000Y-82550000D01*
X146050000Y-78740000D01*
X156210000Y-78740000D01*
X156210000Y-87630000D01*
G04 #@! TA.AperFunction,Conductor*
G36*
X156210000Y-87630000D02*
G01*
X151130000Y-87630000D01*
X151130000Y-83820000D01*
X149860000Y-82550000D01*
X146050000Y-82550000D01*
X146050000Y-78740000D01*
X156210000Y-78740000D01*
X156210000Y-87630000D01*
G37*
G04 #@! TD.AperFunction*
G04 #@! TO.N,Net-(J10-Pin_1)*
X144526000Y-88138000D02*
X144272000Y-88087200D01*
X141782800Y-85598000D01*
X141732000Y-85344000D01*
X144018000Y-84328000D01*
X144526000Y-84328000D01*
X144526000Y-88138000D01*
G04 #@! TA.AperFunction,Conductor*
G36*
X144526000Y-88138000D02*
G01*
X144272000Y-88087200D01*
X141782800Y-85598000D01*
X141732000Y-85344000D01*
X144018000Y-84328000D01*
X144526000Y-84328000D01*
X144526000Y-88138000D01*
G37*
G04 #@! TD.AperFunction*
G04 #@! TO.N,GND*
X143510000Y-82550000D02*
X139700000Y-82550000D01*
X138430000Y-83820000D01*
X138430000Y-87630000D01*
X133350000Y-87630000D01*
X133350000Y-78740000D01*
X143510000Y-78740000D01*
X143510000Y-82550000D01*
G04 #@! TA.AperFunction,Conductor*
G36*
X143510000Y-82550000D02*
G01*
X139700000Y-82550000D01*
X138430000Y-83820000D01*
X138430000Y-87630000D01*
X133350000Y-87630000D01*
X133350000Y-78740000D01*
X143510000Y-78740000D01*
X143510000Y-82550000D01*
G37*
G04 #@! TD.AperFunction*
G04 #@! TO.N,Net-(J9-Pin_1)*
X141478000Y-85902800D02*
X143967200Y-88392000D01*
X144018000Y-88646000D01*
X140208000Y-88646000D01*
X140208000Y-88138000D01*
X141224000Y-85852000D01*
X141478000Y-85902800D01*
G04 #@! TA.AperFunction,Conductor*
G36*
X141478000Y-85902800D02*
G01*
X143967200Y-88392000D01*
X144018000Y-88646000D01*
X140208000Y-88646000D01*
X140208000Y-88138000D01*
X141224000Y-85852000D01*
X141478000Y-85902800D01*
G37*
G04 #@! TD.AperFunction*
G04 #@! TO.N,Net-(J7-Pin_1)*
X149352000Y-89662000D02*
X148336000Y-91948000D01*
X148082000Y-91897200D01*
X145592800Y-89408000D01*
X145542000Y-89154000D01*
X149352000Y-89154000D01*
X149352000Y-89662000D01*
G04 #@! TA.AperFunction,Conductor*
G36*
X149352000Y-89662000D02*
G01*
X148336000Y-91948000D01*
X148082000Y-91897200D01*
X145592800Y-89408000D01*
X145542000Y-89154000D01*
X149352000Y-89154000D01*
X149352000Y-89662000D01*
G37*
G04 #@! TD.AperFunction*
G04 #@! TO.N,Net-(J6-Pin_1)*
X143967200Y-89408000D02*
X141478000Y-91897200D01*
X141224000Y-91948000D01*
X140208000Y-89662000D01*
X140208000Y-89154000D01*
X144018000Y-89154000D01*
X143967200Y-89408000D01*
G04 #@! TA.AperFunction,Conductor*
G36*
X143967200Y-89408000D02*
G01*
X141478000Y-91897200D01*
X141224000Y-91948000D01*
X140208000Y-89662000D01*
X140208000Y-89154000D01*
X144018000Y-89154000D01*
X143967200Y-89408000D01*
G37*
G04 #@! TD.AperFunction*
G04 #@! TO.N,Net-(J1-Pin_2)*
X154940000Y-74930000D02*
X154940000Y-77470000D01*
X146050000Y-77470000D01*
X146050000Y-71120000D01*
X149860000Y-71120000D01*
X154940000Y-74930000D01*
G04 #@! TA.AperFunction,Conductor*
G36*
X154940000Y-74930000D02*
G01*
X154940000Y-77470000D01*
X146050000Y-77470000D01*
X146050000Y-71120000D01*
X149860000Y-71120000D01*
X154940000Y-74930000D01*
G37*
G04 #@! TD.AperFunction*
G04 #@! TO.N,Net-(J11-Pin_1)*
X147828000Y-85344000D02*
X147777200Y-85598000D01*
X145288000Y-88087200D01*
X145034000Y-88138000D01*
X145034000Y-84328000D01*
X145542000Y-84328000D01*
X147828000Y-85344000D01*
G04 #@! TA.AperFunction,Conductor*
G36*
X147828000Y-85344000D02*
G01*
X147777200Y-85598000D01*
X145288000Y-88087200D01*
X145034000Y-88138000D01*
X145034000Y-84328000D01*
X145542000Y-84328000D01*
X147828000Y-85344000D01*
G37*
G04 #@! TD.AperFunction*
G04 #@! TO.N,GND*
X138430000Y-93980000D02*
X139700000Y-95250000D01*
X143510000Y-95250000D01*
X143510000Y-99060000D01*
X133350000Y-99060000D01*
X133350000Y-90170000D01*
X138430000Y-90170000D01*
X138430000Y-93980000D01*
G04 #@! TA.AperFunction,Conductor*
G36*
X138430000Y-93980000D02*
G01*
X139700000Y-95250000D01*
X143510000Y-95250000D01*
X143510000Y-99060000D01*
X133350000Y-99060000D01*
X133350000Y-90170000D01*
X138430000Y-90170000D01*
X138430000Y-93980000D01*
G37*
G04 #@! TD.AperFunction*
D11*
G04 #@! TA.AperFunction,EtchedComponent*
G04 #@! TD*
G04 #@! TO.C,REF\u002A\u002A*
G36*
X157110000Y-89200000D02*
G01*
X156610000Y-89200000D01*
X156610000Y-88600000D01*
X157110000Y-88600000D01*
X157110000Y-89200000D01*
G37*
G04 #@! TD.AperFunction*
D12*
G04 #@! TO.P,J3,1,Pin_1*
G04 #@! TO.N,GND*
X124460000Y-69850000D03*
D13*
G04 #@! TO.P,J3,2,Pin_2*
G04 #@! TO.N,Net-(J1-Pin_2)*
X124460000Y-72390000D03*
G04 #@! TO.P,J3,3,Pin_3*
G04 #@! TO.N,Net-(J1-Pin_3)*
X124460000Y-74930000D03*
G04 #@! TO.P,J3,4,Pin_4*
G04 #@! TO.N,Net-(J1-Pin_4)*
X124460000Y-77470000D03*
G04 #@! TO.P,J3,5,Pin_5*
G04 #@! TO.N,Net-(J1-Pin_5)*
X124460000Y-80010000D03*
G04 #@! TO.P,J3,6,Pin_6*
G04 #@! TO.N,+250V*
X124460000Y-82550000D03*
G04 #@! TO.P,J3,7,Pin_7*
G04 #@! TO.N,+3.3V*
X124460000Y-85090000D03*
G04 #@! TO.P,J3,8,Pin_8*
G04 #@! TO.N,GND*
X124460000Y-87630000D03*
G04 #@! TO.P,J3,9,Pin_9*
G04 #@! TO.N,SCL4*
X124460000Y-90170000D03*
G04 #@! TO.P,J3,10,Pin_10*
G04 #@! TO.N,SDA4*
X124460000Y-92710000D03*
G04 #@! TO.P,J3,11,Pin_11*
G04 #@! TO.N,SCL3*
X124460000Y-95250000D03*
G04 #@! TO.P,J3,12,Pin_12*
G04 #@! TO.N,SDA3*
X124460000Y-97790000D03*
G04 #@! TO.P,J3,13,Pin_13*
G04 #@! TO.N,SCL2*
X124460000Y-100330000D03*
G04 #@! TO.P,J3,14,Pin_14*
G04 #@! TO.N,SDA2*
X124460000Y-102870000D03*
G04 #@! TO.P,J3,15,Pin_15*
G04 #@! TO.N,SCL1*
X124460000Y-105410000D03*
G04 #@! TO.P,J3,16,Pin_16*
G04 #@! TO.N,SDA1*
X124460000Y-107950000D03*
G04 #@! TD*
D12*
G04 #@! TO.P,J2,1,Pin_1*
G04 #@! TO.N,Net-(J2-Pin_1)*
X165100000Y-69850000D03*
D13*
G04 #@! TO.P,J2,2,Pin_2*
G04 #@! TO.N,Net-(J2-Pin_2)*
X165100000Y-72390000D03*
G04 #@! TO.P,J2,3,Pin_3*
G04 #@! TO.N,Net-(J2-Pin_3)*
X165100000Y-74930000D03*
G04 #@! TO.P,J2,4,Pin_4*
G04 #@! TO.N,Net-(J2-Pin_4)*
X165100000Y-77470000D03*
G04 #@! TO.P,J2,5,Pin_5*
G04 #@! TO.N,Net-(J2-Pin_5)*
X165100000Y-80010000D03*
G04 #@! TO.P,J2,6,Pin_6*
G04 #@! TO.N,Net-(J2-Pin_6)*
X165100000Y-82550000D03*
G04 #@! TO.P,J2,7,Pin_7*
G04 #@! TO.N,Net-(J2-Pin_7)*
X165100000Y-85090000D03*
G04 #@! TO.P,J2,8,Pin_8*
G04 #@! TO.N,Net-(J2-Pin_8)*
X165100000Y-87630000D03*
G04 #@! TO.P,J2,9,Pin_9*
G04 #@! TO.N,Net-(J2-Pin_9)*
X165100000Y-90170000D03*
G04 #@! TO.P,J2,10,Pin_10*
G04 #@! TO.N,Net-(J2-Pin_10)*
X165100000Y-92710000D03*
G04 #@! TO.P,J2,11,Pin_11*
G04 #@! TO.N,Net-(J2-Pin_11)*
X165100000Y-95250000D03*
G04 #@! TO.P,J2,12,Pin_12*
G04 #@! TO.N,Net-(J2-Pin_12)*
X165100000Y-97790000D03*
G04 #@! TO.P,J2,13,Pin_13*
G04 #@! TO.N,Net-(J2-Pin_13)*
X165100000Y-100330000D03*
G04 #@! TO.P,J2,14,Pin_14*
G04 #@! TO.N,Net-(J2-Pin_14)*
X165100000Y-102870000D03*
G04 #@! TO.P,J2,15,Pin_15*
G04 #@! TO.N,Net-(J2-Pin_15)*
X165100000Y-105410000D03*
G04 #@! TO.P,J2,16,Pin_16*
G04 #@! TO.N,Net-(J2-Pin_16)*
X165100000Y-107950000D03*
G04 #@! TD*
D14*
G04 #@! TO.P,REF\u002A\u002A,1*
G04 #@! TO.N,N/C*
X132380000Y-108900000D03*
X133082944Y-107202944D03*
X133082944Y-110597056D03*
X134780000Y-106500000D03*
D15*
X134780000Y-108900000D03*
D14*
X134780000Y-111300000D03*
X136477056Y-107202944D03*
X136477056Y-110597056D03*
X137180000Y-108900000D03*
G04 #@! TD*
G04 #@! TO.P,REF\u002A\u002A,1*
G04 #@! TO.N,N/C*
X152380000Y-108900000D03*
X153082944Y-107202944D03*
X153082944Y-110597056D03*
X154780000Y-106500000D03*
D15*
X154780000Y-108900000D03*
D14*
X154780000Y-111300000D03*
X156477056Y-107202944D03*
X156477056Y-110597056D03*
X157180000Y-108900000D03*
G04 #@! TD*
G04 #@! TO.P,REF\u002A\u002A,1*
G04 #@! TO.N,N/C*
X152380000Y-68900000D03*
X153082944Y-67202944D03*
X153082944Y-70597056D03*
X154780000Y-66500000D03*
D15*
X154780000Y-68900000D03*
D14*
X154780000Y-71300000D03*
X156477056Y-67202944D03*
X156477056Y-70597056D03*
X157180000Y-68900000D03*
G04 #@! TD*
G04 #@! TO.P,REF\u002A\u002A,1*
G04 #@! TO.N,N/C*
X132380000Y-68900000D03*
X133082944Y-67202944D03*
X133082944Y-70597056D03*
X134780000Y-66500000D03*
D15*
X134780000Y-68900000D03*
D14*
X134780000Y-71300000D03*
X136477056Y-67202944D03*
X136477056Y-70597056D03*
X137180000Y-68900000D03*
G04 #@! TD*
D16*
G04 #@! TO.P,REF\u002A\u002A,1*
G04 #@! TO.N,GND*
X156210000Y-88900000D03*
D17*
G04 #@! TO.P,REF\u002A\u002A,2*
X157510000Y-88900000D03*
G04 #@! TD*
D18*
G04 #@! TO.P,J6,1,Pin_1*
G04 #@! TO.N,Net-(J6-Pin_1)*
X141732000Y-90170000D03*
G04 #@! TD*
D12*
G04 #@! TO.P,J4,1,Pin_1*
G04 #@! TO.N,Net-(J2-Pin_1)*
X167640000Y-69850000D03*
D13*
G04 #@! TO.P,J4,2,Pin_2*
G04 #@! TO.N,Net-(J2-Pin_2)*
X167640000Y-72390000D03*
G04 #@! TO.P,J4,3,Pin_3*
G04 #@! TO.N,Net-(J2-Pin_3)*
X167640000Y-74930000D03*
G04 #@! TO.P,J4,4,Pin_4*
G04 #@! TO.N,Net-(J2-Pin_4)*
X167640000Y-77470000D03*
G04 #@! TO.P,J4,5,Pin_5*
G04 #@! TO.N,Net-(J2-Pin_5)*
X167640000Y-80010000D03*
G04 #@! TO.P,J4,6,Pin_6*
G04 #@! TO.N,Net-(J2-Pin_6)*
X167640000Y-82550000D03*
G04 #@! TO.P,J4,7,Pin_7*
G04 #@! TO.N,Net-(J2-Pin_7)*
X167640000Y-85090000D03*
G04 #@! TO.P,J4,8,Pin_8*
G04 #@! TO.N,Net-(J2-Pin_8)*
X167640000Y-87630000D03*
G04 #@! TO.P,J4,9,Pin_9*
G04 #@! TO.N,Net-(J2-Pin_9)*
X167640000Y-90170000D03*
G04 #@! TO.P,J4,10,Pin_10*
G04 #@! TO.N,Net-(J2-Pin_10)*
X167640000Y-92710000D03*
G04 #@! TO.P,J4,11,Pin_11*
G04 #@! TO.N,Net-(J2-Pin_11)*
X167640000Y-95250000D03*
G04 #@! TO.P,J4,12,Pin_12*
G04 #@! TO.N,Net-(J2-Pin_12)*
X167640000Y-97790000D03*
G04 #@! TO.P,J4,13,Pin_13*
G04 #@! TO.N,Net-(J2-Pin_13)*
X167640000Y-100330000D03*
G04 #@! TO.P,J4,14,Pin_14*
G04 #@! TO.N,Net-(J2-Pin_14)*
X167640000Y-102870000D03*
G04 #@! TO.P,J4,15,Pin_15*
G04 #@! TO.N,Net-(J2-Pin_15)*
X167640000Y-105410000D03*
G04 #@! TO.P,J4,16,Pin_16*
G04 #@! TO.N,Net-(J2-Pin_16)*
X167640000Y-107950000D03*
G04 #@! TD*
D18*
G04 #@! TO.P,J5,1,Pin_1*
G04 #@! TO.N,Net-(J5-Pin_1)*
X143510000Y-91948000D03*
G04 #@! TD*
D12*
G04 #@! TO.P,J1,1,Pin_1*
G04 #@! TO.N,GND*
X121920000Y-69850000D03*
D13*
G04 #@! TO.P,J1,2,Pin_2*
G04 #@! TO.N,Net-(J1-Pin_2)*
X121920000Y-72390000D03*
G04 #@! TO.P,J1,3,Pin_3*
G04 #@! TO.N,Net-(J1-Pin_3)*
X121920000Y-74930000D03*
G04 #@! TO.P,J1,4,Pin_4*
G04 #@! TO.N,Net-(J1-Pin_4)*
X121920000Y-77470000D03*
G04 #@! TO.P,J1,5,Pin_5*
G04 #@! TO.N,Net-(J1-Pin_5)*
X121920000Y-80010000D03*
G04 #@! TO.P,J1,6,Pin_6*
G04 #@! TO.N,+250V*
X121920000Y-82550000D03*
G04 #@! TO.P,J1,7,Pin_7*
G04 #@! TO.N,+3.3V*
X121920000Y-85090000D03*
G04 #@! TO.P,J1,8,Pin_8*
G04 #@! TO.N,GND*
X121920000Y-87630000D03*
G04 #@! TO.P,J1,9,Pin_9*
G04 #@! TO.N,SCL4*
X121920000Y-90170000D03*
G04 #@! TO.P,J1,10,Pin_10*
G04 #@! TO.N,SDA4*
X121920000Y-92710000D03*
G04 #@! TO.P,J1,11,Pin_11*
G04 #@! TO.N,SCL3*
X121920000Y-95250000D03*
G04 #@! TO.P,J1,12,Pin_12*
G04 #@! TO.N,SDA3*
X121920000Y-97790000D03*
G04 #@! TO.P,J1,13,Pin_13*
G04 #@! TO.N,SCL2*
X121920000Y-100330000D03*
G04 #@! TO.P,J1,14,Pin_14*
G04 #@! TO.N,SDA2*
X121920000Y-102870000D03*
G04 #@! TO.P,J1,15,Pin_15*
G04 #@! TO.N,SCL1*
X121920000Y-105410000D03*
G04 #@! TO.P,J1,16,Pin_16*
G04 #@! TO.N,SDA1*
X121920000Y-107950000D03*
G04 #@! TD*
D18*
G04 #@! TO.P,J9,1,Pin_1*
G04 #@! TO.N,Net-(J9-Pin_1)*
X141732000Y-87630000D03*
G04 #@! TD*
G04 #@! TO.P,J7,1,Pin_1*
G04 #@! TO.N,Net-(J7-Pin_1)*
X147828000Y-90170000D03*
G04 #@! TD*
G04 #@! TO.P,J8,1,Pin_1*
G04 #@! TO.N,Net-(J8-Pin_1)*
X146050000Y-91948000D03*
G04 #@! TD*
G04 #@! TO.P,J12,1,Pin_1*
G04 #@! TO.N,Net-(J12-Pin_1)*
X147828000Y-87630000D03*
G04 #@! TD*
G04 #@! TO.P,J11,1,Pin_1*
G04 #@! TO.N,Net-(J11-Pin_1)*
X146050000Y-85852000D03*
G04 #@! TD*
G04 #@! TO.P,J10,1,Pin_1*
G04 #@! TO.N,Net-(J10-Pin_1)*
X143510000Y-85852000D03*
G04 #@! TD*
D19*
G04 #@! TO.N,GND*
X158750000Y-93268800D03*
X129540000Y-88900000D03*
X144907000Y-75412600D03*
X142875000Y-109855000D03*
X145389600Y-70688200D03*
X147269200Y-67614800D03*
G04 #@! TO.N,+3.3V*
X126365000Y-83820000D03*
X148031200Y-108229400D03*
X128524000Y-100584000D03*
X158445200Y-103835200D03*
X140589000Y-108585000D03*
X144754600Y-74091800D03*
X144830800Y-108585000D03*
X156641800Y-102311200D03*
X144729200Y-71755000D03*
X130048000Y-102108000D03*
X128778000Y-84302600D03*
G04 #@! TD*
D10*
G04 #@! TO.N,SDA4*
X124460000Y-92710000D02*
X121920000Y-92710000D01*
G04 #@! TO.N,SCL1*
X121920000Y-105410000D02*
X124460000Y-105410000D01*
G04 #@! TO.N,Net-(J1-Pin_3)*
X129540000Y-76200000D02*
X139065000Y-76200000D01*
X121920000Y-74930000D02*
X124460000Y-74930000D01*
X128270000Y-74930000D02*
X129540000Y-76200000D01*
X124460000Y-74930000D02*
X128270000Y-74930000D01*
G04 #@! TO.N,SCL4*
X121920000Y-90170000D02*
X124460000Y-90170000D01*
G04 #@! TO.N,SDA2*
X124460000Y-102870000D02*
X121920000Y-102870000D01*
G04 #@! TO.N,SCL2*
X121920000Y-100330000D02*
X124460000Y-100330000D01*
G04 #@! TO.N,Net-(J1-Pin_4)*
X124460000Y-77470000D02*
X121920000Y-77470000D01*
X132080000Y-100330000D02*
X133350000Y-101600000D01*
X132080000Y-82550000D02*
X132080000Y-100330000D01*
X124460000Y-77470000D02*
X127000000Y-77470000D01*
X127000000Y-77470000D02*
X132080000Y-82550000D01*
X133350000Y-101600000D02*
X139065000Y-101600000D01*
G04 #@! TO.N,GND*
X120396000Y-108966000D02*
X120396000Y-87630000D01*
X159400000Y-85710000D02*
X160020000Y-85090000D01*
X157510000Y-88900000D02*
X159400000Y-88900000D01*
X153670000Y-85725000D02*
X147955000Y-80010000D01*
X158851600Y-94234000D02*
X159969200Y-94234000D01*
X159400000Y-88900000D02*
X159400000Y-85710000D01*
X147269200Y-67614800D02*
X148183600Y-67614800D01*
X147955000Y-97790000D02*
X152082500Y-93662500D01*
X127508000Y-88900000D02*
X126238000Y-87630000D01*
X139700000Y-113030000D02*
X124460000Y-113030000D01*
X135890000Y-85725000D02*
X135890000Y-92075000D01*
X158110000Y-112400000D02*
X145420000Y-112400000D01*
X145420000Y-112400000D02*
X142875000Y-109855000D01*
X147955000Y-80010000D02*
X141605000Y-80010000D01*
X158750000Y-93268800D02*
X158750000Y-94132400D01*
X159400000Y-92090000D02*
X160020000Y-92710000D01*
X142875000Y-109855000D02*
X139700000Y-113030000D01*
X145389600Y-74930000D02*
X145389600Y-70688200D01*
X129540000Y-88900000D02*
X127508000Y-88900000D01*
X120396000Y-87630000D02*
X121920000Y-87630000D01*
X144907000Y-75412600D02*
X145389600Y-74930000D01*
X138430000Y-94615000D02*
X138430000Y-95250000D01*
X160020000Y-94284800D02*
X160020000Y-110490000D01*
X124460000Y-87630000D02*
X121920000Y-87630000D01*
X158750000Y-94132400D02*
X158851600Y-94234000D01*
X159969200Y-94234000D02*
X160020000Y-94284800D01*
X160020000Y-92710000D02*
X160020000Y-94284800D01*
X153670000Y-92075000D02*
X151130000Y-94615000D01*
X138430000Y-95250000D02*
X140970000Y-97790000D01*
X151130000Y-83185000D02*
X147955000Y-80010000D01*
X140970000Y-97790000D02*
X147955000Y-97790000D01*
X153670000Y-88773000D02*
X153670000Y-85725000D01*
X124460000Y-113030000D02*
X120396000Y-108966000D01*
X148183600Y-67614800D02*
X148234400Y-67564000D01*
X129540000Y-93345000D02*
X129540000Y-93980000D01*
X126238000Y-87630000D02*
X124460000Y-87630000D01*
X159400000Y-88900000D02*
X159400000Y-92090000D01*
X141605000Y-80010000D02*
X135890000Y-85725000D01*
X129540000Y-93980000D02*
X129540000Y-94615000D01*
X156210000Y-88900000D02*
X153670000Y-88900000D01*
X121920000Y-69850000D02*
X124460000Y-69850000D01*
X153670000Y-88773000D02*
X153670000Y-92075000D01*
X160020000Y-110490000D02*
X158110000Y-112400000D01*
X135890000Y-92075000D02*
X138430000Y-94615000D01*
X153670000Y-88900000D02*
X153670000Y-88773000D01*
G04 #@! TO.N,Net-(J1-Pin_5)*
X127000000Y-80010000D02*
X124460000Y-80010000D01*
X130810000Y-83820000D02*
X130810000Y-100330000D01*
X146050000Y-107950000D02*
X150495000Y-103505000D01*
X121920000Y-80010000D02*
X124460000Y-80010000D01*
X130810000Y-83820000D02*
X127000000Y-80010000D01*
X135890000Y-105410000D02*
X136735734Y-105410000D01*
X130810000Y-100330000D02*
X135890000Y-105410000D01*
X136735734Y-105410000D02*
X139275734Y-107950000D01*
X139275734Y-107950000D02*
X146050000Y-107950000D01*
G04 #@! TO.N,SCL3*
X121920000Y-95250000D02*
X124460000Y-95250000D01*
G04 #@! TO.N,+250V*
X124460000Y-82550000D02*
X121920000Y-82550000D01*
G04 #@! TO.N,Net-(J1-Pin_2)*
X124460000Y-72390000D02*
X121920000Y-72390000D01*
X139275734Y-69850000D02*
X135465734Y-73660000D01*
X135465734Y-73660000D02*
X125730000Y-73660000D01*
X125730000Y-73660000D02*
X124460000Y-72390000D01*
X146685000Y-69850000D02*
X139275734Y-69850000D01*
X151130000Y-74295000D02*
X146685000Y-69850000D01*
G04 #@! TO.N,SDA3*
X124460000Y-97790000D02*
X121920000Y-97790000D01*
G04 #@! TO.N,SDA1*
X124460000Y-107950000D02*
X121920000Y-107950000D01*
G04 #@! TO.N,+3.3V*
X148031200Y-108229400D02*
X147701000Y-108229400D01*
X121920000Y-85090000D02*
X124460000Y-85090000D01*
X144754600Y-74091800D02*
X144754600Y-71780400D01*
X128524000Y-100584000D02*
X130048000Y-102108000D01*
X158445200Y-103835200D02*
X158369000Y-103759000D01*
X144754600Y-71780400D02*
X144729200Y-71755000D01*
X158089600Y-103759000D02*
X156641800Y-102311200D01*
X147345400Y-108585000D02*
X144830800Y-108585000D01*
X128778000Y-84302600D02*
X126847600Y-84302600D01*
X158369000Y-103759000D02*
X158089600Y-103759000D01*
X126847600Y-84302600D02*
X126365000Y-83820000D01*
X147701000Y-108229400D02*
X147345400Y-108585000D01*
X144830800Y-108585000D02*
X140589000Y-108585000D01*
G04 #@! TO.N,Net-(J2-Pin_3)*
X165100000Y-74930000D02*
X167640000Y-74930000D01*
G04 #@! TO.N,Net-(J2-Pin_1)*
X165100000Y-69850000D02*
X167640000Y-69850000D01*
G04 #@! TO.N,Net-(J2-Pin_10)*
X167640000Y-92710000D02*
X165100000Y-92710000D01*
G04 #@! TO.N,Net-(J2-Pin_9)*
X165100000Y-90170000D02*
X167640000Y-90170000D01*
G04 #@! TO.N,Net-(J2-Pin_2)*
X167640000Y-72390000D02*
X165100000Y-72390000D01*
G04 #@! TO.N,Net-(J2-Pin_6)*
X167640000Y-82550000D02*
X165100000Y-82550000D01*
G04 #@! TO.N,Net-(J2-Pin_5)*
X165100000Y-80010000D02*
X167640000Y-80010000D01*
G04 #@! TO.N,Net-(J2-Pin_16)*
X167640000Y-107950000D02*
X165100000Y-107950000D01*
G04 #@! TO.N,Net-(J2-Pin_8)*
X167640000Y-87630000D02*
X165100000Y-87630000D01*
G04 #@! TO.N,Net-(J2-Pin_7)*
X165100000Y-85090000D02*
X167640000Y-85090000D01*
G04 #@! TO.N,Net-(J2-Pin_11)*
X165100000Y-95250000D02*
X167640000Y-95250000D01*
G04 #@! TO.N,Net-(J2-Pin_13)*
X165100000Y-100330000D02*
X167640000Y-100330000D01*
G04 #@! TO.N,Net-(J2-Pin_14)*
X167640000Y-102870000D02*
X165100000Y-102870000D01*
G04 #@! TO.N,Net-(J2-Pin_4)*
X167640000Y-77470000D02*
X165100000Y-77470000D01*
G04 #@! TO.N,Net-(J2-Pin_12)*
X167640000Y-97790000D02*
X165100000Y-97790000D01*
G04 #@! TO.N,Net-(J2-Pin_15)*
X165100000Y-105410000D02*
X167640000Y-105410000D01*
G04 #@! TD*
G04 #@! TA.AperFunction,Conductor*
G04 #@! TO.N,GND*
G36*
X165115677Y-64154685D02*
G01*
X165136319Y-64171319D01*
X169508681Y-68543681D01*
X169542166Y-68605004D01*
X169545000Y-68631362D01*
X169545000Y-86236000D01*
X169525315Y-86303039D01*
X169472511Y-86348794D01*
X169421000Y-86360000D01*
X168574056Y-86360000D01*
X168507017Y-86340315D01*
X168461262Y-86287511D01*
X168451318Y-86218353D01*
X168480343Y-86154797D01*
X168502931Y-86134426D01*
X168504429Y-86133376D01*
X168511401Y-86128495D01*
X168678495Y-85961401D01*
X168814035Y-85767830D01*
X168913903Y-85553663D01*
X168975063Y-85325408D01*
X168995659Y-85090000D01*
X168975063Y-84854592D01*
X168913903Y-84626337D01*
X168814035Y-84412171D01*
X168751081Y-84322262D01*
X168678494Y-84218597D01*
X168511402Y-84051506D01*
X168511396Y-84051501D01*
X168325842Y-83921575D01*
X168282217Y-83866998D01*
X168275023Y-83797500D01*
X168306546Y-83735145D01*
X168325842Y-83718425D01*
X168377269Y-83682415D01*
X168511401Y-83588495D01*
X168678495Y-83421401D01*
X168814035Y-83227830D01*
X168913903Y-83013663D01*
X168975063Y-82785408D01*
X168995659Y-82550000D01*
X168975063Y-82314592D01*
X168913903Y-82086337D01*
X168814035Y-81872171D01*
X168678495Y-81678599D01*
X168678494Y-81678597D01*
X168511402Y-81511506D01*
X168511396Y-81511501D01*
X168325842Y-81381575D01*
X168282217Y-81326998D01*
X168275023Y-81257500D01*
X168306546Y-81195145D01*
X168325842Y-81178425D01*
X168348026Y-81162891D01*
X168511401Y-81048495D01*
X168678495Y-80881401D01*
X168814035Y-80687830D01*
X168913903Y-80473663D01*
X168975063Y-80245408D01*
X168995659Y-80010000D01*
X168975063Y-79774592D01*
X168913903Y-79546337D01*
X168814035Y-79332171D01*
X168814034Y-79332169D01*
X168678494Y-79138597D01*
X168511402Y-78971506D01*
X168511396Y-78971501D01*
X168325842Y-78841575D01*
X168282217Y-78786998D01*
X168275023Y-78717500D01*
X168306546Y-78655145D01*
X168325842Y-78638425D01*
X168348026Y-78622891D01*
X168511401Y-78508495D01*
X168678495Y-78341401D01*
X168814035Y-78147830D01*
X168913903Y-77933663D01*
X168975063Y-77705408D01*
X168995659Y-77470000D01*
X168975063Y-77234592D01*
X168913903Y-77006337D01*
X168814035Y-76792171D01*
X168814034Y-76792169D01*
X168678494Y-76598597D01*
X168511402Y-76431506D01*
X168511396Y-76431501D01*
X168325842Y-76301575D01*
X168282217Y-76246998D01*
X168275023Y-76177500D01*
X168306546Y-76115145D01*
X168325842Y-76098425D01*
X168348026Y-76082891D01*
X168511401Y-75968495D01*
X168678495Y-75801401D01*
X168814035Y-75607830D01*
X168913903Y-75393663D01*
X168975063Y-75165408D01*
X168995659Y-74930000D01*
X168975063Y-74694592D01*
X168913903Y-74466337D01*
X168814035Y-74252171D01*
X168678495Y-74058599D01*
X168678494Y-74058597D01*
X168511402Y-73891506D01*
X168511396Y-73891501D01*
X168325842Y-73761575D01*
X168282217Y-73706998D01*
X168275023Y-73637500D01*
X168306546Y-73575145D01*
X168325842Y-73558425D01*
X168348026Y-73542891D01*
X168511401Y-73428495D01*
X168678495Y-73261401D01*
X168814035Y-73067830D01*
X168913903Y-72853663D01*
X168975063Y-72625408D01*
X168995659Y-72390000D01*
X168975063Y-72154592D01*
X168913903Y-71926337D01*
X168814035Y-71712171D01*
X168773152Y-71653784D01*
X168678496Y-71518600D01*
X168678495Y-71518599D01*
X168556567Y-71396671D01*
X168523084Y-71335351D01*
X168528068Y-71265659D01*
X168569939Y-71209725D01*
X168600915Y-71192810D01*
X168732331Y-71143796D01*
X168847546Y-71057546D01*
X168933796Y-70942331D01*
X168984091Y-70807483D01*
X168990500Y-70747873D01*
X168990499Y-68952128D01*
X168984091Y-68892517D01*
X168982150Y-68887314D01*
X168933797Y-68757671D01*
X168933793Y-68757664D01*
X168847547Y-68642455D01*
X168847544Y-68642452D01*
X168732335Y-68556206D01*
X168732328Y-68556202D01*
X168597482Y-68505908D01*
X168597483Y-68505908D01*
X168537883Y-68499501D01*
X168537881Y-68499500D01*
X168537873Y-68499500D01*
X168537864Y-68499500D01*
X166742129Y-68499500D01*
X166742123Y-68499501D01*
X166682516Y-68505908D01*
X166547671Y-68556202D01*
X166547669Y-68556203D01*
X166444311Y-68633578D01*
X166378847Y-68657995D01*
X166310574Y-68643144D01*
X166295689Y-68633578D01*
X166192330Y-68556203D01*
X166192328Y-68556202D01*
X166057482Y-68505908D01*
X166057483Y-68505908D01*
X165997883Y-68499501D01*
X165997881Y-68499500D01*
X165997873Y-68499500D01*
X165997864Y-68499500D01*
X164202129Y-68499500D01*
X164202123Y-68499501D01*
X164142516Y-68505908D01*
X164007671Y-68556202D01*
X164007664Y-68556206D01*
X163892455Y-68642452D01*
X163892452Y-68642455D01*
X163806206Y-68757664D01*
X163806202Y-68757671D01*
X163755908Y-68892517D01*
X163755104Y-68900000D01*
X163749501Y-68952123D01*
X163749500Y-68952135D01*
X163749500Y-70747870D01*
X163749501Y-70747876D01*
X163755908Y-70807483D01*
X163806202Y-70942328D01*
X163806206Y-70942335D01*
X163892452Y-71057544D01*
X163892455Y-71057547D01*
X164007664Y-71143793D01*
X164007671Y-71143797D01*
X164139081Y-71192810D01*
X164195015Y-71234681D01*
X164219432Y-71300145D01*
X164204580Y-71368418D01*
X164183430Y-71396673D01*
X164061503Y-71518600D01*
X163925965Y-71712169D01*
X163925964Y-71712171D01*
X163826098Y-71926335D01*
X163826094Y-71926344D01*
X163764938Y-72154586D01*
X163764936Y-72154596D01*
X163744341Y-72389999D01*
X163744341Y-72390000D01*
X163764936Y-72625403D01*
X163764938Y-72625413D01*
X163826094Y-72853655D01*
X163826096Y-72853659D01*
X163826097Y-72853663D01*
X163905145Y-73023181D01*
X163925965Y-73067830D01*
X163925967Y-73067834D01*
X164034281Y-73222521D01*
X164061501Y-73261396D01*
X164061506Y-73261402D01*
X164228597Y-73428493D01*
X164228603Y-73428498D01*
X164414158Y-73558425D01*
X164457783Y-73613002D01*
X164464977Y-73682500D01*
X164433454Y-73744855D01*
X164414158Y-73761575D01*
X164228597Y-73891505D01*
X164061505Y-74058597D01*
X163925965Y-74252169D01*
X163925964Y-74252171D01*
X163826098Y-74466335D01*
X163826094Y-74466344D01*
X163764938Y-74694586D01*
X163764936Y-74694596D01*
X163744341Y-74929999D01*
X163744341Y-74930000D01*
X163764936Y-75165403D01*
X163764938Y-75165413D01*
X163826094Y-75393655D01*
X163826096Y-75393659D01*
X163826097Y-75393663D01*
X163895519Y-75542539D01*
X163925965Y-75607830D01*
X163925967Y-75607834D01*
X164034281Y-75762521D01*
X164061501Y-75801396D01*
X164061506Y-75801402D01*
X164228597Y-75968493D01*
X164228603Y-75968498D01*
X164414158Y-76098425D01*
X164457783Y-76153002D01*
X164464977Y-76222500D01*
X164433454Y-76284855D01*
X164414158Y-76301575D01*
X164228597Y-76431505D01*
X164061505Y-76598597D01*
X163925965Y-76792169D01*
X163925964Y-76792171D01*
X163826098Y-77006335D01*
X163826094Y-77006344D01*
X163764938Y-77234586D01*
X163764936Y-77234596D01*
X163744341Y-77469999D01*
X163744341Y-77470000D01*
X163764936Y-77705403D01*
X163764938Y-77705413D01*
X163826094Y-77933655D01*
X163826096Y-77933659D01*
X163826097Y-77933663D01*
X163892237Y-78075500D01*
X163925965Y-78147830D01*
X163925967Y-78147834D01*
X164034281Y-78302521D01*
X164061501Y-78341396D01*
X164061506Y-78341402D01*
X164228597Y-78508493D01*
X164228603Y-78508498D01*
X164414158Y-78638425D01*
X164457783Y-78693002D01*
X164464977Y-78762500D01*
X164433454Y-78824855D01*
X164414158Y-78841575D01*
X164228597Y-78971505D01*
X164061505Y-79138597D01*
X163925965Y-79332169D01*
X163925964Y-79332171D01*
X163826098Y-79546335D01*
X163826094Y-79546344D01*
X163764938Y-79774586D01*
X163764936Y-79774596D01*
X163744341Y-80009999D01*
X163744341Y-80010000D01*
X163764936Y-80245403D01*
X163764938Y-80245413D01*
X163826094Y-80473655D01*
X163826096Y-80473659D01*
X163826097Y-80473663D01*
X163898839Y-80629658D01*
X163925965Y-80687830D01*
X163925967Y-80687834D01*
X164034281Y-80842521D01*
X164061501Y-80881396D01*
X164061506Y-80881402D01*
X164228597Y-81048493D01*
X164228603Y-81048498D01*
X164414158Y-81178425D01*
X164457783Y-81233002D01*
X164464977Y-81302500D01*
X164433454Y-81364855D01*
X164414158Y-81381575D01*
X164228597Y-81511505D01*
X164061505Y-81678597D01*
X163925965Y-81872169D01*
X163925964Y-81872171D01*
X163826098Y-82086335D01*
X163826094Y-82086344D01*
X163764938Y-82314586D01*
X163764936Y-82314596D01*
X163744341Y-82549999D01*
X163744341Y-82550000D01*
X163764936Y-82785403D01*
X163764938Y-82785413D01*
X163826094Y-83013655D01*
X163826096Y-83013659D01*
X163826097Y-83013663D01*
X163906004Y-83185023D01*
X163925965Y-83227830D01*
X163925967Y-83227834D01*
X163988919Y-83317738D01*
X164061501Y-83421396D01*
X164061506Y-83421402D01*
X164228597Y-83588493D01*
X164228603Y-83588498D01*
X164414158Y-83718425D01*
X164457783Y-83773002D01*
X164464977Y-83842500D01*
X164433454Y-83904855D01*
X164414158Y-83921575D01*
X164228597Y-84051505D01*
X164061505Y-84218597D01*
X163925965Y-84412169D01*
X163925964Y-84412171D01*
X163826098Y-84626335D01*
X163826094Y-84626344D01*
X163764938Y-84854586D01*
X163764936Y-84854596D01*
X163744341Y-85089999D01*
X163744341Y-85090000D01*
X163764936Y-85325403D01*
X163764938Y-85325413D01*
X163826094Y-85553655D01*
X163826096Y-85553659D01*
X163826097Y-85553663D01*
X163906004Y-85725023D01*
X163925965Y-85767830D01*
X163925967Y-85767834D01*
X164034281Y-85922521D01*
X164061505Y-85961401D01*
X164228599Y-86128495D01*
X164233923Y-86132223D01*
X164237069Y-86134426D01*
X164280693Y-86189003D01*
X164287885Y-86258502D01*
X164256362Y-86320856D01*
X164196132Y-86356269D01*
X164165944Y-86360000D01*
X157604000Y-86360000D01*
X157536961Y-86340315D01*
X157491206Y-86287511D01*
X157480000Y-86236000D01*
X157480000Y-73659999D01*
X155935002Y-72630000D01*
X155890141Y-72576435D01*
X155881361Y-72507119D01*
X155911450Y-72444060D01*
X155959344Y-72411063D01*
X156287194Y-72285214D01*
X156632789Y-72109125D01*
X156958084Y-71897876D01*
X157259516Y-71653781D01*
X157533781Y-71379516D01*
X157777876Y-71078084D01*
X157989125Y-70752789D01*
X158165214Y-70407194D01*
X158304214Y-70045087D01*
X158404602Y-69670433D01*
X158465278Y-69287338D01*
X158485578Y-68900000D01*
X158465278Y-68512662D01*
X158404602Y-68129567D01*
X158304214Y-67754913D01*
X158165214Y-67392806D01*
X157989125Y-67047211D01*
X157777876Y-66721916D01*
X157533781Y-66420484D01*
X157259516Y-66146219D01*
X156958084Y-65902124D01*
X156958082Y-65902122D01*
X156632793Y-65690877D01*
X156287197Y-65514787D01*
X155925094Y-65375788D01*
X155925087Y-65375786D01*
X155550433Y-65275398D01*
X155550429Y-65275397D01*
X155550428Y-65275397D01*
X155167339Y-65214722D01*
X154780001Y-65194422D01*
X154779999Y-65194422D01*
X154392660Y-65214722D01*
X154009572Y-65275397D01*
X154009570Y-65275397D01*
X153634905Y-65375788D01*
X153272802Y-65514787D01*
X152927206Y-65690877D01*
X152601917Y-65902122D01*
X152300488Y-66146215D01*
X152300480Y-66146222D01*
X152026222Y-66420480D01*
X152026215Y-66420488D01*
X151782122Y-66721917D01*
X151570877Y-67047206D01*
X151394787Y-67392802D01*
X151255788Y-67754905D01*
X151155397Y-68129570D01*
X151155397Y-68129572D01*
X151094722Y-68512660D01*
X151074422Y-68899999D01*
X151074422Y-68900000D01*
X151088082Y-69160648D01*
X151071933Y-69228626D01*
X151021596Y-69277082D01*
X150953053Y-69290631D01*
X150895469Y-69270312D01*
X149860001Y-68580000D01*
X149860000Y-68580000D01*
X139700000Y-68580000D01*
X139699999Y-68580000D01*
X138664530Y-69270312D01*
X138597831Y-69291120D01*
X138530470Y-69272565D01*
X138483834Y-69220537D01*
X138471917Y-69160650D01*
X138485578Y-68900000D01*
X138465278Y-68512662D01*
X138404602Y-68129567D01*
X138304214Y-67754913D01*
X138165214Y-67392806D01*
X137989125Y-67047211D01*
X137777876Y-66721916D01*
X137533781Y-66420484D01*
X137259516Y-66146219D01*
X136958084Y-65902124D01*
X136958082Y-65902122D01*
X136632793Y-65690877D01*
X136287197Y-65514787D01*
X135925094Y-65375788D01*
X135925087Y-65375786D01*
X135550433Y-65275398D01*
X135550429Y-65275397D01*
X135550428Y-65275397D01*
X135167339Y-65214722D01*
X134780001Y-65194422D01*
X134779999Y-65194422D01*
X134392660Y-65214722D01*
X134009572Y-65275397D01*
X134009570Y-65275397D01*
X133634905Y-65375788D01*
X133272802Y-65514787D01*
X132927206Y-65690877D01*
X132601917Y-65902122D01*
X132300488Y-66146215D01*
X132300480Y-66146222D01*
X132026222Y-66420480D01*
X132026215Y-66420488D01*
X131782122Y-66721917D01*
X131570877Y-67047206D01*
X131394787Y-67392802D01*
X131255788Y-67754905D01*
X131155397Y-68129570D01*
X131155397Y-68129572D01*
X131094722Y-68512660D01*
X131074422Y-68899999D01*
X131074422Y-68900000D01*
X131094722Y-69287339D01*
X131155397Y-69670427D01*
X131155397Y-69670429D01*
X131255788Y-70045094D01*
X131394787Y-70407197D01*
X131570877Y-70752793D01*
X131782122Y-71078082D01*
X131923556Y-71252738D01*
X132026219Y-71379516D01*
X132300484Y-71653781D01*
X132300488Y-71653784D01*
X132601917Y-71897877D01*
X132927206Y-72109122D01*
X132927211Y-72109125D01*
X133272806Y-72285214D01*
X133600653Y-72411062D01*
X133656184Y-72453464D01*
X133679977Y-72519158D01*
X133664475Y-72587286D01*
X133624997Y-72630000D01*
X133011989Y-73038674D01*
X132945290Y-73059482D01*
X132943206Y-73059500D01*
X126030097Y-73059500D01*
X125963058Y-73039815D01*
X125942416Y-73023181D01*
X125792766Y-72873531D01*
X125759281Y-72812208D01*
X125760672Y-72753757D01*
X125761863Y-72749309D01*
X125795063Y-72625408D01*
X125815659Y-72390000D01*
X125795063Y-72154592D01*
X125733903Y-71926337D01*
X125634035Y-71712171D01*
X125593152Y-71653784D01*
X125498496Y-71518600D01*
X125498495Y-71518599D01*
X125376179Y-71396283D01*
X125342696Y-71334963D01*
X125347680Y-71265271D01*
X125389551Y-71209337D01*
X125420529Y-71192422D01*
X125552086Y-71143354D01*
X125552093Y-71143350D01*
X125667187Y-71057190D01*
X125667190Y-71057187D01*
X125753350Y-70942093D01*
X125753354Y-70942086D01*
X125803596Y-70807379D01*
X125803598Y-70807372D01*
X125809999Y-70747844D01*
X125810000Y-70747827D01*
X125810000Y-70100000D01*
X124893012Y-70100000D01*
X124925925Y-70042993D01*
X124960000Y-69915826D01*
X124960000Y-69784174D01*
X124925925Y-69657007D01*
X124893012Y-69600000D01*
X125810000Y-69600000D01*
X125810000Y-68952172D01*
X125809999Y-68952155D01*
X125803598Y-68892627D01*
X125803596Y-68892620D01*
X125753354Y-68757913D01*
X125753350Y-68757906D01*
X125667190Y-68642812D01*
X125667187Y-68642809D01*
X125552093Y-68556649D01*
X125552086Y-68556645D01*
X125417379Y-68506403D01*
X125417372Y-68506401D01*
X125357844Y-68500000D01*
X124710000Y-68500000D01*
X124710000Y-69416988D01*
X124652993Y-69384075D01*
X124525826Y-69350000D01*
X124394174Y-69350000D01*
X124267007Y-69384075D01*
X124210000Y-69416988D01*
X124210000Y-68500000D01*
X123562155Y-68500000D01*
X123502627Y-68506401D01*
X123502620Y-68506403D01*
X123367913Y-68556645D01*
X123367911Y-68556647D01*
X123264311Y-68634202D01*
X123198847Y-68658619D01*
X123130574Y-68643768D01*
X123115689Y-68634202D01*
X123012088Y-68556647D01*
X123012086Y-68556645D01*
X122877379Y-68506403D01*
X122877372Y-68506401D01*
X122817844Y-68500000D01*
X122170000Y-68500000D01*
X122170000Y-69416988D01*
X122112993Y-69384075D01*
X121985826Y-69350000D01*
X121854174Y-69350000D01*
X121727007Y-69384075D01*
X121670000Y-69416988D01*
X121670000Y-68500000D01*
X121022155Y-68500000D01*
X120962627Y-68506401D01*
X120962620Y-68506403D01*
X120827913Y-68556645D01*
X120827906Y-68556649D01*
X120712812Y-68642809D01*
X120712809Y-68642812D01*
X120626649Y-68757906D01*
X120626645Y-68757913D01*
X120576403Y-68892620D01*
X120576401Y-68892627D01*
X120570000Y-68952155D01*
X120570000Y-69600000D01*
X121486988Y-69600000D01*
X121454075Y-69657007D01*
X121420000Y-69784174D01*
X121420000Y-69915826D01*
X121454075Y-70042993D01*
X121486988Y-70100000D01*
X120570000Y-70100000D01*
X120570000Y-70747844D01*
X120576401Y-70807372D01*
X120576403Y-70807379D01*
X120626645Y-70942086D01*
X120626649Y-70942093D01*
X120712809Y-71057187D01*
X120712812Y-71057190D01*
X120827906Y-71143350D01*
X120827913Y-71143354D01*
X120959470Y-71192421D01*
X121015403Y-71234292D01*
X121039821Y-71299756D01*
X121024970Y-71368029D01*
X121003819Y-71396284D01*
X120881503Y-71518600D01*
X120745965Y-71712169D01*
X120745964Y-71712171D01*
X120646098Y-71926335D01*
X120646094Y-71926344D01*
X120584938Y-72154586D01*
X120584936Y-72154596D01*
X120564341Y-72389999D01*
X120564341Y-72390000D01*
X120584936Y-72625403D01*
X120584938Y-72625413D01*
X120646094Y-72853655D01*
X120646096Y-72853659D01*
X120646097Y-72853663D01*
X120725145Y-73023181D01*
X120745965Y-73067830D01*
X120745967Y-73067834D01*
X120854281Y-73222521D01*
X120881501Y-73261396D01*
X120881506Y-73261402D01*
X121048597Y-73428493D01*
X121048603Y-73428498D01*
X121234158Y-73558425D01*
X121277783Y-73613002D01*
X121284977Y-73682500D01*
X121253454Y-73744855D01*
X121234158Y-73761575D01*
X121048597Y-73891505D01*
X120881505Y-74058597D01*
X120745965Y-74252169D01*
X120745964Y-74252171D01*
X120646098Y-74466335D01*
X120646094Y-74466344D01*
X120584938Y-74694586D01*
X120584936Y-74694596D01*
X120564341Y-74929999D01*
X120564341Y-74930000D01*
X120584936Y-75165403D01*
X120584938Y-75165413D01*
X120646094Y-75393655D01*
X120646096Y-75393659D01*
X120646097Y-75393663D01*
X120715519Y-75542539D01*
X120745965Y-75607830D01*
X120745967Y-75607834D01*
X120854281Y-75762521D01*
X120881501Y-75801396D01*
X120881506Y-75801402D01*
X121048597Y-75968493D01*
X121048603Y-75968498D01*
X121234158Y-76098425D01*
X121277783Y-76153002D01*
X121284977Y-76222500D01*
X121253454Y-76284855D01*
X121234158Y-76301575D01*
X121048597Y-76431505D01*
X120881505Y-76598597D01*
X120745965Y-76792169D01*
X120745964Y-76792171D01*
X120646098Y-77006335D01*
X120646094Y-77006344D01*
X120584938Y-77234586D01*
X120584936Y-77234596D01*
X120564341Y-77469999D01*
X120564341Y-77470000D01*
X120584936Y-77705403D01*
X120584938Y-77705413D01*
X120646094Y-77933655D01*
X120646096Y-77933659D01*
X120646097Y-77933663D01*
X120712237Y-78075500D01*
X120745965Y-78147830D01*
X120745967Y-78147834D01*
X120854281Y-78302521D01*
X120881501Y-78341396D01*
X120881506Y-78341402D01*
X121048597Y-78508493D01*
X121048603Y-78508498D01*
X121234158Y-78638425D01*
X121277783Y-78693002D01*
X121284977Y-78762500D01*
X121253454Y-78824855D01*
X121234158Y-78841575D01*
X121048597Y-78971505D01*
X120881505Y-79138597D01*
X120745965Y-79332169D01*
X120745964Y-79332171D01*
X120646098Y-79546335D01*
X120646094Y-79546344D01*
X120584938Y-79774586D01*
X120584936Y-79774596D01*
X120564341Y-80009999D01*
X120564341Y-80010000D01*
X120584936Y-80245403D01*
X120584938Y-80245413D01*
X120646094Y-80473655D01*
X120646096Y-80473659D01*
X120646097Y-80473663D01*
X120718839Y-80629658D01*
X120745965Y-80687830D01*
X120745967Y-80687834D01*
X120854281Y-80842521D01*
X120881501Y-80881396D01*
X120881506Y-80881402D01*
X121048597Y-81048493D01*
X121048603Y-81048498D01*
X121234158Y-81178425D01*
X121277783Y-81233002D01*
X121284977Y-81302500D01*
X121253454Y-81364855D01*
X121234158Y-81381575D01*
X121048597Y-81511505D01*
X120881505Y-81678597D01*
X120745965Y-81872169D01*
X120745964Y-81872171D01*
X120646098Y-82086335D01*
X120646094Y-82086344D01*
X120584938Y-82314586D01*
X120584936Y-82314596D01*
X120564341Y-82549999D01*
X120564341Y-82550000D01*
X120584936Y-82785403D01*
X120584938Y-82785413D01*
X120646094Y-83013655D01*
X120646096Y-83013659D01*
X120646097Y-83013663D01*
X120726004Y-83185023D01*
X120745965Y-83227830D01*
X120745967Y-83227834D01*
X120808919Y-83317738D01*
X120881501Y-83421396D01*
X120881506Y-83421402D01*
X121048597Y-83588493D01*
X121048603Y-83588498D01*
X121234158Y-83718425D01*
X121277783Y-83773002D01*
X121284977Y-83842500D01*
X121253454Y-83904855D01*
X121234158Y-83921575D01*
X121048597Y-84051505D01*
X120881505Y-84218597D01*
X120745965Y-84412169D01*
X120745964Y-84412171D01*
X120646098Y-84626335D01*
X120646094Y-84626344D01*
X120584938Y-84854586D01*
X120584936Y-84854596D01*
X120564341Y-85089999D01*
X120564341Y-85090000D01*
X120584936Y-85325403D01*
X120584938Y-85325413D01*
X120646094Y-85553655D01*
X120646096Y-85553659D01*
X120646097Y-85553663D01*
X120726004Y-85725023D01*
X120745965Y-85767830D01*
X120745967Y-85767834D01*
X120854281Y-85922521D01*
X120881505Y-85961401D01*
X121048599Y-86128495D01*
X121176929Y-86218353D01*
X121234594Y-86258730D01*
X121278219Y-86313307D01*
X121285413Y-86382805D01*
X121253890Y-86445160D01*
X121234595Y-86461880D01*
X121048922Y-86591890D01*
X121048920Y-86591891D01*
X120881891Y-86758920D01*
X120881886Y-86758926D01*
X120746400Y-86952420D01*
X120746399Y-86952422D01*
X120646570Y-87166507D01*
X120646567Y-87166513D01*
X120589364Y-87379999D01*
X120589364Y-87380000D01*
X121486988Y-87380000D01*
X121454075Y-87437007D01*
X121420000Y-87564174D01*
X121420000Y-87695826D01*
X121454075Y-87822993D01*
X121486988Y-87880000D01*
X120589364Y-87880000D01*
X120646567Y-88093486D01*
X120646570Y-88093492D01*
X120746399Y-88307578D01*
X120881894Y-88501082D01*
X121048917Y-88668105D01*
X121234595Y-88798119D01*
X121278219Y-88852696D01*
X121285412Y-88922195D01*
X121253890Y-88984549D01*
X121234595Y-89001269D01*
X121048594Y-89131508D01*
X120881505Y-89298597D01*
X120745965Y-89492169D01*
X120745964Y-89492171D01*
X120646098Y-89706335D01*
X120646094Y-89706344D01*
X120584938Y-89934586D01*
X120584936Y-89934596D01*
X120564341Y-90169999D01*
X120564341Y-90170000D01*
X120584936Y-90405403D01*
X120584938Y-90405413D01*
X120646094Y-90633655D01*
X120646096Y-90633659D01*
X120646097Y-90633663D01*
X120726004Y-90805023D01*
X120745965Y-90847830D01*
X120745967Y-90847834D01*
X120854281Y-91002521D01*
X120881501Y-91041396D01*
X120881506Y-91041402D01*
X121048597Y-91208493D01*
X121048603Y-91208498D01*
X121234158Y-91338425D01*
X121277783Y-91393002D01*
X121284977Y-91462500D01*
X121253454Y-91524855D01*
X121234158Y-91541575D01*
X121048597Y-91671505D01*
X120881505Y-91838597D01*
X120745965Y-92032169D01*
X120745964Y-92032171D01*
X120646098Y-92246335D01*
X120646094Y-92246344D01*
X120584938Y-92474586D01*
X120584936Y-92474596D01*
X120564341Y-92709999D01*
X120564341Y-92710000D01*
X120584936Y-92945403D01*
X120584938Y-92945413D01*
X120646094Y-93173655D01*
X120646096Y-93173659D01*
X120646097Y-93173663D01*
X120726004Y-93345023D01*
X120745965Y-93387830D01*
X120745967Y-93387834D01*
X120854281Y-93542521D01*
X120881501Y-93581396D01*
X120881506Y-93581402D01*
X121048597Y-93748493D01*
X121048603Y-93748498D01*
X121234158Y-93878425D01*
X121277783Y-93933002D01*
X121284977Y-94002500D01*
X121253454Y-94064855D01*
X121234158Y-94081575D01*
X121048597Y-94211505D01*
X120881505Y-94378597D01*
X120745965Y-94572169D01*
X120745964Y-94572171D01*
X120646098Y-94786335D01*
X120646094Y-94786344D01*
X120584938Y-95014586D01*
X120584936Y-95014596D01*
X120564341Y-95249999D01*
X120564341Y-95250000D01*
X120584936Y-95485403D01*
X120584938Y-95485413D01*
X120646094Y-95713655D01*
X120646096Y-95713659D01*
X120646097Y-95713663D01*
X120726004Y-95885023D01*
X120745965Y-95927830D01*
X120745967Y-95927834D01*
X120854281Y-96082521D01*
X120881501Y-96121396D01*
X120881506Y-96121402D01*
X121048597Y-96288493D01*
X121048603Y-96288498D01*
X121234158Y-96418425D01*
X121277783Y-96473002D01*
X121284977Y-96542500D01*
X121253454Y-96604855D01*
X121234158Y-96621575D01*
X121048597Y-96751505D01*
X120881505Y-96918597D01*
X120745965Y-97112169D01*
X120745964Y-97112171D01*
X120646098Y-97326335D01*
X120646094Y-97326344D01*
X120584938Y-97554586D01*
X120584936Y-97554596D01*
X120564341Y-97789999D01*
X120564341Y-97790000D01*
X120584936Y-98025403D01*
X120584938Y-98025413D01*
X120646094Y-98253655D01*
X120646096Y-98253659D01*
X120646097Y-98253663D01*
X120726004Y-98425023D01*
X120745965Y-98467830D01*
X120745967Y-98467834D01*
X120854281Y-98622521D01*
X120881501Y-98661396D01*
X120881506Y-98661402D01*
X121048597Y-98828493D01*
X121048603Y-98828498D01*
X121234158Y-98958425D01*
X121277783Y-99013002D01*
X121284977Y-99082500D01*
X121253454Y-99144855D01*
X121234158Y-99161575D01*
X121048597Y-99291505D01*
X120881505Y-99458597D01*
X120745965Y-99652169D01*
X120745964Y-99652171D01*
X120646098Y-99866335D01*
X120646094Y-99866344D01*
X120584938Y-100094586D01*
X120584936Y-100094596D01*
X120564341Y-100329999D01*
X120564341Y-100330000D01*
X120584936Y-100565403D01*
X120584938Y-100565413D01*
X120646094Y-100793655D01*
X120646096Y-100793659D01*
X120646097Y-100793663D01*
X120711315Y-100933522D01*
X120745965Y-101007830D01*
X120745967Y-101007834D01*
X120854281Y-101162521D01*
X120881501Y-101201396D01*
X120881506Y-101201402D01*
X121048597Y-101368493D01*
X121048603Y-101368498D01*
X121234158Y-101498425D01*
X121277783Y-101553002D01*
X121284977Y-101622500D01*
X121253454Y-101684855D01*
X121234158Y-101701575D01*
X121048597Y-101831505D01*
X120881505Y-101998597D01*
X120745965Y-102192169D01*
X120745964Y-102192171D01*
X120646098Y-102406335D01*
X120646094Y-102406344D01*
X120584938Y-102634586D01*
X120584936Y-102634596D01*
X120564341Y-102869999D01*
X120564341Y-102870000D01*
X120584936Y-103105403D01*
X120584938Y-103105413D01*
X120646094Y-103333655D01*
X120646096Y-103333659D01*
X120646097Y-103333663D01*
X120716982Y-103485676D01*
X120745965Y-103547830D01*
X120745967Y-103547834D01*
X120854281Y-103702521D01*
X120881501Y-103741396D01*
X120881506Y-103741402D01*
X121048597Y-103908493D01*
X121048603Y-103908498D01*
X121234158Y-104038425D01*
X121277783Y-104093002D01*
X121284977Y-104162500D01*
X121253454Y-104224855D01*
X121234158Y-104241575D01*
X121048597Y-104371505D01*
X120881505Y-104538597D01*
X120745965Y-104732169D01*
X120745964Y-104732171D01*
X120646098Y-104946335D01*
X120646094Y-104946344D01*
X120584938Y-105174586D01*
X120584936Y-105174596D01*
X120564341Y-105409999D01*
X120564341Y-105410000D01*
X120584936Y-105645403D01*
X120584938Y-105645413D01*
X120646094Y-105873655D01*
X120646096Y-105873659D01*
X120646097Y-105873663D01*
X120726004Y-106045023D01*
X120745965Y-106087830D01*
X120745967Y-106087834D01*
X120854281Y-106242521D01*
X120881501Y-106281396D01*
X120881506Y-106281402D01*
X121048597Y-106448493D01*
X121048603Y-106448498D01*
X121234158Y-106578425D01*
X121277783Y-106633002D01*
X121284977Y-106702500D01*
X121253454Y-106764855D01*
X121234158Y-106781575D01*
X121048597Y-106911505D01*
X120881505Y-107078597D01*
X120745965Y-107272169D01*
X120745964Y-107272171D01*
X120646098Y-107486335D01*
X120646094Y-107486344D01*
X120584938Y-107714586D01*
X120584936Y-107714596D01*
X120564341Y-107949999D01*
X120564341Y-107950000D01*
X120584936Y-108185403D01*
X120584938Y-108185413D01*
X120646094Y-108413655D01*
X120646096Y-108413659D01*
X120646097Y-108413663D01*
X120719639Y-108571373D01*
X120745965Y-108627830D01*
X120745967Y-108627834D01*
X120810153Y-108719500D01*
X120881505Y-108821401D01*
X121048599Y-108988495D01*
X121053885Y-108992196D01*
X121242165Y-109124032D01*
X121242167Y-109124033D01*
X121242170Y-109124035D01*
X121456337Y-109223903D01*
X121684592Y-109285063D01*
X121872918Y-109301539D01*
X121919999Y-109305659D01*
X121920000Y-109305659D01*
X121920001Y-109305659D01*
X121959234Y-109302226D01*
X122155408Y-109285063D01*
X122383663Y-109223903D01*
X122597830Y-109124035D01*
X122791401Y-108988495D01*
X122958495Y-108821401D01*
X123088425Y-108635842D01*
X123143002Y-108592217D01*
X123212500Y-108585023D01*
X123274855Y-108616546D01*
X123291575Y-108635842D01*
X123421500Y-108821395D01*
X123421505Y-108821401D01*
X123588599Y-108988495D01*
X123593885Y-108992196D01*
X123782165Y-109124032D01*
X123782167Y-109124033D01*
X123782170Y-109124035D01*
X123996337Y-109223903D01*
X124224592Y-109285063D01*
X124412918Y-109301539D01*
X124459999Y-109305659D01*
X124460000Y-109305659D01*
X124460001Y-109305659D01*
X124499234Y-109302226D01*
X124695408Y-109285063D01*
X124923663Y-109223903D01*
X125137830Y-109124035D01*
X125331401Y-108988495D01*
X125498495Y-108821401D01*
X125634035Y-108627830D01*
X125733903Y-108413663D01*
X125795063Y-108185408D01*
X125815659Y-107950000D01*
X125795063Y-107714592D01*
X125748626Y-107541285D01*
X125733905Y-107486344D01*
X125733904Y-107486343D01*
X125733903Y-107486337D01*
X125634035Y-107272171D01*
X125628922Y-107264868D01*
X125498494Y-107078597D01*
X125331402Y-106911506D01*
X125331396Y-106911501D01*
X125145842Y-106781575D01*
X125102217Y-106726998D01*
X125095023Y-106657500D01*
X125126546Y-106595145D01*
X125145842Y-106578425D01*
X125168026Y-106562891D01*
X125331401Y-106448495D01*
X125498495Y-106281401D01*
X125634035Y-106087830D01*
X125733903Y-105873663D01*
X125795063Y-105645408D01*
X125815659Y-105410000D01*
X125795063Y-105174592D01*
X125733903Y-104946337D01*
X125634035Y-104732171D01*
X125570033Y-104640765D01*
X125498494Y-104538597D01*
X125331402Y-104371506D01*
X125331396Y-104371501D01*
X125145842Y-104241575D01*
X125102217Y-104186998D01*
X125095023Y-104117500D01*
X125126546Y-104055145D01*
X125145842Y-104038425D01*
X125180083Y-104014449D01*
X125331401Y-103908495D01*
X125498495Y-103741401D01*
X125634035Y-103547830D01*
X125733903Y-103333663D01*
X125795063Y-103105408D01*
X125815659Y-102870000D01*
X125795063Y-102634592D01*
X125733903Y-102406337D01*
X125634035Y-102192171D01*
X125591865Y-102131945D01*
X125498494Y-101998597D01*
X125331402Y-101831506D01*
X125331396Y-101831501D01*
X125145842Y-101701575D01*
X125102217Y-101646998D01*
X125095023Y-101577500D01*
X125126546Y-101515145D01*
X125145842Y-101498425D01*
X125265413Y-101414700D01*
X125331401Y-101368495D01*
X125498495Y-101201401D01*
X125634035Y-101007830D01*
X125733903Y-100793663D01*
X125790082Y-100583996D01*
X127718435Y-100583996D01*
X127718435Y-100584003D01*
X127738630Y-100763249D01*
X127738631Y-100763254D01*
X127798211Y-100933523D01*
X127844902Y-101007830D01*
X127894184Y-101086262D01*
X128021738Y-101213816D01*
X128174478Y-101309789D01*
X128344745Y-101369368D01*
X128431669Y-101379161D01*
X128496080Y-101406226D01*
X128505465Y-101414700D01*
X129217298Y-102126533D01*
X129250783Y-102187856D01*
X129252837Y-102200330D01*
X129262630Y-102287249D01*
X129322210Y-102457521D01*
X129332715Y-102474239D01*
X129418184Y-102610262D01*
X129545738Y-102737816D01*
X129698478Y-102833789D01*
X129801963Y-102870000D01*
X129868745Y-102893368D01*
X129868750Y-102893369D01*
X130047996Y-102913565D01*
X130048000Y-102913565D01*
X130048004Y-102913565D01*
X130227249Y-102893369D01*
X130227252Y-102893368D01*
X130227255Y-102893368D01*
X130397522Y-102833789D01*
X130550262Y-102737816D01*
X130677816Y-102610262D01*
X130773789Y-102457522D01*
X130833368Y-102287255D01*
X130834731Y-102275161D01*
X130853565Y-102108003D01*
X130853565Y-102107996D01*
X130833369Y-101928750D01*
X130833368Y-101928745D01*
X130773789Y-101758478D01*
X130677816Y-101605738D01*
X130550262Y-101478184D01*
X130435742Y-101406226D01*
X130397521Y-101382210D01*
X130227249Y-101322630D01*
X130140330Y-101312837D01*
X130075916Y-101285770D01*
X130066533Y-101277298D01*
X129354700Y-100565465D01*
X129321215Y-100504142D01*
X129319163Y-100491686D01*
X129309368Y-100404745D01*
X129249789Y-100234478D01*
X129153816Y-100081738D01*
X129026262Y-99954184D01*
X128873523Y-99858211D01*
X128703254Y-99798631D01*
X128703249Y-99798630D01*
X128524004Y-99778435D01*
X128523996Y-99778435D01*
X128344750Y-99798630D01*
X128344745Y-99798631D01*
X128174476Y-99858211D01*
X128021737Y-99954184D01*
X127894184Y-100081737D01*
X127798211Y-100234476D01*
X127738631Y-100404745D01*
X127738630Y-100404750D01*
X127718435Y-100583996D01*
X125790082Y-100583996D01*
X125795063Y-100565408D01*
X125815659Y-100330000D01*
X125795063Y-100094592D01*
X125733903Y-99866337D01*
X125634035Y-99652171D01*
X125498495Y-99458599D01*
X125498494Y-99458597D01*
X125331402Y-99291506D01*
X125331396Y-99291501D01*
X125145842Y-99161575D01*
X125102217Y-99106998D01*
X125095023Y-99037500D01*
X125126546Y-98975145D01*
X125145842Y-98958425D01*
X125168026Y-98942891D01*
X125331401Y-98828495D01*
X125498495Y-98661401D01*
X125634035Y-98467830D01*
X125733903Y-98253663D01*
X125795063Y-98025408D01*
X125815659Y-97790000D01*
X125795063Y-97554592D01*
X125733903Y-97326337D01*
X125634035Y-97112171D01*
X125498495Y-96918599D01*
X125498494Y-96918597D01*
X125331402Y-96751506D01*
X125331396Y-96751501D01*
X125145842Y-96621575D01*
X125102217Y-96566998D01*
X125095023Y-96497500D01*
X125126546Y-96435145D01*
X125145842Y-96418425D01*
X125168026Y-96402891D01*
X125331401Y-96288495D01*
X125498495Y-96121401D01*
X125634035Y-95927830D01*
X125733903Y-95713663D01*
X125795063Y-95485408D01*
X125815659Y-95250000D01*
X125795063Y-95014592D01*
X125733903Y-94786337D01*
X125634035Y-94572171D01*
X125498495Y-94378599D01*
X125498494Y-94378597D01*
X125331402Y-94211506D01*
X125331396Y-94211501D01*
X125145842Y-94081575D01*
X125102217Y-94026998D01*
X125095023Y-93957500D01*
X125126546Y-93895145D01*
X125145842Y-93878425D01*
X125168026Y-93862891D01*
X125331401Y-93748495D01*
X125498495Y-93581401D01*
X125634035Y-93387830D01*
X125733903Y-93173663D01*
X125795063Y-92945408D01*
X125815659Y-92710000D01*
X125795063Y-92474592D01*
X125733903Y-92246337D01*
X125634035Y-92032171D01*
X125498495Y-91838599D01*
X125498494Y-91838597D01*
X125331402Y-91671506D01*
X125331396Y-91671501D01*
X125145842Y-91541575D01*
X125102217Y-91486998D01*
X125095023Y-91417500D01*
X125126546Y-91355145D01*
X125145842Y-91338425D01*
X125168026Y-91322891D01*
X125331401Y-91208495D01*
X125498495Y-91041401D01*
X125634035Y-90847830D01*
X125733903Y-90633663D01*
X125795063Y-90405408D01*
X125815659Y-90170000D01*
X125795063Y-89934592D01*
X125733903Y-89706337D01*
X125634035Y-89492171D01*
X125498495Y-89298599D01*
X125498494Y-89298597D01*
X125331402Y-89131506D01*
X125331401Y-89131505D01*
X125145405Y-89001269D01*
X125101781Y-88946692D01*
X125094588Y-88877193D01*
X125126110Y-88814839D01*
X125145405Y-88798119D01*
X125331082Y-88668105D01*
X125498105Y-88501082D01*
X125633600Y-88307578D01*
X125733429Y-88093492D01*
X125733432Y-88093486D01*
X125790636Y-87880000D01*
X124893012Y-87880000D01*
X124925925Y-87822993D01*
X124960000Y-87695826D01*
X124960000Y-87564174D01*
X124925925Y-87437007D01*
X124893012Y-87380000D01*
X125790636Y-87380000D01*
X125790635Y-87379999D01*
X125733432Y-87166513D01*
X125733429Y-87166507D01*
X125633600Y-86952422D01*
X125633599Y-86952420D01*
X125498113Y-86758926D01*
X125498108Y-86758920D01*
X125331078Y-86591890D01*
X125145405Y-86461879D01*
X125101780Y-86407302D01*
X125094588Y-86337804D01*
X125126110Y-86275449D01*
X125145406Y-86258730D01*
X125177868Y-86236000D01*
X125331401Y-86128495D01*
X125498495Y-85961401D01*
X125634035Y-85767830D01*
X125733903Y-85553663D01*
X125795063Y-85325408D01*
X125815659Y-85090000D01*
X125795063Y-84854592D01*
X125733903Y-84626337D01*
X125733902Y-84626335D01*
X125732719Y-84621919D01*
X125734382Y-84552069D01*
X125773545Y-84494207D01*
X125837773Y-84466703D01*
X125906675Y-84478290D01*
X125918462Y-84484830D01*
X126015478Y-84545789D01*
X126185745Y-84605368D01*
X126272669Y-84615161D01*
X126337080Y-84642226D01*
X126346465Y-84650700D01*
X126362739Y-84666974D01*
X126362749Y-84666985D01*
X126367079Y-84671315D01*
X126367080Y-84671316D01*
X126478884Y-84783120D01*
X126478886Y-84783121D01*
X126478890Y-84783124D01*
X126602668Y-84854586D01*
X126615816Y-84862177D01*
X126716589Y-84889179D01*
X126716588Y-84889179D01*
X126727567Y-84892120D01*
X126768542Y-84903100D01*
X126768543Y-84903100D01*
X128195588Y-84903100D01*
X128262627Y-84922785D01*
X128272903Y-84930155D01*
X128275736Y-84932414D01*
X128275738Y-84932416D01*
X128428478Y-85028389D01*
X128598745Y-85087968D01*
X128598750Y-85087969D01*
X128777996Y-85108165D01*
X128778000Y-85108165D01*
X128778004Y-85108165D01*
X128957249Y-85087969D01*
X128957252Y-85087968D01*
X128957255Y-85087968D01*
X129127522Y-85028389D01*
X129280262Y-84932416D01*
X129407816Y-84804862D01*
X129503789Y-84652122D01*
X129563368Y-84481855D01*
X129563770Y-84478290D01*
X129583565Y-84302603D01*
X129583565Y-84302596D01*
X129563369Y-84123350D01*
X129563368Y-84123345D01*
X129553008Y-84093739D01*
X129503789Y-83953078D01*
X129473488Y-83904855D01*
X129407815Y-83800337D01*
X129280262Y-83672784D01*
X129127523Y-83576811D01*
X128957254Y-83517231D01*
X128957249Y-83517230D01*
X128778004Y-83497035D01*
X128777996Y-83497035D01*
X128598750Y-83517230D01*
X128598745Y-83517231D01*
X128428476Y-83576811D01*
X128275736Y-83672785D01*
X128272903Y-83675045D01*
X128270724Y-83675934D01*
X128269842Y-83676489D01*
X128269744Y-83676334D01*
X128208217Y-83701455D01*
X128195588Y-83702100D01*
X127259820Y-83702100D01*
X127192781Y-83682415D01*
X127147026Y-83629611D01*
X127142778Y-83619054D01*
X127090789Y-83470478D01*
X127068255Y-83434615D01*
X126994816Y-83317738D01*
X126867262Y-83190184D01*
X126809356Y-83153799D01*
X126714523Y-83094211D01*
X126544254Y-83034631D01*
X126544249Y-83034630D01*
X126365004Y-83014435D01*
X126364996Y-83014435D01*
X126185750Y-83034630D01*
X126185745Y-83034631D01*
X126015476Y-83094211D01*
X125918466Y-83155167D01*
X125851229Y-83174167D01*
X125784394Y-83153799D01*
X125739180Y-83100531D01*
X125729943Y-83031275D01*
X125732719Y-83018080D01*
X125733901Y-83013665D01*
X125733903Y-83013663D01*
X125795063Y-82785408D01*
X125815659Y-82550000D01*
X125795063Y-82314592D01*
X125733903Y-82086337D01*
X125634035Y-81872171D01*
X125498495Y-81678599D01*
X125498494Y-81678597D01*
X125331402Y-81511506D01*
X125331396Y-81511501D01*
X125145842Y-81381575D01*
X125102217Y-81326998D01*
X125095023Y-81257500D01*
X125126546Y-81195145D01*
X125145842Y-81178425D01*
X125168026Y-81162891D01*
X125331401Y-81048495D01*
X125498495Y-80881401D01*
X125634035Y-80687830D01*
X125636707Y-80682097D01*
X125682878Y-80629658D01*
X125749091Y-80610500D01*
X126699903Y-80610500D01*
X126766942Y-80630185D01*
X126787584Y-80646819D01*
X130173181Y-84032416D01*
X130206666Y-84093739D01*
X130209500Y-84120097D01*
X130209500Y-100243330D01*
X130209499Y-100243348D01*
X130209499Y-100409054D01*
X130209498Y-100409054D01*
X130250423Y-100561785D01*
X130250424Y-100561788D01*
X130252515Y-100565409D01*
X130252518Y-100565414D01*
X130329477Y-100698712D01*
X130329481Y-100698717D01*
X130448349Y-100817585D01*
X130448355Y-100817590D01*
X132043681Y-102412916D01*
X132077166Y-102474239D01*
X132080000Y-102500597D01*
X132080000Y-104140000D01*
X133624998Y-105169999D01*
X133669859Y-105223564D01*
X133678639Y-105292880D01*
X133648550Y-105355939D01*
X133600653Y-105388937D01*
X133272802Y-105514787D01*
X132927206Y-105690877D01*
X132601917Y-105902122D01*
X132300488Y-106146215D01*
X132300480Y-106146222D01*
X132026222Y-106420480D01*
X132026215Y-106420488D01*
X131782122Y-106721917D01*
X131570877Y-107047206D01*
X131394787Y-107392802D01*
X131255788Y-107754905D01*
X131155397Y-108129570D01*
X131155397Y-108129572D01*
X131094722Y-108512660D01*
X131074422Y-108899999D01*
X131074422Y-108900000D01*
X131094722Y-109287339D01*
X131155397Y-109670427D01*
X131155397Y-109670429D01*
X131255788Y-110045094D01*
X131394787Y-110407197D01*
X131570877Y-110752793D01*
X131782122Y-111078082D01*
X131782124Y-111078084D01*
X132026219Y-111379516D01*
X132300484Y-111653781D01*
X132300488Y-111653784D01*
X132601917Y-111897877D01*
X132927206Y-112109122D01*
X132927211Y-112109125D01*
X133272806Y-112285214D01*
X133634913Y-112424214D01*
X134009567Y-112524602D01*
X134392662Y-112585278D01*
X134758576Y-112604455D01*
X134779999Y-112605578D01*
X134780000Y-112605578D01*
X134780001Y-112605578D01*
X134800301Y-112604514D01*
X135167338Y-112585278D01*
X135550433Y-112524602D01*
X135925087Y-112424214D01*
X136287194Y-112285214D01*
X136632789Y-112109125D01*
X136958084Y-111897876D01*
X137259516Y-111653781D01*
X137533781Y-111379516D01*
X137777876Y-111078084D01*
X137989125Y-110752789D01*
X138165214Y-110407194D01*
X138304214Y-110045087D01*
X138404602Y-109670433D01*
X138465278Y-109287338D01*
X138485578Y-108900000D01*
X138471917Y-108639348D01*
X138488066Y-108571373D01*
X138538403Y-108522917D01*
X138606946Y-108509368D01*
X138664530Y-108529687D01*
X139699999Y-109220000D01*
X140059264Y-109220000D01*
X140125236Y-109239006D01*
X140231313Y-109305659D01*
X140239478Y-109310789D01*
X140409745Y-109370368D01*
X140409750Y-109370369D01*
X140588996Y-109390565D01*
X140589000Y-109390565D01*
X140589004Y-109390565D01*
X140768249Y-109370369D01*
X140768252Y-109370368D01*
X140768255Y-109370368D01*
X140938522Y-109310789D01*
X141052764Y-109239006D01*
X141118736Y-109220000D01*
X144301064Y-109220000D01*
X144367036Y-109239006D01*
X144473113Y-109305659D01*
X144481278Y-109310789D01*
X144651545Y-109370368D01*
X144651550Y-109370369D01*
X144830796Y-109390565D01*
X144830800Y-109390565D01*
X144830804Y-109390565D01*
X145010049Y-109370369D01*
X145010052Y-109370368D01*
X145010055Y-109370368D01*
X145180322Y-109310789D01*
X145294564Y-109239006D01*
X145360536Y-109220000D01*
X149860000Y-109220000D01*
X150895472Y-108529684D01*
X150962168Y-108508878D01*
X151029529Y-108527433D01*
X151076165Y-108579460D01*
X151088082Y-108639350D01*
X151074422Y-108899999D01*
X151074422Y-108900000D01*
X151094722Y-109287339D01*
X151155397Y-109670427D01*
X151155397Y-109670429D01*
X151255788Y-110045094D01*
X151394787Y-110407197D01*
X151570877Y-110752793D01*
X151782122Y-111078082D01*
X151782124Y-111078084D01*
X152026219Y-111379516D01*
X152300484Y-111653781D01*
X152300488Y-111653784D01*
X152601917Y-111897877D01*
X152927206Y-112109122D01*
X152927211Y-112109125D01*
X153272806Y-112285214D01*
X153634913Y-112424214D01*
X154009567Y-112524602D01*
X154392662Y-112585278D01*
X154758576Y-112604455D01*
X154779999Y-112605578D01*
X154780000Y-112605578D01*
X154780001Y-112605578D01*
X154800301Y-112604514D01*
X155167338Y-112585278D01*
X155550433Y-112524602D01*
X155925087Y-112424214D01*
X156287194Y-112285214D01*
X156632789Y-112109125D01*
X156958084Y-111897876D01*
X157259516Y-111653781D01*
X157533781Y-111379516D01*
X157777876Y-111078084D01*
X157989125Y-110752789D01*
X158165214Y-110407194D01*
X158304214Y-110045087D01*
X158404602Y-109670433D01*
X158465278Y-109287338D01*
X158485578Y-108900000D01*
X158465278Y-108512662D01*
X158404602Y-108129567D01*
X158304214Y-107754913D01*
X158165214Y-107392806D01*
X157989125Y-107047211D01*
X157900994Y-106911501D01*
X157777877Y-106721917D01*
X157533784Y-106420488D01*
X157533781Y-106420484D01*
X157259516Y-106146219D01*
X157143433Y-106052217D01*
X156958082Y-105902122D01*
X156632793Y-105690877D01*
X156287197Y-105514787D01*
X155959346Y-105388936D01*
X155903814Y-105346534D01*
X155880021Y-105280840D01*
X155895523Y-105212711D01*
X155934997Y-105170001D01*
X157480000Y-104140000D01*
X157480000Y-104139999D01*
X157480235Y-104139843D01*
X157546934Y-104119035D01*
X157614295Y-104137590D01*
X157636699Y-104155335D01*
X157720884Y-104239520D01*
X157745972Y-104254004D01*
X157788966Y-104295419D01*
X157815382Y-104337459D01*
X157815384Y-104337462D01*
X157942938Y-104465016D01*
X158033280Y-104521782D01*
X158060044Y-104538599D01*
X158095678Y-104560989D01*
X158265945Y-104620568D01*
X158265950Y-104620569D01*
X158445196Y-104640765D01*
X158445200Y-104640765D01*
X158445204Y-104640765D01*
X158624449Y-104620569D01*
X158624452Y-104620568D01*
X158624455Y-104620568D01*
X158794722Y-104560989D01*
X158947462Y-104465016D01*
X159075016Y-104337462D01*
X159170989Y-104184722D01*
X159230568Y-104014455D01*
X159230569Y-104014449D01*
X159250765Y-103835203D01*
X159250765Y-103835196D01*
X159230569Y-103655950D01*
X159230568Y-103655945D01*
X159170988Y-103485676D01*
X159075472Y-103333664D01*
X159075016Y-103332938D01*
X158947462Y-103205384D01*
X158794723Y-103109411D01*
X158624454Y-103049831D01*
X158624449Y-103049830D01*
X158445204Y-103029635D01*
X158445196Y-103029635D01*
X158292679Y-103046819D01*
X158223857Y-103034764D01*
X158191115Y-103011280D01*
X157516319Y-102336484D01*
X157482834Y-102275161D01*
X157480000Y-102248803D01*
X157480000Y-91564000D01*
X157499685Y-91496961D01*
X157552489Y-91451206D01*
X157604000Y-91440000D01*
X164165944Y-91440000D01*
X164232983Y-91459685D01*
X164278738Y-91512489D01*
X164288682Y-91581647D01*
X164259657Y-91645203D01*
X164237069Y-91665574D01*
X164228595Y-91671507D01*
X164061505Y-91838597D01*
X163925965Y-92032169D01*
X163925964Y-92032171D01*
X163826098Y-92246335D01*
X163826094Y-92246344D01*
X163764938Y-92474586D01*
X163764936Y-92474596D01*
X163744341Y-92709999D01*
X163744341Y-92710000D01*
X163764936Y-92945403D01*
X163764938Y-92945413D01*
X163826094Y-93173655D01*
X163826096Y-93173659D01*
X163826097Y-93173663D01*
X163906004Y-93345023D01*
X163925965Y-93387830D01*
X163925967Y-93387834D01*
X164034281Y-93542521D01*
X164061501Y-93581396D01*
X164061506Y-93581402D01*
X164228597Y-93748493D01*
X164228603Y-93748498D01*
X164414158Y-93878425D01*
X164457783Y-93933002D01*
X164464977Y-94002500D01*
X164433454Y-94064855D01*
X164414158Y-94081575D01*
X164228597Y-94211505D01*
X164061505Y-94378597D01*
X163925965Y-94572169D01*
X163925964Y-94572171D01*
X163826098Y-94786335D01*
X163826094Y-94786344D01*
X163764938Y-95014586D01*
X163764936Y-95014596D01*
X163744341Y-95249999D01*
X163744341Y-95250000D01*
X163764936Y-95485403D01*
X163764938Y-95485413D01*
X163826094Y-95713655D01*
X163826096Y-95713659D01*
X163826097Y-95713663D01*
X163906004Y-95885023D01*
X163925965Y-95927830D01*
X163925967Y-95927834D01*
X164034281Y-96082521D01*
X164061501Y-96121396D01*
X164061506Y-96121402D01*
X164228597Y-96288493D01*
X164228603Y-96288498D01*
X164414158Y-96418425D01*
X164457783Y-96473002D01*
X164464977Y-96542500D01*
X164433454Y-96604855D01*
X164414158Y-96621575D01*
X164228597Y-96751505D01*
X164061505Y-96918597D01*
X163925965Y-97112169D01*
X163925964Y-97112171D01*
X163826098Y-97326335D01*
X163826094Y-97326344D01*
X163764938Y-97554586D01*
X163764936Y-97554596D01*
X163744341Y-97789999D01*
X163744341Y-97790000D01*
X163764936Y-98025403D01*
X163764938Y-98025413D01*
X163826094Y-98253655D01*
X163826096Y-98253659D01*
X163826097Y-98253663D01*
X163906004Y-98425023D01*
X163925965Y-98467830D01*
X163925967Y-98467834D01*
X164034281Y-98622521D01*
X164061501Y-98661396D01*
X164061506Y-98661402D01*
X164228597Y-98828493D01*
X164228603Y-98828498D01*
X164414158Y-98958425D01*
X164457783Y-99013002D01*
X164464977Y-99082500D01*
X164433454Y-99144855D01*
X164414158Y-99161575D01*
X164228597Y-99291505D01*
X164061505Y-99458597D01*
X163925965Y-99652169D01*
X163925964Y-99652171D01*
X163826098Y-99866335D01*
X163826094Y-99866344D01*
X163764938Y-100094586D01*
X163764936Y-100094596D01*
X163744341Y-100329999D01*
X163744341Y-100330000D01*
X163764936Y-100565403D01*
X163764938Y-100565413D01*
X163826094Y-100793655D01*
X163826096Y-100793659D01*
X163826097Y-100793663D01*
X163891315Y-100933522D01*
X163925965Y-101007830D01*
X163925967Y-101007834D01*
X164034281Y-101162521D01*
X164061501Y-101201396D01*
X164061506Y-101201402D01*
X164228597Y-101368493D01*
X164228603Y-101368498D01*
X164414158Y-101498425D01*
X164457783Y-101553002D01*
X164464977Y-101622500D01*
X164433454Y-101684855D01*
X164414158Y-101701575D01*
X164228597Y-101831505D01*
X164061505Y-101998597D01*
X163925965Y-102192169D01*
X163925964Y-102192171D01*
X163826098Y-102406335D01*
X163826094Y-102406344D01*
X163764938Y-102634586D01*
X163764936Y-102634596D01*
X163744341Y-102869999D01*
X163744341Y-102870000D01*
X163764936Y-103105403D01*
X163764938Y-103105413D01*
X163826094Y-103333655D01*
X163826096Y-103333659D01*
X163826097Y-103333663D01*
X163896982Y-103485676D01*
X163925965Y-103547830D01*
X163925967Y-103547834D01*
X164034281Y-103702521D01*
X164061501Y-103741396D01*
X164061506Y-103741402D01*
X164228597Y-103908493D01*
X164228603Y-103908498D01*
X164414158Y-104038425D01*
X164457783Y-104093002D01*
X164464977Y-104162500D01*
X164433454Y-104224855D01*
X164414158Y-104241575D01*
X164228597Y-104371505D01*
X164061505Y-104538597D01*
X163925965Y-104732169D01*
X163925964Y-104732171D01*
X163826098Y-104946335D01*
X163826094Y-104946344D01*
X163764938Y-105174586D01*
X163764936Y-105174596D01*
X163744341Y-105409999D01*
X163744341Y-105410000D01*
X163764936Y-105645403D01*
X163764938Y-105645413D01*
X163826094Y-105873655D01*
X163826096Y-105873659D01*
X163826097Y-105873663D01*
X163906004Y-106045023D01*
X163925965Y-106087830D01*
X163925967Y-106087834D01*
X164034281Y-106242521D01*
X164061501Y-106281396D01*
X164061506Y-106281402D01*
X164228597Y-106448493D01*
X164228603Y-106448498D01*
X164414158Y-106578425D01*
X164457783Y-106633002D01*
X164464977Y-106702500D01*
X164433454Y-106764855D01*
X164414158Y-106781575D01*
X164228597Y-106911505D01*
X164061505Y-107078597D01*
X163925965Y-107272169D01*
X163925964Y-107272171D01*
X163826098Y-107486335D01*
X163826094Y-107486344D01*
X163764938Y-107714586D01*
X163764936Y-107714596D01*
X163744341Y-107949999D01*
X163744341Y-107950000D01*
X163764936Y-108185403D01*
X163764938Y-108185413D01*
X163826094Y-108413655D01*
X163826096Y-108413659D01*
X163826097Y-108413663D01*
X163899639Y-108571373D01*
X163925965Y-108627830D01*
X163925967Y-108627834D01*
X163990153Y-108719500D01*
X164061505Y-108821401D01*
X164228599Y-108988495D01*
X164233885Y-108992196D01*
X164422165Y-109124032D01*
X164422167Y-109124033D01*
X164422170Y-109124035D01*
X164636337Y-109223903D01*
X164864592Y-109285063D01*
X165052918Y-109301539D01*
X165099999Y-109305659D01*
X165100000Y-109305659D01*
X165100001Y-109305659D01*
X165139234Y-109302226D01*
X165335408Y-109285063D01*
X165563663Y-109223903D01*
X165777830Y-109124035D01*
X165971401Y-108988495D01*
X166138495Y-108821401D01*
X166268425Y-108635842D01*
X166323002Y-108592217D01*
X166392500Y-108585023D01*
X166454855Y-108616546D01*
X166471575Y-108635842D01*
X166601500Y-108821395D01*
X166601505Y-108821401D01*
X166768599Y-108988495D01*
X166773885Y-108992196D01*
X166962165Y-109124032D01*
X166962167Y-109124033D01*
X166962170Y-109124035D01*
X167176337Y-109223903D01*
X167404592Y-109285063D01*
X167592918Y-109301539D01*
X167639999Y-109305659D01*
X167640000Y-109305659D01*
X167640001Y-109305659D01*
X167679234Y-109302226D01*
X167875408Y-109285063D01*
X168103663Y-109223903D01*
X168317830Y-109124035D01*
X168511401Y-108988495D01*
X168678495Y-108821401D01*
X168814035Y-108627830D01*
X168913903Y-108413663D01*
X168975063Y-108185408D01*
X168995659Y-107950000D01*
X168975063Y-107714592D01*
X168928626Y-107541285D01*
X168913905Y-107486344D01*
X168913904Y-107486343D01*
X168913903Y-107486337D01*
X168814035Y-107272171D01*
X168808922Y-107264868D01*
X168678494Y-107078597D01*
X168511402Y-106911506D01*
X168511396Y-106911501D01*
X168325842Y-106781575D01*
X168282217Y-106726998D01*
X168275023Y-106657500D01*
X168306546Y-106595145D01*
X168325842Y-106578425D01*
X168348026Y-106562891D01*
X168511401Y-106448495D01*
X168678495Y-106281401D01*
X168814035Y-106087830D01*
X168913903Y-105873663D01*
X168975063Y-105645408D01*
X168995659Y-105410000D01*
X168975063Y-105174592D01*
X168913903Y-104946337D01*
X168814035Y-104732171D01*
X168750033Y-104640765D01*
X168678494Y-104538597D01*
X168511402Y-104371506D01*
X168511396Y-104371501D01*
X168325842Y-104241575D01*
X168282217Y-104186998D01*
X168275023Y-104117500D01*
X168306546Y-104055145D01*
X168325842Y-104038425D01*
X168360083Y-104014449D01*
X168511401Y-103908495D01*
X168678495Y-103741401D01*
X168814035Y-103547830D01*
X168913903Y-103333663D01*
X168975063Y-103105408D01*
X168995659Y-102870000D01*
X168975063Y-102634592D01*
X168913903Y-102406337D01*
X168814035Y-102192171D01*
X168771865Y-102131945D01*
X168678494Y-101998597D01*
X168511402Y-101831506D01*
X168511396Y-101831501D01*
X168325842Y-101701575D01*
X168282217Y-101646998D01*
X168275023Y-101577500D01*
X168306546Y-101515145D01*
X168325842Y-101498425D01*
X168445413Y-101414700D01*
X168511401Y-101368495D01*
X168678495Y-101201401D01*
X168814035Y-101007830D01*
X168913903Y-100793663D01*
X168975063Y-100565408D01*
X168995659Y-100330000D01*
X168975063Y-100094592D01*
X168913903Y-99866337D01*
X168814035Y-99652171D01*
X168678495Y-99458599D01*
X168678494Y-99458597D01*
X168511402Y-99291506D01*
X168511396Y-99291501D01*
X168325842Y-99161575D01*
X168282217Y-99106998D01*
X168275023Y-99037500D01*
X168306546Y-98975145D01*
X168325842Y-98958425D01*
X168348026Y-98942891D01*
X168511401Y-98828495D01*
X168678495Y-98661401D01*
X168814035Y-98467830D01*
X168913903Y-98253663D01*
X168975063Y-98025408D01*
X168995659Y-97790000D01*
X168975063Y-97554592D01*
X168913903Y-97326337D01*
X168814035Y-97112171D01*
X168678495Y-96918599D01*
X168678494Y-96918597D01*
X168511402Y-96751506D01*
X168511396Y-96751501D01*
X168325842Y-96621575D01*
X168282217Y-96566998D01*
X168275023Y-96497500D01*
X168306546Y-96435145D01*
X168325842Y-96418425D01*
X168348026Y-96402891D01*
X168511401Y-96288495D01*
X168678495Y-96121401D01*
X168814035Y-95927830D01*
X168913903Y-95713663D01*
X168975063Y-95485408D01*
X168995659Y-95250000D01*
X168975063Y-95014592D01*
X168913903Y-94786337D01*
X168814035Y-94572171D01*
X168678495Y-94378599D01*
X168678494Y-94378597D01*
X168511402Y-94211506D01*
X168511396Y-94211501D01*
X168325842Y-94081575D01*
X168282217Y-94026998D01*
X168275023Y-93957500D01*
X168306546Y-93895145D01*
X168325842Y-93878425D01*
X168348026Y-93862891D01*
X168511401Y-93748495D01*
X168678495Y-93581401D01*
X168814035Y-93387830D01*
X168913903Y-93173663D01*
X168975063Y-92945408D01*
X168995659Y-92710000D01*
X168975063Y-92474592D01*
X168913903Y-92246337D01*
X168814035Y-92032171D01*
X168678495Y-91838599D01*
X168678494Y-91838597D01*
X168511402Y-91671506D01*
X168511398Y-91671503D01*
X168502931Y-91665574D01*
X168459307Y-91610997D01*
X168452115Y-91541498D01*
X168483638Y-91479144D01*
X168543868Y-91443731D01*
X168574056Y-91440000D01*
X169421000Y-91440000D01*
X169488039Y-91459685D01*
X169533794Y-91512489D01*
X169545000Y-91564000D01*
X169545000Y-109168638D01*
X169525315Y-109235677D01*
X169508681Y-109256319D01*
X165136319Y-113628681D01*
X165074996Y-113662166D01*
X165048638Y-113665000D01*
X124511362Y-113665000D01*
X124444323Y-113645315D01*
X124423681Y-113628681D01*
X120051319Y-109256319D01*
X120017834Y-109194996D01*
X120015000Y-109168638D01*
X120015000Y-68631362D01*
X120034685Y-68564323D01*
X120051319Y-68543681D01*
X124423681Y-64171319D01*
X124485004Y-64137834D01*
X124511362Y-64135000D01*
X165048638Y-64135000D01*
X165115677Y-64154685D01*
G37*
G04 #@! TD.AperFunction*
G04 #@! TA.AperFunction,Conductor*
G36*
X123994075Y-87437007D02*
G01*
X123960000Y-87564174D01*
X123960000Y-87695826D01*
X123994075Y-87822993D01*
X124026988Y-87880000D01*
X122353012Y-87880000D01*
X122385925Y-87822993D01*
X122420000Y-87695826D01*
X122420000Y-87564174D01*
X122385925Y-87437007D01*
X122353012Y-87380000D01*
X124026988Y-87380000D01*
X123994075Y-87437007D01*
G37*
G04 #@! TD.AperFunction*
G04 #@! TA.AperFunction,Conductor*
G36*
X123994075Y-69657007D02*
G01*
X123960000Y-69784174D01*
X123960000Y-69915826D01*
X123994075Y-70042993D01*
X124026988Y-70100000D01*
X122353012Y-70100000D01*
X122385925Y-70042993D01*
X122420000Y-69915826D01*
X122420000Y-69784174D01*
X122385925Y-69657007D01*
X122353012Y-69600000D01*
X124026988Y-69600000D01*
X123994075Y-69657007D01*
G37*
G04 #@! TD.AperFunction*
G04 #@! TD*
M02*
