G04 #@! TF.GenerationSoftware,KiCad,Pcbnew,8.0.6*
G04 #@! TF.CreationDate,2025-01-16T18:06:10-08:00*
G04 #@! TF.ProjectId,levitas_daughterboard,6c657669-7461-4735-9f64-617567687465,rev?*
G04 #@! TF.SameCoordinates,Original*
G04 #@! TF.FileFunction,Soldermask,Bot*
G04 #@! TF.FilePolarity,Negative*
%FSLAX46Y46*%
G04 Gerber Fmt 4.6, Leading zero omitted, Abs format (unit mm)*
G04 Created by KiCad (PCBNEW 8.0.6) date 2025-01-16 18:06:10*
%MOMM*%
%LPD*%
G01*
G04 APERTURE LIST*
G04 Aperture macros list*
%AMRoundRect*
0 Rectangle with rounded corners*
0 $1 Rounding radius*
0 $2 $3 $4 $5 $6 $7 $8 $9 X,Y pos of 4 corners*
0 Add a 4 corners polygon primitive as box body*
4,1,4,$2,$3,$4,$5,$6,$7,$8,$9,$2,$3,0*
0 Add four circle primitives for the rounded corners*
1,1,$1+$1,$2,$3*
1,1,$1+$1,$4,$5*
1,1,$1+$1,$6,$7*
1,1,$1+$1,$8,$9*
0 Add four rect primitives between the rounded corners*
20,1,$1+$1,$2,$3,$4,$5,0*
20,1,$1+$1,$4,$5,$6,$7,0*
20,1,$1+$1,$6,$7,$8,$9,0*
20,1,$1+$1,$8,$9,$2,$3,0*%
%AMFreePoly0*
4,1,19,0.500000,-0.750000,0.000000,-0.750000,0.000000,-0.744911,-0.071157,-0.744911,-0.207708,-0.704816,-0.327430,-0.627875,-0.420627,-0.520320,-0.479746,-0.390866,-0.500000,-0.250000,-0.500000,0.250000,-0.479746,0.390866,-0.420627,0.520320,-0.327430,0.627875,-0.207708,0.704816,-0.071157,0.744911,0.000000,0.744911,0.000000,0.750000,0.500000,0.750000,0.500000,-0.750000,0.500000,-0.750000,
$1*%
%AMFreePoly1*
4,1,19,0.000000,0.744911,0.071157,0.744911,0.207708,0.704816,0.327430,0.627875,0.420627,0.520320,0.479746,0.390866,0.500000,0.250000,0.500000,-0.250000,0.479746,-0.390866,0.420627,-0.520320,0.327430,-0.627875,0.207708,-0.704816,0.071157,-0.744911,0.000000,-0.744911,0.000000,-0.750000,-0.500000,-0.750000,-0.500000,0.750000,0.000000,0.750000,0.000000,0.744911,0.000000,0.744911,
$1*%
G04 Aperture macros list end*
%ADD10R,1.700000X1.700000*%
%ADD11O,1.700000X1.700000*%
%ADD12C,0.800000*%
%ADD13C,6.400000*%
%ADD14C,2.000000*%
%ADD15C,1.000000*%
%ADD16RoundRect,0.200000X0.275000X-0.200000X0.275000X0.200000X-0.275000X0.200000X-0.275000X-0.200000X0*%
%ADD17FreePoly0,180.000000*%
%ADD18FreePoly1,180.000000*%
%ADD19FreePoly0,0.000000*%
%ADD20FreePoly1,0.000000*%
%ADD21RoundRect,0.062500X0.375000X0.062500X-0.375000X0.062500X-0.375000X-0.062500X0.375000X-0.062500X0*%
%ADD22R,2.600000X3.000000*%
%ADD23RoundRect,0.225000X-0.225000X-0.250000X0.225000X-0.250000X0.225000X0.250000X-0.225000X0.250000X0*%
%ADD24RoundRect,0.250000X-0.475000X0.250000X-0.475000X-0.250000X0.475000X-0.250000X0.475000X0.250000X0*%
%ADD25RoundRect,0.218750X-0.218750X-0.256250X0.218750X-0.256250X0.218750X0.256250X-0.218750X0.256250X0*%
%ADD26FreePoly0,90.000000*%
%ADD27FreePoly1,90.000000*%
%ADD28RoundRect,0.200000X-0.275000X0.200000X-0.275000X-0.200000X0.275000X-0.200000X0.275000X0.200000X0*%
%ADD29RoundRect,0.200000X0.200000X0.275000X-0.200000X0.275000X-0.200000X-0.275000X0.200000X-0.275000X0*%
%ADD30RoundRect,0.225000X0.250000X-0.225000X0.250000X0.225000X-0.250000X0.225000X-0.250000X-0.225000X0*%
%ADD31RoundRect,0.218750X0.218750X0.256250X-0.218750X0.256250X-0.218750X-0.256250X0.218750X-0.256250X0*%
%ADD32RoundRect,0.208750X0.208750X0.431250X-0.208750X0.431250X-0.208750X-0.431250X0.208750X-0.431250X0*%
%ADD33RoundRect,0.208750X-0.208750X-0.431250X0.208750X-0.431250X0.208750X0.431250X-0.208750X0.431250X0*%
%ADD34RoundRect,0.200000X-0.200000X-0.275000X0.200000X-0.275000X0.200000X0.275000X-0.200000X0.275000X0*%
%ADD35RoundRect,0.250000X0.250000X0.475000X-0.250000X0.475000X-0.250000X-0.475000X0.250000X-0.475000X0*%
%ADD36RoundRect,0.250000X-0.250000X-0.475000X0.250000X-0.475000X0.250000X0.475000X-0.250000X0.475000X0*%
%ADD37RoundRect,0.225000X-0.250000X0.225000X-0.250000X-0.225000X0.250000X-0.225000X0.250000X0.225000X0*%
%ADD38RoundRect,0.062500X-0.375000X-0.062500X0.375000X-0.062500X0.375000X0.062500X-0.375000X0.062500X0*%
%ADD39RoundRect,0.225000X0.225000X0.250000X-0.225000X0.250000X-0.225000X-0.250000X0.225000X-0.250000X0*%
%ADD40RoundRect,0.250000X0.475000X-0.250000X0.475000X0.250000X-0.475000X0.250000X-0.475000X-0.250000X0*%
G04 APERTURE END LIST*
D10*
G04 #@! TO.C,J3*
X124460000Y-69850000D03*
D11*
X124460000Y-72390000D03*
X124460000Y-74930000D03*
X124460000Y-77470000D03*
X124460000Y-80010000D03*
X124460000Y-82550000D03*
X124460000Y-85090000D03*
X124460000Y-87630000D03*
X124460000Y-90170000D03*
X124460000Y-92710000D03*
X124460000Y-95250000D03*
X124460000Y-97790000D03*
X124460000Y-100330000D03*
X124460000Y-102870000D03*
X124460000Y-105410000D03*
X124460000Y-107950000D03*
G04 #@! TD*
D10*
G04 #@! TO.C,J2*
X165100000Y-69850000D03*
D11*
X165100000Y-72390000D03*
X165100000Y-74930000D03*
X165100000Y-77470000D03*
X165100000Y-80010000D03*
X165100000Y-82550000D03*
X165100000Y-85090000D03*
X165100000Y-87630000D03*
X165100000Y-90170000D03*
X165100000Y-92710000D03*
X165100000Y-95250000D03*
X165100000Y-97790000D03*
X165100000Y-100330000D03*
X165100000Y-102870000D03*
X165100000Y-105410000D03*
X165100000Y-107950000D03*
G04 #@! TD*
D12*
G04 #@! TO.C,REF\u002A\u002A*
X132380000Y-108900000D03*
X133082944Y-107202944D03*
X133082944Y-110597056D03*
X134780000Y-106500000D03*
D13*
X134780000Y-108900000D03*
D12*
X134780000Y-111300000D03*
X136477056Y-107202944D03*
X136477056Y-110597056D03*
X137180000Y-108900000D03*
G04 #@! TD*
G04 #@! TO.C,REF\u002A\u002A*
X152380000Y-108900000D03*
X153082944Y-107202944D03*
X153082944Y-110597056D03*
X154780000Y-106500000D03*
D13*
X154780000Y-108900000D03*
D12*
X154780000Y-111300000D03*
X156477056Y-107202944D03*
X156477056Y-110597056D03*
X157180000Y-108900000D03*
G04 #@! TD*
G04 #@! TO.C,REF\u002A\u002A*
X152380000Y-68900000D03*
X153082944Y-67202944D03*
X153082944Y-70597056D03*
X154780000Y-66500000D03*
D13*
X154780000Y-68900000D03*
D12*
X154780000Y-71300000D03*
X156477056Y-67202944D03*
X156477056Y-70597056D03*
X157180000Y-68900000D03*
G04 #@! TD*
G04 #@! TO.C,REF\u002A\u002A*
X132380000Y-68900000D03*
X133082944Y-67202944D03*
X133082944Y-70597056D03*
X134780000Y-66500000D03*
D13*
X134780000Y-68900000D03*
D12*
X134780000Y-71300000D03*
X136477056Y-67202944D03*
X136477056Y-70597056D03*
X137180000Y-68900000D03*
G04 #@! TD*
D14*
G04 #@! TO.C,J6*
X141732000Y-90170000D03*
G04 #@! TD*
D10*
G04 #@! TO.C,J4*
X167640000Y-69850000D03*
D11*
X167640000Y-72390000D03*
X167640000Y-74930000D03*
X167640000Y-77470000D03*
X167640000Y-80010000D03*
X167640000Y-82550000D03*
X167640000Y-85090000D03*
X167640000Y-87630000D03*
X167640000Y-90170000D03*
X167640000Y-92710000D03*
X167640000Y-95250000D03*
X167640000Y-97790000D03*
X167640000Y-100330000D03*
X167640000Y-102870000D03*
X167640000Y-105410000D03*
X167640000Y-107950000D03*
G04 #@! TD*
D14*
G04 #@! TO.C,J5*
X143510000Y-91948000D03*
G04 #@! TD*
D10*
G04 #@! TO.C,J1*
X121920000Y-69850000D03*
D11*
X121920000Y-72390000D03*
X121920000Y-74930000D03*
X121920000Y-77470000D03*
X121920000Y-80010000D03*
X121920000Y-82550000D03*
X121920000Y-85090000D03*
X121920000Y-87630000D03*
X121920000Y-90170000D03*
X121920000Y-92710000D03*
X121920000Y-95250000D03*
X121920000Y-97790000D03*
X121920000Y-100330000D03*
X121920000Y-102870000D03*
X121920000Y-105410000D03*
X121920000Y-107950000D03*
G04 #@! TD*
D15*
G04 #@! TO.C,TP5*
X154559000Y-101777800D03*
G04 #@! TD*
G04 #@! TO.C,TP9*
X135382000Y-75946000D03*
G04 #@! TD*
D16*
G04 #@! TO.C,R15*
X147650200Y-81864200D03*
X147650200Y-80214200D03*
G04 #@! TD*
D17*
G04 #@! TO.C,JP6*
X136413000Y-86842600D03*
D18*
X135113000Y-86842600D03*
G04 #@! TD*
D19*
G04 #@! TO.C,JP1*
X142240000Y-100076000D03*
D20*
X143540000Y-100076000D03*
G04 #@! TD*
D14*
G04 #@! TO.C,J9*
X141732000Y-87630000D03*
G04 #@! TD*
D16*
G04 #@! TO.C,R11*
X140233400Y-82016600D03*
X140233400Y-80366600D03*
G04 #@! TD*
D14*
G04 #@! TO.C,J7*
X147828000Y-90170000D03*
G04 #@! TD*
G04 #@! TO.C,J8*
X146050000Y-91948000D03*
G04 #@! TD*
D17*
G04 #@! TO.C,JP5*
X136123200Y-84201000D03*
D18*
X134823200Y-84201000D03*
G04 #@! TD*
D21*
G04 #@! TO.C,U2*
X155284400Y-96951800D03*
X155284400Y-97451800D03*
X155284400Y-97951800D03*
X155284400Y-98451800D03*
X155284400Y-98951800D03*
X155284400Y-99451800D03*
X151409400Y-99451800D03*
X151409400Y-98951800D03*
X151409400Y-98451800D03*
X151409400Y-97951800D03*
X151409400Y-97451800D03*
X151409400Y-96951800D03*
D22*
X153346900Y-98201800D03*
G04 #@! TD*
D23*
G04 #@! TO.C,C2*
X135115000Y-95504000D03*
X136665000Y-95504000D03*
G04 #@! TD*
D24*
G04 #@! TO.C,C7*
X141274800Y-76164400D03*
X141274800Y-78064400D03*
G04 #@! TD*
D21*
G04 #@! TO.C,U4*
X155563800Y-77916400D03*
X155563800Y-78416400D03*
X155563800Y-78916400D03*
X155563800Y-79416400D03*
X155563800Y-79916400D03*
X155563800Y-80416400D03*
X151688800Y-80416400D03*
X151688800Y-79916400D03*
X151688800Y-79416400D03*
X151688800Y-78916400D03*
X151688800Y-78416400D03*
X151688800Y-77916400D03*
D22*
X153626300Y-79166400D03*
G04 #@! TD*
D15*
G04 #@! TO.C,TP4*
X157581600Y-98526600D03*
G04 #@! TD*
D25*
G04 #@! TO.C,L4*
X147700900Y-83591400D03*
X149275900Y-83591400D03*
G04 #@! TD*
D15*
G04 #@! TO.C,TP10*
X158445200Y-77647800D03*
G04 #@! TD*
D26*
G04 #@! TO.C,JP7*
X150622000Y-75732400D03*
D27*
X150622000Y-74432400D03*
G04 #@! TD*
D19*
G04 #@! TO.C,JP3*
X152928800Y-94538800D03*
D20*
X154228800Y-94538800D03*
G04 #@! TD*
D19*
G04 #@! TO.C,JP2*
X138938000Y-102108000D03*
D20*
X140238000Y-102108000D03*
G04 #@! TD*
D15*
G04 #@! TO.C,TP12*
X157048200Y-82397600D03*
G04 #@! TD*
D14*
G04 #@! TO.C,J12*
X147828000Y-87630000D03*
G04 #@! TD*
D28*
G04 #@! TO.C,R7*
X149301200Y-95631000D03*
X149301200Y-97281000D03*
G04 #@! TD*
D25*
G04 #@! TO.C,L3*
X140284200Y-83667600D03*
X141859200Y-83667600D03*
G04 #@! TD*
D29*
G04 #@! TO.C,R13*
X158482800Y-75692000D03*
X156832800Y-75692000D03*
G04 #@! TD*
D15*
G04 #@! TO.C,TP11*
X157454600Y-80340200D03*
G04 #@! TD*
G04 #@! TO.C,TP2*
X131064000Y-95504000D03*
G04 #@! TD*
D29*
G04 #@! TO.C,R14*
X156615400Y-74193400D03*
X154965400Y-74193400D03*
G04 #@! TD*
D16*
G04 #@! TO.C,R10*
X130454400Y-82968600D03*
X130454400Y-81318600D03*
G04 #@! TD*
D30*
G04 #@! TO.C,C5*
X149479000Y-100914800D03*
X149479000Y-99364800D03*
G04 #@! TD*
D31*
G04 #@! TO.C,L2*
X149352000Y-94132400D03*
X147777000Y-94132400D03*
G04 #@! TD*
D15*
G04 #@! TO.C,TP6*
X152425400Y-101676200D03*
G04 #@! TD*
D32*
G04 #@! TO.C,C3*
X141597500Y-92202000D03*
X140342500Y-92202000D03*
G04 #@! TD*
D33*
G04 #@! TO.C,C12*
X148013300Y-85318600D03*
X149268300Y-85318600D03*
G04 #@! TD*
D34*
G04 #@! TO.C,R5*
X157061400Y-100888800D03*
X158711400Y-100888800D03*
G04 #@! TD*
D14*
G04 #@! TO.C,J11*
X146050000Y-85852000D03*
G04 #@! TD*
D35*
G04 #@! TO.C,C10*
X154594600Y-84429600D03*
X152694600Y-84429600D03*
G04 #@! TD*
D16*
G04 #@! TO.C,R12*
X141859000Y-82054200D03*
X141859000Y-80404200D03*
G04 #@! TD*
D36*
G04 #@! TO.C,C1*
X135260000Y-93538000D03*
X137160000Y-93538000D03*
G04 #@! TD*
D32*
G04 #@! TO.C,C6*
X149192100Y-92278200D03*
X147937100Y-92278200D03*
G04 #@! TD*
D37*
G04 #@! TO.C,C8*
X139319000Y-76593400D03*
X139319000Y-78143400D03*
G04 #@! TD*
D16*
G04 #@! TO.C,R16*
X149250400Y-81940400D03*
X149250400Y-80290400D03*
G04 #@! TD*
D17*
G04 #@! TO.C,JP8*
X148224000Y-75895200D03*
D18*
X146924000Y-75895200D03*
G04 #@! TD*
D15*
G04 #@! TO.C,TP7*
X131114800Y-78562200D03*
G04 #@! TD*
D38*
G04 #@! TO.C,U3*
X133894600Y-80695800D03*
X133894600Y-80195800D03*
X133894600Y-79695800D03*
X133894600Y-79195800D03*
X133894600Y-78695800D03*
X133894600Y-78195800D03*
X137769600Y-78195800D03*
X137769600Y-78695800D03*
X137769600Y-79195800D03*
X137769600Y-79695800D03*
X137769600Y-80195800D03*
X137769600Y-80695800D03*
D22*
X135832100Y-79445800D03*
G04 #@! TD*
D14*
G04 #@! TO.C,J10*
X143510000Y-85852000D03*
G04 #@! TD*
D34*
G04 #@! TO.C,R2*
X131064000Y-101854000D03*
X132714000Y-101854000D03*
G04 #@! TD*
G04 #@! TO.C,R1*
X128270000Y-99314000D03*
X129920000Y-99314000D03*
G04 #@! TD*
D28*
G04 #@! TO.C,R3*
X141986000Y-95504000D03*
X141986000Y-97154000D03*
G04 #@! TD*
G04 #@! TO.C,R4*
X140208000Y-95504000D03*
X140208000Y-97154000D03*
G04 #@! TD*
G04 #@! TO.C,R9*
X129133600Y-78155800D03*
X129133600Y-79805800D03*
G04 #@! TD*
D19*
G04 #@! TO.C,JP4*
X152954200Y-91897200D03*
D20*
X154254200Y-91897200D03*
G04 #@! TD*
D33*
G04 #@! TO.C,C9*
X140266300Y-85344000D03*
X141521300Y-85344000D03*
G04 #@! TD*
D39*
G04 #@! TO.C,C11*
X152616200Y-82473800D03*
X151066200Y-82473800D03*
G04 #@! TD*
D38*
G04 #@! TO.C,U1*
X134318500Y-99790000D03*
X134318500Y-99290000D03*
X134318500Y-98790000D03*
X134318500Y-98290000D03*
X134318500Y-97790000D03*
X134318500Y-97290000D03*
X138193500Y-97290000D03*
X138193500Y-97790000D03*
X138193500Y-98290000D03*
X138193500Y-98790000D03*
X138193500Y-99290000D03*
X138193500Y-99790000D03*
D22*
X136256000Y-98540000D03*
G04 #@! TD*
D15*
G04 #@! TO.C,TP3*
X131445000Y-98044000D03*
G04 #@! TD*
D40*
G04 #@! TO.C,C4*
X147599400Y-102372200D03*
X147599400Y-100472200D03*
G04 #@! TD*
D28*
G04 #@! TO.C,R8*
X147701000Y-95631000D03*
X147701000Y-97281000D03*
G04 #@! TD*
D15*
G04 #@! TO.C,TP1*
X133096000Y-94488000D03*
G04 #@! TD*
D31*
G04 #@! TO.C,L1*
X141783000Y-93980000D03*
X140208000Y-93980000D03*
G04 #@! TD*
D29*
G04 #@! TO.C,R6*
X160413200Y-96342200D03*
X158763200Y-96342200D03*
G04 #@! TD*
D15*
G04 #@! TO.C,TP8*
X133273800Y-75920600D03*
G04 #@! TD*
M02*
