G04 #@! TF.GenerationSoftware,KiCad,Pcbnew,8.0.6*
G04 #@! TF.CreationDate,2025-01-16T18:06:10-08:00*
G04 #@! TF.ProjectId,levitas_daughterboard,6c657669-7461-4735-9f64-617567687465,rev?*
G04 #@! TF.SameCoordinates,Original*
G04 #@! TF.FileFunction,Soldermask,Top*
G04 #@! TF.FilePolarity,Negative*
%FSLAX46Y46*%
G04 Gerber Fmt 4.6, Leading zero omitted, Abs format (unit mm)*
G04 Created by KiCad (PCBNEW 8.0.6) date 2025-01-16 18:06:10*
%MOMM*%
%LPD*%
G01*
G04 APERTURE LIST*
G04 Aperture macros list*
%AMFreePoly0*
4,1,19,0.500000,-0.750000,0.000000,-0.750000,0.000000,-0.744911,-0.071157,-0.744911,-0.207708,-0.704816,-0.327430,-0.627875,-0.420627,-0.520320,-0.479746,-0.390866,-0.500000,-0.250000,-0.500000,0.250000,-0.479746,0.390866,-0.420627,0.520320,-0.327430,0.627875,-0.207708,0.704816,-0.071157,0.744911,0.000000,0.744911,0.000000,0.750000,0.500000,0.750000,0.500000,-0.750000,0.500000,-0.750000,
$1*%
%AMFreePoly1*
4,1,19,0.000000,0.744911,0.071157,0.744911,0.207708,0.704816,0.327430,0.627875,0.420627,0.520320,0.479746,0.390866,0.500000,0.250000,0.500000,-0.250000,0.479746,-0.390866,0.420627,-0.520320,0.327430,-0.627875,0.207708,-0.704816,0.071157,-0.744911,0.000000,-0.744911,0.000000,-0.750000,-0.500000,-0.750000,-0.500000,0.750000,0.000000,0.750000,0.000000,0.744911,0.000000,0.744911,
$1*%
G04 Aperture macros list end*
%ADD10C,0.100000*%
%ADD11R,1.700000X1.700000*%
%ADD12O,1.700000X1.700000*%
%ADD13C,0.800000*%
%ADD14C,6.400000*%
%ADD15FreePoly0,0.000000*%
%ADD16FreePoly1,0.000000*%
%ADD17C,2.000000*%
G04 APERTURE END LIST*
D10*
X143510000Y-106680000D02*
X139700000Y-106680000D01*
X134620000Y-102870000D01*
X134620000Y-100330000D01*
X143510000Y-100330000D01*
X143510000Y-106680000D01*
G36*
X143510000Y-106680000D02*
G01*
X139700000Y-106680000D01*
X134620000Y-102870000D01*
X134620000Y-100330000D01*
X143510000Y-100330000D01*
X143510000Y-106680000D01*
G37*
X156210000Y-99060000D02*
X146050000Y-99060000D01*
X146050000Y-95250000D01*
X149860000Y-95250000D01*
X151130000Y-93980000D01*
X151130000Y-90170000D01*
X156210000Y-90170000D01*
X156210000Y-99060000D01*
G36*
X156210000Y-99060000D02*
G01*
X146050000Y-99060000D01*
X146050000Y-95250000D01*
X149860000Y-95250000D01*
X151130000Y-93980000D01*
X151130000Y-90170000D01*
X156210000Y-90170000D01*
X156210000Y-99060000D01*
G37*
X141478000Y-92202000D02*
X141224000Y-92202000D01*
X140970000Y-91948000D01*
X139954000Y-89662000D01*
X139954000Y-88900000D01*
X144780000Y-88900000D01*
X141478000Y-92202000D01*
G36*
X141478000Y-92202000D02*
G01*
X141224000Y-92202000D01*
X140970000Y-91948000D01*
X139954000Y-89662000D01*
X139954000Y-88900000D01*
X144780000Y-88900000D01*
X141478000Y-92202000D01*
G37*
X144780000Y-88900000D02*
X141478000Y-85598000D01*
X141478000Y-85344000D01*
X141732000Y-85090000D01*
X144018000Y-84074000D01*
X144780000Y-84074000D01*
X144780000Y-88900000D01*
G36*
X144780000Y-88900000D02*
G01*
X141478000Y-85598000D01*
X141478000Y-85344000D01*
X141732000Y-85090000D01*
X144018000Y-84074000D01*
X144780000Y-84074000D01*
X144780000Y-88900000D01*
G37*
X138430000Y-93980000D02*
X139700000Y-95250000D01*
X143510000Y-95250000D01*
X143510000Y-99060000D01*
X133350000Y-99060000D01*
X133350000Y-90170000D01*
X138430000Y-90170000D01*
X138430000Y-93980000D01*
G36*
X138430000Y-93980000D02*
G01*
X139700000Y-95250000D01*
X143510000Y-95250000D01*
X143510000Y-99060000D01*
X133350000Y-99060000D01*
X133350000Y-90170000D01*
X138430000Y-90170000D01*
X138430000Y-93980000D01*
G37*
X148082000Y-92202000D02*
X148082000Y-92456000D01*
X147828000Y-92710000D01*
X145542000Y-93726000D01*
X144780000Y-93726000D01*
X144780000Y-88900000D01*
X148082000Y-92202000D01*
G36*
X148082000Y-92202000D02*
G01*
X148082000Y-92456000D01*
X147828000Y-92710000D01*
X145542000Y-93726000D01*
X144780000Y-93726000D01*
X144780000Y-88900000D01*
X148082000Y-92202000D01*
G37*
X144780000Y-88900000D02*
X139954000Y-88900000D01*
X139954000Y-88138000D01*
X140970000Y-85852000D01*
X141224000Y-85598000D01*
X141478000Y-85598000D01*
X144780000Y-88900000D01*
G36*
X144780000Y-88900000D02*
G01*
X139954000Y-88900000D01*
X139954000Y-88138000D01*
X140970000Y-85852000D01*
X141224000Y-85598000D01*
X141478000Y-85598000D01*
X144780000Y-88900000D01*
G37*
X143510000Y-77470000D02*
X134620000Y-77470000D01*
X134620000Y-74930000D01*
X139700000Y-71120000D01*
X143510000Y-71120000D01*
X143510000Y-77470000D01*
G36*
X143510000Y-77470000D02*
G01*
X134620000Y-77470000D01*
X134620000Y-74930000D01*
X139700000Y-71120000D01*
X143510000Y-71120000D01*
X143510000Y-77470000D01*
G37*
X154940000Y-74930000D02*
X154940000Y-77470000D01*
X147320000Y-77470000D01*
X147320000Y-71120000D01*
X149860000Y-71120000D01*
X154940000Y-74930000D01*
G36*
X154940000Y-74930000D02*
G01*
X154940000Y-77470000D01*
X147320000Y-77470000D01*
X147320000Y-71120000D01*
X149860000Y-71120000D01*
X154940000Y-74930000D01*
G37*
X147828000Y-85090000D02*
X148082000Y-85344000D01*
X148082000Y-85598000D01*
X144780000Y-88900000D01*
X144780000Y-84074000D01*
X145542000Y-84074000D01*
X147828000Y-85090000D01*
G36*
X147828000Y-85090000D02*
G01*
X148082000Y-85344000D01*
X148082000Y-85598000D01*
X144780000Y-88900000D01*
X144780000Y-84074000D01*
X145542000Y-84074000D01*
X147828000Y-85090000D01*
G37*
X149606000Y-89662000D02*
X148590000Y-91948000D01*
X148336000Y-92202000D01*
X148082000Y-92202000D01*
X144780000Y-88900000D01*
X149606000Y-88900000D01*
X149606000Y-89662000D01*
G36*
X149606000Y-89662000D02*
G01*
X148590000Y-91948000D01*
X148336000Y-92202000D01*
X148082000Y-92202000D01*
X144780000Y-88900000D01*
X149606000Y-88900000D01*
X149606000Y-89662000D01*
G37*
X154940000Y-102870000D02*
X149860000Y-106680000D01*
X146050000Y-106680000D01*
X146050000Y-100330000D01*
X154940000Y-100330000D01*
X154940000Y-102870000D01*
G36*
X154940000Y-102870000D02*
G01*
X149860000Y-106680000D01*
X146050000Y-106680000D01*
X146050000Y-100330000D01*
X154940000Y-100330000D01*
X154940000Y-102870000D01*
G37*
X156210000Y-87630000D02*
X151130000Y-87630000D01*
X151130000Y-83820000D01*
X149860000Y-82550000D01*
X146050000Y-82550000D01*
X146050000Y-78740000D01*
X156210000Y-78740000D01*
X156210000Y-87630000D01*
G36*
X156210000Y-87630000D02*
G01*
X151130000Y-87630000D01*
X151130000Y-83820000D01*
X149860000Y-82550000D01*
X146050000Y-82550000D01*
X146050000Y-78740000D01*
X156210000Y-78740000D01*
X156210000Y-87630000D01*
G37*
X144780000Y-93726000D02*
X144018000Y-93726000D01*
X141732000Y-92710000D01*
X141478000Y-92456000D01*
X141478000Y-92202000D01*
X144780000Y-88900000D01*
X144780000Y-93726000D01*
G36*
X144780000Y-93726000D02*
G01*
X144018000Y-93726000D01*
X141732000Y-92710000D01*
X141478000Y-92456000D01*
X141478000Y-92202000D01*
X144780000Y-88900000D01*
X144780000Y-93726000D01*
G37*
X143510000Y-82550000D02*
X139700000Y-82550000D01*
X138430000Y-83820000D01*
X138430000Y-87630000D01*
X133350000Y-87630000D01*
X133350000Y-78740000D01*
X143510000Y-78740000D01*
X143510000Y-82550000D01*
G36*
X143510000Y-82550000D02*
G01*
X139700000Y-82550000D01*
X138430000Y-83820000D01*
X138430000Y-87630000D01*
X133350000Y-87630000D01*
X133350000Y-78740000D01*
X143510000Y-78740000D01*
X143510000Y-82550000D01*
G37*
X148590000Y-85852000D02*
X149606000Y-88138000D01*
X149606000Y-88900000D01*
X144780000Y-88900000D01*
X148082000Y-85598000D01*
X148336000Y-85598000D01*
X148590000Y-85852000D01*
G36*
X148590000Y-85852000D02*
G01*
X149606000Y-88138000D01*
X149606000Y-88900000D01*
X144780000Y-88900000D01*
X148082000Y-85598000D01*
X148336000Y-85598000D01*
X148590000Y-85852000D01*
G37*
D11*
G04 #@! TO.C,J3*
X124460000Y-69850000D03*
D12*
X124460000Y-72390000D03*
X124460000Y-74930000D03*
X124460000Y-77470000D03*
X124460000Y-80010000D03*
X124460000Y-82550000D03*
X124460000Y-85090000D03*
X124460000Y-87630000D03*
X124460000Y-90170000D03*
X124460000Y-92710000D03*
X124460000Y-95250000D03*
X124460000Y-97790000D03*
X124460000Y-100330000D03*
X124460000Y-102870000D03*
X124460000Y-105410000D03*
X124460000Y-107950000D03*
G04 #@! TD*
D11*
G04 #@! TO.C,J2*
X165100000Y-69850000D03*
D12*
X165100000Y-72390000D03*
X165100000Y-74930000D03*
X165100000Y-77470000D03*
X165100000Y-80010000D03*
X165100000Y-82550000D03*
X165100000Y-85090000D03*
X165100000Y-87630000D03*
X165100000Y-90170000D03*
X165100000Y-92710000D03*
X165100000Y-95250000D03*
X165100000Y-97790000D03*
X165100000Y-100330000D03*
X165100000Y-102870000D03*
X165100000Y-105410000D03*
X165100000Y-107950000D03*
G04 #@! TD*
D13*
G04 #@! TO.C,REF\u002A\u002A*
X132380000Y-108900000D03*
X133082944Y-107202944D03*
X133082944Y-110597056D03*
X134780000Y-106500000D03*
D14*
X134780000Y-108900000D03*
D13*
X134780000Y-111300000D03*
X136477056Y-107202944D03*
X136477056Y-110597056D03*
X137180000Y-108900000D03*
G04 #@! TD*
G04 #@! TO.C,REF\u002A\u002A*
X152380000Y-108900000D03*
X153082944Y-107202944D03*
X153082944Y-110597056D03*
X154780000Y-106500000D03*
D14*
X154780000Y-108900000D03*
D13*
X154780000Y-111300000D03*
X156477056Y-107202944D03*
X156477056Y-110597056D03*
X157180000Y-108900000D03*
G04 #@! TD*
G04 #@! TO.C,REF\u002A\u002A*
X152380000Y-68900000D03*
X153082944Y-67202944D03*
X153082944Y-70597056D03*
X154780000Y-66500000D03*
D14*
X154780000Y-68900000D03*
D13*
X154780000Y-71300000D03*
X156477056Y-67202944D03*
X156477056Y-70597056D03*
X157180000Y-68900000D03*
G04 #@! TD*
G04 #@! TO.C,REF\u002A\u002A*
X132380000Y-68900000D03*
X133082944Y-67202944D03*
X133082944Y-70597056D03*
X134780000Y-66500000D03*
D14*
X134780000Y-68900000D03*
D13*
X134780000Y-71300000D03*
X136477056Y-67202944D03*
X136477056Y-70597056D03*
X137180000Y-68900000D03*
G04 #@! TD*
D15*
G04 #@! TO.C,REF\u002A\u002A*
X156210000Y-88900000D03*
D16*
X157510000Y-88900000D03*
G04 #@! TD*
D17*
G04 #@! TO.C,J6*
X141732000Y-90170000D03*
G04 #@! TD*
D11*
G04 #@! TO.C,J4*
X167640000Y-69850000D03*
D12*
X167640000Y-72390000D03*
X167640000Y-74930000D03*
X167640000Y-77470000D03*
X167640000Y-80010000D03*
X167640000Y-82550000D03*
X167640000Y-85090000D03*
X167640000Y-87630000D03*
X167640000Y-90170000D03*
X167640000Y-92710000D03*
X167640000Y-95250000D03*
X167640000Y-97790000D03*
X167640000Y-100330000D03*
X167640000Y-102870000D03*
X167640000Y-105410000D03*
X167640000Y-107950000D03*
G04 #@! TD*
D17*
G04 #@! TO.C,J5*
X143510000Y-91948000D03*
G04 #@! TD*
D11*
G04 #@! TO.C,J1*
X121920000Y-69850000D03*
D12*
X121920000Y-72390000D03*
X121920000Y-74930000D03*
X121920000Y-77470000D03*
X121920000Y-80010000D03*
X121920000Y-82550000D03*
X121920000Y-85090000D03*
X121920000Y-87630000D03*
X121920000Y-90170000D03*
X121920000Y-92710000D03*
X121920000Y-95250000D03*
X121920000Y-97790000D03*
X121920000Y-100330000D03*
X121920000Y-102870000D03*
X121920000Y-105410000D03*
X121920000Y-107950000D03*
G04 #@! TD*
D17*
G04 #@! TO.C,J9*
X141732000Y-87630000D03*
G04 #@! TD*
G04 #@! TO.C,J7*
X147828000Y-90170000D03*
G04 #@! TD*
G04 #@! TO.C,J8*
X146050000Y-91948000D03*
G04 #@! TD*
G04 #@! TO.C,J12*
X147828000Y-87630000D03*
G04 #@! TD*
G04 #@! TO.C,J11*
X146050000Y-85852000D03*
G04 #@! TD*
G04 #@! TO.C,J10*
X143510000Y-85852000D03*
G04 #@! TD*
M02*
