G04 #@! TF.GenerationSoftware,KiCad,Pcbnew,8.0.6*
G04 #@! TF.CreationDate,2025-01-16T18:06:10-08:00*
G04 #@! TF.ProjectId,levitas_daughterboard,6c657669-7461-4735-9f64-617567687465,rev?*
G04 #@! TF.SameCoordinates,Original*
G04 #@! TF.FileFunction,Legend,Top*
G04 #@! TF.FilePolarity,Positive*
%FSLAX46Y46*%
G04 Gerber Fmt 4.6, Leading zero omitted, Abs format (unit mm)*
G04 Created by KiCad (PCBNEW 8.0.6) date 2025-01-16 18:06:10*
%MOMM*%
%LPD*%
G01*
G04 APERTURE LIST*
%ADD10C,0.120000*%
%ADD11C,0.100000*%
%ADD12C,0.150000*%
G04 APERTURE END LIST*
D10*
X144900915Y-109542856D02*
X144514362Y-109575422D01*
X143527982Y-67955413D02*
X141282064Y-64124588D01*
X145290163Y-65269740D02*
X145132072Y-64505530D01*
X144780000Y-64124588D02*
X148277937Y-64124588D01*
X145609473Y-110765189D02*
X144115139Y-111314954D01*
X144588657Y-66511268D02*
X145047540Y-65070949D01*
X145444861Y-66474634D02*
X144659085Y-68246732D01*
X146032018Y-109834175D02*
X148277936Y-113665000D01*
X145858859Y-66150903D02*
X144588657Y-66511268D01*
X144427928Y-113284058D02*
X145036183Y-112789712D01*
X143031031Y-110681816D02*
X144780000Y-107698630D01*
X144780000Y-70090958D02*
X143031032Y-67107773D01*
X143950527Y-67024399D02*
X145444861Y-66474634D01*
X144514362Y-109575422D02*
X143701141Y-111638685D01*
X148277937Y-64124588D02*
X146528969Y-67107772D01*
X145036183Y-112789712D02*
X144701391Y-112766011D01*
X144780000Y-113665000D02*
X141282063Y-113665000D01*
X144780000Y-107698630D02*
X146528968Y-110681815D01*
X143701141Y-111638685D02*
X144971343Y-111278320D01*
X144858609Y-65023577D02*
X143950527Y-67024399D01*
D11*
X143764000Y-99060000D02*
X145796000Y-99060000D01*
D10*
X144115139Y-111314954D02*
X144900915Y-109542856D01*
D11*
X143764000Y-78740000D02*
X145796000Y-78740000D01*
D10*
X145132072Y-64505530D02*
X144523817Y-64999876D01*
X144512460Y-112718639D02*
X144269837Y-112519848D01*
X141282063Y-113665000D02*
X143031031Y-110681816D01*
D11*
X134620000Y-87884000D02*
X134620000Y-89916000D01*
D10*
X148277936Y-113665000D02*
X144780000Y-113665000D01*
D11*
X154940000Y-87884000D02*
X154940000Y-89916000D01*
D10*
X145047540Y-65070949D02*
X145290163Y-65269740D01*
X146528969Y-67107772D02*
X144780000Y-70090958D01*
X144659085Y-68246732D02*
X145045638Y-68214166D01*
D11*
X157480000Y-76200000D02*
X163830000Y-76200000D01*
X163830000Y-101600000D01*
X157480000Y-101600000D01*
X157480000Y-76200000D01*
G36*
X157480000Y-76200000D02*
G01*
X163830000Y-76200000D01*
X163830000Y-101600000D01*
X157480000Y-101600000D01*
X157480000Y-76200000D01*
G37*
D10*
X144523817Y-64999876D02*
X144858609Y-65023577D01*
X141282064Y-64124588D02*
X144780000Y-64124588D01*
X145045638Y-68214166D02*
X145858859Y-66150903D01*
X144269837Y-112519848D02*
X144427928Y-113284058D01*
D11*
X149860000Y-88900000D02*
G75*
G02*
X139700000Y-88900000I-5080000J0D01*
G01*
X139700000Y-88900000D02*
G75*
G02*
X149860000Y-88900000I5080000J0D01*
G01*
D10*
X144701391Y-112766011D02*
X145609473Y-110765189D01*
X144971343Y-111278320D02*
X144512460Y-112718639D01*
D11*
X141049524Y-70307419D02*
X141049524Y-69307419D01*
X141049524Y-69783609D02*
X141620952Y-69783609D01*
X141620952Y-70307419D02*
X141620952Y-69307419D01*
X141954286Y-69307419D02*
X142287619Y-70307419D01*
X142287619Y-70307419D02*
X142620952Y-69307419D01*
X142906667Y-69402657D02*
X142954286Y-69355038D01*
X142954286Y-69355038D02*
X143049524Y-69307419D01*
X143049524Y-69307419D02*
X143287619Y-69307419D01*
X143287619Y-69307419D02*
X143382857Y-69355038D01*
X143382857Y-69355038D02*
X143430476Y-69402657D01*
X143430476Y-69402657D02*
X143478095Y-69497895D01*
X143478095Y-69497895D02*
X143478095Y-69593133D01*
X143478095Y-69593133D02*
X143430476Y-69735990D01*
X143430476Y-69735990D02*
X142859048Y-70307419D01*
X142859048Y-70307419D02*
X143478095Y-70307419D01*
X127303884Y-75387419D02*
X127303884Y-74387419D01*
X127303884Y-74863609D02*
X127875312Y-74863609D01*
X127875312Y-75387419D02*
X127875312Y-74387419D01*
X128208646Y-74387419D02*
X128541979Y-75387419D01*
X128541979Y-75387419D02*
X128875312Y-74387419D01*
X129161027Y-74482657D02*
X129208646Y-74435038D01*
X129208646Y-74435038D02*
X129303884Y-74387419D01*
X129303884Y-74387419D02*
X129541979Y-74387419D01*
X129541979Y-74387419D02*
X129637217Y-74435038D01*
X129637217Y-74435038D02*
X129684836Y-74482657D01*
X129684836Y-74482657D02*
X129732455Y-74577895D01*
X129732455Y-74577895D02*
X129732455Y-74673133D01*
X129732455Y-74673133D02*
X129684836Y-74815990D01*
X129684836Y-74815990D02*
X129113408Y-75387419D01*
X129113408Y-75387419D02*
X129732455Y-75387419D01*
X127256265Y-93119800D02*
X127399122Y-93167419D01*
X127399122Y-93167419D02*
X127637217Y-93167419D01*
X127637217Y-93167419D02*
X127732455Y-93119800D01*
X127732455Y-93119800D02*
X127780074Y-93072180D01*
X127780074Y-93072180D02*
X127827693Y-92976942D01*
X127827693Y-92976942D02*
X127827693Y-92881704D01*
X127827693Y-92881704D02*
X127780074Y-92786466D01*
X127780074Y-92786466D02*
X127732455Y-92738847D01*
X127732455Y-92738847D02*
X127637217Y-92691228D01*
X127637217Y-92691228D02*
X127446741Y-92643609D01*
X127446741Y-92643609D02*
X127351503Y-92595990D01*
X127351503Y-92595990D02*
X127303884Y-92548371D01*
X127303884Y-92548371D02*
X127256265Y-92453133D01*
X127256265Y-92453133D02*
X127256265Y-92357895D01*
X127256265Y-92357895D02*
X127303884Y-92262657D01*
X127303884Y-92262657D02*
X127351503Y-92215038D01*
X127351503Y-92215038D02*
X127446741Y-92167419D01*
X127446741Y-92167419D02*
X127684836Y-92167419D01*
X127684836Y-92167419D02*
X127827693Y-92215038D01*
X128256265Y-93167419D02*
X128256265Y-92167419D01*
X128256265Y-92167419D02*
X128494360Y-92167419D01*
X128494360Y-92167419D02*
X128637217Y-92215038D01*
X128637217Y-92215038D02*
X128732455Y-92310276D01*
X128732455Y-92310276D02*
X128780074Y-92405514D01*
X128780074Y-92405514D02*
X128827693Y-92595990D01*
X128827693Y-92595990D02*
X128827693Y-92738847D01*
X128827693Y-92738847D02*
X128780074Y-92929323D01*
X128780074Y-92929323D02*
X128732455Y-93024561D01*
X128732455Y-93024561D02*
X128637217Y-93119800D01*
X128637217Y-93119800D02*
X128494360Y-93167419D01*
X128494360Y-93167419D02*
X128256265Y-93167419D01*
X129208646Y-92881704D02*
X129684836Y-92881704D01*
X129113408Y-93167419D02*
X129446741Y-92167419D01*
X129446741Y-92167419D02*
X129780074Y-93167419D01*
X130541979Y-92500752D02*
X130541979Y-93167419D01*
X130303884Y-92119800D02*
X130065789Y-92834085D01*
X130065789Y-92834085D02*
X130684836Y-92834085D01*
X127303884Y-82626466D02*
X128065789Y-82626466D01*
X127684836Y-83007419D02*
X127684836Y-82245514D01*
X128494360Y-82102657D02*
X128541979Y-82055038D01*
X128541979Y-82055038D02*
X128637217Y-82007419D01*
X128637217Y-82007419D02*
X128875312Y-82007419D01*
X128875312Y-82007419D02*
X128970550Y-82055038D01*
X128970550Y-82055038D02*
X129018169Y-82102657D01*
X129018169Y-82102657D02*
X129065788Y-82197895D01*
X129065788Y-82197895D02*
X129065788Y-82293133D01*
X129065788Y-82293133D02*
X129018169Y-82435990D01*
X129018169Y-82435990D02*
X128446741Y-83007419D01*
X128446741Y-83007419D02*
X129065788Y-83007419D01*
X129970550Y-82007419D02*
X129494360Y-82007419D01*
X129494360Y-82007419D02*
X129446741Y-82483609D01*
X129446741Y-82483609D02*
X129494360Y-82435990D01*
X129494360Y-82435990D02*
X129589598Y-82388371D01*
X129589598Y-82388371D02*
X129827693Y-82388371D01*
X129827693Y-82388371D02*
X129922931Y-82435990D01*
X129922931Y-82435990D02*
X129970550Y-82483609D01*
X129970550Y-82483609D02*
X130018169Y-82578847D01*
X130018169Y-82578847D02*
X130018169Y-82816942D01*
X130018169Y-82816942D02*
X129970550Y-82912180D01*
X129970550Y-82912180D02*
X129922931Y-82959800D01*
X129922931Y-82959800D02*
X129827693Y-83007419D01*
X129827693Y-83007419D02*
X129589598Y-83007419D01*
X129589598Y-83007419D02*
X129494360Y-82959800D01*
X129494360Y-82959800D02*
X129446741Y-82912180D01*
X130637217Y-82007419D02*
X130732455Y-82007419D01*
X130732455Y-82007419D02*
X130827693Y-82055038D01*
X130827693Y-82055038D02*
X130875312Y-82102657D01*
X130875312Y-82102657D02*
X130922931Y-82197895D01*
X130922931Y-82197895D02*
X130970550Y-82388371D01*
X130970550Y-82388371D02*
X130970550Y-82626466D01*
X130970550Y-82626466D02*
X130922931Y-82816942D01*
X130922931Y-82816942D02*
X130875312Y-82912180D01*
X130875312Y-82912180D02*
X130827693Y-82959800D01*
X130827693Y-82959800D02*
X130732455Y-83007419D01*
X130732455Y-83007419D02*
X130637217Y-83007419D01*
X130637217Y-83007419D02*
X130541979Y-82959800D01*
X130541979Y-82959800D02*
X130494360Y-82912180D01*
X130494360Y-82912180D02*
X130446741Y-82816942D01*
X130446741Y-82816942D02*
X130399122Y-82626466D01*
X130399122Y-82626466D02*
X130399122Y-82388371D01*
X130399122Y-82388371D02*
X130446741Y-82197895D01*
X130446741Y-82197895D02*
X130494360Y-82102657D01*
X130494360Y-82102657D02*
X130541979Y-82055038D01*
X130541979Y-82055038D02*
X130637217Y-82007419D01*
X131256265Y-82007419D02*
X131589598Y-83007419D01*
X131589598Y-83007419D02*
X131922931Y-82007419D01*
X127256265Y-100739800D02*
X127399122Y-100787419D01*
X127399122Y-100787419D02*
X127637217Y-100787419D01*
X127637217Y-100787419D02*
X127732455Y-100739800D01*
X127732455Y-100739800D02*
X127780074Y-100692180D01*
X127780074Y-100692180D02*
X127827693Y-100596942D01*
X127827693Y-100596942D02*
X127827693Y-100501704D01*
X127827693Y-100501704D02*
X127780074Y-100406466D01*
X127780074Y-100406466D02*
X127732455Y-100358847D01*
X127732455Y-100358847D02*
X127637217Y-100311228D01*
X127637217Y-100311228D02*
X127446741Y-100263609D01*
X127446741Y-100263609D02*
X127351503Y-100215990D01*
X127351503Y-100215990D02*
X127303884Y-100168371D01*
X127303884Y-100168371D02*
X127256265Y-100073133D01*
X127256265Y-100073133D02*
X127256265Y-99977895D01*
X127256265Y-99977895D02*
X127303884Y-99882657D01*
X127303884Y-99882657D02*
X127351503Y-99835038D01*
X127351503Y-99835038D02*
X127446741Y-99787419D01*
X127446741Y-99787419D02*
X127684836Y-99787419D01*
X127684836Y-99787419D02*
X127827693Y-99835038D01*
X128827693Y-100692180D02*
X128780074Y-100739800D01*
X128780074Y-100739800D02*
X128637217Y-100787419D01*
X128637217Y-100787419D02*
X128541979Y-100787419D01*
X128541979Y-100787419D02*
X128399122Y-100739800D01*
X128399122Y-100739800D02*
X128303884Y-100644561D01*
X128303884Y-100644561D02*
X128256265Y-100549323D01*
X128256265Y-100549323D02*
X128208646Y-100358847D01*
X128208646Y-100358847D02*
X128208646Y-100215990D01*
X128208646Y-100215990D02*
X128256265Y-100025514D01*
X128256265Y-100025514D02*
X128303884Y-99930276D01*
X128303884Y-99930276D02*
X128399122Y-99835038D01*
X128399122Y-99835038D02*
X128541979Y-99787419D01*
X128541979Y-99787419D02*
X128637217Y-99787419D01*
X128637217Y-99787419D02*
X128780074Y-99835038D01*
X128780074Y-99835038D02*
X128827693Y-99882657D01*
X129732455Y-100787419D02*
X129256265Y-100787419D01*
X129256265Y-100787419D02*
X129256265Y-99787419D01*
X130018170Y-99882657D02*
X130065789Y-99835038D01*
X130065789Y-99835038D02*
X130161027Y-99787419D01*
X130161027Y-99787419D02*
X130399122Y-99787419D01*
X130399122Y-99787419D02*
X130494360Y-99835038D01*
X130494360Y-99835038D02*
X130541979Y-99882657D01*
X130541979Y-99882657D02*
X130589598Y-99977895D01*
X130589598Y-99977895D02*
X130589598Y-100073133D01*
X130589598Y-100073133D02*
X130541979Y-100215990D01*
X130541979Y-100215990D02*
X129970551Y-100787419D01*
X129970551Y-100787419D02*
X130589598Y-100787419D01*
X127256265Y-98199800D02*
X127399122Y-98247419D01*
X127399122Y-98247419D02*
X127637217Y-98247419D01*
X127637217Y-98247419D02*
X127732455Y-98199800D01*
X127732455Y-98199800D02*
X127780074Y-98152180D01*
X127780074Y-98152180D02*
X127827693Y-98056942D01*
X127827693Y-98056942D02*
X127827693Y-97961704D01*
X127827693Y-97961704D02*
X127780074Y-97866466D01*
X127780074Y-97866466D02*
X127732455Y-97818847D01*
X127732455Y-97818847D02*
X127637217Y-97771228D01*
X127637217Y-97771228D02*
X127446741Y-97723609D01*
X127446741Y-97723609D02*
X127351503Y-97675990D01*
X127351503Y-97675990D02*
X127303884Y-97628371D01*
X127303884Y-97628371D02*
X127256265Y-97533133D01*
X127256265Y-97533133D02*
X127256265Y-97437895D01*
X127256265Y-97437895D02*
X127303884Y-97342657D01*
X127303884Y-97342657D02*
X127351503Y-97295038D01*
X127351503Y-97295038D02*
X127446741Y-97247419D01*
X127446741Y-97247419D02*
X127684836Y-97247419D01*
X127684836Y-97247419D02*
X127827693Y-97295038D01*
X128256265Y-98247419D02*
X128256265Y-97247419D01*
X128256265Y-97247419D02*
X128494360Y-97247419D01*
X128494360Y-97247419D02*
X128637217Y-97295038D01*
X128637217Y-97295038D02*
X128732455Y-97390276D01*
X128732455Y-97390276D02*
X128780074Y-97485514D01*
X128780074Y-97485514D02*
X128827693Y-97675990D01*
X128827693Y-97675990D02*
X128827693Y-97818847D01*
X128827693Y-97818847D02*
X128780074Y-98009323D01*
X128780074Y-98009323D02*
X128732455Y-98104561D01*
X128732455Y-98104561D02*
X128637217Y-98199800D01*
X128637217Y-98199800D02*
X128494360Y-98247419D01*
X128494360Y-98247419D02*
X128256265Y-98247419D01*
X129208646Y-97961704D02*
X129684836Y-97961704D01*
X129113408Y-98247419D02*
X129446741Y-97247419D01*
X129446741Y-97247419D02*
X129780074Y-98247419D01*
X130018170Y-97247419D02*
X130637217Y-97247419D01*
X130637217Y-97247419D02*
X130303884Y-97628371D01*
X130303884Y-97628371D02*
X130446741Y-97628371D01*
X130446741Y-97628371D02*
X130541979Y-97675990D01*
X130541979Y-97675990D02*
X130589598Y-97723609D01*
X130589598Y-97723609D02*
X130637217Y-97818847D01*
X130637217Y-97818847D02*
X130637217Y-98056942D01*
X130637217Y-98056942D02*
X130589598Y-98152180D01*
X130589598Y-98152180D02*
X130541979Y-98199800D01*
X130541979Y-98199800D02*
X130446741Y-98247419D01*
X130446741Y-98247419D02*
X130161027Y-98247419D01*
X130161027Y-98247419D02*
X130065789Y-98199800D01*
X130065789Y-98199800D02*
X130018170Y-98152180D01*
X146129524Y-108407419D02*
X146129524Y-107407419D01*
X146129524Y-107883609D02*
X146700952Y-107883609D01*
X146700952Y-108407419D02*
X146700952Y-107407419D01*
X147034286Y-107407419D02*
X147367619Y-108407419D01*
X147367619Y-108407419D02*
X147700952Y-107407419D01*
X148462857Y-107740752D02*
X148462857Y-108407419D01*
X148224762Y-107359800D02*
X147986667Y-108074085D01*
X147986667Y-108074085D02*
X148605714Y-108074085D01*
X127256265Y-103279800D02*
X127399122Y-103327419D01*
X127399122Y-103327419D02*
X127637217Y-103327419D01*
X127637217Y-103327419D02*
X127732455Y-103279800D01*
X127732455Y-103279800D02*
X127780074Y-103232180D01*
X127780074Y-103232180D02*
X127827693Y-103136942D01*
X127827693Y-103136942D02*
X127827693Y-103041704D01*
X127827693Y-103041704D02*
X127780074Y-102946466D01*
X127780074Y-102946466D02*
X127732455Y-102898847D01*
X127732455Y-102898847D02*
X127637217Y-102851228D01*
X127637217Y-102851228D02*
X127446741Y-102803609D01*
X127446741Y-102803609D02*
X127351503Y-102755990D01*
X127351503Y-102755990D02*
X127303884Y-102708371D01*
X127303884Y-102708371D02*
X127256265Y-102613133D01*
X127256265Y-102613133D02*
X127256265Y-102517895D01*
X127256265Y-102517895D02*
X127303884Y-102422657D01*
X127303884Y-102422657D02*
X127351503Y-102375038D01*
X127351503Y-102375038D02*
X127446741Y-102327419D01*
X127446741Y-102327419D02*
X127684836Y-102327419D01*
X127684836Y-102327419D02*
X127827693Y-102375038D01*
X128256265Y-103327419D02*
X128256265Y-102327419D01*
X128256265Y-102327419D02*
X128494360Y-102327419D01*
X128494360Y-102327419D02*
X128637217Y-102375038D01*
X128637217Y-102375038D02*
X128732455Y-102470276D01*
X128732455Y-102470276D02*
X128780074Y-102565514D01*
X128780074Y-102565514D02*
X128827693Y-102755990D01*
X128827693Y-102755990D02*
X128827693Y-102898847D01*
X128827693Y-102898847D02*
X128780074Y-103089323D01*
X128780074Y-103089323D02*
X128732455Y-103184561D01*
X128732455Y-103184561D02*
X128637217Y-103279800D01*
X128637217Y-103279800D02*
X128494360Y-103327419D01*
X128494360Y-103327419D02*
X128256265Y-103327419D01*
X129208646Y-103041704D02*
X129684836Y-103041704D01*
X129113408Y-103327419D02*
X129446741Y-102327419D01*
X129446741Y-102327419D02*
X129780074Y-103327419D01*
X130065789Y-102422657D02*
X130113408Y-102375038D01*
X130113408Y-102375038D02*
X130208646Y-102327419D01*
X130208646Y-102327419D02*
X130446741Y-102327419D01*
X130446741Y-102327419D02*
X130541979Y-102375038D01*
X130541979Y-102375038D02*
X130589598Y-102422657D01*
X130589598Y-102422657D02*
X130637217Y-102517895D01*
X130637217Y-102517895D02*
X130637217Y-102613133D01*
X130637217Y-102613133D02*
X130589598Y-102755990D01*
X130589598Y-102755990D02*
X130018170Y-103327419D01*
X130018170Y-103327419D02*
X130637217Y-103327419D01*
X127827693Y-69355038D02*
X127732455Y-69307419D01*
X127732455Y-69307419D02*
X127589598Y-69307419D01*
X127589598Y-69307419D02*
X127446741Y-69355038D01*
X127446741Y-69355038D02*
X127351503Y-69450276D01*
X127351503Y-69450276D02*
X127303884Y-69545514D01*
X127303884Y-69545514D02*
X127256265Y-69735990D01*
X127256265Y-69735990D02*
X127256265Y-69878847D01*
X127256265Y-69878847D02*
X127303884Y-70069323D01*
X127303884Y-70069323D02*
X127351503Y-70164561D01*
X127351503Y-70164561D02*
X127446741Y-70259800D01*
X127446741Y-70259800D02*
X127589598Y-70307419D01*
X127589598Y-70307419D02*
X127684836Y-70307419D01*
X127684836Y-70307419D02*
X127827693Y-70259800D01*
X127827693Y-70259800D02*
X127875312Y-70212180D01*
X127875312Y-70212180D02*
X127875312Y-69878847D01*
X127875312Y-69878847D02*
X127684836Y-69878847D01*
X128303884Y-70307419D02*
X128303884Y-69307419D01*
X128303884Y-69307419D02*
X128875312Y-70307419D01*
X128875312Y-70307419D02*
X128875312Y-69307419D01*
X129351503Y-70307419D02*
X129351503Y-69307419D01*
X129351503Y-69307419D02*
X129589598Y-69307419D01*
X129589598Y-69307419D02*
X129732455Y-69355038D01*
X129732455Y-69355038D02*
X129827693Y-69450276D01*
X129827693Y-69450276D02*
X129875312Y-69545514D01*
X129875312Y-69545514D02*
X129922931Y-69735990D01*
X129922931Y-69735990D02*
X129922931Y-69878847D01*
X129922931Y-69878847D02*
X129875312Y-70069323D01*
X129875312Y-70069323D02*
X129827693Y-70164561D01*
X129827693Y-70164561D02*
X129732455Y-70259800D01*
X129732455Y-70259800D02*
X129589598Y-70307419D01*
X129589598Y-70307419D02*
X129351503Y-70307419D01*
X127256265Y-108359800D02*
X127399122Y-108407419D01*
X127399122Y-108407419D02*
X127637217Y-108407419D01*
X127637217Y-108407419D02*
X127732455Y-108359800D01*
X127732455Y-108359800D02*
X127780074Y-108312180D01*
X127780074Y-108312180D02*
X127827693Y-108216942D01*
X127827693Y-108216942D02*
X127827693Y-108121704D01*
X127827693Y-108121704D02*
X127780074Y-108026466D01*
X127780074Y-108026466D02*
X127732455Y-107978847D01*
X127732455Y-107978847D02*
X127637217Y-107931228D01*
X127637217Y-107931228D02*
X127446741Y-107883609D01*
X127446741Y-107883609D02*
X127351503Y-107835990D01*
X127351503Y-107835990D02*
X127303884Y-107788371D01*
X127303884Y-107788371D02*
X127256265Y-107693133D01*
X127256265Y-107693133D02*
X127256265Y-107597895D01*
X127256265Y-107597895D02*
X127303884Y-107502657D01*
X127303884Y-107502657D02*
X127351503Y-107455038D01*
X127351503Y-107455038D02*
X127446741Y-107407419D01*
X127446741Y-107407419D02*
X127684836Y-107407419D01*
X127684836Y-107407419D02*
X127827693Y-107455038D01*
X128256265Y-108407419D02*
X128256265Y-107407419D01*
X128256265Y-107407419D02*
X128494360Y-107407419D01*
X128494360Y-107407419D02*
X128637217Y-107455038D01*
X128637217Y-107455038D02*
X128732455Y-107550276D01*
X128732455Y-107550276D02*
X128780074Y-107645514D01*
X128780074Y-107645514D02*
X128827693Y-107835990D01*
X128827693Y-107835990D02*
X128827693Y-107978847D01*
X128827693Y-107978847D02*
X128780074Y-108169323D01*
X128780074Y-108169323D02*
X128732455Y-108264561D01*
X128732455Y-108264561D02*
X128637217Y-108359800D01*
X128637217Y-108359800D02*
X128494360Y-108407419D01*
X128494360Y-108407419D02*
X128256265Y-108407419D01*
X129208646Y-108121704D02*
X129684836Y-108121704D01*
X129113408Y-108407419D02*
X129446741Y-107407419D01*
X129446741Y-107407419D02*
X129780074Y-108407419D01*
X130637217Y-108407419D02*
X130065789Y-108407419D01*
X130351503Y-108407419D02*
X130351503Y-107407419D01*
X130351503Y-107407419D02*
X130256265Y-107550276D01*
X130256265Y-107550276D02*
X130161027Y-107645514D01*
X130161027Y-107645514D02*
X130065789Y-107693133D01*
X127256265Y-90579800D02*
X127399122Y-90627419D01*
X127399122Y-90627419D02*
X127637217Y-90627419D01*
X127637217Y-90627419D02*
X127732455Y-90579800D01*
X127732455Y-90579800D02*
X127780074Y-90532180D01*
X127780074Y-90532180D02*
X127827693Y-90436942D01*
X127827693Y-90436942D02*
X127827693Y-90341704D01*
X127827693Y-90341704D02*
X127780074Y-90246466D01*
X127780074Y-90246466D02*
X127732455Y-90198847D01*
X127732455Y-90198847D02*
X127637217Y-90151228D01*
X127637217Y-90151228D02*
X127446741Y-90103609D01*
X127446741Y-90103609D02*
X127351503Y-90055990D01*
X127351503Y-90055990D02*
X127303884Y-90008371D01*
X127303884Y-90008371D02*
X127256265Y-89913133D01*
X127256265Y-89913133D02*
X127256265Y-89817895D01*
X127256265Y-89817895D02*
X127303884Y-89722657D01*
X127303884Y-89722657D02*
X127351503Y-89675038D01*
X127351503Y-89675038D02*
X127446741Y-89627419D01*
X127446741Y-89627419D02*
X127684836Y-89627419D01*
X127684836Y-89627419D02*
X127827693Y-89675038D01*
X128827693Y-90532180D02*
X128780074Y-90579800D01*
X128780074Y-90579800D02*
X128637217Y-90627419D01*
X128637217Y-90627419D02*
X128541979Y-90627419D01*
X128541979Y-90627419D02*
X128399122Y-90579800D01*
X128399122Y-90579800D02*
X128303884Y-90484561D01*
X128303884Y-90484561D02*
X128256265Y-90389323D01*
X128256265Y-90389323D02*
X128208646Y-90198847D01*
X128208646Y-90198847D02*
X128208646Y-90055990D01*
X128208646Y-90055990D02*
X128256265Y-89865514D01*
X128256265Y-89865514D02*
X128303884Y-89770276D01*
X128303884Y-89770276D02*
X128399122Y-89675038D01*
X128399122Y-89675038D02*
X128541979Y-89627419D01*
X128541979Y-89627419D02*
X128637217Y-89627419D01*
X128637217Y-89627419D02*
X128780074Y-89675038D01*
X128780074Y-89675038D02*
X128827693Y-89722657D01*
X129732455Y-90627419D02*
X129256265Y-90627419D01*
X129256265Y-90627419D02*
X129256265Y-89627419D01*
X130494360Y-89960752D02*
X130494360Y-90627419D01*
X130256265Y-89579800D02*
X130018170Y-90294085D01*
X130018170Y-90294085D02*
X130637217Y-90294085D01*
X127827693Y-87135038D02*
X127732455Y-87087419D01*
X127732455Y-87087419D02*
X127589598Y-87087419D01*
X127589598Y-87087419D02*
X127446741Y-87135038D01*
X127446741Y-87135038D02*
X127351503Y-87230276D01*
X127351503Y-87230276D02*
X127303884Y-87325514D01*
X127303884Y-87325514D02*
X127256265Y-87515990D01*
X127256265Y-87515990D02*
X127256265Y-87658847D01*
X127256265Y-87658847D02*
X127303884Y-87849323D01*
X127303884Y-87849323D02*
X127351503Y-87944561D01*
X127351503Y-87944561D02*
X127446741Y-88039800D01*
X127446741Y-88039800D02*
X127589598Y-88087419D01*
X127589598Y-88087419D02*
X127684836Y-88087419D01*
X127684836Y-88087419D02*
X127827693Y-88039800D01*
X127827693Y-88039800D02*
X127875312Y-87992180D01*
X127875312Y-87992180D02*
X127875312Y-87658847D01*
X127875312Y-87658847D02*
X127684836Y-87658847D01*
X128303884Y-88087419D02*
X128303884Y-87087419D01*
X128303884Y-87087419D02*
X128875312Y-88087419D01*
X128875312Y-88087419D02*
X128875312Y-87087419D01*
X129351503Y-88087419D02*
X129351503Y-87087419D01*
X129351503Y-87087419D02*
X129589598Y-87087419D01*
X129589598Y-87087419D02*
X129732455Y-87135038D01*
X129732455Y-87135038D02*
X129827693Y-87230276D01*
X129827693Y-87230276D02*
X129875312Y-87325514D01*
X129875312Y-87325514D02*
X129922931Y-87515990D01*
X129922931Y-87515990D02*
X129922931Y-87658847D01*
X129922931Y-87658847D02*
X129875312Y-87849323D01*
X129875312Y-87849323D02*
X129827693Y-87944561D01*
X129827693Y-87944561D02*
X129732455Y-88039800D01*
X129732455Y-88039800D02*
X129589598Y-88087419D01*
X129589598Y-88087419D02*
X129351503Y-88087419D01*
X127303884Y-77927419D02*
X127303884Y-76927419D01*
X127303884Y-77403609D02*
X127875312Y-77403609D01*
X127875312Y-77927419D02*
X127875312Y-76927419D01*
X128208646Y-76927419D02*
X128541979Y-77927419D01*
X128541979Y-77927419D02*
X128875312Y-76927419D01*
X129113408Y-76927419D02*
X129732455Y-76927419D01*
X129732455Y-76927419D02*
X129399122Y-77308371D01*
X129399122Y-77308371D02*
X129541979Y-77308371D01*
X129541979Y-77308371D02*
X129637217Y-77355990D01*
X129637217Y-77355990D02*
X129684836Y-77403609D01*
X129684836Y-77403609D02*
X129732455Y-77498847D01*
X129732455Y-77498847D02*
X129732455Y-77736942D01*
X129732455Y-77736942D02*
X129684836Y-77832180D01*
X129684836Y-77832180D02*
X129637217Y-77879800D01*
X129637217Y-77879800D02*
X129541979Y-77927419D01*
X129541979Y-77927419D02*
X129256265Y-77927419D01*
X129256265Y-77927419D02*
X129161027Y-77879800D01*
X129161027Y-77879800D02*
X129113408Y-77832180D01*
X127256265Y-95659800D02*
X127399122Y-95707419D01*
X127399122Y-95707419D02*
X127637217Y-95707419D01*
X127637217Y-95707419D02*
X127732455Y-95659800D01*
X127732455Y-95659800D02*
X127780074Y-95612180D01*
X127780074Y-95612180D02*
X127827693Y-95516942D01*
X127827693Y-95516942D02*
X127827693Y-95421704D01*
X127827693Y-95421704D02*
X127780074Y-95326466D01*
X127780074Y-95326466D02*
X127732455Y-95278847D01*
X127732455Y-95278847D02*
X127637217Y-95231228D01*
X127637217Y-95231228D02*
X127446741Y-95183609D01*
X127446741Y-95183609D02*
X127351503Y-95135990D01*
X127351503Y-95135990D02*
X127303884Y-95088371D01*
X127303884Y-95088371D02*
X127256265Y-94993133D01*
X127256265Y-94993133D02*
X127256265Y-94897895D01*
X127256265Y-94897895D02*
X127303884Y-94802657D01*
X127303884Y-94802657D02*
X127351503Y-94755038D01*
X127351503Y-94755038D02*
X127446741Y-94707419D01*
X127446741Y-94707419D02*
X127684836Y-94707419D01*
X127684836Y-94707419D02*
X127827693Y-94755038D01*
X128827693Y-95612180D02*
X128780074Y-95659800D01*
X128780074Y-95659800D02*
X128637217Y-95707419D01*
X128637217Y-95707419D02*
X128541979Y-95707419D01*
X128541979Y-95707419D02*
X128399122Y-95659800D01*
X128399122Y-95659800D02*
X128303884Y-95564561D01*
X128303884Y-95564561D02*
X128256265Y-95469323D01*
X128256265Y-95469323D02*
X128208646Y-95278847D01*
X128208646Y-95278847D02*
X128208646Y-95135990D01*
X128208646Y-95135990D02*
X128256265Y-94945514D01*
X128256265Y-94945514D02*
X128303884Y-94850276D01*
X128303884Y-94850276D02*
X128399122Y-94755038D01*
X128399122Y-94755038D02*
X128541979Y-94707419D01*
X128541979Y-94707419D02*
X128637217Y-94707419D01*
X128637217Y-94707419D02*
X128780074Y-94755038D01*
X128780074Y-94755038D02*
X128827693Y-94802657D01*
X129732455Y-95707419D02*
X129256265Y-95707419D01*
X129256265Y-95707419D02*
X129256265Y-94707419D01*
X129970551Y-94707419D02*
X130589598Y-94707419D01*
X130589598Y-94707419D02*
X130256265Y-95088371D01*
X130256265Y-95088371D02*
X130399122Y-95088371D01*
X130399122Y-95088371D02*
X130494360Y-95135990D01*
X130494360Y-95135990D02*
X130541979Y-95183609D01*
X130541979Y-95183609D02*
X130589598Y-95278847D01*
X130589598Y-95278847D02*
X130589598Y-95516942D01*
X130589598Y-95516942D02*
X130541979Y-95612180D01*
X130541979Y-95612180D02*
X130494360Y-95659800D01*
X130494360Y-95659800D02*
X130399122Y-95707419D01*
X130399122Y-95707419D02*
X130113408Y-95707419D01*
X130113408Y-95707419D02*
X130018170Y-95659800D01*
X130018170Y-95659800D02*
X129970551Y-95612180D01*
X127303884Y-80467419D02*
X127303884Y-79467419D01*
X127303884Y-79943609D02*
X127875312Y-79943609D01*
X127875312Y-80467419D02*
X127875312Y-79467419D01*
X128208646Y-79467419D02*
X128541979Y-80467419D01*
X128541979Y-80467419D02*
X128875312Y-79467419D01*
X129637217Y-79800752D02*
X129637217Y-80467419D01*
X129399122Y-79419800D02*
X129161027Y-80134085D01*
X129161027Y-80134085D02*
X129780074Y-80134085D01*
X146764524Y-70307419D02*
X146764524Y-69307419D01*
X146764524Y-69783609D02*
X147335952Y-69783609D01*
X147335952Y-70307419D02*
X147335952Y-69307419D01*
X147669286Y-69307419D02*
X148002619Y-70307419D01*
X148002619Y-70307419D02*
X148335952Y-69307419D01*
X149193095Y-70307419D02*
X148621667Y-70307419D01*
X148907381Y-70307419D02*
X148907381Y-69307419D01*
X148907381Y-69307419D02*
X148812143Y-69450276D01*
X148812143Y-69450276D02*
X148716905Y-69545514D01*
X148716905Y-69545514D02*
X148621667Y-69593133D01*
X141049524Y-108407419D02*
X141049524Y-107407419D01*
X141049524Y-107883609D02*
X141620952Y-107883609D01*
X141620952Y-108407419D02*
X141620952Y-107407419D01*
X141954286Y-107407419D02*
X142287619Y-108407419D01*
X142287619Y-108407419D02*
X142620952Y-107407419D01*
X142859048Y-107407419D02*
X143478095Y-107407419D01*
X143478095Y-107407419D02*
X143144762Y-107788371D01*
X143144762Y-107788371D02*
X143287619Y-107788371D01*
X143287619Y-107788371D02*
X143382857Y-107835990D01*
X143382857Y-107835990D02*
X143430476Y-107883609D01*
X143430476Y-107883609D02*
X143478095Y-107978847D01*
X143478095Y-107978847D02*
X143478095Y-108216942D01*
X143478095Y-108216942D02*
X143430476Y-108312180D01*
X143430476Y-108312180D02*
X143382857Y-108359800D01*
X143382857Y-108359800D02*
X143287619Y-108407419D01*
X143287619Y-108407419D02*
X143001905Y-108407419D01*
X143001905Y-108407419D02*
X142906667Y-108359800D01*
X142906667Y-108359800D02*
X142859048Y-108312180D01*
X127256265Y-105819800D02*
X127399122Y-105867419D01*
X127399122Y-105867419D02*
X127637217Y-105867419D01*
X127637217Y-105867419D02*
X127732455Y-105819800D01*
X127732455Y-105819800D02*
X127780074Y-105772180D01*
X127780074Y-105772180D02*
X127827693Y-105676942D01*
X127827693Y-105676942D02*
X127827693Y-105581704D01*
X127827693Y-105581704D02*
X127780074Y-105486466D01*
X127780074Y-105486466D02*
X127732455Y-105438847D01*
X127732455Y-105438847D02*
X127637217Y-105391228D01*
X127637217Y-105391228D02*
X127446741Y-105343609D01*
X127446741Y-105343609D02*
X127351503Y-105295990D01*
X127351503Y-105295990D02*
X127303884Y-105248371D01*
X127303884Y-105248371D02*
X127256265Y-105153133D01*
X127256265Y-105153133D02*
X127256265Y-105057895D01*
X127256265Y-105057895D02*
X127303884Y-104962657D01*
X127303884Y-104962657D02*
X127351503Y-104915038D01*
X127351503Y-104915038D02*
X127446741Y-104867419D01*
X127446741Y-104867419D02*
X127684836Y-104867419D01*
X127684836Y-104867419D02*
X127827693Y-104915038D01*
X128827693Y-105772180D02*
X128780074Y-105819800D01*
X128780074Y-105819800D02*
X128637217Y-105867419D01*
X128637217Y-105867419D02*
X128541979Y-105867419D01*
X128541979Y-105867419D02*
X128399122Y-105819800D01*
X128399122Y-105819800D02*
X128303884Y-105724561D01*
X128303884Y-105724561D02*
X128256265Y-105629323D01*
X128256265Y-105629323D02*
X128208646Y-105438847D01*
X128208646Y-105438847D02*
X128208646Y-105295990D01*
X128208646Y-105295990D02*
X128256265Y-105105514D01*
X128256265Y-105105514D02*
X128303884Y-105010276D01*
X128303884Y-105010276D02*
X128399122Y-104915038D01*
X128399122Y-104915038D02*
X128541979Y-104867419D01*
X128541979Y-104867419D02*
X128637217Y-104867419D01*
X128637217Y-104867419D02*
X128780074Y-104915038D01*
X128780074Y-104915038D02*
X128827693Y-104962657D01*
X129732455Y-105867419D02*
X129256265Y-105867419D01*
X129256265Y-105867419D02*
X129256265Y-104867419D01*
X130589598Y-105867419D02*
X130018170Y-105867419D01*
X130303884Y-105867419D02*
X130303884Y-104867419D01*
X130303884Y-104867419D02*
X130208646Y-105010276D01*
X130208646Y-105010276D02*
X130113408Y-105105514D01*
X130113408Y-105105514D02*
X130018170Y-105153133D01*
X127303884Y-85166466D02*
X128065789Y-85166466D01*
X127684836Y-85547419D02*
X127684836Y-84785514D01*
X128446741Y-84547419D02*
X129065788Y-84547419D01*
X129065788Y-84547419D02*
X128732455Y-84928371D01*
X128732455Y-84928371D02*
X128875312Y-84928371D01*
X128875312Y-84928371D02*
X128970550Y-84975990D01*
X128970550Y-84975990D02*
X129018169Y-85023609D01*
X129018169Y-85023609D02*
X129065788Y-85118847D01*
X129065788Y-85118847D02*
X129065788Y-85356942D01*
X129065788Y-85356942D02*
X129018169Y-85452180D01*
X129018169Y-85452180D02*
X128970550Y-85499800D01*
X128970550Y-85499800D02*
X128875312Y-85547419D01*
X128875312Y-85547419D02*
X128589598Y-85547419D01*
X128589598Y-85547419D02*
X128494360Y-85499800D01*
X128494360Y-85499800D02*
X128446741Y-85452180D01*
X129494360Y-85452180D02*
X129541979Y-85499800D01*
X129541979Y-85499800D02*
X129494360Y-85547419D01*
X129494360Y-85547419D02*
X129446741Y-85499800D01*
X129446741Y-85499800D02*
X129494360Y-85452180D01*
X129494360Y-85452180D02*
X129494360Y-85547419D01*
X129875312Y-84547419D02*
X130494359Y-84547419D01*
X130494359Y-84547419D02*
X130161026Y-84928371D01*
X130161026Y-84928371D02*
X130303883Y-84928371D01*
X130303883Y-84928371D02*
X130399121Y-84975990D01*
X130399121Y-84975990D02*
X130446740Y-85023609D01*
X130446740Y-85023609D02*
X130494359Y-85118847D01*
X130494359Y-85118847D02*
X130494359Y-85356942D01*
X130494359Y-85356942D02*
X130446740Y-85452180D01*
X130446740Y-85452180D02*
X130399121Y-85499800D01*
X130399121Y-85499800D02*
X130303883Y-85547419D01*
X130303883Y-85547419D02*
X130018169Y-85547419D01*
X130018169Y-85547419D02*
X129922931Y-85499800D01*
X129922931Y-85499800D02*
X129875312Y-85452180D01*
X130780074Y-84547419D02*
X131113407Y-85547419D01*
X131113407Y-85547419D02*
X131446740Y-84547419D01*
X127303884Y-72847419D02*
X127303884Y-71847419D01*
X127303884Y-72323609D02*
X127875312Y-72323609D01*
X127875312Y-72847419D02*
X127875312Y-71847419D01*
X128208646Y-71847419D02*
X128541979Y-72847419D01*
X128541979Y-72847419D02*
X128875312Y-71847419D01*
X129732455Y-72847419D02*
X129161027Y-72847419D01*
X129446741Y-72847419D02*
X129446741Y-71847419D01*
X129446741Y-71847419D02*
X129351503Y-71990276D01*
X129351503Y-71990276D02*
X129256265Y-72085514D01*
X129256265Y-72085514D02*
X129161027Y-72133133D01*
D12*
X164766666Y-66974819D02*
X164766666Y-67689104D01*
X164766666Y-67689104D02*
X164719047Y-67831961D01*
X164719047Y-67831961D02*
X164623809Y-67927200D01*
X164623809Y-67927200D02*
X164480952Y-67974819D01*
X164480952Y-67974819D02*
X164385714Y-67974819D01*
X165195238Y-67070057D02*
X165242857Y-67022438D01*
X165242857Y-67022438D02*
X165338095Y-66974819D01*
X165338095Y-66974819D02*
X165576190Y-66974819D01*
X165576190Y-66974819D02*
X165671428Y-67022438D01*
X165671428Y-67022438D02*
X165719047Y-67070057D01*
X165719047Y-67070057D02*
X165766666Y-67165295D01*
X165766666Y-67165295D02*
X165766666Y-67260533D01*
X165766666Y-67260533D02*
X165719047Y-67403390D01*
X165719047Y-67403390D02*
X165147619Y-67974819D01*
X165147619Y-67974819D02*
X165766666Y-67974819D01*
X124126666Y-66974819D02*
X124126666Y-67689104D01*
X124126666Y-67689104D02*
X124079047Y-67831961D01*
X124079047Y-67831961D02*
X123983809Y-67927200D01*
X123983809Y-67927200D02*
X123840952Y-67974819D01*
X123840952Y-67974819D02*
X123745714Y-67974819D01*
X125126666Y-67974819D02*
X124555238Y-67974819D01*
X124840952Y-67974819D02*
X124840952Y-66974819D01*
X124840952Y-66974819D02*
X124745714Y-67117676D01*
X124745714Y-67117676D02*
X124650476Y-67212914D01*
X124650476Y-67212914D02*
X124555238Y-67260533D01*
D10*
G04 #@! TO.C,J3*
X123130000Y-68520000D02*
X124460000Y-68520000D01*
X123130000Y-69850000D02*
X123130000Y-68520000D01*
X123130000Y-71120000D02*
X123130000Y-109280000D01*
X123130000Y-71120000D02*
X125790000Y-71120000D01*
X123130000Y-109280000D02*
X125790000Y-109280000D01*
X125790000Y-71120000D02*
X125790000Y-109280000D01*
G04 #@! TO.C,J2*
X163770000Y-68520000D02*
X165100000Y-68520000D01*
X163770000Y-69850000D02*
X163770000Y-68520000D01*
X163770000Y-71120000D02*
X163770000Y-109280000D01*
X163770000Y-71120000D02*
X166430000Y-71120000D01*
X163770000Y-109280000D02*
X166430000Y-109280000D01*
X166430000Y-71120000D02*
X166430000Y-109280000D01*
G04 #@! TO.C,REF\u002A\u002A*
X155460000Y-89200000D02*
X155460000Y-88600000D01*
X156160000Y-87900000D02*
X157560000Y-87900000D01*
X157560000Y-89900000D02*
X156160000Y-89900000D01*
X158260000Y-88600000D02*
X158260000Y-89200000D01*
X155460000Y-88600000D02*
G75*
G02*
X156160000Y-87900000I699999J1D01*
G01*
X156160000Y-89900000D02*
G75*
G02*
X155460000Y-89200000I-1J699999D01*
G01*
X157560000Y-87900000D02*
G75*
G02*
X158260000Y-88600000I0J-700000D01*
G01*
X158260000Y-89200000D02*
G75*
G02*
X157560000Y-89900000I-700000J0D01*
G01*
G04 #@! TO.C,J4*
X166310000Y-68520000D02*
X167640000Y-68520000D01*
X166310000Y-69850000D02*
X166310000Y-68520000D01*
X166310000Y-71120000D02*
X166310000Y-109280000D01*
X166310000Y-71120000D02*
X168970000Y-71120000D01*
X166310000Y-109280000D02*
X168970000Y-109280000D01*
X168970000Y-71120000D02*
X168970000Y-109280000D01*
G04 #@! TO.C,J1*
X120590000Y-68520000D02*
X121920000Y-68520000D01*
X120590000Y-69850000D02*
X120590000Y-68520000D01*
X120590000Y-71120000D02*
X120590000Y-109280000D01*
X120590000Y-71120000D02*
X123250000Y-71120000D01*
X120590000Y-109280000D02*
X123250000Y-109280000D01*
X123250000Y-71120000D02*
X123250000Y-109280000D01*
G04 #@! TD*
M02*
